<svg xmlns="http://www.w3.org/2000/svg" xmlns:xlink="http://www.w3.org/1999/xlink" width="1080" zoomAndPan="magnify" viewBox="0 0 810 809.999993" height="1080" preserveAspectRatio="xMidYMid meet" version="1.0"><defs><g/><clipPath id="aef5e72d03"><path d="M 0 4.757812 L 810 4.757812 L 810 805.242188 L 0 805.242188 Z M 0 4.757812 " clip-rule="nonzero"/></clipPath><clipPath id="ca7f896d8e"><path d="M 809.984375 79.753906 L 809.984375 730.246094 C 809.984375 750.136719 802.082031 769.210938 788.015625 783.277344 C 773.953125 797.339844 754.875 805.242188 734.984375 805.242188 L 75 805.242188 C 55.109375 805.242188 36.03125 797.339844 21.964844 783.277344 C 7.902344 769.210938 0 750.136719 0 730.246094 L 0 79.753906 C 0 59.863281 7.902344 40.789062 21.964844 26.722656 C 36.03125 12.660156 55.109375 4.757812 75 4.757812 L 734.984375 4.757812 C 754.875 4.757812 773.953125 12.660156 788.015625 26.722656 C 802.082031 40.789062 809.984375 59.863281 809.984375 79.753906 Z M 809.984375 79.753906 " clip-rule="nonzero"/></clipPath><clipPath id="a48ee2f3fa"><path d="M 0 0.757812 L 810 0.757812 L 810 801.242188 L 0 801.242188 Z M 0 0.757812 " clip-rule="nonzero"/></clipPath><clipPath id="de9453baf6"><path d="M 809.984375 75.753906 L 809.984375 726.246094 C 809.984375 746.136719 802.082031 765.210938 788.015625 779.277344 C 773.953125 793.339844 754.875 801.242188 734.984375 801.242188 L 75 801.242188 C 55.109375 801.242188 36.03125 793.339844 21.964844 779.277344 C 7.902344 765.210938 0 746.136719 0 726.246094 L 0 75.753906 C 0 55.863281 7.902344 36.789062 21.964844 22.722656 C 36.03125 8.660156 55.109375 0.757812 75 0.757812 L 734.984375 0.757812 C 754.875 0.757812 773.953125 8.660156 788.015625 22.722656 C 802.082031 36.789062 809.984375 55.863281 809.984375 75.753906 Z M 809.984375 75.753906 " clip-rule="nonzero"/></clipPath><clipPath id="fa091295a5"><rect x="0" width="810" y="0" height="802"/></clipPath><clipPath id="726c5f8b63"><path d="M 0.0078125 4.757812 L 810 4.757812 L 810 805.007812 L 0.0078125 805.007812 Z M 0.0078125 4.757812 " clip-rule="nonzero"/></clipPath><clipPath id="1d44402ed3"><path d="M 809.992188 79.753906 L 809.992188 730.242188 C 809.992188 750.132812 802.089844 769.210938 788.023438 783.273438 C 773.960938 797.339844 754.882812 805.242188 734.992188 805.242188 L 75.007812 805.242188 C 55.117188 805.242188 36.039062 797.339844 21.976562 783.273438 C 7.910156 769.210938 0.0078125 750.132812 0.0078125 730.242188 L 0.0078125 79.753906 C 0.0078125 59.863281 7.910156 40.789062 21.976562 26.722656 C 36.039062 12.660156 55.117188 4.757812 75.007812 4.757812 L 734.992188 4.757812 C 754.882812 4.757812 773.960938 12.660156 788.023438 26.722656 C 802.089844 40.789062 809.992188 59.863281 809.992188 79.753906 Z M 809.992188 79.753906 " clip-rule="nonzero"/></clipPath><clipPath id="8c3d3a3342"><path d="M 153.816406 155 L 483.816406 155 L 483.816406 625.28125 L 153.816406 625.28125 Z M 153.816406 155 " clip-rule="nonzero"/></clipPath><clipPath id="255c6280a0"><path d="M 1 0.0390625 L 330.640625 0.0390625 L 330.640625 470 L 1 470 Z M 1 0.0390625 " clip-rule="nonzero"/></clipPath><clipPath id="e52fde9e13"><rect x="0" width="331" y="0" height="471"/></clipPath><clipPath id="dc785e2069"><rect x="0" width="641" y="0" height="810"/></clipPath></defs><g clip-path="url(#aef5e72d03)"><g clip-path="url(#ca7f896d8e)"><g transform="matrix(1, 0, 0, 1, 0, 4)"><g clip-path="url(#fa091295a5)"><g clip-path="url(#a48ee2f3fa)"><g clip-path="url(#de9453baf6)"><path fill="#0d4715" d="M 0 0.757812 L 809.867188 0.757812 L 809.867188 801.242188 L 0 801.242188 Z M 0 0.757812 " fill-opacity="1" fill-rule="nonzero"/></g></g></g></g></g></g><g clip-path="url(#726c5f8b63)"><g clip-path="url(#1d44402ed3)"><path stroke-linecap="butt" transform="matrix(0.75, 0, 0, 0.75, 0.00000349911, 4.7572)" fill="none" stroke-linejoin="miter" d="M 1079.989564 99.995607 L 1079.989564 967.313303 C 1079.989564 993.834136 1069.453106 1019.271636 1050.697898 1038.021636 C 1031.947898 1056.776844 1006.510398 1067.313302 979.989565 1067.313302 L 100.010411 1067.313302 C 73.489578 1067.313302 48.052078 1056.776844 29.302078 1038.021636 C 10.54687 1019.271636 0.010412 993.834136 0.010412 967.313303 L 0.010412 99.995607 C 0.010412 73.474774 10.54687 48.042482 29.302078 29.287274 C 48.052078 10.537275 73.489578 0.000816452 100.010411 0.000816452 L 979.989565 0.000816452 C 1006.510398 0.000816452 1031.947898 10.537275 1050.697898 29.287274 C 1069.453106 48.042482 1079.989564 73.474774 1079.989564 99.995607 Z M 1079.989564 99.995607 " stroke="#f1f0e9" stroke-width="76" stroke-opacity="1" stroke-miterlimit="4"/></g></g><g clip-path="url(#8c3d3a3342)"><g transform="matrix(1, 0, 0, 1, 153, 155)"><g clip-path="url(#e52fde9e13)"><g clip-path="url(#255c6280a0)"><path fill="#f1f0e9" d="M 92.097656 293.066406 C 91.925781 293.238281 91.925781 293.578125 91.757812 293.746094 M 90.398438 296.800781 C 89.382812 299.007812 88.023438 301.042969 86.667969 303.246094 C 86.328125 303.585938 86.15625 303.925781 85.648438 304.265625 C 84.292969 305.285156 82.933594 306.300781 81.578125 307.148438 C 92.265625 325.984375 104.992188 343.289062 119.410156 358.898438 C 107.367188 339.554688 97.355469 319.027344 89.890625 297.480469 C 90.058594 297.140625 90.230469 296.96875 90.398438 296.800781 Z M 91.078125 295.273438 C 90.910156 295.78125 90.570312 296.292969 90.398438 296.632812 C 90.570312 296.121094 90.910156 295.78125 91.078125 295.273438 Z M 91.417969 294.59375 C 91.246094 294.765625 91.246094 295.105469 91.078125 295.273438 C 91.246094 294.933594 91.246094 294.765625 91.417969 294.59375 Z M 91.757812 293.746094 C 91.585938 293.917969 91.585938 294.253906 91.417969 294.425781 C 91.417969 294.253906 91.585938 294.085938 91.757812 293.746094 Z M 92.265625 292.390625 C 92.097656 292.730469 92.097656 292.898438 91.925781 293.066406 C 92.097656 292.898438 92.265625 292.730469 92.265625 292.390625 Z M 92.605469 291.710938 C 92.605469 291.878906 92.433594 292.21875 92.265625 292.390625 C 92.433594 292.050781 92.433594 291.878906 92.605469 291.710938 Z M 94.640625 265.753906 C 94.640625 265.921875 94.8125 266.089844 94.8125 266.261719 M 94.132812 263.546875 C 94.132812 263.714844 94.132812 263.886719 94.300781 264.054688 M 94.8125 266.429688 C 96.507812 275.082031 95.660156 283.398438 92.605469 291.710938 L 92.773438 291.371094 C 102.617188 321.230469 117.375 350.074219 137.226562 376.542969 C 148.425781 386.722656 160.300781 396.054688 173.023438 404.367188 C 164.542969 395.882812 156.398438 386.722656 148.761719 377.050781 C 122.296875 343.289062 104.480469 305.625 94.8125 266.429688 Z M 94.300781 264.054688 C 94.472656 264.566406 94.472656 265.242188 94.640625 265.753906 C 94.640625 265.242188 94.472656 264.734375 94.300781 264.054688 Z M 91.246094 249.296875 C 90.910156 250.820312 90.570312 252.179688 90.230469 253.707031 C 90.738281 254.046875 91.078125 254.722656 91.417969 255.402344 C 92.605469 258.117188 93.453125 260.832031 94.300781 263.546875 C 94.132812 263.207031 94.132812 262.699219 93.960938 262.359375 C 92.773438 257.949219 91.925781 253.707031 91.246094 249.296875 Z M 76.488281 92.355469 Z M 74.960938 91.507812 C 74.960938 91.507812 75.128906 91.507812 75.128906 91.507812 C 74.960938 91.679688 74.960938 91.679688 74.960938 91.507812 Z M 90.738281 169.722656 C 85.140625 143.257812 80.558594 126.460938 76.828125 119.503906 C 76.828125 119.503906 76.828125 119.503906 76.65625 119.332031 L 76.65625 119.503906 C 78.351562 111.867188 78.523438 103.722656 78.015625 95.75 C 77.84375 94.5625 77.335938 93.542969 76.65625 92.695312 C 76.488281 89.640625 75.640625 86.25 73.433594 82.347656 C 79.710938 90.832031 84.292969 100.5 86.835938 111.527344 C 94.472656 120.691406 99.390625 128.664062 102.105469 135.621094 C 97.695312 122.046875 93.625 113.394531 89.722656 109.664062 C 87.175781 96.089844 86.667969 82.347656 88.195312 68.433594 C 99.902344 84.550781 107.195312 97.957031 110.25 108.644531 C 104.820312 89.304688 99.902344 77.765625 95.660156 73.863281 C 99.730469 59.273438 99.222656 51.128906 94.132812 49.601562 C 100.238281 48.921875 107.195312 61.308594 115 86.25 C 110.929688 68.605469 107.027344 57.40625 103.632812 52.316406 C 103.125 46.378906 104.652344 38.742188 107.875 29.75 C 115.339844 48.753906 121.277344 59.273438 125.519531 61.308594 C 120.089844 51.636719 117.714844 45.019531 118.394531 41.628906 C 116.527344 36.878906 118.054688 28.394531 123.144531 15.839844 C 126.027344 21.777344 130.269531 28.054688 135.699219 34.671875 C 138.582031 39.253906 140.109375 42.984375 139.769531 45.699219 C 141.636719 39.421875 140.621094 33.824219 136.886719 28.5625 C 135.53125 18.722656 146.21875 10.75 169.121094 4.8125 C 162.507812 12.953125 160.132812 18.554688 161.65625 21.777344 C 162.167969 31.449219 160.808594 36.707031 157.417969 37.386719 L 149.441406 41.96875 C 154.703125 42.304688 162.167969 37.894531 171.667969 28.5625 C 162.675781 52.488281 149.441406 64.703125 131.628906 65.378906 C 138.414062 67.585938 147.914062 64.703125 160.132812 57.066406 C 150.121094 78.273438 136.039062 90.320312 118.054688 93.207031 C 127.726562 93.882812 138.246094 89.304688 149.273438 79.292969 C 139.433594 92.1875 135.53125 100.160156 137.734375 103.214844 C 121.449219 108.644531 111.605469 115.261719 108.042969 122.894531 C 115.339844 113.902344 129.761719 106.949219 151.140625 101.859375 C 137.90625 123.746094 122.125 136.808594 103.464844 141.050781 C 116.359375 140.203125 127.894531 134.433594 137.566406 124.253906 C 129.421875 148.855469 115 163.953125 93.960938 169.382812 C 104.140625 169.042969 116.359375 164.464844 130.949219 155.640625 C 120.261719 178.035156 105.5 192.457031 87.007812 198.734375 C 100.917969 195.683594 111.097656 189.742188 117.714844 181.089844 C 117.546875 197.207031 110.25 209.761719 96 218.753906 C 93.285156 219.433594 90.398438 219.945312 87.175781 219.945312 C 87.34375 221.300781 87.34375 222.488281 87.515625 223.84375 L 87.683594 223.84375 C 86.667969 224.015625 85.648438 224.695312 84.96875 225.710938 C 87.175781 216.550781 87.515625 206.710938 86.328125 196.53125 C 86.15625 195.511719 85.648438 194.492188 84.96875 193.644531 C 87.175781 186.519531 88.703125 179.222656 89.550781 171.757812 C 89.722656 169.894531 88.871094 168.195312 87.175781 167.179688 C 85.480469 166.160156 83.613281 166.328125 82.085938 167.519531 C 80.050781 169.042969 77.84375 170.742188 75.640625 172.609375 C 75.46875 171.082031 75.640625 169.042969 75.640625 168.195312 C 75.976562 162.9375 77.164062 157.507812 78.355469 152.417969 C 78.691406 150.550781 78.015625 148.683594 76.488281 147.496094 C 77.503906 143.257812 78.355469 138.675781 78.691406 134.09375 C 85.140625 150.042969 89.042969 161.75 90.738281 169.722656 Z M 26.605469 292.730469 C 38.992188 302.058594 52.394531 307.320312 66.816406 308.507812 L 66.984375 308.507812 C 94.472656 358.898438 136.886719 402.160156 191.6875 430.835938 C 235.292969 453.570312 281.777344 464.765625 327.757812 465.277344 L 330.640625 469.855469 C 322.496094 469.855469 314.183594 469.515625 306.039062 468.839844 C 265.152344 465.445312 225.621094 453.90625 189.3125 434.90625 C 136.378906 407.25 92.945312 365.003906 63.933594 312.917969 C 49.171875 311.390625 35.597656 305.621094 23.722656 296.460938 C 22.195312 295.273438 21.515625 293.578125 22.027344 291.710938 C 22.363281 289.84375 23.722656 288.488281 25.589844 288.148438 L 33.054688 286.621094 C 23.550781 277.289062 15.578125 265.921875 13.371094 252.519531 C 13.035156 250.820312 13.710938 249.125 15.070312 248.105469 C 15.917969 247.429688 16.9375 247.089844 18.125 247.089844 C 12.863281 237.078125 10.65625 225.035156 9.808594 214.003906 C 9.640625 212.140625 10.65625 210.273438 12.355469 209.425781 C 12.695312 209.253906 12.863281 209.253906 13.203125 209.085938 C 12.183594 206.199219 11.507812 203.316406 10.828125 200.433594 C 9.46875 195.171875 7.773438 191.949219 3.363281 188.726562 C 1.496094 187.367188 0.816406 184.484375 2.175781 182.449219 C 3.53125 180.410156 6.246094 179.734375 8.28125 180.921875 C 11.167969 182.617188 14.050781 184.3125 16.765625 186.351562 C 13.882812 180.410156 11.335938 174.132812 9.300781 167.6875 C 8.621094 165.820312 9.132812 163.953125 10.65625 162.597656 C 12.183594 161.410156 14.222656 161.238281 15.917969 162.089844 L 16.9375 162.597656 C 16.257812 159.714844 15.578125 156.828125 14.390625 154.453125 C 14.050781 153.945312 12.863281 151.230469 12.015625 151.230469 C 9.808594 151.570312 7.773438 150.210938 6.925781 148.175781 C 6.246094 145.96875 7.09375 143.765625 8.960938 142.578125 C 10.65625 141.558594 12.523438 141.21875 14.390625 141.390625 C 12.355469 135.453125 11.507812 129.003906 10.996094 123.234375 C 10.828125 121.371094 11.847656 119.503906 13.710938 118.65625 C 15.410156 117.804688 17.613281 118.144531 18.972656 119.503906 L 21.347656 121.707031 C 19.820312 115.601562 19.3125 108.8125 19.140625 104.0625 C 19.140625 102.199219 20.160156 100.5 21.855469 99.652344 C 23.550781 98.804688 25.417969 98.972656 26.945312 100.332031 C 29.660156 102.535156 32.542969 104.574219 35.597656 106.4375 C 33.222656 92.867188 49.339844 78.785156 58.503906 71.488281 C 60.03125 70.132812 62.234375 70.132812 63.933594 71.148438 C 65.628906 72.335938 66.476562 74.371094 65.96875 76.238281 C 65.121094 79.460938 64.273438 83.195312 64.273438 86.589844 C 64.273438 87.265625 64.273438 89.472656 64.78125 90.152344 C 65.289062 90.492188 65.628906 91 65.96875 91.507812 C 66.816406 93.035156 67.664062 94.730469 68.511719 96.769531 C 69.023438 95.75 69.363281 94.730469 69.53125 94.054688 C 70.039062 92.695312 71.058594 91.679688 72.414062 91.339844 C 72.074219 89.132812 71.398438 86.929688 70.039062 84.382812 C 68.851562 82.175781 69.53125 79.460938 71.566406 78.105469 C 73.601562 76.75 76.316406 77.257812 77.84375 79.292969 C 79.878906 82.007812 81.746094 84.722656 83.273438 87.605469 C 83.105469 80.988281 83.273438 74.203125 83.953125 67.585938 C 84.121094 65.550781 85.480469 64.023438 87.34375 63.515625 C 89.210938 63.003906 91.246094 63.683594 92.265625 65.378906 L 92.945312 66.398438 C 93.625 63.515625 93.960938 60.628906 93.960938 57.914062 C 93.960938 57.238281 93.792969 54.351562 93.113281 53.84375 C 90.910156 53.164062 89.550781 51.128906 89.722656 48.921875 C 90.058594 46.71875 91.585938 45.019531 93.960938 44.683594 C 96 44.511719 97.863281 45.019531 99.390625 45.871094 C 99.902344 39.761719 101.765625 33.484375 103.804688 27.886719 C 104.480469 26.019531 106.179688 24.832031 108.042969 24.832031 C 110.082031 24.832031 111.777344 25.847656 112.457031 27.714844 L 113.644531 30.769531 C 114.660156 24.660156 117.035156 18.382812 118.902344 13.804688 C 119.582031 12.105469 121.109375 10.917969 123.144531 10.917969 C 125.011719 10.917969 126.707031 11.9375 127.386719 13.464844 C 128.914062 16.519531 130.777344 19.570312 132.644531 22.625 C 136.039062 9.5625 156.566406 3.285156 167.765625 0.398438 C 169.800781 -0.109375 171.835938 0.570312 172.855469 2.4375 C 174.042969 4.132812 173.875 6.339844 172.515625 7.863281 C 170.480469 10.410156 168.105469 13.464844 166.746094 16.519531 C 166.410156 17.195312 165.558594 19.234375 165.730469 19.910156 C 166.070312 20.421875 166.238281 20.929688 166.238281 21.609375 C 166.410156 23.304688 166.410156 25.339844 166.410156 27.375 C 167.257812 26.527344 167.933594 25.847656 168.613281 25.339844 C 170.140625 23.8125 172.515625 23.644531 174.382812 24.832031 C 176.25 26.019531 177.097656 28.222656 176.25 30.261719 C 173.023438 38.742188 168.953125 47.058594 163.355469 53.84375 C 164.882812 55.199219 165.390625 57.40625 164.371094 59.273438 C 161.320312 65.71875 157.585938 71.828125 153.34375 77.257812 C 154.363281 78.785156 154.191406 80.820312 153.003906 82.515625 C 149.78125 86.589844 146.558594 91.167969 144.011719 95.75 C 143.671875 96.429688 142.65625 98.296875 142.148438 99.820312 C 144.859375 98.972656 147.574219 98.464844 150.121094 97.785156 C 151.988281 97.445312 153.851562 98.125 155.039062 99.652344 C 156.058594 101.179688 156.230469 103.046875 155.210938 104.742188 C 151.308594 111.191406 147.066406 117.296875 142.148438 122.726562 C 142.484375 123.746094 142.484375 124.761719 142.148438 125.949219 C 138.921875 135.621094 134.679688 144.445312 128.914062 151.910156 C 130.609375 150.890625 132.816406 151.058594 134.34375 152.585938 C 135.867188 153.945312 136.378906 156.148438 135.359375 158.015625 C 131.628906 165.652344 127.214844 172.945312 122.125 179.394531 C 122.296875 180.074219 122.464844 180.582031 122.464844 181.429688 C 122.296875 199.582031 113.8125 213.496094 98.542969 222.996094 C 98.035156 223.335938 97.695312 223.507812 97.355469 223.507812 C 95.660156 223.84375 94.132812 224.355469 92.433594 224.523438 C 92.433594 225.035156 92.605469 225.542969 92.605469 226.050781 C 93.285156 226.898438 93.625 227.746094 93.453125 228.933594 C 93.453125 230.125 93.285156 231.3125 93.285156 232.5 C 99.730469 284.246094 120.089844 332.9375 152.328125 374.167969 C 164.371094 389.605469 177.945312 403.6875 192.875 416.242188 C 194.402344 417.089844 196.097656 417.941406 197.796875 418.789062 C 231.898438 436.601562 269.054688 447.460938 307.566406 450.683594 C 311.300781 451.023438 315.203125 451.195312 318.933594 451.363281 L 321.988281 456.113281 C 279.234375 454.757812 236.140625 444.066406 195.589844 422.859375 C 142.824219 395.203125 101.9375 353.808594 75.300781 305.285156 C 78.183594 303.925781 80.558594 302.230469 82.765625 300.53125 C 92.097656 286.449219 93.625 272.03125 87.175781 257.269531 C 84.800781 267.957031 78.015625 277.460938 66.476562 285.941406 C 80.898438 272.539062 88.195312 253.535156 88.703125 228.597656 C 79.03125 242.679688 69.699219 252.007812 60.539062 256.25 C 77.503906 242.507812 84.460938 222.828125 81.746094 197.207031 C 76.996094 210.613281 69.023438 220.453125 57.484375 226.558594 C 72.753906 215.023438 81.917969 196.699219 84.800781 171.25 C 67.324219 184.652344 56.976562 196.871094 54.089844 208.066406 C 54.089844 199.582031 60.539062 189.574219 73.09375 177.867188 C 69.871094 176 70.039062 167.007812 73.773438 151.398438 C 67.835938 165.140625 60.199219 173.625 51.039062 177.019531 C 66.308594 167.007812 74.113281 150.042969 74.453125 126.628906 C 66.476562 138.675781 59.011719 145.121094 51.886719 145.96875 C 67.835938 137.996094 74.960938 121.371094 73.261719 95.921875 C 68.34375 108.304688 63.421875 115.429688 58.503906 117.296875 L 63.933594 109.832031 C 66.648438 107.796875 65.796875 102.367188 61.386719 93.882812 C 58.503906 91.679688 58.503906 85.402344 61.21875 75.390625 C 42.894531 90.152344 36.277344 101.859375 41.707031 110.339844 C 47.136719 113.566406 50.527344 118.316406 51.378906 124.761719 C 50.527344 122.046875 47.8125 119.332031 43.0625 116.449219 C 35.257812 112.714844 28.8125 108.644531 23.890625 104.402344 C 24.402344 117.804688 26.4375 126.289062 30.167969 129.683594 C 31.015625 133.074219 35.9375 138.164062 44.929688 144.78125 C 40.179688 144.78125 30.507812 137.488281 15.917969 123.234375 C 16.597656 132.90625 18.460938 140.371094 21.347656 145.632812 C 26.605469 148.855469 34.582031 157.507812 45.609375 171.929688 C 28.132812 152.417969 16.765625 144.105469 11.507812 147.15625 C 16.765625 146.480469 20.5 153.605469 22.875 168.535156 C 28.304688 170.230469 37.464844 178.886719 50.359375 194.15625 C 43.234375 185.671875 31.015625 176.507812 13.710938 166.667969 C 18.125 180.074219 24.230469 192.289062 32.035156 203.65625 C 37.125 205.523438 44.589844 211.628906 54.089844 222.320312 C 48.832031 217.058594 41.027344 211.96875 30.339844 206.710938 C 23.382812 197.71875 15.238281 190.761719 6.078125 185.5 C 19.820312 195.511719 12.183594 206.878906 24.230469 218.078125 C 30.507812 222.828125 41.535156 236.230469 57.484375 258.117188 C 50.527344 248.617188 36.105469 234.023438 14.222656 214.34375 C 15.410156 231.648438 19.648438 244.375 26.945312 252.6875 C 34.410156 254.894531 44.421875 262.1875 56.976562 274.234375 C 49.851562 267.789062 36.785156 260.492188 17.785156 252.347656 C 19.820312 265.074219 28.132812 277.460938 42.722656 289.84375 Z M 26.605469 292.730469 " fill-opacity="1" fill-rule="evenodd"/></g></g></g></g><g transform="matrix(1, 0, 0, 1, 85, 0.000000000000039746)"><g clip-path="url(#dc785e2069)"><g fill="#ffffff" fill-opacity="1"><g transform="translate(272.574619, 669.798695)"><g><path d="M 136.921875 -423.84375 C 140.347656 -416.476562 143.082031 -408.316406 145.125 -399.359375 C 147.164062 -390.410156 147.867188 -381.539062 147.234375 -372.75 C 146.609375 -363.957031 144.269531 -355.789062 140.21875 -348.25 C 136.175781 -340.707031 129.695312 -334.863281 120.78125 -330.71875 C 107.207031 -324.40625 95.992188 -322.140625 87.140625 -323.921875 C 78.296875 -325.703125 70.800781 -329.644531 64.65625 -335.75 C 58.507812 -341.863281 53.398438 -349.046875 49.328125 -357.296875 C 45.265625 -365.546875 41.328125 -373.265625 37.515625 -380.453125 C 33.703125 -387.640625 29.597656 -393.160156 25.203125 -397.015625 C 20.816406 -400.867188 15.132812 -401.175781 8.15625 -397.9375 C 0.394531 -394.332031 -5.082031 -388.363281 -8.28125 -380.03125 C -11.488281 -371.695312 -13.148438 -362.078125 -13.265625 -351.171875 C -13.390625 -340.273438 -12.289062 -328.523438 -9.96875 -315.921875 C -7.644531 -303.316406 -4.785156 -291.082031 -1.390625 -279.21875 C 2.003906 -267.351562 5.613281 -256.289062 9.4375 -246.03125 C 13.257812 -235.78125 16.613281 -227.550781 19.5 -221.34375 C 23.28125 -213.207031 28.078125 -203.648438 33.890625 -192.671875 C 39.703125 -181.691406 46.550781 -171.78125 54.4375 -162.9375 C 62.320312 -154.101562 71.035156 -147.539062 80.578125 -143.25 C 90.117188 -138.957031 100.710938 -139.519531 112.359375 -144.9375 C 120.109375 -148.539062 127.21875 -153.023438 133.6875 -158.390625 C 140.15625 -163.753906 146.488281 -169.410156 152.6875 -175.359375 C 158.882812 -181.304688 165.3125 -187.007812 171.96875 -192.46875 C 178.632812 -197.925781 185.84375 -202.457031 193.59375 -206.0625 C 202.519531 -210.21875 211.5625 -210.054688 220.71875 -205.578125 C 229.875 -201.109375 236.523438 -194.414062 240.671875 -185.5 C 246.441406 -173.082031 247.925781 -159.738281 245.125 -145.46875 C 242.332031 -131.195312 237.109375 -117.328125 229.453125 -103.859375 C 221.796875 -90.390625 212.359375 -78.21875 201.140625 -67.34375 C 189.921875 -56.476562 178.882812 -48.519531 168.03125 -43.46875 C 140.09375 -30.476562 113.492188 -25.773438 88.234375 -29.359375 C 62.984375 -32.941406 39.703125 -41.925781 18.390625 -56.3125 C -2.917969 -70.695312 -21.921875 -88.984375 -38.609375 -111.171875 C -55.296875 -133.367188 -69.320312 -156.691406 -80.6875 -181.140625 C -88.257812 -197.421875 -95.003906 -215.976562 -100.921875 -236.8125 C -106.835938 -257.65625 -111.242188 -279.316406 -114.140625 -301.796875 C -117.046875 -324.285156 -117.984375 -346.851562 -116.953125 -369.5 C -115.929688 -392.144531 -112.265625 -413.425781 -105.953125 -433.34375 C -99.648438 -453.257812 -90.429688 -471.226562 -78.296875 -487.25 C -66.171875 -503.269531 -50.410156 -515.789062 -31.015625 -524.8125 C -12.015625 -533.644531 6.09375 -536.28125 23.3125 -532.71875 C 40.539062 -529.164062 56.414062 -521.914062 70.9375 -510.96875 C 85.457031 -500.03125 98.28125 -486.648438 109.40625 -470.828125 C 120.539062 -455.015625 129.710938 -439.351562 136.921875 -423.84375 Z M 136.921875 -423.84375 "/></g></g></g></g></g></svg>