<svg xmlns="http://www.w3.org/2000/svg" xmlns:xlink="http://www.w3.org/1999/xlink" width="1080" zoomAndPan="magnify" viewBox="0 0 810 809.999993" height="1080" preserveAspectRatio="xMidYMid meet" version="1.0"><defs><clipPath id="1765f1fc42"><path d="M 0 10.125 L 810 10.125 L 810 696 L 0 696 Z M 0 10.125 " clip-rule="nonzero"/></clipPath></defs><path fill="#dfdccb" d="M 410.179688 655.257812 L 410.179688 760.898438 C 410.179688 784.492188 434.796875 799.875 456.335938 790.644531 C 526.078125 758.847656 621.464844 701.414062 702.492188 601.925781 C 741.464844 553.71875 769.160156 506.539062 787.621094 465.511719 C 661.464844 529.105469 536.335938 591.667969 410.179688 655.257812 Z M 410.179688 655.257812 " fill-opacity="1" fill-rule="nonzero"/><g clip-path="url(#1765f1fc42)"><path fill="#dfdccb" d="M 405.054688 10.125 C 181.460938 10.125 0.949219 162.945312 0.949219 352.691406 C 0.949219 541.410156 181.460938 695.257812 405.054688 695.257812 C 628.644531 695.257812 809.160156 542.4375 809.160156 352.691406 C 809.160156 163.972656 628.644531 10.125 405.054688 10.125 Z M 207.101562 433.71875 C 174.28125 433.71875 147.617188 407.050781 147.617188 374.230469 C 147.617188 341.410156 174.28125 314.742188 207.101562 314.742188 C 239.921875 314.742188 266.589844 341.410156 266.589844 374.230469 C 266.589844 407.050781 239.921875 433.71875 207.101562 433.71875 Z M 405.054688 433.71875 C 372.234375 433.71875 345.566406 407.050781 345.566406 374.230469 C 345.566406 341.410156 372.234375 314.742188 405.054688 314.742188 C 437.875 314.742188 464.542969 341.410156 464.542969 374.230469 C 465.566406 407.050781 438.898438 433.71875 405.054688 433.71875 Z M 604.03125 433.71875 C 571.210938 433.71875 544.542969 407.050781 544.542969 374.230469 C 544.542969 341.410156 571.210938 314.742188 604.03125 314.742188 C 636.851562 314.742188 663.515625 341.410156 663.515625 374.230469 C 663.515625 407.050781 636.851562 433.71875 604.03125 433.71875 Z M 604.03125 433.71875 " fill-opacity="1" fill-rule="nonzero"/></g></svg>