<svg xmlns="http://www.w3.org/2000/svg" xmlns:xlink="http://www.w3.org/1999/xlink" width="851" zoomAndPan="magnify" viewBox="0 0 638.25 236.249991" height="315" preserveAspectRatio="xMidYMid meet" version="1.0"><defs><g/><clipPath id="3aae65ccc6"><path d="M 161.632812 42.691406 L 193 42.691406 L 193 76 L 161.632812 76 Z M 161.632812 42.691406 " clip-rule="nonzero"/></clipPath><clipPath id="2588c0f05e"><path d="M 175 134 L 207 134 L 207 175.019531 L 175 175.019531 Z M 175 134 " clip-rule="nonzero"/></clipPath><clipPath id="3b5ef8d548"><path d="M 187 42.691406 L 224.433594 42.691406 L 224.433594 94 L 187 94 Z M 187 42.691406 " clip-rule="nonzero"/></clipPath><clipPath id="fdf7d4e93a"><path d="M 307 65 L 314 65 L 314 75.121094 L 307 75.121094 Z M 307 65 " clip-rule="nonzero"/></clipPath><clipPath id="d6ff9407c9"><path d="M 307 27.269531 L 315 27.269531 L 315 37 L 307 37 Z M 307 27.269531 " clip-rule="nonzero"/></clipPath><clipPath id="2e5fdaa283"><path d="M 325 47 L 334.457031 47 L 334.457031 55 L 325 55 Z M 325 47 " clip-rule="nonzero"/></clipPath><clipPath id="736fdae780"><path d="M 287.359375 48 L 297 48 L 297 55 L 287.359375 55 Z M 287.359375 48 " clip-rule="nonzero"/></clipPath><clipPath id="dd5732779f"><path d="M 0.636719 0 L 166 0 L 166 219 L 0.636719 219 Z M 0.636719 0 " clip-rule="nonzero"/></clipPath><clipPath id="aa6783db23"><rect x="0" width="166" y="0" height="219"/></clipPath><clipPath id="638a615eeb"><path d="M 218 0 L 636.867188 0 L 636.867188 219 L 218 219 Z M 218 0 " clip-rule="nonzero"/></clipPath><clipPath id="4342061b12"><path d="M 0.105469 39 L 73 39 L 73 173 L 0.105469 173 Z M 0.105469 39 " clip-rule="nonzero"/></clipPath><clipPath id="9144b92b37"><rect x="0" width="419" y="0" height="219"/></clipPath></defs><path fill="#f1f0e9" d="M 188.355469 136.6875 C 188.40625 136.695312 188.460938 136.703125 188.511719 136.710938 C 188.585938 136.722656 188.65625 136.734375 188.730469 136.75 C 188.78125 136.757812 188.832031 136.769531 188.886719 136.777344 C 188.957031 136.792969 189.03125 136.808594 189.101562 136.824219 C 189.152344 136.835938 189.203125 136.847656 189.253906 136.859375 C 189.328125 136.878906 189.402344 136.898438 189.472656 136.917969 C 189.519531 136.933594 189.566406 136.945312 189.613281 136.957031 C 189.695312 136.980469 189.773438 137.007812 189.851562 137.03125 C 189.890625 137.046875 189.933594 137.058594 189.972656 137.070312 C 190.082031 137.109375 190.1875 137.148438 190.296875 137.1875 C 190.304688 137.191406 190.3125 137.195312 190.320312 137.199219 C 190.4375 137.242188 190.550781 137.289062 190.664062 137.339844 C 190.699219 137.355469 190.734375 137.375 190.769531 137.390625 C 190.847656 137.425781 190.925781 137.460938 191.003906 137.496094 C 191.046875 137.519531 191.089844 137.539062 191.128906 137.5625 C 191.199219 137.597656 191.265625 137.632812 191.332031 137.667969 C 191.378906 137.691406 191.421875 137.71875 191.46875 137.742188 C 191.53125 137.78125 191.59375 137.816406 191.65625 137.855469 C 191.703125 137.882812 191.746094 137.910156 191.792969 137.9375 C 191.851562 137.976562 191.914062 138.015625 191.976562 138.054688 C 192.019531 138.082031 192.0625 138.113281 192.105469 138.144531 C 192.167969 138.183594 192.226562 138.226562 192.285156 138.269531 C 192.328125 138.300781 192.371094 138.332031 192.414062 138.363281 C 192.472656 138.40625 192.53125 138.453125 192.589844 138.5 C 192.628906 138.53125 192.671875 138.5625 192.710938 138.59375 C 192.773438 138.648438 192.835938 138.699219 192.898438 138.753906 C 192.929688 138.78125 192.964844 138.8125 192.996094 138.839844 C 193.085938 138.917969 193.171875 139 193.257812 139.082031 C 193.261719 139.085938 193.269531 139.09375 193.273438 139.097656 C 193.273438 139.097656 193.277344 139.09375 193.277344 139.09375 C 193.40625 139.019531 193.539062 138.945312 193.667969 138.875 C 193.703125 138.859375 193.738281 138.839844 193.773438 138.820312 C 193.898438 138.757812 194.03125 138.691406 194.160156 138.632812 C 194.167969 138.628906 194.171875 138.628906 194.179688 138.625 C 194.28125 138.578125 194.386719 138.53125 194.496094 138.488281 C 193.738281 131.484375 192.769531 121.296875 192.308594 111.390625 C 192.226562 109.75 192.164062 108.097656 192.121094 106.46875 L 186.722656 106.46875 C 186.660156 109.003906 186.640625 111.359375 186.65625 113.644531 C 186.6875 122.570312 187.234375 130.3125 188.273438 136.675781 C 188.300781 136.679688 188.328125 136.683594 188.355469 136.6875 Z M 188.355469 136.6875 " fill-opacity="1" fill-rule="nonzero"/><g clip-path="url(#3aae65ccc6)"><path fill="#f1f0e9" d="M 187.375 75.183594 C 187.425781 74.867188 187.480469 74.546875 187.539062 74.226562 C 187.546875 74.179688 187.554688 74.132812 187.5625 74.085938 C 187.625 73.746094 187.6875 73.410156 187.753906 73.066406 C 187.757812 73.058594 187.757812 73.050781 187.761719 73.042969 C 187.824219 72.730469 187.886719 72.414062 187.957031 72.097656 C 187.996094 71.917969 188.035156 71.738281 188.074219 71.558594 C 188.105469 71.425781 188.132812 71.292969 188.164062 71.160156 C 188.214844 70.945312 188.265625 70.734375 188.316406 70.523438 C 188.335938 70.429688 188.359375 70.335938 188.382812 70.242188 C 188.4375 70.027344 188.488281 69.8125 188.546875 69.601562 L 184.4375 65.519531 L 176.378906 65.519531 C 175.9375 65.519531 175.578125 65.160156 175.578125 64.71875 C 175.578125 64.273438 175.9375 63.914062 176.378906 63.914062 L 182.824219 63.914062 L 177.976562 59.097656 L 169.867188 59.097656 C 169.421875 59.097656 169.0625 58.738281 169.0625 58.296875 C 169.0625 57.855469 169.421875 57.496094 169.867188 57.496094 L 176.359375 57.496094 L 166.40625 47.605469 C 166.09375 47.292969 166.089844 46.785156 166.402344 46.472656 C 166.714844 46.15625 167.222656 46.15625 167.539062 46.46875 L 177.222656 56.089844 L 176.4375 49.773438 C 176.382812 49.335938 176.695312 48.933594 177.132812 48.878906 C 177.570312 48.828125 177.972656 49.136719 178.027344 49.578125 L 179.066406 57.921875 L 183.742188 62.566406 L 182.949219 56.195312 C 182.894531 55.753906 183.207031 55.355469 183.644531 55.300781 C 184.085938 55.246094 184.484375 55.558594 184.539062 55.996094 L 185.585938 64.398438 L 189.035156 67.824219 C 189.71875 65.492188 190.535156 63.296875 191.476562 61.246094 C 191.496094 61.199219 191.519531 61.152344 191.539062 61.109375 C 191.652344 60.863281 191.769531 60.617188 191.886719 60.375 C 191.933594 60.277344 191.984375 60.179688 192.035156 60.078125 C 192.113281 59.917969 192.195312 59.75 192.277344 59.589844 C 191.117188 57.449219 189.789062 55.488281 188.328125 53.761719 C 181.667969 45.90625 173.128906 43.4375 167.140625 42.75 C 166.949219 42.726562 166.753906 42.71875 166.5625 42.71875 C 164.613281 42.71875 162.839844 43.867188 162.042969 45.710938 C 161.539062 46.855469 161.5 48.144531 161.929688 49.339844 C 163.957031 55.011719 167.316406 62.695312 171.773438 67.09375 C 176.238281 71.5 181.902344 73.738281 185.867188 74.84375 C 186.378906 74.984375 186.878906 75.113281 187.367188 75.230469 C 187.367188 75.214844 187.371094 75.199219 187.375 75.183594 Z M 187.375 75.183594 " fill-opacity="1" fill-rule="nonzero"/></g><g clip-path="url(#2588c0f05e)"><path fill="#f1f0e9" d="M 200.492188 139.136719 C 200.359375 139.535156 199.941406 139.765625 199.535156 139.664062 C 198.964844 139.519531 198.386719 139.445312 197.816406 139.445312 C 197.046875 139.445312 196.304688 139.5625 195.609375 139.789062 C 194.90625 140.015625 194.234375 140.351562 193.613281 140.789062 C 193.574219 140.816406 193.535156 140.835938 193.492188 140.855469 C 193.480469 140.863281 193.464844 140.867188 193.453125 140.871094 C 193.421875 140.882812 193.394531 140.894531 193.363281 140.902344 C 193.347656 140.90625 193.332031 140.910156 193.316406 140.914062 C 193.289062 140.921875 193.257812 140.925781 193.230469 140.925781 C 193.214844 140.929688 193.199219 140.929688 193.179688 140.929688 C 193.171875 140.929688 193.164062 140.933594 193.152344 140.933594 C 193.121094 140.933594 193.09375 140.929688 193.0625 140.929688 C 193.058594 140.925781 193.054688 140.925781 193.050781 140.925781 C 193.007812 140.921875 192.96875 140.910156 192.929688 140.902344 C 192.921875 140.898438 192.917969 140.898438 192.914062 140.898438 C 192.875 140.882812 192.835938 140.867188 192.796875 140.847656 C 192.789062 140.84375 192.78125 140.84375 192.773438 140.839844 C 192.738281 140.820312 192.703125 140.796875 192.667969 140.769531 C 192.664062 140.765625 192.65625 140.761719 192.652344 140.757812 C 192.617188 140.726562 192.582031 140.699219 192.550781 140.664062 C 192.472656 140.570312 192.386719 140.480469 192.304688 140.394531 C 192.253906 140.34375 192.199219 140.292969 192.148438 140.242188 C 192.113281 140.210938 192.078125 140.175781 192.042969 140.140625 C 191.992188 140.09375 191.9375 140.046875 191.882812 140 C 191.847656 139.96875 191.8125 139.933594 191.773438 139.902344 C 191.726562 139.863281 191.671875 139.824219 191.621094 139.78125 C 191.582031 139.746094 191.539062 139.710938 191.496094 139.679688 C 191.449219 139.644531 191.402344 139.613281 191.355469 139.578125 C 191.304688 139.542969 191.257812 139.503906 191.207031 139.46875 C 191.160156 139.4375 191.113281 139.410156 191.066406 139.378906 C 191.015625 139.34375 190.960938 139.308594 190.90625 139.277344 C 190.863281 139.25 190.816406 139.222656 190.773438 139.195312 C 190.714844 139.164062 190.660156 139.128906 190.601562 139.097656 C 190.558594 139.074219 190.511719 139.050781 190.46875 139.027344 C 190.40625 138.996094 190.347656 138.964844 190.285156 138.933594 C 190.242188 138.910156 190.195312 138.890625 190.148438 138.871094 C 190.089844 138.84375 190.027344 138.8125 189.964844 138.785156 C 189.917969 138.765625 189.875 138.75 189.828125 138.730469 C 189.765625 138.707031 189.699219 138.679688 189.636719 138.65625 C 189.589844 138.636719 189.542969 138.625 189.496094 138.609375 C 189.433594 138.585938 189.367188 138.5625 189.300781 138.539062 C 189.25 138.523438 189.203125 138.511719 189.152344 138.496094 C 189.089844 138.476562 189.023438 138.457031 188.957031 138.441406 C 188.910156 138.429688 188.859375 138.417969 188.808594 138.40625 C 188.742188 138.390625 188.675781 138.371094 188.609375 138.359375 C 188.558594 138.347656 188.507812 138.339844 188.457031 138.332031 C 188.390625 138.316406 188.324219 138.304688 188.257812 138.292969 C 188.207031 138.285156 188.152344 138.28125 188.097656 138.273438 C 188.03125 138.265625 187.96875 138.253906 187.902344 138.246094 C 187.847656 138.242188 187.792969 138.238281 187.738281 138.234375 C 187.671875 138.226562 187.605469 138.21875 187.539062 138.214844 L 187.472656 138.214844 C 187.355469 138.210938 187.234375 138.203125 187.117188 138.203125 C 185.316406 138.203125 183.589844 138.875 182.257812 140.085938 C 182.011719 140.308594 181.652344 140.359375 181.355469 140.210938 C 180.980469 140.023438 180.582031 139.863281 180.167969 139.742188 C 179.5 139.546875 178.808594 139.445312 178.125 139.445312 C 177.222656 139.445312 176.347656 139.609375 175.515625 139.929688 L 175.515625 159.625 C 175.515625 161.386719 175.816406 163.125 176.390625 164.769531 C 176.714844 165.6875 177.117188 166.570312 177.609375 167.414062 C 178.9375 169.699219 180.839844 171.621094 183.113281 172.976562 C 183.273438 173.074219 183.4375 173.164062 183.597656 173.253906 C 183.660156 173.289062 183.71875 173.320312 183.78125 173.351562 C 183.878906 173.402344 183.976562 173.453125 184.070312 173.503906 C 184.15625 173.546875 184.242188 173.585938 184.328125 173.628906 C 184.40625 173.667969 184.488281 173.707031 184.566406 173.742188 C 184.636719 173.773438 184.710938 173.804688 184.78125 173.839844 C 184.910156 173.894531 185.039062 173.949219 185.164062 174 C 185.289062 174.050781 185.410156 174.101562 185.535156 174.148438 C 185.550781 174.152344 185.5625 174.160156 185.578125 174.164062 C 185.59375 174.167969 185.609375 174.175781 185.625 174.179688 C 185.683594 174.203125 185.742188 174.226562 185.800781 174.246094 C 186.488281 174.492188 187.191406 174.691406 187.90625 174.839844 C 187.917969 174.839844 187.933594 174.84375 187.945312 174.847656 C 187.988281 174.855469 188.03125 174.863281 188.074219 174.871094 C 188.191406 174.894531 188.308594 174.914062 188.425781 174.933594 C 188.441406 174.933594 188.457031 174.9375 188.46875 174.941406 C 188.507812 174.949219 188.546875 174.957031 188.585938 174.960938 C 188.640625 174.972656 188.699219 174.980469 188.753906 174.988281 C 188.78125 174.992188 188.808594 174.996094 188.832031 175 C 188.84375 175 188.859375 175 188.871094 175.003906 C 188.898438 175.007812 188.933594 175.015625 188.964844 175.019531 C 189.109375 175.039062 189.253906 175.054688 189.398438 175.070312 C 189.414062 175.070312 189.425781 175.074219 189.445312 175.074219 C 189.449219 175.074219 189.457031 175.074219 189.464844 175.078125 C 189.515625 175.082031 189.570312 175.085938 189.625 175.09375 C 189.714844 175.101562 189.804688 175.109375 189.894531 175.113281 C 189.964844 175.121094 190.03125 175.125 190.097656 175.128906 C 190.210938 175.136719 190.324219 175.140625 190.441406 175.144531 C 190.453125 175.144531 190.46875 175.148438 190.480469 175.148438 L 190.566406 175.148438 C 190.609375 175.152344 190.652344 175.152344 190.691406 175.152344 C 190.808594 175.15625 190.925781 175.160156 191.042969 175.160156 C 191.710938 175.160156 192.371094 175.117188 193.019531 175.035156 C 200.65625 174.058594 206.578125 167.519531 206.578125 159.625 L 206.578125 134.21875 C 203.78125 134.527344 201.394531 136.425781 200.492188 139.140625 Z M 200.492188 139.136719 " fill-opacity="1" fill-rule="nonzero"/></g><path fill="#f1f0e9" d="M 175.515625 106.46875 L 175.515625 138.234375 C 176.355469 137.976562 177.230469 137.839844 178.125 137.839844 C 178.960938 137.839844 179.800781 137.960938 180.625 138.203125 C 180.953125 138.300781 181.273438 138.417969 181.585938 138.550781 C 183.027344 137.386719 184.789062 136.714844 186.636719 136.613281 C 185.617188 130.230469 185.085938 122.511719 185.050781 113.652344 C 185.035156 111.367188 185.058594 109.007812 185.117188 106.46875 Z M 175.515625 106.46875 " fill-opacity="1" fill-rule="nonzero"/><path fill="#f1f0e9" d="M 193.910156 111.316406 C 194.363281 121.042969 195.308594 131.042969 196.058594 138.015625 C 196.625 137.898438 197.214844 137.839844 197.816406 137.839844 C 198.285156 137.839844 198.753906 137.878906 199.226562 137.960938 C 200.5 134.953125 203.328125 132.898438 206.578125 132.605469 L 206.578125 106.46875 L 193.726562 106.46875 C 193.769531 108.074219 193.832031 109.699219 193.910156 111.316406 Z M 193.910156 111.316406 " fill-opacity="1" fill-rule="nonzero"/><g clip-path="url(#3b5ef8d548)"><path fill="#f1f0e9" d="M 198.632812 75.3125 C 202.328125 74.476562 209.320312 72.296875 214.59375 67.089844 C 219.054688 62.691406 222.410156 55.007812 224.441406 49.335938 C 225.023438 47.714844 224.726562 45.941406 223.65625 44.59375 C 222.585938 43.246094 220.929688 42.554688 219.222656 42.75 C 213.234375 43.4375 204.699219 45.902344 198.035156 53.761719 C 196.386719 55.707031 195.007812 57.832031 193.851562 60.042969 C 193.742188 60.25 193.640625 60.457031 193.535156 60.664062 C 193.492188 60.746094 193.449219 60.832031 193.410156 60.914062 C 193.304688 61.125 193.203125 61.335938 193.105469 61.550781 C 193.0625 61.636719 193.023438 61.71875 192.984375 61.804688 C 192.886719 62.019531 192.789062 62.234375 192.695312 62.449219 C 192.65625 62.539062 192.613281 62.625 192.578125 62.714844 C 192.484375 62.929688 192.390625 63.148438 192.300781 63.371094 C 192.261719 63.457031 192.226562 63.546875 192.1875 63.636719 C 192.09375 63.867188 192 64.105469 191.910156 64.339844 C 191.878906 64.417969 191.847656 64.492188 191.820312 64.570312 C 191.703125 64.875 191.589844 65.183594 191.476562 65.496094 C 191.441406 65.59375 191.410156 65.6875 191.375 65.785156 C 191.300781 66 191.226562 66.214844 191.152344 66.433594 C 191.105469 66.574219 191.0625 66.714844 191.015625 66.855469 C 190.957031 67.03125 190.902344 67.207031 190.84375 67.386719 C 190.796875 67.535156 190.753906 67.683594 190.707031 67.832031 C 190.65625 68.003906 190.601562 68.179688 190.550781 68.355469 C 190.507812 68.503906 190.464844 68.648438 190.425781 68.796875 C 190.371094 68.984375 190.320312 69.171875 190.269531 69.363281 C 190.253906 69.410156 190.242188 69.457031 190.230469 69.503906 C 190.226562 69.523438 190.21875 69.539062 190.214844 69.554688 C 190.199219 69.625 190.179688 69.695312 190.160156 69.761719 C 190.097656 70.003906 190.035156 70.246094 189.972656 70.492188 C 189.953125 70.574219 189.933594 70.652344 189.914062 70.734375 C 189.828125 71.074219 189.75 71.414062 189.671875 71.761719 C 189.664062 71.789062 189.660156 71.820312 189.652344 71.851562 C 189.578125 72.171875 189.507812 72.496094 189.441406 72.824219 C 189.433594 72.871094 189.421875 72.917969 189.414062 72.964844 C 189.191406 74.058594 188.992188 75.175781 188.820312 76.316406 C 188.820312 76.320312 188.816406 76.328125 188.816406 76.332031 C 188.589844 77.835938 188.425781 79.277344 188.308594 80.625 L 187.445312 91.800781 C 187.40625 92.328125 187.371094 92.820312 187.339844 93.292969 L 192.53125 93.292969 C 193.070312 87.949219 193.914062 82.429688 194.199219 80.558594 C 194.238281 80.308594 194.265625 80.121094 194.28125 80.011719 C 194.609375 77.714844 196.359375 75.824219 198.632812 75.3125 Z M 194.945312 71.332031 C 194.632812 71.015625 194.636719 70.507812 194.949219 70.195312 L 200.78125 64.402344 L 201.828125 55.996094 C 201.882812 55.558594 202.28125 55.246094 202.722656 55.300781 C 203.160156 55.355469 203.472656 55.753906 203.417969 56.195312 L 202.625 62.570312 L 207.300781 57.921875 L 208.339844 49.578125 C 208.394531 49.136719 208.796875 48.824219 209.234375 48.878906 C 209.671875 48.933594 209.984375 49.335938 209.929688 49.773438 L 209.144531 56.089844 L 218.828125 46.46875 C 219.144531 46.15625 219.652344 46.160156 219.964844 46.472656 C 220.277344 46.785156 220.273438 47.292969 219.960938 47.605469 L 210.007812 57.496094 L 216.5 57.496094 C 216.945312 57.496094 217.304688 57.855469 217.304688 58.296875 C 217.304688 58.738281 216.945312 59.097656 216.5 59.097656 L 208.394531 59.097656 L 203.546875 63.914062 L 209.988281 63.914062 C 210.429688 63.914062 210.789062 64.273438 210.789062 64.71875 C 210.789062 65.160156 210.429688 65.519531 209.988281 65.519531 L 201.933594 65.519531 L 196.082031 71.332031 C 195.925781 71.488281 195.71875 71.566406 195.515625 71.566406 C 195.308594 71.566406 195.101562 71.488281 194.945312 71.332031 Z M 194.945312 71.332031 " fill-opacity="1" fill-rule="nonzero"/></g><path fill="#f1f0e9" d="M 186.484375 94.894531 L 171.742188 94.894531 C 170.71875 94.894531 169.882812 95.730469 169.882812 96.753906 L 169.882812 103.007812 C 169.882812 104.03125 170.71875 104.863281 171.742188 104.863281 L 185.933594 104.863281 C 185.933594 104.863281 185.9375 104.863281 185.941406 104.863281 L 192.902344 104.863281 C 192.90625 104.863281 192.90625 104.863281 192.910156 104.863281 L 210.351562 104.863281 C 211.375 104.863281 212.207031 104.03125 212.207031 103.007812 L 212.207031 96.753906 C 212.207031 95.730469 211.375 94.894531 210.351562 94.894531 Z M 186.484375 94.894531 " fill-opacity="1" fill-rule="nonzero"/><path fill="#f1f0e9" d="M 322.691406 51.257812 C 322.726562 59.703125 313.921875 65.429688 306.242188 62.078125 C 302.230469 60.375 299.390625 56.375 299.148438 52.011719 C 298.632812 44.871094 304.835938 38.820312 311.96875 39.515625 C 317.992188 40.042969 322.703125 45.144531 322.691406 51.246094 Z M 322.691406 51.257812 " fill-opacity="1" fill-rule="nonzero"/><g clip-path="url(#fdf7d4e93a)"><path fill="#f1f0e9" d="M 310.980469 75.265625 C 310.914062 75.269531 310.792969 75.273438 310.75 75.265625 C 310.730469 75.261719 310.722656 75.261719 310.71875 75.246094 C 310.058594 73.015625 308.039062 66.226562 307.894531 65.738281 C 307.890625 65.730469 307.890625 65.722656 307.898438 65.722656 C 307.910156 65.714844 307.960938 65.71875 308.050781 65.726562 C 308.082031 65.730469 308.117188 65.734375 308.15625 65.738281 C 309.625 65.894531 311.117188 66.007812 312.601562 65.894531 C 312.933594 65.855469 313.300781 65.757812 313.640625 65.738281 C 313.789062 65.738281 313.957031 65.785156 313.976562 65.886719 C 313.789062 66.34375 311.265625 74.824219 310.984375 75.265625 Z M 310.980469 75.265625 " fill-opacity="1" fill-rule="nonzero"/></g><path fill="#f1f0e9" d="M 306.179688 37.261719 C 306.128906 37.3125 306.039062 37.351562 305.96875 37.378906 C 304.984375 37.777344 304.039062 38.269531 303.136719 38.824219 C 302.59375 39.148438 301.675781 39.9375 301.1875 40.117188 C 301.09375 40.140625 301.070312 40.144531 301.054688 40.09375 C 300.910156 39.488281 299.089844 31.925781 298.75 30.523438 C 298.742188 30.476562 298.730469 30.457031 298.777344 30.429688 C 298.894531 30.375 299.019531 30.410156 299.132812 30.492188 C 301.257812 32.238281 303.09375 34.339844 305.105469 36.203125 C 305.230469 36.320312 305.335938 36.410156 305.484375 36.519531 C 305.621094 36.640625 306.335938 37.089844 306.183594 37.257812 Z M 306.179688 37.261719 " fill-opacity="1" fill-rule="nonzero"/><path fill="#f1f0e9" d="M 323.003906 30.414062 C 323.027344 30.417969 323.03125 30.429688 323.027344 30.445312 C 322.472656 32.660156 320.867188 39.613281 320.6875 40.097656 C 320.597656 40.105469 320.390625 40.015625 320.289062 39.957031 C 319.601562 39.59375 318.753906 38.851562 317.972656 38.390625 C 317.523438 38.128906 317.046875 37.925781 316.574219 37.710938 C 316.359375 37.613281 316.144531 37.515625 315.9375 37.40625 C 315.832031 37.351562 315.746094 37.277344 315.730469 37.191406 C 315.707031 37.097656 315.804688 36.988281 315.890625 36.929688 C 316.046875 36.824219 316.210938 36.710938 316.347656 36.585938 C 318.164062 34.933594 319.835938 33.011719 321.671875 31.375 C 322.003906 31.085938 322.394531 30.722656 322.769531 30.496094 C 322.882812 30.429688 322.96875 30.410156 323 30.414062 Z M 323.003906 30.414062 " fill-opacity="1" fill-rule="nonzero"/><g clip-path="url(#d6ff9407c9)"><path fill="#f1f0e9" d="M 311 27.300781 C 311.03125 27.285156 311.039062 27.273438 311.050781 27.292969 C 311.726562 29.4375 313.855469 36.214844 314.011719 36.707031 C 314.011719 36.714844 314.011719 36.722656 314.003906 36.726562 C 313.988281 36.734375 313.933594 36.730469 313.839844 36.71875 C 313.796875 36.714844 313.75 36.710938 313.703125 36.703125 C 311.824219 36.476562 309.988281 36.484375 308.109375 36.707031 C 307.949219 36.722656 307.878906 36.660156 307.953125 36.496094 C 308.03125 36.324219 308.128906 36.15625 308.199219 35.964844 C 309.160156 33.246094 309.730469 30.378906 310.679688 27.652344 C 310.75 27.503906 310.890625 27.375 310.996094 27.304688 Z M 311 27.300781 " fill-opacity="1" fill-rule="nonzero"/></g><path fill="#f1f0e9" d="M 323.074219 72.113281 C 322.902344 72.085938 322.664062 71.964844 322.519531 71.820312 C 320.410156 69.929688 318.496094 67.71875 316.367188 65.867188 C 316.203125 65.726562 316.015625 65.617188 315.839844 65.496094 C 315.769531 65.445312 315.640625 65.339844 315.6875 65.292969 C 315.753906 65.214844 315.875 65.164062 316.046875 65.0625 C 316.777344 64.660156 317.71875 64.285156 318.4375 63.855469 C 319.191406 63.402344 319.882812 62.773438 320.648438 62.355469 C 320.804688 62.855469 322.554688 69.878906 323.128906 72.105469 C 323.128906 72.109375 323.128906 72.113281 323.128906 72.117188 C 323.125 72.121094 323.109375 72.121094 323.082031 72.117188 L 323.074219 72.117188 Z M 323.074219 72.113281 " fill-opacity="1" fill-rule="nonzero"/><path fill="#f1f0e9" d="M 306.195312 65.203125 C 306.3125 65.382812 305.875 65.574219 305.75 65.667969 C 305.636719 65.738281 305.535156 65.820312 305.433594 65.910156 C 303.652344 67.496094 302.035156 69.351562 300.265625 70.957031 C 299.867188 71.320312 299.140625 71.96875 298.859375 72.09375 C 298.839844 72.105469 298.824219 72.109375 298.808594 72.117188 C 298.738281 72.136719 298.738281 72.117188 298.746094 72.089844 C 299.082031 70.671875 300.941406 62.847656 301.058594 62.363281 C 301.0625 62.355469 301.0625 62.347656 301.074219 62.347656 C 301.09375 62.339844 301.152344 62.359375 301.257812 62.414062 C 301.835938 62.722656 302.941406 63.582031 303.652344 64.007812 C 304.402344 64.425781 305.207031 64.769531 306 65.085938 C 306.066406 65.113281 306.148438 65.152344 306.191406 65.199219 Z M 306.195312 65.203125 " fill-opacity="1" fill-rule="nonzero"/><path fill="#f1f0e9" d="M 331.492188 39.074219 C 331.308594 39.367188 331.054688 39.6875 330.820312 39.964844 C 329.132812 41.886719 327.167969 43.625 325.527344 45.582031 C 325.3125 45.839844 325.117188 46.125 325.007812 46.441406 C 324.957031 46.582031 324.941406 46.628906 324.894531 46.535156 C 324.660156 46.066406 323.816406 44.351562 323.632812 44 C 323.320312 43.527344 322.578125 42.375 322.113281 41.660156 C 321.980469 41.453125 321.886719 41.3125 321.859375 41.269531 C 321.847656 41.25 321.847656 41.242188 321.859375 41.238281 C 322.390625 41.15625 331.132812 39.027344 331.496094 39.070312 Z M 331.492188 39.074219 " fill-opacity="1" fill-rule="nonzero"/><path fill="#f1f0e9" d="M 299.996094 41.210938 C 300.140625 41.613281 298.636719 43.179688 298.335938 43.746094 C 297.972656 44.359375 297.515625 45.492188 297.078125 46.226562 C 297.023438 46.316406 296.984375 46.382812 296.9375 46.375 C 296.894531 46.371094 296.808594 46.253906 296.769531 46.1875 C 296.621094 45.960938 296.484375 45.714844 296.316406 45.5 C 294.695312 43.511719 292.464844 41.679688 290.746094 39.726562 C 290.550781 39.546875 290.433594 39.21875 290.363281 39 C 290.355469 38.980469 290.351562 38.964844 290.347656 38.949219 C 290.34375 38.925781 290.347656 38.921875 290.355469 38.921875 C 291.195312 39.136719 297.601562 40.761719 299.359375 41.214844 C 299.527344 41.222656 299.792969 41.140625 299.941406 41.179688 C 299.964844 41.183594 299.980469 41.195312 299.992188 41.207031 Z M 299.996094 41.210938 " fill-opacity="1" fill-rule="nonzero"/><path fill="#f1f0e9" d="M 331.53125 63.367188 C 331.527344 63.40625 331.527344 63.425781 331.5 63.425781 C 329.28125 62.867188 322.371094 61.199219 321.863281 61.042969 C 322.394531 60.222656 323.066406 59.441406 323.546875 58.578125 C 323.777344 58.1875 323.949219 57.769531 324.128906 57.351562 C 324.269531 57.054688 324.546875 56.253906 324.851562 56.179688 C 324.964844 56.152344 325.078125 56.273438 325.148438 56.367188 C 326.402344 57.902344 327.894531 59.207031 329.242188 60.652344 C 329.835938 61.261719 330.617188 62.046875 331.117188 62.640625 C 331.292969 62.867188 331.496094 63.074219 331.527344 63.363281 L 331.527344 63.367188 Z M 331.53125 63.367188 " fill-opacity="1" fill-rule="nonzero"/><path fill="#f1f0e9" d="M 297.082031 56.175781 C 297.132812 56.214844 297.171875 56.296875 297.207031 56.386719 C 297.300781 56.609375 297.390625 56.832031 297.484375 57.050781 C 297.644531 57.417969 297.8125 57.777344 298.007812 58.121094 C 298.5625 59.089844 299.460938 60.042969 299.894531 60.941406 C 299.921875 61.015625 299.929688 61.085938 299.894531 61.128906 C 299.863281 61.183594 299.75 61.199219 299.671875 61.199219 C 299.488281 61.199219 299.300781 61.203125 299.117188 61.230469 C 296.359375 61.707031 293.519531 62.886719 290.746094 63.378906 C 290.578125 63.398438 290.117188 63.53125 290.269531 63.214844 C 291.902344 60.96875 294.351562 58.914062 296.289062 56.878906 C 296.386719 56.78125 296.480469 56.675781 296.566406 56.5625 C 296.679688 56.4375 296.890625 56.070312 297.074219 56.171875 Z M 297.082031 56.175781 " fill-opacity="1" fill-rule="nonzero"/><g clip-path="url(#2e5fdaa283)"><path fill="#f1f0e9" d="M 334.546875 51.070312 C 334.476562 51.1875 334.25 51.335938 334.097656 51.394531 C 331.75 52.476562 328.597656 52.910156 326.152344 53.902344 C 325.996094 53.96875 325.84375 54.058594 325.710938 54.144531 C 325.585938 54.226562 325.332031 54.40625 325.347656 54.132812 C 325.644531 52.050781 325.476562 49.980469 325.332031 47.898438 C 325.367188 47.78125 325.601562 48.136719 325.664062 48.1875 C 326.125 48.367188 333.921875 50.789062 334.542969 50.996094 C 334.574219 51.003906 334.574219 51.019531 334.550781 51.0625 Z M 334.546875 51.070312 " fill-opacity="1" fill-rule="nonzero"/></g><g clip-path="url(#736fdae780)"><path fill="#f1f0e9" d="M 296.453125 54.066406 C 294.753906 53.523438 288.582031 51.449219 287.445312 51.078125 C 287.355469 51.0625 287.589844 50.925781 287.632812 50.902344 C 290.066406 49.90625 293.566406 49.574219 295.808594 48.511719 C 296.019531 48.421875 296.226562 48.21875 296.414062 48.09375 C 296.4375 48.078125 296.453125 48.085938 296.453125 48.109375 C 296.453125 48.167969 296.453125 48.289062 296.453125 48.449219 C 296.453125 49.507812 296.460938 52.734375 296.449219 54.066406 Z M 296.453125 54.066406 " fill-opacity="1" fill-rule="nonzero"/></g><g clip-path="url(#dd5732779f)"><g transform="matrix(1, 0, 0, 1, 0, 0)"><g clip-path="url(#aa6783db23)"><g fill="#f1f0e9" fill-opacity="1"><g transform="translate(0.636088, 166.11393)"><g><path d="M 79.265625 -85.484375 C 79.265625 -83.359375 79.007812 -81.117188 78.5 -78.765625 C 78 -76.410156 77.1875 -74.222656 76.0625 -72.203125 C 74.945312 -70.191406 73.492188 -68.515625 71.703125 -67.171875 C 69.910156 -65.828125 67.726562 -65.15625 65.15625 -65.15625 C 61.238281 -65.15625 58.328125 -65.851562 56.421875 -67.25 C 54.523438 -68.65625 53.179688 -70.421875 52.390625 -72.546875 C 51.609375 -74.671875 51.1875 -76.9375 51.125 -79.34375 C 51.070312 -81.757812 50.988281 -84.03125 50.875 -86.15625 C 50.769531 -88.28125 50.410156 -90.039062 49.796875 -91.4375 C 49.179688 -92.84375 47.863281 -93.546875 45.84375 -93.546875 C 43.601562 -93.546875 41.644531 -92.734375 39.96875 -91.109375 C 38.289062 -89.484375 36.832031 -87.382812 35.59375 -84.8125 C 34.363281 -82.238281 33.328125 -79.328125 32.484375 -76.078125 C 31.648438 -72.828125 30.976562 -69.609375 30.46875 -66.421875 C 29.96875 -63.234375 29.601562 -60.207031 29.375 -57.34375 C 29.15625 -54.488281 29.046875 -52.164062 29.046875 -50.375 C 29.046875 -48.03125 29.128906 -45.234375 29.296875 -41.984375 C 29.472656 -38.734375 30.007812 -35.625 30.90625 -32.65625 C 31.800781 -29.695312 33.144531 -27.179688 34.9375 -25.109375 C 36.726562 -23.035156 39.300781 -22 42.65625 -22 C 44.894531 -22 47.078125 -22.273438 49.203125 -22.828125 C 51.328125 -23.390625 53.453125 -24.035156 55.578125 -24.765625 C 57.710938 -25.492188 59.867188 -26.140625 62.046875 -26.703125 C 64.234375 -27.265625 66.445312 -27.546875 68.6875 -27.546875 C 71.257812 -27.546875 73.382812 -26.507812 75.0625 -24.4375 C 76.75 -22.363281 77.59375 -20.039062 77.59375 -17.46875 C 77.59375 -13.882812 76.472656 -10.550781 74.234375 -7.46875 C 71.992188 -4.394531 69.222656 -1.679688 65.921875 0.671875 C 62.617188 3.023438 59.035156 4.875 55.171875 6.21875 C 51.304688 7.5625 47.804688 8.234375 44.671875 8.234375 C 36.609375 8.234375 29.773438 6.410156 24.171875 2.765625 C 18.578125 -0.867188 14.046875 -5.566406 10.578125 -11.328125 C 7.109375 -17.097656 4.617188 -23.535156 3.109375 -30.640625 C 1.597656 -37.753906 0.84375 -44.835938 0.84375 -51.890625 C 0.84375 -56.597656 1.289062 -61.75 2.1875 -67.34375 C 3.082031 -72.9375 4.425781 -78.5625 6.21875 -84.21875 C 8.007812 -89.875 10.273438 -95.332031 13.015625 -100.59375 C 15.753906 -105.851562 18.972656 -110.5 22.671875 -114.53125 C 26.367188 -118.5625 30.539062 -121.804688 35.1875 -124.265625 C 39.832031 -126.734375 44.953125 -127.96875 50.546875 -127.96875 C 56.035156 -127.96875 60.625 -126.59375 64.3125 -123.84375 C 68.007812 -121.101562 70.976562 -117.632812 73.21875 -113.4375 C 75.457031 -109.238281 77.023438 -104.648438 77.921875 -99.671875 C 78.816406 -94.691406 79.265625 -89.960938 79.265625 -85.484375 Z M 79.265625 -85.484375 "/></g></g></g><g fill="#f1f0e9" fill-opacity="1"><g transform="translate(81.579234, 166.11393)"><g><path d="M 78.59375 -48.03125 C 78.59375 -41.875 77.976562 -35.769531 76.75 -29.71875 C 75.519531 -23.675781 73.445312 -18.273438 70.53125 -13.515625 C 67.625 -8.753906 63.734375 -4.921875 58.859375 -2.015625 C 53.992188 0.886719 47.921875 2.34375 40.640625 2.34375 C 33.472656 2.34375 27.484375 0.914062 22.671875 -1.9375 C 17.859375 -4.789062 14.023438 -8.566406 11.171875 -13.265625 C 8.316406 -17.972656 6.300781 -23.289062 5.125 -29.21875 C 3.945312 -35.15625 3.359375 -41.203125 3.359375 -47.359375 C 3.359375 -54.078125 4.140625 -60.738281 5.703125 -67.34375 C 6.046875 -69.132812 6.691406 -71.625 7.640625 -74.8125 C 8.585938 -78.007812 9.816406 -81.144531 11.328125 -84.21875 C 12.847656 -87.300781 14.585938 -89.960938 16.546875 -92.203125 C 18.503906 -94.441406 20.65625 -95.5625 23 -95.5625 C 25.238281 -95.5625 27.03125 -94.941406 28.375 -93.703125 C 29.71875 -92.472656 30.78125 -90.929688 31.5625 -89.078125 C 32.351562 -87.234375 32.859375 -85.273438 33.078125 -83.203125 C 33.304688 -81.140625 33.421875 -79.269531 33.421875 -77.59375 C 33.421875 -75.007812 33.222656 -72.484375 32.828125 -70.015625 C 32.441406 -67.554688 32.023438 -65.097656 31.578125 -62.640625 C 31.128906 -59.285156 30.707031 -55.925781 30.3125 -52.5625 C 29.914062 -49.207031 29.71875 -45.847656 29.71875 -42.484375 C 29.71875 -40.804688 29.800781 -38.929688 29.96875 -36.859375 C 30.144531 -34.785156 30.566406 -32.796875 31.234375 -30.890625 C 31.910156 -28.992188 32.863281 -27.398438 34.09375 -26.109375 C 35.320312 -24.828125 37.054688 -24.1875 39.296875 -24.1875 C 42.203125 -24.1875 44.523438 -24.96875 46.265625 -26.53125 C 48.003906 -28.101562 49.289062 -30.0625 50.125 -32.40625 C 50.96875 -34.757812 51.5 -37.28125 51.71875 -39.96875 C 51.945312 -42.65625 52.0625 -45.117188 52.0625 -47.359375 C 52.0625 -52.285156 51.722656 -57.125 51.046875 -61.875 C 50.378906 -66.632812 49.765625 -71.476562 49.203125 -76.40625 C 49.085938 -76.96875 49.03125 -77.753906 49.03125 -78.765625 C 49.03125 -80.441406 49.3125 -82.117188 49.875 -83.796875 C 50.4375 -85.472656 51.21875 -86.984375 52.21875 -88.328125 C 53.226562 -89.671875 54.460938 -90.765625 55.921875 -91.609375 C 57.378906 -92.453125 59.003906 -92.875 60.796875 -92.875 C 63.253906 -92.875 65.4375 -92.003906 67.34375 -90.265625 C 69.25 -88.523438 70.84375 -86.285156 72.125 -83.546875 C 73.414062 -80.804688 74.476562 -77.726562 75.3125 -74.3125 C 76.15625 -70.894531 76.828125 -67.535156 77.328125 -64.234375 C 77.835938 -60.929688 78.175781 -57.820312 78.34375 -54.90625 C 78.507812 -52 78.59375 -49.707031 78.59375 -48.03125 Z M 78.59375 -48.03125 "/></g></g></g></g></g></g><g clip-path="url(#638a615eeb)"><g transform="matrix(1, 0, 0, 1, 218, 0)"><g clip-path="url(#9144b92b37)"><g clip-path="url(#4342061b12)"><g fill="#f1f0e9" fill-opacity="1"><g transform="translate(6.737226, 166.11393)"><g><path d="M 44.171875 6.046875 C 36.222656 6.046875 30.035156 5.007812 25.609375 2.9375 C 21.191406 0.863281 17.890625 -2.070312 15.703125 -5.875 C 13.515625 -9.6875 12.195312 -14.273438 11.75 -19.640625 C 11.300781 -25.015625 11.078125 -31.007812 11.078125 -37.625 C 11.078125 -42.882812 11.242188 -48.171875 11.578125 -53.484375 C 11.921875 -58.804688 12.425781 -64.488281 13.09375 -70.53125 C 11.53125 -70.53125 10.300781 -70.5 9.40625 -70.4375 C 8.507812 -70.382812 7.78125 -70.359375 7.21875 -70.359375 C 3.632812 -70.359375 0.527344 -71.140625 -2.09375 -72.703125 C -4.726562 -74.273438 -6.046875 -76.6875 -6.046875 -79.9375 C -6.046875 -81.957031 -5.289062 -83.75 -3.78125 -85.3125 C -2.269531 -86.875 -0.335938 -88.210938 2.015625 -89.328125 C 4.367188 -90.453125 6.914062 -91.347656 9.65625 -92.015625 C 12.394531 -92.691406 15 -93.144531 17.46875 -93.375 C 17.46875 -96.507812 17.691406 -99.976562 18.140625 -103.78125 C 18.585938 -107.59375 19.394531 -111.148438 20.5625 -114.453125 C 21.738281 -117.753906 23.332031 -120.523438 25.34375 -122.765625 C 27.363281 -125.003906 29.941406 -126.125 33.078125 -126.125 C 34.867188 -126.125 36.460938 -125.59375 37.859375 -124.53125 C 39.265625 -123.46875 40.414062 -122.125 41.3125 -120.5 C 42.207031 -118.875 42.878906 -117.050781 43.328125 -115.03125 C 43.773438 -113.019531 44 -111.0625 44 -109.15625 C 44 -106.914062 43.832031 -104.617188 43.5 -102.265625 C 43.164062 -99.921875 42.550781 -97.015625 41.65625 -93.546875 C 43.550781 -93.765625 44.832031 -93.898438 45.5 -93.953125 C 46.175781 -94.015625 46.796875 -94.046875 47.359375 -94.046875 C 49.265625 -94.046875 51.25 -93.875 53.3125 -93.53125 C 55.382812 -93.195312 57.289062 -92.640625 59.03125 -91.859375 C 60.769531 -91.078125 62.195312 -90.039062 63.3125 -88.75 C 64.425781 -87.46875 64.984375 -85.929688 64.984375 -84.140625 C 64.984375 -82.117188 64.171875 -80.320312 62.546875 -78.75 C 60.929688 -77.1875 58.890625 -75.84375 56.421875 -74.71875 C 53.960938 -73.601562 51.332031 -72.738281 48.53125 -72.125 C 45.726562 -71.507812 43.097656 -71.09375 40.640625 -70.875 C 39.972656 -66.28125 39.5 -62.050781 39.21875 -58.1875 C 38.9375 -54.320312 38.628906 -50.429688 38.296875 -46.515625 C 38.066406 -44.609375 37.867188 -42.675781 37.703125 -40.71875 C 37.535156 -38.757812 37.453125 -36.773438 37.453125 -34.765625 C 37.453125 -33.304688 37.503906 -31.597656 37.609375 -29.640625 C 37.722656 -27.679688 38.113281 -25.804688 38.78125 -24.015625 C 39.457031 -22.222656 40.523438 -20.679688 41.984375 -19.390625 C 43.441406 -18.109375 45.457031 -17.46875 48.03125 -17.46875 C 49.59375 -17.46875 51.210938 -17.609375 52.890625 -17.890625 C 54.578125 -18.171875 56.257812 -18.3125 57.9375 -18.3125 C 60.851562 -18.3125 62.953125 -17.300781 64.234375 -15.28125 C 65.523438 -13.269531 66.171875 -10.695312 66.171875 -7.5625 C 66.171875 -5.207031 65.46875 -3.160156 64.0625 -1.421875 C 62.664062 0.304688 60.90625 1.703125 58.78125 2.765625 C 56.65625 3.828125 54.273438 4.640625 51.640625 5.203125 C 49.003906 5.765625 46.515625 6.046875 44.171875 6.046875 Z M 44.171875 6.046875 "/></g></g></g></g><g fill="#f1f0e9" fill-opacity="1"><g transform="translate(71.223052, 166.11393)"><g><path d="M 32.75 -117.21875 C 32.75 -115.65625 32.328125 -114.253906 31.484375 -113.015625 C 30.648438 -111.785156 29.5625 -110.691406 28.21875 -109.734375 C 26.875 -108.785156 25.414062 -108.0625 23.84375 -107.5625 C 22.28125 -107.0625 20.828125 -106.8125 19.484375 -106.8125 C 17.242188 -106.8125 15.28125 -107.367188 13.59375 -108.484375 C 11.914062 -109.609375 11.078125 -111.34375 11.078125 -113.6875 C 11.078125 -115.375 11.5 -116.859375 12.34375 -118.140625 C 13.1875 -119.429688 14.222656 -120.492188 15.453125 -121.328125 C 16.679688 -122.171875 18.078125 -122.816406 19.640625 -123.265625 C 21.210938 -123.710938 22.726562 -123.9375 24.1875 -123.9375 C 26.3125 -123.9375 28.269531 -123.429688 30.0625 -122.421875 C 31.851562 -121.421875 32.75 -119.6875 32.75 -117.21875 Z M 34.09375 -60.125 C 34.09375 -58.550781 34.09375 -56.894531 34.09375 -55.15625 C 34.09375 -53.425781 34.035156 -51.78125 33.921875 -50.21875 C 33.804688 -48.3125 33.75 -45.757812 33.75 -42.5625 C 33.75 -39.375 33.632812 -35.929688 33.40625 -32.234375 C 33.1875 -28.546875 32.828125 -24.796875 32.328125 -20.984375 C 31.828125 -17.179688 31.015625 -13.710938 29.890625 -10.578125 C 28.773438 -7.441406 27.289062 -4.894531 25.4375 -2.9375 C 23.59375 -0.976562 21.269531 0.0546875 18.46875 0.171875 C 16.34375 0.273438 14.550781 -0.5625 13.09375 -2.34375 C 11.644531 -4.132812 10.441406 -6.457031 9.484375 -9.3125 C 8.535156 -12.175781 7.835938 -15.367188 7.390625 -18.890625 C 6.941406 -22.421875 6.601562 -25.835938 6.375 -29.140625 C 6.15625 -32.441406 6.046875 -35.488281 6.046875 -38.28125 C 6.046875 -41.082031 6.046875 -43.15625 6.046875 -44.5 C 6.046875 -46.289062 6.046875 -48.835938 6.046875 -52.140625 C 6.046875 -55.441406 6.15625 -58.992188 6.375 -62.796875 C 6.601562 -66.609375 7.023438 -70.472656 7.640625 -74.390625 C 8.253906 -78.316406 9.148438 -81.898438 10.328125 -85.140625 C 11.503906 -88.390625 13.039062 -91.019531 14.9375 -93.03125 C 16.84375 -95.050781 19.253906 -96.0625 22.171875 -96.0625 C 25.191406 -96.0625 27.484375 -94.546875 29.046875 -91.515625 C 30.617188 -88.492188 31.796875 -84.96875 32.578125 -80.9375 C 33.359375 -76.914062 33.804688 -72.914062 33.921875 -68.9375 C 34.035156 -64.96875 34.09375 -62.03125 34.09375 -60.125 Z M 34.09375 -60.125 "/></g></g></g><g fill="#f1f0e9" fill-opacity="1"><g transform="translate(112.19842, 166.11393)"><g><path d="M 77.421875 -60.125 C 74.503906 -52.394531 71.3125 -44.332031 67.84375 -35.9375 C 64.375 -27.539062 60.625 -19.703125 56.59375 -12.421875 C 54.132812 -7.941406 51.390625 -4.21875 48.359375 -1.25 C 45.335938 1.707031 41.867188 3.1875 37.953125 3.1875 C 34.816406 3.1875 31.765625 1.589844 28.796875 -1.59375 C 25.828125 -4.78125 23.082031 -8.585938 20.5625 -13.015625 C 18.050781 -17.441406 15.867188 -21.921875 14.015625 -26.453125 C 12.171875 -30.984375 10.800781 -34.59375 9.90625 -37.28125 C 9.007812 -40.300781 8 -43.546875 6.875 -47.015625 C 5.757812 -50.492188 4.753906 -54.023438 3.859375 -57.609375 C 2.960938 -61.191406 2.234375 -64.742188 1.671875 -68.265625 C 1.117188 -71.796875 0.84375 -75.128906 0.84375 -78.265625 C 0.84375 -82.628906 1.625 -86.207031 3.1875 -89 C 4.757812 -91.800781 7.835938 -93.203125 12.421875 -93.203125 C 14.210938 -93.203125 15.835938 -92.671875 17.296875 -91.609375 C 18.753906 -90.546875 20.097656 -89.0625 21.328125 -87.15625 C 22.554688 -85.257812 23.726562 -83.050781 24.84375 -80.53125 C 25.96875 -78.007812 27.035156 -75.238281 28.046875 -72.21875 C 29.054688 -69.300781 30.007812 -66.273438 30.90625 -63.140625 C 31.800781 -60.003906 32.695312 -56.984375 33.59375 -54.078125 C 34.488281 -51.160156 35.410156 -48.332031 36.359375 -45.59375 C 37.304688 -42.851562 38.566406 -40.140625 40.140625 -37.453125 C 40.921875 -39.460938 41.8125 -41.753906 42.8125 -44.328125 C 43.820312 -46.910156 44.914062 -49.65625 46.09375 -52.5625 C 47.269531 -55.476562 48.53125 -58.472656 49.875 -61.546875 C 51.21875 -64.628906 52.675781 -67.625 54.25 -70.53125 C 57.269531 -76.582031 60.484375 -81.734375 63.890625 -85.984375 C 67.304688 -90.234375 70.695312 -92.359375 74.0625 -92.359375 C 77.195312 -92.359375 79.4375 -91.40625 80.78125 -89.5 C 82.125 -87.601562 82.796875 -85.144531 82.796875 -82.125 C 82.796875 -79.101562 82.289062 -75.6875 81.28125 -71.875 C 80.269531 -68.070312 78.984375 -64.15625 77.421875 -60.125 Z M 77.421875 -60.125 "/></g></g></g><g fill="#f1f0e9" fill-opacity="1"><g transform="translate(195.828475, 166.11393)"><g><path d="M 76.40625 -23.671875 C 76.40625 -21.660156 76.320312 -19.03125 76.15625 -15.78125 C 75.988281 -12.539062 75.515625 -9.378906 74.734375 -6.296875 C 73.953125 -3.210938 72.71875 -0.554688 71.03125 1.671875 C 69.351562 3.910156 67.003906 5.03125 63.984375 5.03125 C 59.835938 5.03125 56.644531 3.6875 54.40625 1 C 52.164062 -1.675781 51.101562 -5.03125 51.21875 -9.0625 C 47.632812 -5.925781 43.578125 -3.460938 39.046875 -1.671875 C 34.515625 0.105469 29.894531 1 25.1875 1 C 21.945312 1 18.867188 0.214844 15.953125 -1.34375 C 13.046875 -2.90625 10.472656 -4.914062 8.234375 -7.375 C 5.992188 -9.84375 4.203125 -12.617188 2.859375 -15.703125 C 1.515625 -18.785156 0.84375 -21.835938 0.84375 -24.859375 C 0.84375 -30.234375 2.492188 -34.929688 5.796875 -38.953125 C 9.097656 -42.984375 13.15625 -46.425781 17.96875 -49.28125 C 22.78125 -52.144531 27.898438 -54.414062 33.328125 -56.09375 C 38.765625 -57.769531 43.609375 -58.890625 47.859375 -59.453125 C 47.859375 -60.015625 47.882812 -60.519531 47.9375 -60.96875 C 48 -61.414062 48.03125 -61.914062 48.03125 -62.46875 C 48.03125 -65.9375 47.078125 -68.734375 45.171875 -70.859375 C 43.273438 -72.992188 40.585938 -74.0625 37.109375 -74.0625 C 34.316406 -74.0625 31.910156 -73.582031 29.890625 -72.625 C 27.878906 -71.675781 25.976562 -70.613281 24.1875 -69.4375 C 22.394531 -68.257812 20.601562 -67.195312 18.8125 -66.25 C 17.019531 -65.300781 15.003906 -64.828125 12.765625 -64.828125 C 10.296875 -64.828125 8.191406 -65.609375 6.453125 -67.171875 C 4.722656 -68.742188 3.859375 -70.757812 3.859375 -73.21875 C 3.859375 -76.914062 4.945312 -80.273438 7.125 -83.296875 C 9.3125 -86.316406 12.054688 -88.863281 15.359375 -90.9375 C 18.671875 -93.007812 22.253906 -94.632812 26.109375 -95.8125 C 29.972656 -96.988281 33.53125 -97.578125 36.78125 -97.578125 C 39.800781 -97.578125 42.820312 -97.210938 45.84375 -96.484375 C 48.863281 -95.753906 51.71875 -94.632812 54.40625 -93.125 C 57.09375 -91.613281 59.523438 -89.765625 61.703125 -87.578125 C 63.890625 -85.398438 65.65625 -82.851562 67 -79.9375 C 69.019531 -75.789062 70.644531 -71.394531 71.875 -66.75 C 73.101562 -62.101562 74.050781 -57.34375 74.71875 -52.46875 C 75.394531 -47.601562 75.84375 -42.734375 76.0625 -37.859375 C 76.289062 -32.992188 76.40625 -28.265625 76.40625 -23.671875 Z M 49.546875 -29.046875 L 49.03125 -40.46875 C 48.8125 -40.46875 48.585938 -40.492188 48.359375 -40.546875 C 48.140625 -40.609375 47.914062 -40.640625 47.6875 -40.640625 C 46.238281 -40.640625 44.421875 -40.273438 42.234375 -39.546875 C 40.054688 -38.816406 37.957031 -37.804688 35.9375 -36.515625 C 33.925781 -35.234375 32.21875 -33.804688 30.8125 -32.234375 C 29.414062 -30.671875 28.71875 -29.050781 28.71875 -27.375 C 28.71875 -25.800781 29.273438 -24.734375 30.390625 -24.171875 C 31.515625 -23.617188 32.804688 -23.34375 34.265625 -23.34375 C 36.722656 -23.34375 39.347656 -23.984375 42.140625 -25.265625 C 44.941406 -26.554688 47.410156 -27.816406 49.546875 -29.046875 Z M 49.546875 -29.046875 "/></g></g></g><g fill="#f1f0e9" fill-opacity="1"><g transform="translate(277.275405, 166.11393)"><g><path d="M 44.171875 6.046875 C 36.222656 6.046875 30.035156 5.007812 25.609375 2.9375 C 21.191406 0.863281 17.890625 -2.070312 15.703125 -5.875 C 13.515625 -9.6875 12.195312 -14.273438 11.75 -19.640625 C 11.300781 -25.015625 11.078125 -31.007812 11.078125 -37.625 C 11.078125 -42.882812 11.242188 -48.171875 11.578125 -53.484375 C 11.921875 -58.804688 12.425781 -64.488281 13.09375 -70.53125 C 11.53125 -70.53125 10.300781 -70.5 9.40625 -70.4375 C 8.507812 -70.382812 7.78125 -70.359375 7.21875 -70.359375 C 3.632812 -70.359375 0.527344 -71.140625 -2.09375 -72.703125 C -4.726562 -74.273438 -6.046875 -76.6875 -6.046875 -79.9375 C -6.046875 -81.957031 -5.289062 -83.75 -3.78125 -85.3125 C -2.269531 -86.875 -0.335938 -88.210938 2.015625 -89.328125 C 4.367188 -90.453125 6.914062 -91.347656 9.65625 -92.015625 C 12.394531 -92.691406 15 -93.144531 17.46875 -93.375 C 17.46875 -96.507812 17.691406 -99.976562 18.140625 -103.78125 C 18.585938 -107.59375 19.394531 -111.148438 20.5625 -114.453125 C 21.738281 -117.753906 23.332031 -120.523438 25.34375 -122.765625 C 27.363281 -125.003906 29.941406 -126.125 33.078125 -126.125 C 34.867188 -126.125 36.460938 -125.59375 37.859375 -124.53125 C 39.265625 -123.46875 40.414062 -122.125 41.3125 -120.5 C 42.207031 -118.875 42.878906 -117.050781 43.328125 -115.03125 C 43.773438 -113.019531 44 -111.0625 44 -109.15625 C 44 -106.914062 43.832031 -104.617188 43.5 -102.265625 C 43.164062 -99.921875 42.550781 -97.015625 41.65625 -93.546875 C 43.550781 -93.765625 44.832031 -93.898438 45.5 -93.953125 C 46.175781 -94.015625 46.796875 -94.046875 47.359375 -94.046875 C 49.265625 -94.046875 51.25 -93.875 53.3125 -93.53125 C 55.382812 -93.195312 57.289062 -92.640625 59.03125 -91.859375 C 60.769531 -91.078125 62.195312 -90.039062 63.3125 -88.75 C 64.425781 -87.46875 64.984375 -85.929688 64.984375 -84.140625 C 64.984375 -82.117188 64.171875 -80.320312 62.546875 -78.75 C 60.929688 -77.1875 58.890625 -75.84375 56.421875 -74.71875 C 53.960938 -73.601562 51.332031 -72.738281 48.53125 -72.125 C 45.726562 -71.507812 43.097656 -71.09375 40.640625 -70.875 C 39.972656 -66.28125 39.5 -62.050781 39.21875 -58.1875 C 38.9375 -54.320312 38.628906 -50.429688 38.296875 -46.515625 C 38.066406 -44.609375 37.867188 -42.675781 37.703125 -40.71875 C 37.535156 -38.757812 37.453125 -36.773438 37.453125 -34.765625 C 37.453125 -33.304688 37.503906 -31.597656 37.609375 -29.640625 C 37.722656 -27.679688 38.113281 -25.804688 38.78125 -24.015625 C 39.457031 -22.222656 40.523438 -20.679688 41.984375 -19.390625 C 43.441406 -18.109375 45.457031 -17.46875 48.03125 -17.46875 C 49.59375 -17.46875 51.210938 -17.609375 52.890625 -17.890625 C 54.578125 -18.171875 56.257812 -18.3125 57.9375 -18.3125 C 60.851562 -18.3125 62.953125 -17.300781 64.234375 -15.28125 C 65.523438 -13.269531 66.171875 -10.695312 66.171875 -7.5625 C 66.171875 -5.207031 65.46875 -3.160156 64.0625 -1.421875 C 62.664062 0.304688 60.90625 1.703125 58.78125 2.765625 C 56.65625 3.828125 54.273438 4.640625 51.640625 5.203125 C 49.003906 5.765625 46.515625 6.046875 44.171875 6.046875 Z M 44.171875 6.046875 "/></g></g></g><g fill="#f1f0e9" fill-opacity="1"><g transform="translate(341.761231, 166.11393)"><g><path d="M 75.40625 -29.890625 C 75.40625 -26.085938 74.203125 -22.363281 71.796875 -18.71875 C 69.390625 -15.082031 66.363281 -11.835938 62.71875 -8.984375 C 59.082031 -6.128906 55.191406 -3.832031 51.046875 -2.09375 C 46.910156 -0.363281 43.109375 0.5 39.640625 0.5 C 33.703125 0.5 28.410156 -0.976562 23.765625 -3.9375 C 19.117188 -6.90625 15.226562 -10.6875 12.09375 -15.28125 C 8.957031 -19.875 6.578125 -24.941406 4.953125 -30.484375 C 3.328125 -36.023438 2.515625 -41.425781 2.515625 -46.6875 C 2.515625 -52.28125 3.296875 -58.269531 4.859375 -64.65625 C 6.429688 -71.039062 8.8125 -76.914062 12 -82.28125 C 15.195312 -87.65625 19.226562 -92.132812 24.09375 -95.71875 C 28.96875 -99.300781 34.765625 -101.09375 41.484375 -101.09375 C 45.285156 -101.09375 48.921875 -100.445312 52.390625 -99.15625 C 55.867188 -97.875 58.894531 -96.054688 61.46875 -93.703125 C 64.039062 -91.359375 66.109375 -88.5625 67.671875 -85.3125 C 69.242188 -82.0625 70.03125 -78.421875 70.03125 -74.390625 C 70.03125 -69.128906 68.910156 -64.203125 66.671875 -59.609375 C 64.429688 -55.023438 61.460938 -51.050781 57.765625 -47.6875 C 54.078125 -44.332031 49.820312 -41.617188 45 -39.546875 C 40.1875 -37.472656 35.265625 -36.328125 30.234375 -36.109375 C 30.679688 -32.859375 31.992188 -30.503906 34.171875 -29.046875 C 36.359375 -27.597656 38.960938 -26.875 41.984375 -26.875 C 44.222656 -26.875 46.40625 -27.429688 48.53125 -28.546875 C 50.65625 -29.671875 52.722656 -30.929688 54.734375 -32.328125 C 56.753906 -33.722656 58.742188 -34.976562 60.703125 -36.09375 C 62.671875 -37.21875 64.660156 -37.78125 66.671875 -37.78125 C 68.910156 -37.78125 70.925781 -37.050781 72.71875 -35.59375 C 74.507812 -34.144531 75.40625 -32.242188 75.40625 -29.890625 Z M 48.203125 -71.03125 C 48.203125 -72.488281 47.804688 -74 47.015625 -75.5625 C 46.234375 -77.132812 45.003906 -77.921875 43.328125 -77.921875 C 40.867188 -77.921875 38.796875 -77.273438 37.109375 -75.984375 C 35.429688 -74.703125 34.03125 -73.082031 32.90625 -71.125 C 31.789062 -69.164062 30.925781 -67.066406 30.3125 -64.828125 C 29.695312 -62.585938 29.332031 -60.515625 29.21875 -58.609375 C 30.789062 -58.941406 32.664062 -59.390625 34.84375 -59.953125 C 37.03125 -60.515625 39.101562 -61.269531 41.0625 -62.21875 C 43.019531 -63.175781 44.695312 -64.378906 46.09375 -65.828125 C 47.5 -67.285156 48.203125 -69.019531 48.203125 -71.03125 Z M 48.203125 -71.03125 "/></g></g></g></g></g></g></svg>