<svg xmlns="http://www.w3.org/2000/svg" xmlns:xlink="http://www.w3.org/1999/xlink" width="1080" zoomAndPan="magnify" viewBox="0 0 810 809.999993" height="1080" preserveAspectRatio="xMidYMid meet" version="1.0"><defs><g/><clipPath id="58aabb447c"><path d="M 1 0 L 808.386719 0 L 808.386719 810 L 1 810 Z M 1 0 " clip-rule="nonzero"/></clipPath><clipPath id="fa1dc2fdb1"><path d="M 76.613281 0 L 733.386719 0 C 753.277344 0 772.355469 7.902344 786.421875 21.96875 C 800.484375 36.03125 808.386719 55.109375 808.386719 75 L 808.386719 735 C 808.386719 754.890625 800.484375 773.96875 786.421875 788.03125 C 772.355469 802.097656 753.277344 810 733.386719 810 L 76.613281 810 C 56.722656 810 37.644531 802.097656 23.578125 788.03125 C 9.515625 773.96875 1.613281 754.890625 1.613281 735 L 1.613281 75 C 1.613281 55.109375 9.515625 36.03125 23.578125 21.96875 C 37.644531 7.902344 56.722656 0 76.613281 0 Z M 76.613281 0 " clip-rule="nonzero"/></clipPath><clipPath id="47f1c75825"><path d="M 0.441406 0 L 807.386719 0 L 807.386719 810 L 0.441406 810 Z M 0.441406 0 " clip-rule="nonzero"/></clipPath><clipPath id="e2afff1894"><path d="M 75.613281 0 L 732.386719 0 C 752.277344 0 771.355469 7.902344 785.421875 21.96875 C 799.484375 36.03125 807.386719 55.109375 807.386719 75 L 807.386719 735 C 807.386719 754.890625 799.484375 773.96875 785.421875 788.03125 C 771.355469 802.097656 752.277344 810 732.386719 810 L 75.613281 810 C 55.722656 810 36.644531 802.097656 22.578125 788.03125 C 8.515625 773.96875 0.613281 754.890625 0.613281 735 L 0.613281 75 C 0.613281 55.109375 8.515625 36.03125 22.578125 21.96875 C 36.644531 7.902344 55.722656 0 75.613281 0 Z M 75.613281 0 " clip-rule="nonzero"/></clipPath><clipPath id="0d23fdd94d"><rect x="0" width="808" y="0" height="810"/></clipPath><clipPath id="844c688605"><path d="M 1.613281 0.00390625 L 808.613281 0.00390625 L 808.613281 810 L 1.613281 810 Z M 1.613281 0.00390625 " clip-rule="nonzero"/></clipPath><clipPath id="911792565d"><path d="M 76.613281 0.00390625 L 733.378906 0.00390625 C 753.269531 0.00390625 772.347656 7.90625 786.410156 21.972656 C 800.476562 36.035156 808.378906 55.113281 808.378906 75.003906 L 808.378906 734.996094 C 808.378906 754.886719 800.476562 773.964844 786.410156 788.027344 C 772.347656 802.09375 753.269531 809.996094 733.378906 809.996094 L 76.613281 809.996094 C 56.71875 809.996094 37.644531 802.09375 23.578125 788.027344 C 9.515625 773.964844 1.613281 754.886719 1.613281 734.996094 L 1.613281 75.003906 C 1.613281 55.113281 9.515625 36.035156 23.578125 21.972656 C 37.644531 7.90625 56.71875 0.00390625 76.613281 0.00390625 Z M 76.613281 0.00390625 " clip-rule="nonzero"/></clipPath><clipPath id="060304bf32"><rect x="0" width="650" y="0" height="703"/></clipPath><clipPath id="0dc4086412"><rect x="0" width="667" y="0" height="565"/></clipPath></defs><g clip-path="url(#58aabb447c)"><g clip-path="url(#fa1dc2fdb1)"><g transform="matrix(1, 0, 0, 1, 1, 0.000000000000039746)"><g clip-path="url(#0d23fdd94d)"><g clip-path="url(#47f1c75825)"><g clip-path="url(#e2afff1894)"><path fill="#0118d8" d="M 0.613281 0 L 807.386719 0 L 807.386719 809.925781 L 0.613281 809.925781 Z M 0.613281 0 " fill-opacity="1" fill-rule="nonzero"/></g></g></g></g></g></g><g clip-path="url(#844c688605)"><g clip-path="url(#911792565d)"><path stroke-linecap="butt" transform="matrix(0.75, 0, 0, 0.75, 1.612485, 0.0000200004)" fill="none" stroke-linejoin="miter" d="M 100.001073 0.00518167 L 975.688673 0.00518167 C 1002.209509 0.00518167 1027.647012 10.541641 1046.397014 29.296852 C 1065.152225 48.046854 1075.688684 73.484357 1075.688684 100.005193 L 1075.688684 979.994877 C 1075.688684 1006.515713 1065.152225 1031.953216 1046.397014 1050.703218 C 1027.647012 1069.458429 1002.209509 1079.994888 975.688673 1079.994888 L 100.001073 1079.994888 C 73.475028 1079.994888 48.042734 1069.458429 29.287523 1050.703218 C 10.537521 1031.953216 0.00106136 1006.515713 0.00106136 979.994877 L 0.00106136 100.005193 C 0.00106136 73.484357 10.537521 48.046854 29.287523 29.296852 C 48.042734 10.541641 73.475028 0.00518167 100.001073 0.00518167 Z M 100.001073 0.00518167 " stroke="#ffffff" stroke-width="94" stroke-opacity="1" stroke-miterlimit="4"/></g></g><g transform="matrix(1, 0, 0, 1, 93, 45)"><g clip-path="url(#060304bf32)"><g fill="#ffffff" fill-opacity="1"><g transform="translate(203.858602, 584.897313)"><g><path d="M 114.359375 -280.234375 C 126.253906 -258.109375 133.179688 -234.363281 135.140625 -209 C 137.109375 -183.632812 134.738281 -158.941406 128.03125 -134.921875 C 121.332031 -110.910156 110.394531 -88.75 95.21875 -68.4375 C 80.039062 -48.125 61.265625 -31.957031 38.890625 -19.9375 L 38.125 -19.53125 C 33.601562 -17.09375 28.78125 -17.171875 23.65625 -19.765625 C 18.53125 -22.359375 13.273438 -26.253906 7.890625 -31.453125 C 2.503906 -36.660156 -2.785156 -42.894531 -7.984375 -50.15625 C -13.191406 -57.414062 -18.035156 -64.617188 -22.515625 -71.765625 C -27.003906 -78.910156 -30.835938 -85.4375 -34.015625 -91.34375 C -37.191406 -97.257812 -39.59375 -101.726562 -41.21875 -104.75 C -45.8125 -113.300781 -50.242188 -121.851562 -54.515625 -130.40625 C -58.796875 -138.96875 -62.984375 -147.660156 -67.078125 -156.484375 C -68.566406 -159.253906 -70.570312 -163.441406 -73.09375 -169.046875 C -75.625 -174.648438 -78.460938 -180.984375 -81.609375 -188.046875 C -84.753906 -195.109375 -87.941406 -202.550781 -91.171875 -210.375 C -94.410156 -218.195312 -97.3125 -225.550781 -99.875 -232.4375 C -102.4375 -239.332031 -104.59375 -245.460938 -106.34375 -250.828125 C -108.101562 -256.203125 -108.832031 -260.109375 -108.53125 -262.546875 C -108.226562 -269.847656 -105.832031 -277.460938 -101.34375 -285.390625 C -96.851562 -293.316406 -91.382812 -300.789062 -84.9375 -307.8125 C -78.5 -314.832031 -71.566406 -321.226562 -64.140625 -327 C -56.722656 -332.769531 -49.992188 -337.28125 -43.953125 -340.53125 C -27.359375 -349.445312 -11.304688 -354.101562 4.203125 -354.5 C 19.722656 -354.894531 34.367188 -352.066406 48.140625 -346.015625 C 61.921875 -339.972656 74.410156 -331.207031 85.609375 -319.71875 C 96.804688 -308.238281 106.390625 -295.078125 114.359375 -280.234375 Z M 56.875 -235.234375 C 53.894531 -240.765625 49.84375 -245.882812 44.71875 -250.59375 C 39.601562 -255.300781 33.9375 -259.066406 27.71875 -261.890625 C 21.507812 -264.710938 15.050781 -266.179688 8.34375 -266.296875 C 1.632812 -266.421875 -4.863281 -264.789062 -11.15625 -261.40625 C -16.4375 -258.570312 -21.164062 -254.40625 -25.34375 -248.90625 C -26.207031 -247.476562 -26.09375 -244.546875 -25 -240.109375 C -23.90625 -235.671875 -22.1875 -230.515625 -19.84375 -224.640625 C -17.5 -218.773438 -14.820312 -212.4375 -11.8125 -205.625 C -8.800781 -198.820312 -5.769531 -192.429688 -2.71875 -186.453125 C 0.332031 -180.472656 3.007812 -175.1875 5.3125 -170.59375 C 7.613281 -166 9.171875 -162.945312 9.984375 -161.4375 C 11.335938 -158.914062 13.332031 -155.203125 15.96875 -150.296875 C 18.601562 -145.398438 21.394531 -140.664062 24.34375 -136.09375 C 27.289062 -131.519531 29.957031 -127.601562 32.34375 -124.34375 C 34.738281 -121.09375 36.566406 -119.804688 37.828125 -120.484375 C 45.378906 -124.535156 51.273438 -131.515625 55.515625 -141.421875 C 59.753906 -151.328125 62.59375 -162.171875 64.03125 -173.953125 C 65.46875 -185.742188 65.507812 -197.269531 64.15625 -208.53125 C 62.8125 -219.800781 60.382812 -228.703125 56.875 -235.234375 Z M 56.875 -235.234375 "/></g></g><g transform="translate(415.115421, 471.366549)"><g><path d="M 48.15625 -316.625 C 50.726562 -311.84375 52.753906 -307.015625 54.234375 -302.140625 C 55.710938 -297.265625 56.195312 -292.582031 55.6875 -288.09375 C 55.175781 -283.601562 53.539062 -279.398438 50.78125 -275.484375 C 48.03125 -271.578125 43.890625 -268.140625 38.359375 -265.171875 C 32.078125 -261.785156 26.75 -260.539062 22.375 -261.4375 C 18 -262.332031 14.265625 -264.296875 11.171875 -267.328125 C 8.085938 -270.367188 5.394531 -274.023438 3.09375 -278.296875 C 0.800781 -282.578125 -1.515625 -286.4375 -3.859375 -289.875 C -6.203125 -293.320312 -8.800781 -295.894531 -11.65625 -297.59375 C -14.507812 -299.300781 -17.945312 -299.078125 -21.96875 -296.921875 C -25.738281 -294.890625 -27.265625 -290.335938 -26.546875 -283.265625 C -25.828125 -276.203125 -24.191406 -268.488281 -21.640625 -260.125 C -19.097656 -251.769531 -16.15625 -243.875 -12.8125 -236.4375 C -9.46875 -229 -7.117188 -224.023438 -5.765625 -221.515625 C -2.753906 -223.785156 0.148438 -225.914062 2.953125 -227.90625 C 5.765625 -229.90625 8.929688 -231.851562 12.453125 -233.75 C 15.984375 -235.644531 19.832031 -237.226562 24 -238.5 C 28.175781 -239.769531 32.335938 -240.460938 36.484375 -240.578125 C 40.640625 -240.703125 44.5 -239.859375 48.0625 -238.046875 C 51.632812 -236.234375 54.566406 -233.1875 56.859375 -228.90625 C 59.296875 -224.382812 59.507812 -219.316406 57.5 -213.703125 C 55.5 -208.097656 52.4375 -202.644531 48.3125 -197.34375 C 44.1875 -192.039062 39.765625 -187.148438 35.046875 -182.671875 C 30.328125 -178.191406 26.460938 -174.820312 23.453125 -172.5625 C 33.546875 -155.613281 43.320312 -138.335938 52.78125 -120.734375 C 61.695312 -104.140625 70.097656 -87.59375 77.984375 -71.09375 C 81.679688 -63.019531 82.425781 -55.148438 80.21875 -47.484375 C 78.019531 -39.816406 73.023438 -33.890625 65.234375 -29.703125 C 60.953125 -27.398438 56.863281 -26.253906 52.96875 -26.265625 C 49.070312 -26.285156 45.375 -27.140625 41.875 -28.828125 C 38.382812 -30.515625 35.125 -32.8125 32.09375 -35.71875 C 29.0625 -38.625 26.410156 -41.898438 24.140625 -45.546875 C 14.773438 -59.960938 5.621094 -74.570312 -3.3125 -89.375 C -12.25 -104.1875 -20.707031 -119.332031 -28.6875 -134.8125 C -30.3125 -133.613281 -31.941406 -132.570312 -33.578125 -131.6875 C -35.210938 -130.8125 -36.910156 -129.90625 -38.671875 -128.96875 C -41.691406 -127.34375 -45.539062 -125.757812 -50.21875 -124.21875 C -54.90625 -122.675781 -59.703125 -121.796875 -64.609375 -121.578125 C -69.523438 -121.367188 -74.109375 -121.90625 -78.359375 -123.1875 C -82.609375 -124.476562 -85.882812 -127.257812 -88.1875 -131.53125 C -91.15625 -137.0625 -91.828125 -142.691406 -90.203125 -148.421875 C -88.585938 -154.148438 -85.84375 -159.59375 -81.96875 -164.75 C -78.101562 -169.914062 -73.613281 -174.519531 -68.5 -178.5625 C -63.382812 -182.613281 -58.820312 -186.039062 -54.8125 -188.84375 L -58.046875 -194.859375 C -64.671875 -207.179688 -70.632812 -220.992188 -75.9375 -236.296875 C -81.238281 -251.609375 -84.242188 -266.851562 -84.953125 -282.03125 C -85.660156 -297.207031 -83.113281 -311.457031 -77.3125 -324.78125 C -71.507812 -338.113281 -60.804688 -348.972656 -45.203125 -357.359375 C -35.398438 -362.628906 -25.863281 -365.082031 -16.59375 -364.71875 C -7.332031 -364.351562 1.351562 -362.050781 9.46875 -357.8125 C 17.582031 -353.582031 24.910156 -347.796875 31.453125 -340.453125 C 37.992188 -333.117188 43.5625 -325.175781 48.15625 -316.625 Z M 48.15625 -316.625 "/></g></g></g></g></g><g transform="matrix(1, 0, 0, 1, 72, 121)"><g clip-path="url(#0dc4086412)"><g fill="#ffffff" fill-opacity="1"><g transform="translate(0.012451, 430.913333)"><g><path d="M 127.625 -3.421875 C 127.625 2.003906 126.410156 6.570312 123.984375 10.28125 C 121.554688 13.988281 118.414062 16.910156 114.5625 19.046875 C 110.707031 21.191406 106.421875 22.765625 101.703125 23.765625 C 96.992188 24.765625 92.359375 25.265625 87.796875 25.265625 C 69.523438 25.265625 56.535156 20.050781 48.828125 9.625 C 41.117188 -0.789062 37.265625 -14.5625 37.265625 -31.6875 C 37.265625 -42.25 38.617188 -52.097656 41.328125 -61.234375 C 44.035156 -70.378906 45.390625 -79.660156 45.390625 -89.078125 C 45.390625 -99.929688 43.75 -107.925781 40.46875 -113.0625 C 37.1875 -118.195312 33.472656 -122.476562 29.328125 -125.90625 C 25.191406 -129.332031 21.484375 -132.972656 18.203125 -136.828125 C 14.921875 -140.679688 13.28125 -146.75 13.28125 -155.03125 C 13.28125 -159.882812 14.132812 -164.238281 15.84375 -168.09375 C 17.5625 -171.945312 20.703125 -175.015625 25.265625 -177.296875 C 27.835938 -178.441406 30.335938 -180.867188 32.765625 -184.578125 C 35.191406 -188.296875 37.257812 -192.296875 38.96875 -196.578125 C 40.6875 -200.859375 42.113281 -205.140625 43.25 -209.421875 C 44.394531 -213.703125 44.96875 -217.128906 44.96875 -219.703125 C 44.96875 -230.546875 43.753906 -241.320312 41.328125 -252.03125 C 38.898438 -262.738281 37.6875 -273.519531 37.6875 -284.375 C 37.6875 -292.082031 38.828125 -299.644531 41.109375 -307.0625 C 43.398438 -314.488281 46.828125 -320.984375 51.390625 -326.546875 C 55.960938 -332.117188 61.457031 -336.617188 67.875 -340.046875 C 74.300781 -343.472656 81.796875 -345.1875 90.359375 -345.1875 C 99.210938 -345.1875 106.632812 -343.113281 112.625 -338.96875 C 118.625 -334.832031 121.625 -327.910156 121.625 -318.203125 C 121.625 -310.773438 119.269531 -304.5625 114.5625 -299.5625 C 109.851562 -294.570312 104.070312 -290.789062 97.21875 -288.21875 C 93.21875 -286.789062 90.71875 -284.289062 89.71875 -280.71875 C 88.71875 -277.15625 88.21875 -273.375 88.21875 -269.375 C 88.21875 -261.957031 89.070312 -254.460938 90.78125 -246.890625 C 92.5 -239.328125 93.359375 -231.832031 93.359375 -224.40625 C 93.359375 -220.125 92.929688 -214.695312 92.078125 -208.125 C 91.222656 -201.5625 89.796875 -194.925781 87.796875 -188.21875 C 85.796875 -181.507812 83.296875 -175.441406 80.296875 -170.015625 C 77.296875 -164.597656 73.515625 -160.742188 68.953125 -158.453125 C 72.953125 -157.023438 77.019531 -154.8125 81.15625 -151.8125 C 85.289062 -148.820312 89 -145.328125 92.28125 -141.328125 C 95.570312 -137.328125 98.21875 -132.972656 100.21875 -128.265625 C 102.21875 -123.554688 103.21875 -119.0625 103.21875 -114.78125 C 103.21875 -109.632812 102.570312 -104.273438 101.28125 -98.703125 C 100 -93.140625 98.5 -87.570312 96.78125 -82 C 95.070312 -76.4375 93.570312 -70.65625 92.28125 -64.65625 C 91 -58.664062 90.359375 -52.675781 90.359375 -46.6875 C 90.359375 -40.96875 91.785156 -35.894531 94.640625 -31.46875 C 97.503906 -27.050781 102.21875 -24.84375 108.78125 -24.84375 C 113.914062 -24.84375 118.335938 -22.484375 122.046875 -17.765625 C 125.765625 -13.054688 127.625 -8.273438 127.625 -3.421875 Z M 127.625 -3.421875 "/></g></g></g><g fill="#ffffff" fill-opacity="1"><g transform="translate(127.636549, 430.913333)"><g/></g><g transform="translate(230.849325, 430.913333)"><g/></g><g transform="translate(334.062101, 430.913333)"><g/></g><g transform="translate(437.274877, 430.913333)"><g/></g></g><g fill="#ffffff" fill-opacity="1"><g transform="translate(540.487668, 430.913333)"><g><path d="M 112.203125 -156.75 C 112.203125 -151.894531 111.34375 -147.539062 109.625 -143.6875 C 107.914062 -139.832031 104.632812 -136.757812 99.78125 -134.46875 C 97.21875 -133.039062 94.863281 -130.828125 92.71875 -127.828125 C 90.582031 -124.835938 88.726562 -121.484375 87.15625 -117.765625 C 85.582031 -114.054688 84.296875 -110.273438 83.296875 -106.421875 C 82.296875 -102.566406 81.796875 -99.351562 81.796875 -96.78125 C 81.796875 -85.9375 83.082031 -75.160156 85.65625 -64.453125 C 88.226562 -53.742188 89.515625 -42.96875 89.515625 -32.125 C 89.515625 -24.414062 88.367188 -16.847656 86.078125 -9.421875 C 83.796875 -1.992188 80.441406 4.5 76.015625 10.0625 C 71.585938 15.632812 66.160156 20.128906 59.734375 23.546875 C 53.316406 26.972656 45.828125 28.6875 37.265625 28.6875 C 28.410156 28.6875 20.984375 26.617188 14.984375 22.484375 C 8.992188 18.347656 6 11.425781 6 1.71875 C 6 -5.988281 8.28125 -12.269531 12.84375 -17.125 C 17.414062 -21.976562 23.128906 -25.832031 29.984375 -28.6875 C 33.972656 -30.113281 36.539062 -32.613281 37.6875 -36.1875 C 38.832031 -39.757812 39.40625 -43.539062 39.40625 -47.53125 C 39.40625 -54.957031 38.472656 -62.453125 36.609375 -70.015625 C 34.753906 -77.585938 33.828125 -85.226562 33.828125 -92.9375 C 33.828125 -97.21875 34.179688 -102.351562 34.890625 -108.34375 C 35.609375 -114.34375 36.820312 -120.335938 38.53125 -126.328125 C 40.25 -132.328125 42.609375 -137.753906 45.609375 -142.609375 C 48.609375 -147.460938 52.25 -151.03125 56.53125 -153.3125 C 52.53125 -154.457031 48.675781 -156.882812 44.96875 -160.59375 C 41.257812 -164.3125 37.832031 -168.523438 34.6875 -173.234375 C 31.550781 -177.941406 29.050781 -182.863281 27.1875 -188 C 25.332031 -193.144531 24.40625 -197.71875 24.40625 -201.71875 C 24.40625 -206.851562 25.046875 -212.203125 26.328125 -217.765625 C 27.617188 -223.335938 29.117188 -228.976562 30.828125 -234.6875 C 32.546875 -240.394531 34.046875 -246.175781 35.328125 -252.03125 C 36.617188 -257.882812 37.265625 -263.953125 37.265625 -270.234375 C 37.265625 -275.660156 35.832031 -280.585938 32.96875 -285.015625 C 30.113281 -289.441406 25.40625 -291.65625 18.84375 -291.65625 C 13.707031 -291.65625 9.28125 -294.007812 5.5625 -298.71875 C 1.851562 -303.425781 0 -308.207031 0 -313.0625 C 0 -318.488281 1.210938 -323.054688 3.640625 -326.765625 C 6.066406 -330.484375 9.207031 -333.484375 13.0625 -335.765625 C 16.914062 -338.046875 21.195312 -339.6875 25.90625 -340.6875 C 30.625 -341.6875 35.265625 -342.1875 39.828125 -342.1875 C 57.816406 -342.1875 70.664062 -336.90625 78.375 -326.34375 C 86.082031 -315.78125 89.9375 -302.078125 89.9375 -285.234375 C 89.9375 -274.378906 88.578125 -264.382812 85.859375 -255.25 C 83.148438 -246.113281 81.796875 -236.832031 81.796875 -227.40625 C 81.796875 -216.5625 83.648438 -207.640625 87.359375 -200.640625 C 91.078125 -193.648438 96.644531 -186.582031 104.0625 -179.4375 C 106.925781 -176.582031 109 -173.082031 110.28125 -168.9375 C 111.5625 -164.800781 112.203125 -160.738281 112.203125 -156.75 Z M 112.203125 -156.75 "/></g></g></g></g></g></svg>