<svg xmlns="http://www.w3.org/2000/svg" xmlns:xlink="http://www.w3.org/1999/xlink" width="1500" zoomAndPan="magnify" viewBox="0 0 1125 236.249991" height="315" preserveAspectRatio="xMidYMid meet" version="1.0"><defs><g/><clipPath id="a071f027ee"><path d="M 389 38.269531 L 400 38.269531 L 400 61 L 389 61 Z M 389 38.269531 " clip-rule="nonzero"/></clipPath><clipPath id="d565ea3af4"><path d="M 395 72 L 454.441406 72 L 454.441406 167.609375 L 395 167.609375 Z M 395 72 " clip-rule="nonzero"/></clipPath><clipPath id="ce3375bf5d"><path d="M 673.183594 101 L 726 101 L 726 149 L 673.183594 149 Z M 673.183594 101 " clip-rule="nonzero"/></clipPath><clipPath id="084cd72557"><path d="M 696 72.84375 L 745 72.84375 L 745 167.792969 L 696 167.792969 Z M 696 72.84375 " clip-rule="nonzero"/></clipPath><clipPath id="6fcbd19683"><rect x="0" width="1093" y="0" height="220"/></clipPath></defs><g clip-path="url(#a071f027ee)"><path fill="#e9dfc3" d="M 397.265625 60.324219 C 398.839844 59.882812 399.753906 58.25 399.3125 56.679688 L 394.84375 40.757812 C 394.398438 39.183594 392.765625 38.269531 391.199219 38.710938 C 389.625 39.15625 388.710938 40.789062 389.152344 42.355469 L 393.621094 58.277344 C 394.058594 59.851562 395.695312 60.765625 397.265625 60.324219 Z M 397.265625 60.324219 " fill-opacity="1" fill-rule="nonzero"/></g><path fill="#e9dfc3" d="M 381.847656 67.539062 L 367.425781 59.445312 C 366 58.644531 364.195312 59.152344 363.398438 60.574219 C 362.597656 61.996094 363.105469 63.800781 364.527344 64.601562 L 378.945312 72.699219 C 379.660156 73.097656 380.464844 73.171875 381.195312 72.964844 C 381.917969 72.757812 382.574219 72.277344 382.972656 71.5625 C 383.777344 70.140625 383.269531 68.339844 381.847656 67.539062 Z M 381.847656 67.539062 " fill-opacity="1" fill-rule="nonzero"/><path fill="#e9dfc3" d="M 415.316406 62.480469 C 416.03125 62.882812 416.832031 62.953125 417.5625 62.75 C 418.289062 62.542969 418.941406 62.0625 419.34375 61.347656 L 427.441406 46.925781 C 428.238281 45.503906 427.730469 43.699219 426.308594 42.898438 C 424.886719 42.097656 423.082031 42.605469 422.28125 44.027344 L 414.1875 58.449219 C 413.386719 59.882812 413.894531 61.683594 415.316406 62.480469 Z M 415.316406 62.480469 " fill-opacity="1" fill-rule="nonzero"/><path fill="#e9dfc3" d="M 377.175781 87.570312 L 361.253906 92.039062 C 359.679688 92.484375 358.765625 94.117188 359.207031 95.683594 C 359.648438 97.257812 361.277344 98.171875 362.851562 97.730469 L 378.773438 93.261719 C 380.347656 92.820312 381.261719 91.1875 380.820312 89.617188 C 380.378906 88.042969 378.742188 87.128906 377.175781 87.570312 Z M 377.175781 87.570312 " fill-opacity="1" fill-rule="nonzero"/><path fill="#e9dfc3" d="M 426.554688 76.773438 C 426.996094 78.34375 428.628906 79.261719 430.199219 78.816406 L 446.121094 74.347656 C 447.695312 73.90625 448.609375 72.273438 448.167969 70.703125 C 447.722656 69.128906 446.089844 68.214844 444.523438 68.65625 L 428.601562 73.128906 C 427.03125 73.570312 426.117188 75.203125 426.554688 76.773438 Z M 426.554688 76.773438 " fill-opacity="1" fill-rule="nonzero"/><g clip-path="url(#d565ea3af4)"><path fill="#e9dfc3" d="M 453.535156 135.851562 L 411.886719 73.941406 C 411.300781 73.066406 410.308594 72.59375 409.289062 72.644531 L 409.296875 72.632812 L 401.449219 72.632812 L 401.457031 72.640625 C 401.222656 72.648438 400.988281 72.675781 400.757812 72.742188 C 400.296875 72.871094 399.882812 73.105469 399.546875 73.414062 C 399.4375 73.519531 399.332031 73.628906 399.238281 73.75 C 398.859375 74.226562 398.628906 74.820312 398.601562 75.457031 L 397.769531 94.089844 L 395.273438 149.996094 C 395.269531 150.140625 395.269531 150.277344 395.285156 150.414062 C 395.378906 151.382812 395.941406 152.25 396.8125 152.722656 C 397.058594 152.855469 397.316406 152.953125 397.589844 153.015625 C 397.855469 153.074219 398.128906 153.097656 398.402344 153.078125 C 398.808594 153.058594 399.207031 152.949219 399.578125 152.761719 C 399.703125 152.695312 399.824219 152.625 399.933594 152.546875 L 410.273438 145.238281 L 415.925781 165.371094 C 416.007812 165.667969 416.132812 165.9375 416.292969 166.183594 C 416.398438 166.34375 416.519531 166.496094 416.652344 166.632812 C 417.117188 167.109375 417.734375 167.425781 418.402344 167.507812 C 418.496094 167.519531 418.589844 167.523438 418.683594 167.527344 L 426.589844 167.527344 L 426.585938 167.519531 C 426.871094 167.527344 427.167969 167.496094 427.460938 167.414062 L 441.867188 163.371094 C 443.4375 162.929688 444.355469 161.296875 443.910156 159.726562 L 438.410156 140.140625 L 443.003906 140.449219 C 443.023438 140.449219 443.039062 140.449219 443.050781 140.449219 L 451.089844 140.453125 L 451.058594 140.445312 C 451.34375 140.449219 451.621094 140.417969 451.886719 140.34375 C 452.617188 140.140625 453.257812 139.65625 453.648438 138.972656 C 454.210938 138 454.167969 136.785156 453.535156 135.851562 Z M 423.542969 137.164062 L 424.339844 140.011719 L 424.707031 141.316406 L 425.441406 143.933594 L 428.164062 153.628906 L 429.527344 158.476562 L 425.175781 159.703125 L 420.820312 160.925781 L 419.457031 156.078125 L 416.734375 146.382812 L 416 143.765625 L 415.632812 142.460938 L 414.835938 139.613281 C 414.808594 139.515625 414.773438 139.421875 414.742188 139.328125 C 414.300781 138.210938 413.234375 137.488281 412.070312 137.457031 C 411.777344 137.449219 411.484375 137.484375 411.191406 137.570312 C 411.128906 137.585938 411.074219 137.613281 411.019531 137.632812 C 410.933594 137.664062 410.84375 137.695312 410.761719 137.730469 C 410.753906 137.738281 410.738281 137.742188 410.730469 137.746094 C 410.722656 137.75 410.710938 137.753906 410.699219 137.757812 C 410.640625 137.789062 410.589844 137.824219 410.53125 137.855469 C 410.460938 137.898438 410.382812 137.9375 410.308594 137.984375 C 410.300781 137.992188 410.292969 137.996094 410.289062 138 L 405.238281 141.566406 L 401.453125 144.238281 L 404.113281 84.6875 L 437.378906 134.144531 L 426.589844 133.414062 C 426.578125 133.414062 426.570312 133.414062 426.5625 133.414062 C 426.414062 133.40625 426.261719 133.40625 426.113281 133.421875 C 426.089844 133.421875 426.0625 133.425781 426.042969 133.429688 C 426.003906 133.433594 425.964844 133.445312 425.929688 133.449219 C 425.820312 133.464844 425.703125 133.488281 425.589844 133.515625 C 425.296875 133.597656 425.023438 133.722656 424.78125 133.882812 C 424.617188 133.988281 424.464844 134.109375 424.328125 134.242188 C 423.984375 134.574219 423.730469 134.984375 423.582031 135.4375 C 423.519531 135.617188 423.476562 135.804688 423.457031 135.996094 C 423.402344 136.375 423.429688 136.769531 423.542969 137.164062 Z M 423.542969 137.164062 " fill-opacity="1" fill-rule="nonzero"/></g><g clip-path="url(#ce3375bf5d)"><path fill="#e9dfc3" d="M 701.585938 148.589844 L 687.386719 148.589844 C 686.453125 148.589844 685.53125 148.496094 684.617188 148.3125 C 683.703125 148.132812 682.8125 147.859375 681.953125 147.503906 C 681.089844 147.148438 680.273438 146.710938 679.5 146.191406 C 678.722656 145.671875 678.007812 145.085938 677.347656 144.425781 C 676.6875 143.765625 676.097656 143.050781 675.582031 142.273438 C 675.0625 141.5 674.625 140.679688 674.269531 139.820312 C 673.910156 138.957031 673.640625 138.070312 673.457031 137.15625 C 673.277344 136.242188 673.183594 135.320312 673.183594 134.386719 L 673.183594 115.449219 C 673.183594 114.519531 673.277344 113.59375 673.457031 112.679688 C 673.640625 111.765625 673.910156 110.878906 674.269531 110.019531 C 674.625 109.15625 675.0625 108.339844 675.582031 107.5625 C 676.097656 106.789062 676.6875 106.070312 677.347656 105.414062 C 678.007812 104.753906 678.722656 104.164062 679.5 103.648438 C 680.273438 103.128906 681.089844 102.691406 681.953125 102.332031 C 682.8125 101.976562 683.703125 101.707031 684.617188 101.523438 C 685.53125 101.339844 686.453125 101.25 687.386719 101.25 L 720.523438 101.25 C 720.835938 101.25 721.140625 101.28125 721.445312 101.339844 C 721.75 101.402344 722.046875 101.492188 722.335938 101.609375 C 722.621094 101.726562 722.894531 101.875 723.152344 102.046875 C 723.410156 102.21875 723.652344 102.414062 723.871094 102.636719 C 724.089844 102.855469 724.285156 103.09375 724.460938 103.351562 C 724.632812 103.613281 724.777344 103.882812 724.898438 104.171875 C 725.015625 104.457031 725.105469 104.753906 725.167969 105.058594 C 725.226562 105.363281 725.257812 105.671875 725.257812 105.984375 C 725.257812 106.292969 725.226562 106.601562 725.167969 106.90625 C 725.105469 107.210938 725.015625 107.507812 724.898438 107.792969 C 724.777344 108.082031 724.632812 108.355469 724.460938 108.613281 C 724.285156 108.871094 724.089844 109.109375 723.871094 109.332031 C 723.652344 109.550781 723.410156 109.746094 723.152344 109.917969 C 722.894531 110.09375 722.621094 110.238281 722.335938 110.355469 C 722.046875 110.476562 721.75 110.566406 721.445312 110.625 C 721.140625 110.6875 720.835938 110.71875 720.523438 110.71875 L 687.386719 110.71875 C 687.074219 110.71875 686.765625 110.746094 686.460938 110.808594 C 686.15625 110.867188 685.859375 110.957031 685.574219 111.078125 C 685.285156 111.195312 685.011719 111.34375 684.753906 111.515625 C 684.496094 111.6875 684.257812 111.882812 684.039062 112.105469 C 683.816406 112.324219 683.621094 112.5625 683.449219 112.820312 C 683.277344 113.078125 683.128906 113.351562 683.011719 113.640625 C 682.894531 113.925781 682.804688 114.222656 682.742188 114.527344 C 682.679688 114.832031 682.652344 115.140625 682.652344 115.449219 L 682.652344 134.386719 C 682.652344 134.699219 682.679688 135.003906 682.742188 135.308594 C 682.804688 135.617188 682.894531 135.910156 683.011719 136.199219 C 683.128906 136.484375 683.277344 136.757812 683.449219 137.015625 C 683.621094 137.277344 683.816406 137.515625 684.039062 137.734375 C 684.257812 137.953125 684.496094 138.152344 684.753906 138.324219 C 685.011719 138.496094 685.285156 138.640625 685.574219 138.761719 C 685.859375 138.878906 686.15625 138.96875 686.460938 139.03125 C 686.765625 139.089844 687.074219 139.121094 687.386719 139.121094 L 701.585938 139.121094 C 701.898438 139.121094 702.207031 139.152344 702.511719 139.210938 C 702.816406 139.273438 703.113281 139.363281 703.398438 139.480469 C 703.6875 139.601562 703.957031 139.746094 704.21875 139.917969 C 704.476562 140.089844 704.714844 140.289062 704.933594 140.507812 C 705.15625 140.726562 705.351562 140.964844 705.523438 141.226562 C 705.695312 141.484375 705.84375 141.757812 705.960938 142.042969 C 706.078125 142.332031 706.167969 142.625 706.230469 142.929688 C 706.289062 143.234375 706.320312 143.542969 706.320312 143.855469 C 706.320312 144.164062 706.289062 144.472656 706.230469 144.777344 C 706.167969 145.082031 706.078125 145.378906 705.960938 145.667969 C 705.84375 145.953125 705.695312 146.226562 705.523438 146.484375 C 705.351562 146.742188 705.15625 146.984375 704.933594 147.203125 C 704.714844 147.421875 704.476562 147.617188 704.21875 147.792969 C 703.957031 147.964844 703.6875 148.109375 703.398438 148.230469 C 703.113281 148.347656 702.816406 148.4375 702.511719 148.496094 C 702.207031 148.558594 701.898438 148.589844 701.585938 148.589844 Z M 701.585938 148.589844 " fill-opacity="1" fill-rule="nonzero"/></g><path fill="#e9dfc3" d="M 753.660156 139.121094 L 720.523438 139.121094 C 720.210938 139.121094 719.90625 139.089844 719.601562 139.03125 C 719.292969 138.96875 719 138.878906 718.710938 138.761719 C 718.425781 138.640625 718.152344 138.496094 717.894531 138.324219 C 717.632812 138.152344 717.394531 137.953125 717.175781 137.734375 C 716.957031 137.515625 716.757812 137.277344 716.585938 137.015625 C 716.414062 136.757812 716.269531 136.484375 716.148438 136.199219 C 716.03125 135.910156 715.941406 135.617188 715.878906 135.308594 C 715.820312 135.003906 715.789062 134.699219 715.789062 134.386719 C 715.789062 134.074219 715.820312 133.769531 715.878906 133.464844 C 715.941406 133.160156 716.03125 132.863281 716.148438 132.574219 C 716.269531 132.289062 716.414062 132.015625 716.585938 131.757812 C 716.757812 131.5 716.957031 131.257812 717.175781 131.039062 C 717.394531 130.820312 717.632812 130.625 717.894531 130.449219 C 718.152344 130.277344 718.425781 130.132812 718.710938 130.011719 C 719 129.894531 719.292969 129.804688 719.597656 129.742188 C 719.90625 129.683594 720.210938 129.652344 720.523438 129.652344 L 753.660156 129.652344 C 753.972656 129.652344 754.28125 129.621094 754.585938 129.5625 C 754.890625 129.5 755.1875 129.410156 755.472656 129.292969 C 755.761719 129.171875 756.03125 129.027344 756.292969 128.855469 C 756.550781 128.683594 756.789062 128.484375 757.007812 128.265625 C 757.226562 128.046875 757.425781 127.808594 757.597656 127.550781 C 757.769531 127.289062 757.914062 127.019531 758.035156 126.730469 C 758.152344 126.445312 758.242188 126.148438 758.304688 125.84375 C 758.363281 125.539062 758.394531 125.230469 758.394531 124.917969 L 758.394531 105.984375 C 758.394531 105.671875 758.363281 105.363281 758.304688 105.058594 C 758.242188 104.753906 758.152344 104.457031 758.035156 104.171875 C 757.914062 103.882812 757.769531 103.613281 757.597656 103.351562 C 757.425781 103.09375 757.226562 102.855469 757.007812 102.636719 C 756.789062 102.414062 756.550781 102.21875 756.292969 102.046875 C 756.03125 101.875 755.761719 101.726562 755.472656 101.609375 C 755.1875 101.492188 754.890625 101.402344 754.585938 101.339844 C 754.28125 101.28125 753.972656 101.25 753.660156 101.25 L 739.460938 101.25 C 739.148438 101.25 738.839844 101.21875 738.535156 101.15625 C 738.230469 101.097656 737.933594 101.007812 737.648438 100.886719 C 737.359375 100.769531 737.085938 100.625 736.828125 100.453125 C 736.570312 100.277344 736.332031 100.082031 736.113281 99.863281 C 735.890625 99.644531 735.695312 99.402344 735.523438 99.144531 C 735.351562 98.886719 735.203125 98.613281 735.085938 98.328125 C 734.964844 98.039062 734.875 97.742188 734.816406 97.4375 C 734.753906 97.132812 734.726562 96.824219 734.726562 96.515625 C 734.726562 96.203125 734.753906 95.894531 734.816406 95.589844 C 734.875 95.285156 734.964844 94.992188 735.085938 94.703125 C 735.203125 94.417969 735.351562 94.144531 735.523438 93.886719 C 735.695312 93.625 735.890625 93.386719 736.113281 93.167969 C 736.332031 92.949219 736.570312 92.75 736.828125 92.578125 C 737.085938 92.40625 737.359375 92.261719 737.648438 92.140625 C 737.933594 92.023438 738.230469 91.933594 738.535156 91.871094 C 738.839844 91.8125 739.148438 91.78125 739.460938 91.78125 L 753.660156 91.78125 C 754.59375 91.78125 755.515625 91.875 756.429688 92.054688 C 757.34375 92.238281 758.234375 92.507812 759.09375 92.867188 C 759.953125 93.222656 760.773438 93.660156 761.546875 94.179688 C 762.324219 94.695312 763.039062 95.285156 763.699219 95.945312 C 764.359375 96.605469 764.945312 97.320312 765.464844 98.097656 C 765.984375 98.871094 766.421875 99.6875 766.777344 100.550781 C 767.136719 101.410156 767.40625 102.300781 767.585938 103.214844 C 767.769531 104.128906 767.863281 105.050781 767.863281 105.984375 L 767.863281 124.917969 C 767.863281 125.851562 767.769531 126.773438 767.585938 127.6875 C 767.40625 128.601562 767.136719 129.492188 766.777344 130.351562 C 766.421875 131.210938 765.984375 132.03125 765.464844 132.804688 C 764.945312 133.582031 764.359375 134.296875 763.699219 134.957031 C 763.039062 135.617188 762.324219 136.203125 761.546875 136.722656 C 760.773438 137.242188 759.953125 137.679688 759.09375 138.035156 C 758.234375 138.394531 757.34375 138.664062 756.429688 138.847656 C 755.515625 139.027344 754.59375 139.121094 753.660156 139.121094 Z M 753.660156 139.121094 " fill-opacity="1" fill-rule="nonzero"/><g clip-path="url(#084cd72557)"><path fill="#e9dfc3" d="M 729.992188 167.523438 L 711.054688 167.523438 C 710.121094 167.523438 709.199219 167.433594 708.285156 167.25 C 707.371094 167.066406 706.484375 166.796875 705.621094 166.441406 C 704.761719 166.082031 703.941406 165.644531 703.167969 165.128906 C 702.394531 164.609375 701.675781 164.019531 701.015625 163.359375 C 700.359375 162.703125 699.769531 161.984375 699.25 161.210938 C 698.734375 160.433594 698.296875 159.617188 697.9375 158.753906 C 697.582031 157.894531 697.3125 157.007812 697.128906 156.09375 C 696.945312 155.179688 696.855469 154.253906 696.851562 153.324219 L 696.851562 129.652344 C 696.855469 128.722656 696.945312 127.796875 697.128906 126.882812 C 697.3125 125.96875 697.582031 125.082031 697.9375 124.21875 C 698.296875 123.359375 698.734375 122.542969 699.25 121.765625 C 699.769531 120.992188 700.359375 120.273438 701.015625 119.613281 C 701.675781 118.957031 702.394531 118.367188 703.167969 117.847656 C 703.941406 117.332031 704.761719 116.894531 705.621094 116.535156 C 706.484375 116.179688 707.371094 115.910156 708.285156 115.726562 C 709.199219 115.542969 710.121094 115.453125 711.054688 115.449219 L 729.992188 115.449219 C 730.300781 115.449219 730.609375 115.421875 730.914062 115.359375 C 731.21875 115.300781 731.515625 115.210938 731.804688 115.089844 C 732.089844 114.972656 732.363281 114.824219 732.621094 114.652344 C 732.878906 114.480469 733.117188 114.285156 733.339844 114.0625 C 733.558594 113.84375 733.753906 113.605469 733.925781 113.347656 C 734.101562 113.089844 734.246094 112.816406 734.363281 112.527344 C 734.484375 112.242188 734.574219 111.945312 734.632812 111.640625 C 734.695312 111.335938 734.726562 111.027344 734.726562 110.71875 L 734.726562 87.046875 C 734.726562 86.734375 734.695312 86.429688 734.632812 86.125 C 734.574219 85.820312 734.484375 85.523438 734.363281 85.234375 C 734.246094 84.949219 734.101562 84.675781 733.925781 84.417969 C 733.753906 84.160156 733.558594 83.917969 733.339844 83.699219 C 733.117188 83.480469 732.878906 83.285156 732.621094 83.109375 C 732.363281 82.9375 732.089844 82.792969 731.804688 82.671875 C 731.515625 82.554688 731.21875 82.464844 730.914062 82.402344 C 730.609375 82.34375 730.300781 82.3125 729.992188 82.3125 L 711.054688 82.3125 C 710.746094 82.3125 710.4375 82.34375 710.132812 82.402344 C 709.828125 82.464844 709.53125 82.554688 709.242188 82.671875 C 708.957031 82.792969 708.683594 82.9375 708.425781 83.109375 C 708.167969 83.285156 707.925781 83.480469 707.707031 83.699219 C 707.488281 83.917969 707.292969 84.160156 707.117188 84.417969 C 706.945312 84.675781 706.800781 84.949219 706.679688 85.234375 C 706.5625 85.523438 706.472656 85.820312 706.414062 86.125 C 706.351562 86.429688 706.320312 86.734375 706.320312 87.046875 L 706.320312 105.984375 C 706.320312 106.292969 706.289062 106.601562 706.230469 106.90625 C 706.167969 107.210938 706.078125 107.507812 705.960938 107.792969 C 705.84375 108.082031 705.695312 108.355469 705.523438 108.613281 C 705.351562 108.871094 705.15625 109.109375 704.933594 109.332031 C 704.714844 109.550781 704.476562 109.746094 704.21875 109.917969 C 703.957031 110.09375 703.6875 110.238281 703.398438 110.355469 C 703.113281 110.476562 702.816406 110.566406 702.511719 110.625 C 702.207031 110.6875 701.898438 110.71875 701.585938 110.71875 C 701.277344 110.71875 700.96875 110.6875 700.664062 110.625 C 700.359375 110.566406 700.0625 110.476562 699.777344 110.355469 C 699.488281 110.238281 699.214844 110.09375 698.957031 109.917969 C 698.699219 109.746094 698.460938 109.550781 698.238281 109.332031 C 698.019531 109.109375 697.824219 108.871094 697.652344 108.613281 C 697.476562 108.355469 697.332031 108.082031 697.214844 107.792969 C 697.09375 107.507812 697.003906 107.210938 696.945312 106.90625 C 696.882812 106.601562 696.851562 106.292969 696.851562 105.984375 L 696.851562 87.046875 C 696.855469 86.113281 696.945312 85.191406 697.128906 84.277344 C 697.3125 83.363281 697.582031 82.476562 697.9375 81.613281 C 698.296875 80.753906 698.734375 79.933594 699.25 79.160156 C 699.769531 78.386719 700.359375 77.667969 701.015625 77.007812 C 701.675781 76.351562 702.394531 75.761719 703.167969 75.242188 C 703.941406 74.726562 704.761719 74.285156 705.621094 73.929688 C 706.484375 73.574219 707.371094 73.304688 708.285156 73.121094 C 709.199219 72.9375 710.121094 72.847656 711.054688 72.84375 L 729.992188 72.84375 C 730.921875 72.847656 731.847656 72.9375 732.761719 73.121094 C 733.675781 73.304688 734.5625 73.574219 735.421875 73.929688 C 736.285156 74.285156 737.101562 74.726562 737.878906 75.242188 C 738.652344 75.761719 739.371094 76.351562 740.03125 77.007812 C 740.6875 77.667969 741.277344 78.386719 741.796875 79.160156 C 742.3125 79.933594 742.75 80.753906 743.109375 81.613281 C 743.464844 82.476562 743.734375 83.363281 743.917969 84.277344 C 744.101562 85.191406 744.191406 86.113281 744.191406 87.046875 L 744.191406 110.71875 C 744.191406 111.648438 744.101562 112.574219 743.917969 113.488281 C 743.734375 114.402344 743.464844 115.289062 743.109375 116.148438 C 742.75 117.011719 742.3125 117.828125 741.796875 118.605469 C 741.277344 119.378906 740.6875 120.097656 740.03125 120.753906 C 739.371094 121.414062 738.652344 122.003906 737.878906 122.519531 C 737.101562 123.039062 736.285156 123.476562 735.421875 123.835938 C 734.5625 124.191406 733.675781 124.460938 732.761719 124.644531 C 731.847656 124.828125 730.921875 124.917969 729.992188 124.917969 L 711.054688 124.917969 C 710.746094 124.917969 710.4375 124.949219 710.132812 125.011719 C 709.828125 125.070312 709.53125 125.160156 709.242188 125.28125 C 708.957031 125.398438 708.683594 125.542969 708.425781 125.71875 C 708.167969 125.890625 707.925781 126.085938 707.707031 126.304688 C 707.488281 126.523438 707.292969 126.765625 707.117188 127.023438 C 706.945312 127.28125 706.800781 127.554688 706.679688 127.839844 C 706.5625 128.128906 706.472656 128.425781 706.414062 128.730469 C 706.351562 129.035156 706.320312 129.34375 706.320312 129.652344 L 706.320312 153.324219 C 706.320312 153.632812 706.351562 153.941406 706.414062 154.246094 C 706.472656 154.550781 706.5625 154.847656 706.679688 155.132812 C 706.800781 155.421875 706.945312 155.695312 707.117188 155.953125 C 707.292969 156.210938 707.488281 156.449219 707.707031 156.671875 C 707.925781 156.890625 708.167969 157.085938 708.425781 157.257812 C 708.683594 157.433594 708.957031 157.578125 709.242188 157.695312 C 709.53125 157.816406 709.828125 157.90625 710.132812 157.964844 C 710.4375 158.027344 710.746094 158.058594 711.054688 158.058594 L 729.992188 158.058594 C 730.300781 158.058594 730.609375 158.027344 730.914062 157.964844 C 731.21875 157.90625 731.515625 157.816406 731.804688 157.695312 C 732.089844 157.578125 732.363281 157.433594 732.621094 157.257812 C 732.878906 157.085938 733.117188 156.890625 733.339844 156.671875 C 733.558594 156.449219 733.753906 156.210938 733.925781 155.953125 C 734.101562 155.695312 734.246094 155.421875 734.363281 155.132812 C 734.484375 154.847656 734.574219 154.550781 734.632812 154.246094 C 734.695312 153.941406 734.726562 153.632812 734.726562 153.324219 L 734.726562 134.386719 C 734.726562 134.074219 734.753906 133.769531 734.816406 133.464844 C 734.875 133.160156 734.964844 132.863281 735.085938 132.574219 C 735.203125 132.289062 735.351562 132.015625 735.523438 131.757812 C 735.695312 131.5 735.890625 131.257812 736.113281 131.039062 C 736.332031 130.820312 736.570312 130.625 736.828125 130.449219 C 737.085938 130.277344 737.359375 130.132812 737.648438 130.011719 C 737.933594 129.894531 738.230469 129.804688 738.535156 129.742188 C 738.839844 129.683594 739.148438 129.652344 739.460938 129.652344 C 739.769531 129.652344 740.078125 129.683594 740.382812 129.742188 C 740.6875 129.804688 740.984375 129.894531 741.269531 130.011719 C 741.558594 130.132812 741.832031 130.277344 742.089844 130.449219 C 742.347656 130.625 742.585938 130.820312 742.804688 131.039062 C 743.027344 131.257812 743.222656 131.5 743.394531 131.757812 C 743.566406 132.015625 743.714844 132.289062 743.832031 132.574219 C 743.953125 132.863281 744.042969 133.160156 744.101562 133.464844 C 744.164062 133.769531 744.191406 134.074219 744.191406 134.386719 L 744.191406 153.324219 C 744.191406 154.253906 744.101562 155.179688 743.917969 156.09375 C 743.734375 157.007812 743.464844 157.894531 743.109375 158.753906 C 742.75 159.617188 742.3125 160.433594 741.796875 161.210938 C 741.277344 161.984375 740.6875 162.703125 740.03125 163.359375 C 739.371094 164.019531 738.652344 164.609375 737.878906 165.128906 C 737.101562 165.644531 736.285156 166.082031 735.421875 166.441406 C 734.5625 166.796875 733.675781 167.066406 732.761719 167.25 C 731.847656 167.433594 730.921875 167.523438 729.992188 167.523438 Z M 729.992188 167.523438 " fill-opacity="1" fill-rule="nonzero"/></g><path fill="#e9dfc3" d="M 715.789062 96.5625 C 715.476562 96.5625 715.167969 96.535156 714.863281 96.472656 C 714.558594 96.414062 714.261719 96.324219 713.972656 96.207031 C 713.6875 96.089844 713.414062 95.941406 713.152344 95.769531 C 712.894531 95.597656 712.652344 95.402344 712.433594 95.183594 C 712.210938 94.964844 712.015625 94.726562 711.839844 94.46875 C 711.667969 94.207031 711.519531 93.9375 711.398438 93.648438 C 711.28125 93.363281 711.1875 93.066406 711.125 92.761719 C 711.066406 92.457031 711.03125 92.148438 711.03125 91.835938 C 711.03125 91.523438 711.058594 91.214844 711.117188 90.910156 C 711.179688 90.605469 711.265625 90.308594 711.382812 90.019531 C 711.503906 89.730469 711.648438 89.457031 711.820312 89.199219 C 711.992188 88.9375 712.1875 88.699219 712.40625 88.476562 C 712.625 88.257812 712.863281 88.058594 713.121094 87.882812 C 713.378906 87.710938 713.652344 87.5625 713.9375 87.441406 C 714.226562 87.320312 714.519531 87.230469 714.824219 87.167969 C 715.128906 87.105469 715.4375 87.074219 715.75 87.070312 C 716.0625 87.070312 716.371094 87.097656 716.675781 87.15625 C 716.980469 87.214844 717.277344 87.304688 717.566406 87.421875 C 717.855469 87.539062 718.128906 87.683594 718.386719 87.855469 C 718.648438 88.023438 718.890625 88.21875 719.109375 88.4375 C 719.332031 88.65625 719.53125 88.894531 719.707031 89.152344 C 719.878906 89.410156 720.027344 89.683594 720.148438 89.96875 C 720.269531 90.257812 720.363281 90.550781 720.425781 90.855469 C 720.488281 91.160156 720.519531 91.46875 720.523438 91.78125 L 720.523438 91.828125 C 720.523438 92.140625 720.492188 92.445312 720.433594 92.75 C 720.371094 93.058594 720.28125 93.351562 720.164062 93.640625 C 720.042969 93.925781 719.898438 94.199219 719.726562 94.457031 C 719.550781 94.71875 719.355469 94.957031 719.136719 95.175781 C 718.917969 95.394531 718.675781 95.59375 718.417969 95.765625 C 718.160156 95.9375 717.886719 96.082031 717.601562 96.203125 C 717.3125 96.320312 717.019531 96.410156 716.710938 96.472656 C 716.40625 96.53125 716.101562 96.5625 715.789062 96.5625 Z M 715.789062 96.5625 " fill-opacity="1" fill-rule="nonzero"/><path fill="#e9dfc3" d="M 725.257812 153.371094 C 724.945312 153.371094 724.636719 153.339844 724.332031 153.28125 C 724.027344 153.222656 723.730469 153.132812 723.441406 153.015625 C 723.152344 152.894531 722.878906 152.75 722.621094 152.578125 C 722.363281 152.40625 722.121094 152.210938 721.902344 151.992188 C 721.679688 151.773438 721.484375 151.53125 721.308594 151.273438 C 721.136719 151.015625 720.988281 150.742188 720.867188 150.457031 C 720.746094 150.167969 720.65625 149.875 720.59375 149.570312 C 720.53125 149.261719 720.5 148.957031 720.5 148.644531 C 720.5 148.332031 720.527344 148.023438 720.585938 147.71875 C 720.644531 147.414062 720.734375 147.117188 720.851562 146.828125 C 720.96875 146.539062 721.113281 146.265625 721.285156 146.007812 C 721.457031 145.746094 721.652344 145.507812 721.871094 145.285156 C 722.09375 145.0625 722.332031 144.867188 722.589844 144.691406 C 722.847656 144.519531 723.117188 144.371094 723.40625 144.25 C 723.691406 144.128906 723.988281 144.039062 724.292969 143.976562 C 724.597656 143.914062 724.90625 143.878906 725.21875 143.878906 C 725.527344 143.875 725.835938 143.90625 726.144531 143.964844 C 726.449219 144.023438 726.746094 144.113281 727.035156 144.230469 C 727.324219 144.347656 727.597656 144.492188 727.855469 144.660156 C 728.117188 144.832031 728.355469 145.027344 728.578125 145.246094 C 728.800781 145.464844 729 145.703125 729.171875 145.960938 C 729.347656 146.21875 729.496094 146.492188 729.617188 146.777344 C 729.738281 147.0625 729.832031 147.359375 729.894531 147.664062 C 729.957031 147.96875 729.988281 148.277344 729.992188 148.589844 L 729.992188 148.636719 C 729.992188 148.945312 729.960938 149.253906 729.898438 149.558594 C 729.839844 149.863281 729.75 150.160156 729.628906 150.449219 C 729.511719 150.734375 729.367188 151.007812 729.191406 151.265625 C 729.019531 151.523438 728.824219 151.765625 728.605469 151.984375 C 728.386719 152.203125 728.144531 152.398438 727.886719 152.574219 C 727.628906 152.746094 727.355469 152.890625 727.070312 153.011719 C 726.78125 153.128906 726.484375 153.21875 726.179688 153.28125 C 725.875 153.339844 725.566406 153.371094 725.257812 153.371094 Z M 725.257812 153.371094 " fill-opacity="1" fill-rule="nonzero"/><g transform="matrix(1, 0, 0, 1, 25, 0)"><g clip-path="url(#6fcbd19683)"><g fill="#e9dfc3" fill-opacity="1"><g transform="translate(1.510946, 165.107249)"><g><path d="M 94.484375 -78.015625 C 94.484375 -67.847656 92.398438 -58.050781 88.234375 -48.625 C 84.078125 -39.207031 78.503906 -30.859375 71.515625 -23.578125 C 64.523438 -16.296875 56.375 -10.488281 47.0625 -6.15625 C 37.757812 -1.820312 27.96875 0.34375 17.6875 0.34375 L 17.34375 0.34375 C 15.257812 0.34375 13.550781 -0.609375 12.21875 -2.515625 C 10.894531 -4.421875 9.769531 -6.816406 8.84375 -9.703125 C 7.914062 -12.597656 7.21875 -15.835938 6.75 -19.421875 C 6.289062 -23.003906 5.945312 -26.5 5.71875 -29.90625 C 5.488281 -33.3125 5.375 -36.375 5.375 -39.09375 C 5.375 -41.8125 5.375 -43.863281 5.375 -45.25 C 5.375 -49.175781 5.429688 -53.078125 5.546875 -56.953125 C 5.660156 -60.828125 5.832031 -64.726562 6.0625 -68.65625 C 6.0625 -69.925781 6.148438 -71.800781 6.328125 -74.28125 C 6.503906 -76.769531 6.707031 -79.570312 6.9375 -82.6875 C 7.164062 -85.8125 7.453125 -89.078125 7.796875 -92.484375 C 8.148438 -95.898438 8.523438 -99.082031 8.921875 -102.03125 C 9.328125 -104.976562 9.734375 -107.578125 10.140625 -109.828125 C 10.546875 -112.078125 11.035156 -113.609375 11.609375 -114.421875 C 13.117188 -116.960938 15.429688 -119.21875 18.546875 -121.1875 C 21.671875 -123.15625 25.050781 -124.773438 28.6875 -126.046875 C 32.332031 -127.316406 36.03125 -128.269531 39.78125 -128.90625 C 43.539062 -129.539062 46.804688 -129.859375 49.578125 -129.859375 C 57.210938 -129.859375 63.832031 -128.441406 69.4375 -125.609375 C 75.039062 -122.773438 79.71875 -118.957031 83.46875 -114.15625 C 87.226562 -109.363281 90.003906 -103.847656 91.796875 -97.609375 C 93.585938 -91.367188 94.484375 -84.835938 94.484375 -78.015625 Z M 65.359375 -72.984375 C 65.359375 -75.523438 64.894531 -78.125 63.96875 -80.78125 C 63.050781 -83.445312 61.753906 -85.875 60.078125 -88.0625 C 58.398438 -90.257812 56.375 -92.023438 54 -93.359375 C 51.632812 -94.691406 49.003906 -95.359375 46.109375 -95.359375 C 43.679688 -95.359375 41.195312 -94.78125 38.65625 -93.625 C 38.082031 -93.269531 37.5625 -92.195312 37.09375 -90.40625 C 36.632812 -88.613281 36.257812 -86.445312 35.96875 -83.90625 C 35.6875 -81.363281 35.425781 -78.585938 35.1875 -75.578125 C 34.957031 -72.578125 34.8125 -69.71875 34.75 -67 C 34.695312 -64.289062 34.640625 -61.894531 34.578125 -59.8125 C 34.523438 -57.726562 34.5 -56.34375 34.5 -55.65625 C 34.5 -54.5 34.5 -52.789062 34.5 -50.53125 C 34.5 -48.28125 34.582031 -46.054688 34.75 -43.859375 C 34.925781 -41.660156 35.128906 -39.753906 35.359375 -38.140625 C 35.597656 -36.523438 36.003906 -35.71875 36.578125 -35.71875 C 40.046875 -35.71875 43.484375 -37.070312 46.890625 -39.78125 C 50.304688 -42.5 53.398438 -45.820312 56.171875 -49.75 C 58.941406 -53.6875 61.164062 -57.789062 62.84375 -62.0625 C 64.519531 -66.34375 65.359375 -69.984375 65.359375 -72.984375 Z M 65.359375 -72.984375 "/></g></g></g><g fill="#e9dfc3" fill-opacity="1"><g transform="translate(98.593749, 165.107249)"><g><path d="M 33.8125 -121.015625 C 33.8125 -119.390625 33.375 -117.941406 32.5 -116.671875 C 31.632812 -115.398438 30.507812 -114.273438 29.125 -113.296875 C 27.738281 -112.316406 26.234375 -111.566406 24.609375 -111.046875 C 22.992188 -110.523438 21.492188 -110.265625 20.109375 -110.265625 C 17.796875 -110.265625 15.769531 -110.84375 14.03125 -112 C 12.300781 -113.15625 11.4375 -114.945312 11.4375 -117.375 C 11.4375 -119.101562 11.867188 -120.628906 12.734375 -121.953125 C 13.609375 -123.285156 14.679688 -124.382812 15.953125 -125.25 C 17.222656 -126.125 18.664062 -126.789062 20.28125 -127.25 C 21.90625 -127.71875 23.46875 -127.953125 24.96875 -127.953125 C 27.164062 -127.953125 29.1875 -127.429688 31.03125 -126.390625 C 32.882812 -125.347656 33.8125 -123.554688 33.8125 -121.015625 Z M 35.1875 -62.0625 C 35.1875 -60.445312 35.1875 -58.742188 35.1875 -56.953125 C 35.1875 -55.160156 35.128906 -53.457031 35.015625 -51.84375 C 34.898438 -49.875 34.84375 -47.242188 34.84375 -43.953125 C 34.84375 -40.660156 34.726562 -37.101562 34.5 -33.28125 C 34.269531 -29.46875 33.894531 -25.597656 33.375 -21.671875 C 32.851562 -17.742188 32.015625 -14.160156 30.859375 -10.921875 C 29.703125 -7.679688 28.171875 -5.050781 26.265625 -3.03125 C 24.359375 -1.007812 21.960938 0.0546875 19.078125 0.171875 C 16.878906 0.285156 15.023438 -0.578125 13.515625 -2.421875 C 12.015625 -4.273438 10.773438 -6.675781 9.796875 -9.625 C 8.816406 -12.570312 8.09375 -15.863281 7.625 -19.5 C 7.164062 -23.144531 6.816406 -26.671875 6.578125 -30.078125 C 6.347656 -33.484375 6.234375 -36.628906 6.234375 -39.515625 C 6.234375 -42.410156 6.234375 -44.550781 6.234375 -45.9375 C 6.234375 -47.789062 6.234375 -50.421875 6.234375 -53.828125 C 6.234375 -57.242188 6.347656 -60.914062 6.578125 -64.84375 C 6.816406 -68.769531 7.253906 -72.753906 7.890625 -76.796875 C 8.523438 -80.847656 9.445312 -84.546875 10.65625 -87.890625 C 11.875 -91.242188 13.460938 -93.960938 15.421875 -96.046875 C 17.390625 -98.128906 19.878906 -99.171875 22.890625 -99.171875 C 26.003906 -99.171875 28.367188 -97.609375 29.984375 -94.484375 C 31.609375 -91.367188 32.820312 -87.726562 33.625 -83.5625 C 34.4375 -79.40625 34.898438 -75.273438 35.015625 -71.171875 C 35.128906 -67.066406 35.1875 -64.03125 35.1875 -62.0625 Z M 35.1875 -62.0625 "/></g></g></g><g fill="#e9dfc3" fill-opacity="1"><g transform="translate(140.894114, 165.107249)"><g><path d="M 83.734375 -59.125 C 83.734375 -53.226562 83.644531 -47.332031 83.46875 -41.4375 C 83.300781 -35.539062 82.988281 -29.644531 82.53125 -23.75 C 82.175781 -18.664062 81.707031 -13.234375 81.125 -7.453125 C 80.550781 -1.671875 79.628906 4.078125 78.359375 9.796875 C 77.085938 15.515625 75.410156 21.003906 73.328125 26.265625 C 71.253906 31.523438 68.507812 36.175781 65.09375 40.21875 C 61.6875 44.269531 57.554688 47.507812 52.703125 49.9375 C 47.847656 52.363281 42.070312 53.578125 35.375 53.578125 C 32.25 53.578125 28.75 53.082031 24.875 52.09375 C 21.007812 51.113281 17.367188 49.695312 13.953125 47.84375 C 10.546875 46 7.65625 43.71875 5.28125 41 C 2.914062 38.28125 1.734375 35.128906 1.734375 31.546875 C 1.734375 28.890625 2.6875 26.429688 4.59375 24.171875 C 6.5 21.921875 8.957031 20.796875 11.96875 20.796875 C 13.8125 20.796875 15.570312 21.113281 17.25 21.75 C 18.925781 22.394531 20.601562 23.117188 22.28125 23.921875 C 23.957031 24.734375 25.570312 25.457031 27.125 26.09375 C 28.6875 26.726562 30.28125 27.046875 31.90625 27.046875 C 36.175781 27.046875 39.753906 25.972656 42.640625 23.828125 C 45.535156 21.691406 47.847656 18.976562 49.578125 15.6875 C 51.316406 12.394531 52.617188 8.8125 53.484375 4.9375 C 54.347656 1.070312 54.957031 -2.59375 55.3125 -6.0625 C 53 -3.40625 50.3125 -1.585938 47.25 -0.609375 C 44.1875 0.367188 40.976562 0.859375 37.625 0.859375 C 31.5 0.859375 26.296875 -0.207031 22.015625 -2.34375 C 17.742188 -4.476562 14.273438 -7.421875 11.609375 -11.171875 C 8.953125 -14.929688 6.988281 -19.296875 5.71875 -24.265625 C 4.445312 -29.242188 3.8125 -34.617188 3.8125 -40.390625 C 3.8125 -43.972656 4.1875 -48.019531 4.9375 -52.53125 C 5.6875 -57.039062 6.8125 -61.601562 8.3125 -66.21875 C 9.820312 -70.84375 11.703125 -75.351562 13.953125 -79.75 C 16.210938 -84.144531 18.84375 -88.015625 21.84375 -91.359375 C 24.851562 -94.710938 28.234375 -97.429688 31.984375 -99.515625 C 35.742188 -101.597656 39.878906 -102.640625 44.390625 -102.640625 C 48.773438 -102.640625 52.671875 -101.363281 56.078125 -98.8125 C 59.492188 -96.269531 61.488281 -92.691406 62.0625 -88.078125 C 63.332031 -90.503906 65.007812 -92.898438 67.09375 -95.265625 C 69.175781 -97.640625 71.71875 -98.828125 74.71875 -98.828125 C 76.34375 -98.828125 77.703125 -98.015625 78.796875 -96.390625 C 79.890625 -94.773438 80.753906 -92.664062 81.390625 -90.0625 C 82.023438 -87.46875 82.515625 -84.632812 82.859375 -81.5625 C 83.210938 -78.5 83.445312 -75.492188 83.5625 -72.546875 C 83.675781 -69.609375 83.734375 -66.925781 83.734375 -64.5 C 83.734375 -62.070312 83.734375 -60.28125 83.734375 -59.125 Z M 57.390625 -47.84375 C 57.390625 -49.582031 57.128906 -51.835938 56.609375 -54.609375 C 56.085938 -57.378906 55.332031 -60.035156 54.34375 -62.578125 C 53.363281 -65.128906 52.125 -67.328125 50.625 -69.171875 C 49.125 -71.023438 47.332031 -71.953125 45.25 -71.953125 C 42.59375 -71.953125 40.25 -71.023438 38.21875 -69.171875 C 36.195312 -67.328125 34.492188 -65.101562 33.109375 -62.5 C 31.722656 -59.894531 30.65625 -57.117188 29.90625 -54.171875 C 29.15625 -51.222656 28.78125 -48.710938 28.78125 -46.640625 C 28.78125 -45.140625 28.894531 -43.113281 29.125 -40.5625 C 29.351562 -38.019531 29.84375 -35.535156 30.59375 -33.109375 C 31.351562 -30.679688 32.367188 -28.597656 33.640625 -26.859375 C 34.910156 -25.128906 36.582031 -24.265625 38.65625 -24.265625 C 41.78125 -24.265625 44.5 -25.015625 46.8125 -26.515625 C 49.125 -28.023438 51.054688 -29.9375 52.609375 -32.25 C 54.171875 -34.5625 55.359375 -37.101562 56.171875 -39.875 C 56.984375 -42.644531 57.390625 -45.300781 57.390625 -47.84375 Z M 57.390625 -47.84375 "/></g></g></g><g fill="#e9dfc3" fill-opacity="1"><g transform="translate(231.73588, 165.107249)"><g><path d="M 33.8125 -121.015625 C 33.8125 -119.390625 33.375 -117.941406 32.5 -116.671875 C 31.632812 -115.398438 30.507812 -114.273438 29.125 -113.296875 C 27.738281 -112.316406 26.234375 -111.566406 24.609375 -111.046875 C 22.992188 -110.523438 21.492188 -110.265625 20.109375 -110.265625 C 17.796875 -110.265625 15.769531 -110.84375 14.03125 -112 C 12.300781 -113.15625 11.4375 -114.945312 11.4375 -117.375 C 11.4375 -119.101562 11.867188 -120.628906 12.734375 -121.953125 C 13.609375 -123.285156 14.679688 -124.382812 15.953125 -125.25 C 17.222656 -126.125 18.664062 -126.789062 20.28125 -127.25 C 21.90625 -127.71875 23.46875 -127.953125 24.96875 -127.953125 C 27.164062 -127.953125 29.1875 -127.429688 31.03125 -126.390625 C 32.882812 -125.347656 33.8125 -123.554688 33.8125 -121.015625 Z M 35.1875 -62.0625 C 35.1875 -60.445312 35.1875 -58.742188 35.1875 -56.953125 C 35.1875 -55.160156 35.128906 -53.457031 35.015625 -51.84375 C 34.898438 -49.875 34.84375 -47.242188 34.84375 -43.953125 C 34.84375 -40.660156 34.726562 -37.101562 34.5 -33.28125 C 34.269531 -29.46875 33.894531 -25.597656 33.375 -21.671875 C 32.851562 -17.742188 32.015625 -14.160156 30.859375 -10.921875 C 29.703125 -7.679688 28.171875 -5.050781 26.265625 -3.03125 C 24.359375 -1.007812 21.960938 0.0546875 19.078125 0.171875 C 16.878906 0.285156 15.023438 -0.578125 13.515625 -2.421875 C 12.015625 -4.273438 10.773438 -6.675781 9.796875 -9.625 C 8.816406 -12.570312 8.09375 -15.863281 7.625 -19.5 C 7.164062 -23.144531 6.816406 -26.671875 6.578125 -30.078125 C 6.347656 -33.484375 6.234375 -36.628906 6.234375 -39.515625 C 6.234375 -42.410156 6.234375 -44.550781 6.234375 -45.9375 C 6.234375 -47.789062 6.234375 -50.421875 6.234375 -53.828125 C 6.234375 -57.242188 6.347656 -60.914062 6.578125 -64.84375 C 6.816406 -68.769531 7.253906 -72.753906 7.890625 -76.796875 C 8.523438 -80.847656 9.445312 -84.546875 10.65625 -87.890625 C 11.875 -91.242188 13.460938 -93.960938 15.421875 -96.046875 C 17.390625 -98.128906 19.878906 -99.171875 22.890625 -99.171875 C 26.003906 -99.171875 28.367188 -97.609375 29.984375 -94.484375 C 31.609375 -91.367188 32.820312 -87.726562 33.625 -83.5625 C 34.4375 -79.40625 34.898438 -75.273438 35.015625 -71.171875 C 35.128906 -67.066406 35.1875 -64.03125 35.1875 -62.0625 Z M 35.1875 -62.0625 "/></g></g></g><g fill="#e9dfc3" fill-opacity="1"><g transform="translate(274.036245, 165.107249)"><g><path d="M 45.59375 6.234375 C 37.382812 6.234375 31 5.164062 26.4375 3.03125 C 21.875 0.894531 18.460938 -2.132812 16.203125 -6.0625 C 13.953125 -10 12.59375 -14.738281 12.125 -20.28125 C 11.664062 -25.832031 11.4375 -32.015625 11.4375 -38.828125 C 11.4375 -44.265625 11.609375 -49.726562 11.953125 -55.21875 C 12.304688 -60.707031 12.828125 -66.570312 13.515625 -72.8125 C 11.898438 -72.8125 10.628906 -72.78125 9.703125 -72.71875 C 8.785156 -72.664062 8.035156 -72.640625 7.453125 -72.640625 C 3.753906 -72.640625 0.550781 -73.445312 -2.15625 -75.0625 C -4.875 -76.6875 -6.234375 -79.175781 -6.234375 -82.53125 C -6.234375 -84.601562 -5.453125 -86.445312 -3.890625 -88.0625 C -2.335938 -89.6875 -0.347656 -91.078125 2.078125 -92.234375 C 4.503906 -93.390625 7.132812 -94.3125 9.96875 -95 C 12.800781 -95.695312 15.488281 -96.160156 18.03125 -96.390625 C 18.03125 -99.628906 18.257812 -103.210938 18.71875 -107.140625 C 19.1875 -111.066406 20.023438 -114.734375 21.234375 -118.140625 C 22.453125 -121.554688 24.097656 -124.421875 26.171875 -126.734375 C 28.253906 -129.046875 30.914062 -130.203125 34.15625 -130.203125 C 36 -130.203125 37.644531 -129.648438 39.09375 -128.546875 C 40.539062 -127.453125 41.722656 -126.066406 42.640625 -124.390625 C 43.566406 -122.710938 44.257812 -120.832031 44.71875 -118.75 C 45.1875 -116.675781 45.421875 -114.65625 45.421875 -112.6875 C 45.421875 -110.375 45.25 -108.003906 44.90625 -105.578125 C 44.5625 -103.148438 43.925781 -100.144531 43 -96.5625 C 44.957031 -96.789062 46.285156 -96.9375 46.984375 -97 C 47.679688 -97.0625 48.316406 -97.09375 48.890625 -97.09375 C 50.859375 -97.09375 52.910156 -96.914062 55.046875 -96.5625 C 57.179688 -96.21875 59.144531 -95.640625 60.9375 -94.828125 C 62.726562 -94.023438 64.203125 -92.957031 65.359375 -91.625 C 66.515625 -90.289062 67.09375 -88.703125 67.09375 -86.859375 C 67.09375 -84.773438 66.253906 -82.925781 64.578125 -81.3125 C 62.898438 -79.695312 60.789062 -78.3125 58.25 -77.15625 C 55.707031 -76 52.988281 -75.101562 50.09375 -74.46875 C 47.207031 -73.832031 44.492188 -73.394531 41.953125 -73.15625 C 41.265625 -68.414062 40.773438 -64.050781 40.484375 -60.0625 C 40.191406 -56.082031 39.875 -52.070312 39.53125 -48.03125 C 39.300781 -46.0625 39.097656 -44.066406 38.921875 -42.046875 C 38.742188 -40.023438 38.65625 -37.972656 38.65625 -35.890625 C 38.65625 -34.390625 38.710938 -32.625 38.828125 -30.59375 C 38.953125 -28.570312 39.359375 -26.632812 40.046875 -24.78125 C 40.742188 -22.9375 41.84375 -21.347656 43.34375 -20.015625 C 44.84375 -18.691406 46.921875 -18.03125 49.578125 -18.03125 C 51.203125 -18.03125 52.878906 -18.171875 54.609375 -18.453125 C 56.347656 -18.742188 58.082031 -18.890625 59.8125 -18.890625 C 62.820312 -18.890625 64.988281 -17.847656 66.3125 -15.765625 C 67.644531 -13.691406 68.3125 -11.035156 68.3125 -7.796875 C 68.3125 -5.367188 67.585938 -3.257812 66.140625 -1.46875 C 64.691406 0.320312 62.867188 1.765625 60.671875 2.859375 C 58.484375 3.953125 56.03125 4.785156 53.3125 5.359375 C 50.59375 5.941406 48.019531 6.234375 45.59375 6.234375 Z M 45.59375 6.234375 "/></g></g></g><g fill="#e9dfc3" fill-opacity="1"><g transform="translate(340.611053, 165.107249)"><g/></g></g><g fill="#e9dfc3" fill-opacity="1"><g transform="translate(382.391331, 165.107249)"><g/></g></g><g fill="#e9dfc3" fill-opacity="1"><g transform="translate(424.188457, 165.107249)"><g><path d="M 37.625 -105.0625 C 37.625 -98.820312 37.363281 -92.550781 36.84375 -86.25 C 36.320312 -79.945312 36.0625 -73.617188 36.0625 -67.265625 C 36.0625 -59.054688 36.320312 -50.847656 36.84375 -42.640625 C 37.363281 -34.441406 37.625 -26.179688 37.625 -17.859375 C 37.625 -15.773438 37.503906 -13.429688 37.265625 -10.828125 C 37.035156 -8.234375 36.488281 -5.835938 35.625 -3.640625 C 34.757812 -1.441406 33.457031 0.40625 31.71875 1.90625 C 29.988281 3.40625 27.679688 4.15625 24.796875 4.15625 C 22.015625 4.15625 19.613281 2.796875 17.59375 0.078125 C 15.570312 -2.628906 13.894531 -6.09375 12.5625 -10.3125 C 11.238281 -14.53125 10.140625 -19.238281 9.265625 -24.4375 C 8.398438 -29.644531 7.765625 -34.703125 7.359375 -39.609375 C 6.960938 -44.523438 6.675781 -49.035156 6.5 -53.140625 C 6.320312 -57.242188 6.234375 -60.273438 6.234375 -62.234375 C 6.234375 -64.429688 6.320312 -67.609375 6.5 -71.765625 C 6.675781 -75.929688 7.050781 -80.441406 7.625 -85.296875 C 8.207031 -90.148438 8.988281 -95.085938 9.96875 -100.109375 C 10.945312 -105.140625 12.242188 -109.707031 13.859375 -113.8125 C 15.484375 -117.914062 17.421875 -121.269531 19.671875 -123.875 C 21.929688 -126.476562 24.617188 -127.78125 27.734375 -127.78125 C 30.273438 -127.78125 32.210938 -126.941406 33.546875 -125.265625 C 34.878906 -123.585938 35.832031 -121.5625 36.40625 -119.1875 C 36.988281 -116.820312 37.335938 -114.335938 37.453125 -111.734375 C 37.566406 -109.140625 37.625 -106.914062 37.625 -105.0625 Z M 37.625 -105.0625 "/></g></g></g><g fill="#e9dfc3" fill-opacity="1"><g transform="translate(469.782702, 165.107249)"><g/></g></g><g fill="#e9dfc3" fill-opacity="1"><g transform="translate(511.56298, 165.107249)"><g><path d="M 75.9375 -125.171875 C 75.9375 -120.773438 74.429688 -116.785156 71.421875 -113.203125 C 68.421875 -109.628906 64.753906 -106.425781 60.421875 -103.59375 C 56.085938 -100.757812 51.550781 -98.300781 46.8125 -96.21875 C 42.070312 -94.132812 37.96875 -92.398438 34.5 -91.015625 C 34.5 -88.585938 34.441406 -86.101562 34.328125 -83.5625 C 34.210938 -81.019531 34.039062 -78.476562 33.8125 -75.9375 C 37.507812 -77.78125 41.664062 -79.507812 46.28125 -81.125 C 50.90625 -82.75 55.300781 -83.5625 59.46875 -83.5625 C 62.820312 -83.5625 65.566406 -82.867188 67.703125 -81.484375 C 69.835938 -80.097656 70.90625 -77.671875 70.90625 -74.203125 C 70.90625 -70.390625 69.546875 -66.976562 66.828125 -63.96875 C 64.117188 -60.96875 60.851562 -58.3125 57.03125 -56 C 53.21875 -53.6875 49.226562 -51.71875 45.0625 -50.09375 C 40.90625 -48.476562 37.382812 -47.210938 34.5 -46.296875 C 34.5 -42.472656 34.441406 -38.679688 34.328125 -34.921875 C 34.210938 -31.171875 34.039062 -27.445312 33.8125 -23.75 C 33.695312 -21.90625 33.492188 -19.59375 33.203125 -16.8125 C 32.910156 -14.039062 32.332031 -11.351562 31.46875 -8.75 C 30.601562 -6.15625 29.359375 -3.90625 27.734375 -2 C 26.117188 -0.09375 24.039062 0.859375 21.5 0.859375 C 19.070312 0.859375 16.988281 -0.320312 15.25 -2.6875 C 13.519531 -5.050781 12.046875 -8.082031 10.828125 -11.78125 C 9.617188 -15.488281 8.640625 -19.625 7.890625 -24.1875 C 7.140625 -28.75 6.5625 -33.222656 6.15625 -37.609375 C 5.75 -42.003906 5.515625 -46.050781 5.453125 -49.75 C 5.398438 -53.457031 5.375 -56.289062 5.375 -58.25 C 5.375 -59.75 5.398438 -61.972656 5.453125 -64.921875 C 5.515625 -67.867188 5.570312 -71.132812 5.625 -74.71875 C 5.6875 -78.300781 5.800781 -82.054688 5.96875 -85.984375 C 6.144531 -89.921875 6.347656 -93.648438 6.578125 -97.171875 C 6.816406 -100.703125 7.132812 -103.820312 7.53125 -106.53125 C 7.9375 -109.25 8.429688 -111.242188 9.015625 -112.515625 C 10.285156 -115.054688 13.316406 -117.566406 18.109375 -120.046875 C 22.910156 -122.535156 28.257812 -124.734375 34.15625 -126.640625 C 40.050781 -128.546875 45.800781 -130.109375 51.40625 -131.328125 C 57.007812 -132.546875 61.316406 -133.15625 64.328125 -133.15625 C 65.710938 -133.15625 67.066406 -133.066406 68.390625 -132.890625 C 69.722656 -132.710938 70.96875 -132.332031 72.125 -131.75 C 73.28125 -131.175781 74.203125 -130.367188 74.890625 -129.328125 C 75.585938 -128.296875 75.9375 -126.910156 75.9375 -125.171875 Z M 75.9375 -125.171875 "/></g></g></g><g fill="#e9dfc3" fill-opacity="1"><g transform="translate(583.161548, 165.107249)"><g><path d="M 65.359375 -64.84375 C 63.742188 -64.726562 62.359375 -64.867188 61.203125 -65.265625 C 60.046875 -65.671875 58.890625 -66.109375 57.734375 -66.578125 C 56.691406 -67.035156 55.648438 -67.46875 54.609375 -67.875 C 53.566406 -68.28125 52.410156 -68.425781 51.140625 -68.3125 C 48.828125 -68.195312 46.773438 -67.5625 44.984375 -66.40625 C 43.191406 -65.25 41.570312 -63.800781 40.125 -62.0625 C 38.6875 -60.332031 37.445312 -58.394531 36.40625 -56.25 C 35.363281 -54.113281 34.554688 -52.007812 33.984375 -49.9375 C 33.628906 -48.539062 33.363281 -46.425781 33.1875 -43.59375 C 33.019531 -40.769531 32.9375 -37.738281 32.9375 -34.5 C 32.820312 -31.144531 32.765625 -27.960938 32.765625 -24.953125 C 32.765625 -21.953125 32.648438 -19.585938 32.421875 -17.859375 C 32.304688 -16.003906 32.015625 -13.832031 31.546875 -11.34375 C 31.085938 -8.863281 30.363281 -6.523438 29.375 -4.328125 C 28.394531 -2.140625 27.097656 -0.292969 25.484375 1.203125 C 23.867188 2.710938 21.789062 3.46875 19.25 3.46875 C 17.28125 3.46875 15.570312 2.890625 14.125 1.734375 C 12.6875 0.578125 11.472656 -0.953125 10.484375 -2.859375 C 9.503906 -4.765625 8.695312 -6.988281 8.0625 -9.53125 C 7.425781 -12.070312 6.9375 -14.675781 6.59375 -17.34375 C 6.238281 -20.113281 5.972656 -22.882812 5.796875 -25.65625 C 5.628906 -28.425781 5.515625 -31.054688 5.453125 -33.546875 C 5.398438 -36.035156 5.398438 -38.316406 5.453125 -40.390625 C 5.515625 -42.472656 5.546875 -44.148438 5.546875 -45.421875 C 5.429688 -49.460938 5.226562 -53.535156 4.9375 -57.640625 C 4.644531 -61.742188 4.5 -65.820312 4.5 -69.875 C 4.5 -72.414062 4.613281 -75.242188 4.84375 -78.359375 C 5.082031 -81.484375 5.722656 -84.398438 6.765625 -87.109375 C 7.804688 -89.828125 9.335938 -92.109375 11.359375 -93.953125 C 13.378906 -95.804688 16.179688 -96.734375 19.765625 -96.734375 C 21.734375 -96.734375 23.410156 -96.097656 24.796875 -94.828125 C 26.179688 -93.554688 27.304688 -91.992188 28.171875 -90.140625 C 29.035156 -88.296875 29.695312 -86.332031 30.15625 -84.25 C 30.625 -82.175781 30.914062 -80.269531 31.03125 -78.53125 C 33.800781 -83.039062 36.921875 -86.710938 40.390625 -89.546875 C 43.859375 -92.378906 48.367188 -93.910156 53.921875 -94.140625 C 56.691406 -94.253906 59.4375 -93.992188 62.15625 -93.359375 C 64.875 -92.722656 67.359375 -91.679688 69.609375 -90.234375 C 71.859375 -88.796875 73.707031 -86.921875 75.15625 -84.609375 C 76.601562 -82.296875 77.382812 -79.578125 77.5 -76.453125 C 77.726562 -72.753906 76.628906 -69.921875 74.203125 -67.953125 C 71.773438 -65.992188 68.828125 -64.957031 65.359375 -64.84375 Z M 65.359375 -64.84375 "/></g></g></g><g fill="#e9dfc3" fill-opacity="1"><g transform="translate(658.068299, 165.107249)"><g/></g></g><g fill="#e9dfc3" fill-opacity="1"><g transform="translate(699.848577, 165.107249)"><g/></g></g><g fill="#e9dfc3" fill-opacity="1"><g transform="translate(741.645691, 165.107249)"><g><path d="M 54.4375 4.859375 C 52.46875 4.859375 50.90625 3.960938 49.75 2.171875 C 48.601562 0.378906 47.738281 -1.671875 47.15625 -3.984375 C 46.582031 -6.296875 46.207031 -8.632812 46.03125 -11 C 45.851562 -13.375 45.765625 -15.195312 45.765625 -16.46875 C 45.765625 -19.9375 45.96875 -23.40625 46.375 -26.875 C 46.78125 -30.34375 47.242188 -33.804688 47.765625 -37.265625 C 48.285156 -40.734375 48.742188 -44.203125 49.140625 -47.671875 C 49.546875 -51.140625 49.75 -54.609375 49.75 -58.078125 C 49.75 -59.460938 49.691406 -60.960938 49.578125 -62.578125 C 49.460938 -64.203125 49.203125 -65.734375 48.796875 -67.171875 C 48.398438 -68.617188 47.738281 -69.804688 46.8125 -70.734375 C 45.882812 -71.660156 44.671875 -72.125 43.171875 -72.125 C 42.128906 -72.125 40.972656 -71.285156 39.703125 -69.609375 C 38.429688 -67.929688 37.242188 -66.019531 36.140625 -63.875 C 35.046875 -61.738281 34.125 -59.601562 33.375 -57.46875 C 32.625 -55.332031 32.25 -53.742188 32.25 -52.703125 C 32.25 -50.160156 32.273438 -47.585938 32.328125 -44.984375 C 32.390625 -42.390625 32.421875 -39.757812 32.421875 -37.09375 L 32.421875 -27.046875 C 32.304688 -24.960938 32.128906 -22.820312 31.890625 -20.625 C 31.660156 -18.4375 31.316406 -16.300781 30.859375 -14.21875 C 30.515625 -12.132812 29.992188 -10.140625 29.296875 -8.234375 C 28.609375 -6.328125 27.710938 -4.648438 26.609375 -3.203125 C 25.515625 -1.765625 24.210938 -0.582031 22.703125 0.34375 C 21.203125 1.269531 19.414062 1.734375 17.34375 1.734375 C 15.03125 1.734375 13.117188 0.980469 11.609375 -0.515625 C 10.109375 -2.023438 8.894531 -3.960938 7.96875 -6.328125 C 7.050781 -8.691406 6.390625 -11.347656 5.984375 -14.296875 C 5.578125 -17.242188 5.285156 -20.132812 5.109375 -22.96875 C 4.941406 -25.800781 4.882812 -28.398438 4.9375 -30.765625 C 5 -33.140625 5.03125 -35.019531 5.03125 -36.40625 L 5.03125 -44.5625 C 5.03125 -48.945312 4.941406 -53.273438 4.765625 -57.546875 C 4.585938 -61.828125 4.5 -66.109375 4.5 -70.390625 C 4.5 -72.703125 4.53125 -75.648438 4.59375 -79.234375 C 4.65625 -82.816406 5.085938 -86.3125 5.890625 -89.71875 C 6.703125 -93.125 8.03125 -96.039062 9.875 -98.46875 C 11.726562 -100.894531 14.445312 -102.109375 18.03125 -102.109375 C 19.644531 -102.109375 21.085938 -101.585938 22.359375 -100.546875 C 23.628906 -99.515625 24.753906 -98.242188 25.734375 -96.734375 C 26.722656 -95.234375 27.535156 -93.613281 28.171875 -91.875 C 28.804688 -90.144531 29.296875 -88.644531 29.640625 -87.375 C 30.796875 -89 32.15625 -90.5625 33.71875 -92.0625 C 35.28125 -93.5625 37.039062 -94.890625 39 -96.046875 C 40.96875 -97.203125 43.164062 -98.125 45.59375 -98.8125 C 48.019531 -99.507812 50.796875 -99.859375 53.921875 -99.859375 C 59.816406 -99.859375 64.410156 -98.441406 67.703125 -95.609375 C 70.992188 -92.773438 73.421875 -89.25 74.984375 -85.03125 C 76.546875 -80.8125 77.5 -76.273438 77.84375 -71.421875 C 78.1875 -66.566406 78.359375 -62.175781 78.359375 -58.25 C 78.359375 -56.289062 78.1875 -53.375 77.84375 -49.5 C 77.5 -45.625 76.945312 -41.34375 76.1875 -36.65625 C 75.4375 -31.976562 74.425781 -27.179688 73.15625 -22.265625 C 71.882812 -17.359375 70.378906 -12.882812 68.640625 -8.84375 C 66.910156 -4.800781 64.863281 -1.507812 62.5 1.03125 C 60.132812 3.582031 57.445312 4.859375 54.4375 4.859375 Z M 54.4375 4.859375 "/></g></g></g><g fill="#e9dfc3" fill-opacity="1"><g transform="translate(824.512799, 165.107249)"><g><path d="M 45.59375 6.234375 C 37.382812 6.234375 31 5.164062 26.4375 3.03125 C 21.875 0.894531 18.460938 -2.132812 16.203125 -6.0625 C 13.953125 -10 12.59375 -14.738281 12.125 -20.28125 C 11.664062 -25.832031 11.4375 -32.015625 11.4375 -38.828125 C 11.4375 -44.265625 11.609375 -49.726562 11.953125 -55.21875 C 12.304688 -60.707031 12.828125 -66.570312 13.515625 -72.8125 C 11.898438 -72.8125 10.628906 -72.78125 9.703125 -72.71875 C 8.785156 -72.664062 8.035156 -72.640625 7.453125 -72.640625 C 3.753906 -72.640625 0.550781 -73.445312 -2.15625 -75.0625 C -4.875 -76.6875 -6.234375 -79.175781 -6.234375 -82.53125 C -6.234375 -84.601562 -5.453125 -86.445312 -3.890625 -88.0625 C -2.335938 -89.6875 -0.347656 -91.078125 2.078125 -92.234375 C 4.503906 -93.390625 7.132812 -94.3125 9.96875 -95 C 12.800781 -95.695312 15.488281 -96.160156 18.03125 -96.390625 C 18.03125 -99.628906 18.257812 -103.210938 18.71875 -107.140625 C 19.1875 -111.066406 20.023438 -114.734375 21.234375 -118.140625 C 22.453125 -121.554688 24.097656 -124.421875 26.171875 -126.734375 C 28.253906 -129.046875 30.914062 -130.203125 34.15625 -130.203125 C 36 -130.203125 37.644531 -129.648438 39.09375 -128.546875 C 40.539062 -127.453125 41.722656 -126.066406 42.640625 -124.390625 C 43.566406 -122.710938 44.257812 -120.832031 44.71875 -118.75 C 45.1875 -116.675781 45.421875 -114.65625 45.421875 -112.6875 C 45.421875 -110.375 45.25 -108.003906 44.90625 -105.578125 C 44.5625 -103.148438 43.925781 -100.144531 43 -96.5625 C 44.957031 -96.789062 46.285156 -96.9375 46.984375 -97 C 47.679688 -97.0625 48.316406 -97.09375 48.890625 -97.09375 C 50.859375 -97.09375 52.910156 -96.914062 55.046875 -96.5625 C 57.179688 -96.21875 59.144531 -95.640625 60.9375 -94.828125 C 62.726562 -94.023438 64.203125 -92.957031 65.359375 -91.625 C 66.515625 -90.289062 67.09375 -88.703125 67.09375 -86.859375 C 67.09375 -84.773438 66.253906 -82.925781 64.578125 -81.3125 C 62.898438 -79.695312 60.789062 -78.3125 58.25 -77.15625 C 55.707031 -76 52.988281 -75.101562 50.09375 -74.46875 C 47.207031 -73.832031 44.492188 -73.394531 41.953125 -73.15625 C 41.265625 -68.414062 40.773438 -64.050781 40.484375 -60.0625 C 40.191406 -56.082031 39.875 -52.070312 39.53125 -48.03125 C 39.300781 -46.0625 39.097656 -44.066406 38.921875 -42.046875 C 38.742188 -40.023438 38.65625 -37.972656 38.65625 -35.890625 C 38.65625 -34.390625 38.710938 -32.625 38.828125 -30.59375 C 38.953125 -28.570312 39.359375 -26.632812 40.046875 -24.78125 C 40.742188 -22.9375 41.84375 -21.347656 43.34375 -20.015625 C 44.84375 -18.691406 46.921875 -18.03125 49.578125 -18.03125 C 51.203125 -18.03125 52.878906 -18.171875 54.609375 -18.453125 C 56.347656 -18.742188 58.082031 -18.890625 59.8125 -18.890625 C 62.820312 -18.890625 64.988281 -17.847656 66.3125 -15.765625 C 67.644531 -13.691406 68.3125 -11.035156 68.3125 -7.796875 C 68.3125 -5.367188 67.585938 -3.257812 66.140625 -1.46875 C 64.691406 0.320312 62.867188 1.765625 60.671875 2.859375 C 58.484375 3.953125 56.03125 4.785156 53.3125 5.359375 C 50.59375 5.941406 48.019531 6.234375 45.59375 6.234375 Z M 45.59375 6.234375 "/></g></g></g><g fill="#e9dfc3" fill-opacity="1"><g transform="translate(891.083864, 165.107249)"><g><path d="M 33.8125 -121.015625 C 33.8125 -119.390625 33.375 -117.941406 32.5 -116.671875 C 31.632812 -115.398438 30.507812 -114.273438 29.125 -113.296875 C 27.738281 -112.316406 26.234375 -111.566406 24.609375 -111.046875 C 22.992188 -110.523438 21.492188 -110.265625 20.109375 -110.265625 C 17.796875 -110.265625 15.769531 -110.84375 14.03125 -112 C 12.300781 -113.15625 11.4375 -114.945312 11.4375 -117.375 C 11.4375 -119.101562 11.867188 -120.628906 12.734375 -121.953125 C 13.609375 -123.285156 14.679688 -124.382812 15.953125 -125.25 C 17.222656 -126.125 18.664062 -126.789062 20.28125 -127.25 C 21.90625 -127.71875 23.46875 -127.953125 24.96875 -127.953125 C 27.164062 -127.953125 29.1875 -127.429688 31.03125 -126.390625 C 32.882812 -125.347656 33.8125 -123.554688 33.8125 -121.015625 Z M 35.1875 -62.0625 C 35.1875 -60.445312 35.1875 -58.742188 35.1875 -56.953125 C 35.1875 -55.160156 35.128906 -53.457031 35.015625 -51.84375 C 34.898438 -49.875 34.84375 -47.242188 34.84375 -43.953125 C 34.84375 -40.660156 34.726562 -37.101562 34.5 -33.28125 C 34.269531 -29.46875 33.894531 -25.597656 33.375 -21.671875 C 32.851562 -17.742188 32.015625 -14.160156 30.859375 -10.921875 C 29.703125 -7.679688 28.171875 -5.050781 26.265625 -3.03125 C 24.359375 -1.007812 21.960938 0.0546875 19.078125 0.171875 C 16.878906 0.285156 15.023438 -0.578125 13.515625 -2.421875 C 12.015625 -4.273438 10.773438 -6.675781 9.796875 -9.625 C 8.816406 -12.570312 8.09375 -15.863281 7.625 -19.5 C 7.164062 -23.144531 6.816406 -26.671875 6.578125 -30.078125 C 6.347656 -33.484375 6.234375 -36.628906 6.234375 -39.515625 C 6.234375 -42.410156 6.234375 -44.550781 6.234375 -45.9375 C 6.234375 -47.789062 6.234375 -50.421875 6.234375 -53.828125 C 6.234375 -57.242188 6.347656 -60.914062 6.578125 -64.84375 C 6.816406 -68.769531 7.253906 -72.753906 7.890625 -76.796875 C 8.523438 -80.847656 9.445312 -84.546875 10.65625 -87.890625 C 11.875 -91.242188 13.460938 -93.960938 15.421875 -96.046875 C 17.390625 -98.128906 19.878906 -99.171875 22.890625 -99.171875 C 26.003906 -99.171875 28.367188 -97.609375 29.984375 -94.484375 C 31.609375 -91.367188 32.820312 -87.726562 33.625 -83.5625 C 34.4375 -79.40625 34.898438 -75.273438 35.015625 -71.171875 C 35.128906 -67.066406 35.1875 -64.03125 35.1875 -62.0625 Z M 35.1875 -62.0625 "/></g></g></g><g fill="#e9dfc3" fill-opacity="1"><g transform="translate(933.384229, 165.107249)"><g><path d="M 77.84375 -30.859375 C 77.84375 -26.929688 76.597656 -23.085938 74.109375 -19.328125 C 71.628906 -15.578125 68.507812 -12.226562 64.75 -9.28125 C 61 -6.332031 56.984375 -3.960938 52.703125 -2.171875 C 48.429688 -0.378906 44.503906 0.515625 40.921875 0.515625 C 34.796875 0.515625 29.332031 -1.015625 24.53125 -4.078125 C 19.738281 -7.140625 15.722656 -11.039062 12.484375 -15.78125 C 9.242188 -20.519531 6.785156 -25.75 5.109375 -31.46875 C 3.429688 -37.1875 2.59375 -42.765625 2.59375 -48.203125 C 2.59375 -53.972656 3.398438 -60.148438 5.015625 -66.734375 C 6.640625 -73.328125 9.097656 -79.394531 12.390625 -84.9375 C 15.691406 -90.488281 19.851562 -95.113281 24.875 -98.8125 C 29.90625 -102.519531 35.890625 -104.375 42.828125 -104.375 C 46.753906 -104.375 50.507812 -103.707031 54.09375 -102.375 C 57.675781 -101.039062 60.796875 -99.160156 63.453125 -96.734375 C 66.109375 -94.304688 68.242188 -91.414062 69.859375 -88.0625 C 71.484375 -84.71875 72.296875 -80.960938 72.296875 -76.796875 C 72.296875 -71.367188 71.140625 -66.285156 68.828125 -61.546875 C 66.515625 -56.804688 63.453125 -52.703125 59.640625 -49.234375 C 55.828125 -45.765625 51.4375 -42.960938 46.46875 -40.828125 C 41.5 -38.691406 36.410156 -37.507812 31.203125 -37.28125 C 31.671875 -33.925781 33.03125 -31.492188 35.28125 -29.984375 C 37.53125 -28.484375 40.21875 -27.734375 43.34375 -27.734375 C 45.65625 -27.734375 47.90625 -28.3125 50.09375 -29.46875 C 52.289062 -30.625 54.429688 -31.925781 56.515625 -33.375 C 58.597656 -34.820312 60.648438 -36.125 62.671875 -37.28125 C 64.691406 -38.4375 66.742188 -39.015625 68.828125 -39.015625 C 71.140625 -39.015625 73.21875 -38.257812 75.0625 -36.75 C 76.914062 -35.25 77.84375 -33.285156 77.84375 -30.859375 Z M 49.75 -73.328125 C 49.75 -74.835938 49.34375 -76.398438 48.53125 -78.015625 C 47.726562 -79.628906 46.460938 -80.4375 44.734375 -80.4375 C 42.191406 -80.4375 40.050781 -79.769531 38.3125 -78.4375 C 36.582031 -77.113281 35.140625 -75.441406 33.984375 -73.421875 C 32.828125 -71.398438 31.929688 -69.234375 31.296875 -66.921875 C 30.660156 -64.609375 30.285156 -62.46875 30.171875 -60.5 C 31.785156 -60.851562 33.71875 -61.316406 35.96875 -61.890625 C 38.226562 -62.472656 40.367188 -63.253906 42.390625 -64.234375 C 44.410156 -65.210938 46.140625 -66.453125 47.578125 -67.953125 C 49.023438 -69.460938 49.75 -71.253906 49.75 -73.328125 Z M 49.75 -73.328125 "/></g></g></g><g fill="#e9dfc3" fill-opacity="1"><g transform="translate(1012.957456, 165.107249)"><g><path d="M 65.359375 -64.84375 C 63.742188 -64.726562 62.359375 -64.867188 61.203125 -65.265625 C 60.046875 -65.671875 58.890625 -66.109375 57.734375 -66.578125 C 56.691406 -67.035156 55.648438 -67.46875 54.609375 -67.875 C 53.566406 -68.28125 52.410156 -68.425781 51.140625 -68.3125 C 48.828125 -68.195312 46.773438 -67.5625 44.984375 -66.40625 C 43.191406 -65.25 41.570312 -63.800781 40.125 -62.0625 C 38.6875 -60.332031 37.445312 -58.394531 36.40625 -56.25 C 35.363281 -54.113281 34.554688 -52.007812 33.984375 -49.9375 C 33.628906 -48.539062 33.363281 -46.425781 33.1875 -43.59375 C 33.019531 -40.769531 32.9375 -37.738281 32.9375 -34.5 C 32.820312 -31.144531 32.765625 -27.960938 32.765625 -24.953125 C 32.765625 -21.953125 32.648438 -19.585938 32.421875 -17.859375 C 32.304688 -16.003906 32.015625 -13.832031 31.546875 -11.34375 C 31.085938 -8.863281 30.363281 -6.523438 29.375 -4.328125 C 28.394531 -2.140625 27.097656 -0.292969 25.484375 1.203125 C 23.867188 2.710938 21.789062 3.46875 19.25 3.46875 C 17.28125 3.46875 15.570312 2.890625 14.125 1.734375 C 12.6875 0.578125 11.472656 -0.953125 10.484375 -2.859375 C 9.503906 -4.765625 8.695312 -6.988281 8.0625 -9.53125 C 7.425781 -12.070312 6.9375 -14.675781 6.59375 -17.34375 C 6.238281 -20.113281 5.972656 -22.882812 5.796875 -25.65625 C 5.628906 -28.425781 5.515625 -31.054688 5.453125 -33.546875 C 5.398438 -36.035156 5.398438 -38.316406 5.453125 -40.390625 C 5.515625 -42.472656 5.546875 -44.148438 5.546875 -45.421875 C 5.429688 -49.460938 5.226562 -53.535156 4.9375 -57.640625 C 4.644531 -61.742188 4.5 -65.820312 4.5 -69.875 C 4.5 -72.414062 4.613281 -75.242188 4.84375 -78.359375 C 5.082031 -81.484375 5.722656 -84.398438 6.765625 -87.109375 C 7.804688 -89.828125 9.335938 -92.109375 11.359375 -93.953125 C 13.378906 -95.804688 16.179688 -96.734375 19.765625 -96.734375 C 21.734375 -96.734375 23.410156 -96.097656 24.796875 -94.828125 C 26.179688 -93.554688 27.304688 -91.992188 28.171875 -90.140625 C 29.035156 -88.296875 29.695312 -86.332031 30.15625 -84.25 C 30.625 -82.175781 30.914062 -80.269531 31.03125 -78.53125 C 33.800781 -83.039062 36.921875 -86.710938 40.390625 -89.546875 C 43.859375 -92.378906 48.367188 -93.910156 53.921875 -94.140625 C 56.691406 -94.253906 59.4375 -93.992188 62.15625 -93.359375 C 64.875 -92.722656 67.359375 -91.679688 69.609375 -90.234375 C 71.859375 -88.796875 73.707031 -86.921875 75.15625 -84.609375 C 76.601562 -82.296875 77.382812 -79.578125 77.5 -76.453125 C 77.726562 -72.753906 76.628906 -69.921875 74.203125 -67.953125 C 71.773438 -65.992188 68.828125 -64.957031 65.359375 -64.84375 Z M 65.359375 -64.84375 "/></g></g></g></g></g></svg>