<svg xmlns="http://www.w3.org/2000/svg" xmlns:xlink="http://www.w3.org/1999/xlink" width="1080" zoomAndPan="magnify" viewBox="0 0 810 809.999993" height="1080" preserveAspectRatio="xMidYMid meet" version="1.0"><path fill="#dfdccb" d="M 43.402344 455.199219 L 392.542969 804.34375 C 392.980469 804.785156 393.4375 805.203125 393.917969 805.597656 C 394.394531 805.992188 394.890625 806.363281 395.40625 806.710938 C 395.921875 807.058594 396.453125 807.378906 397.003906 807.671875 C 397.550781 807.96875 398.109375 808.234375 398.683594 808.472656 C 399.257812 808.710938 399.839844 808.921875 400.433594 809.101562 C 401.03125 809.285156 401.632812 809.4375 402.242188 809.558594 C 402.851562 809.679688 403.464844 809.773438 404.082031 809.832031 C 404.699219 809.894531 405.320312 809.925781 405.941406 809.925781 C 406.5625 809.925781 407.183594 809.894531 407.800781 809.832031 C 408.417969 809.773438 409.03125 809.679688 409.640625 809.558594 C 410.25 809.4375 410.851562 809.285156 411.449219 809.101562 C 412.042969 808.921875 412.625 808.710938 413.199219 808.472656 C 413.773438 808.234375 414.332031 807.96875 414.878906 807.671875 C 415.425781 807.378906 415.957031 807.058594 416.472656 806.710938 C 416.988281 806.363281 417.488281 805.992188 417.964844 805.597656 C 418.445312 805.203125 418.902344 804.785156 419.339844 804.34375 L 768.480469 455.199219 C 769.453125 454.203125 770.398438 453.1875 771.320312 452.144531 C 772.242188 451.101562 773.136719 450.039062 774.003906 448.953125 C 774.875 447.867188 775.71875 446.761719 776.53125 445.632812 C 777.347656 444.507812 778.136719 443.363281 778.894531 442.195312 C 779.65625 441.03125 780.386719 439.847656 781.085938 438.648438 C 781.789062 437.449219 782.460938 436.230469 783.105469 434.996094 C 783.746094 433.765625 784.359375 432.515625 784.941406 431.253906 C 785.523438 429.988281 786.074219 428.714844 786.59375 427.421875 C 787.113281 426.132812 787.601562 424.832031 788.058594 423.515625 C 788.515625 422.203125 788.941406 420.878906 789.332031 419.546875 C 789.722656 418.210938 790.082031 416.867188 790.410156 415.515625 C 790.734375 414.164062 791.03125 412.804688 791.289062 411.4375 C 791.550781 410.074219 791.777344 408.699219 791.972656 407.324219 C 792.164062 405.945312 792.324219 404.566406 792.449219 403.179688 C 792.578125 401.796875 792.667969 400.40625 792.726562 399.019531 C 792.785156 397.628906 792.8125 396.238281 792.804688 394.847656 C 792.792969 393.457031 792.75 392.066406 792.675781 390.679688 C 792.597656 389.289062 792.488281 387.902344 792.34375 386.519531 C 792.199219 385.136719 792.023438 383.757812 791.8125 382.382812 C 791.597656 381.007812 791.355469 379.640625 791.078125 378.277344 C 790.800781 376.914062 790.488281 375.558594 790.144531 374.210938 C 789.800781 372.863281 789.425781 371.527344 789.015625 370.195312 C 788.605469 368.867188 788.164062 367.550781 787.691406 366.242188 C 787.21875 364.933594 786.714844 363.636719 786.175781 362.355469 C 785.640625 361.070312 785.074219 359.800781 784.476562 358.546875 C 783.878906 357.292969 783.25 356.050781 782.589844 354.824219 C 781.933594 353.601562 781.242188 352.394531 780.527344 351.203125 C 779.808594 350.011719 779.0625 348.835938 778.289062 347.679688 C 777.515625 346.527344 776.710938 345.390625 775.882812 344.273438 C 775.050781 343.160156 774.195312 342.0625 773.3125 340.988281 C 772.429688 339.914062 771.519531 338.863281 770.585938 337.832031 C 769.652344 336.800781 768.691406 335.796875 767.710938 334.8125 C 766.726562 333.828125 765.71875 332.871094 764.6875 331.933594 C 763.660156 331 762.605469 330.09375 761.53125 329.207031 C 760.457031 328.324219 759.363281 327.46875 758.246094 326.640625 C 757.128906 325.808594 755.996094 325.007812 754.839844 324.234375 C 753.683594 323.457031 752.511719 322.710938 751.320312 321.996094 C 750.128906 321.277344 748.921875 320.589844 747.695312 319.929688 C 746.46875 319.273438 745.230469 318.644531 743.972656 318.046875 C 742.71875 317.449219 741.449219 316.878906 740.167969 316.34375 C 738.882812 315.808594 737.585938 315.304688 736.28125 314.828125 C 734.972656 314.355469 733.652344 313.914062 732.324219 313.507812 C 730.996094 313.097656 729.65625 312.722656 728.308594 312.375 C 726.960938 312.03125 725.605469 311.722656 724.242188 311.445312 C 722.878906 311.167969 721.511719 310.921875 720.136719 310.710938 C 718.761719 310.5 717.382812 310.320312 716 310.175781 C 714.617188 310.035156 713.230469 309.921875 711.84375 309.847656 C 710.453125 309.769531 709.0625 309.726562 707.671875 309.71875 C 706.28125 309.710938 704.894531 309.734375 703.503906 309.792969 C 702.113281 309.851562 700.726562 309.945312 699.339844 310.070312 C 697.957031 310.195312 696.574219 310.355469 695.199219 310.550781 C 693.820312 310.742188 692.449219 310.972656 691.082031 311.230469 C 689.714844 311.492188 688.359375 311.785156 687.003906 312.113281 C 685.652344 312.4375 684.308594 312.796875 682.976562 313.191406 C 681.640625 313.582031 680.316406 314.003906 679.003906 314.460938 C 677.691406 314.917969 676.386719 315.40625 675.097656 315.925781 C 673.808594 316.445312 672.53125 316.996094 671.269531 317.578125 C 670.003906 318.160156 668.757812 318.773438 667.523438 319.417969 C 666.289062 320.058594 665.074219 320.730469 663.875 321.433594 C 662.671875 322.136719 661.488281 322.867188 660.324219 323.625 C 659.160156 324.386719 658.015625 325.171875 656.886719 325.988281 C 655.761719 326.804688 654.65625 327.648438 653.570312 328.515625 C 652.484375 329.386719 651.417969 330.28125 650.378906 331.203125 C 649.335938 332.121094 648.316406 333.070312 647.320312 334.039062 L 405.941406 575.605469 L 164.5625 334.039062 C 163.566406 333.070312 162.546875 332.121094 161.503906 331.203125 C 160.460938 330.28125 159.398438 329.386719 158.3125 328.515625 C 157.226562 327.648438 156.121094 326.804688 154.996094 325.988281 C 153.867188 325.171875 152.722656 324.386719 151.558594 323.625 C 150.390625 322.867188 149.210938 322.136719 148.007812 321.433594 C 146.808594 320.730469 145.589844 320.058594 144.359375 319.417969 C 143.125 318.773438 141.875 318.160156 140.613281 317.578125 C 139.351562 316.996094 138.074219 316.445312 136.785156 315.925781 C 135.492188 315.40625 134.191406 314.917969 132.878906 314.460938 C 131.566406 314.007812 130.242188 313.582031 128.90625 313.191406 C 127.570312 312.796875 126.230469 312.4375 124.875 312.113281 C 123.523438 311.785156 122.164062 311.492188 120.800781 311.230469 C 119.433594 310.972656 118.0625 310.746094 116.683594 310.550781 C 115.308594 310.355469 113.925781 310.195312 112.542969 310.070312 C 111.15625 309.945312 109.769531 309.851562 108.378906 309.792969 C 106.988281 309.734375 105.601562 309.710938 104.207031 309.71875 C 102.816406 309.726562 101.429688 309.769531 100.039062 309.847656 C 98.652344 309.921875 97.265625 310.035156 95.882812 310.175781 C 94.5 310.320312 93.121094 310.5 91.746094 310.710938 C 90.371094 310.921875 89 311.167969 87.640625 311.445312 C 86.277344 311.722656 84.921875 312.03125 83.574219 312.375 C 82.226562 312.722656 80.886719 313.097656 79.558594 313.507812 C 78.230469 313.914062 76.910156 314.355469 75.601562 314.828125 C 74.292969 315.304688 73 315.808594 71.714844 316.34375 C 70.433594 316.878906 69.164062 317.449219 67.90625 318.046875 C 66.652344 318.644531 65.410156 319.273438 64.1875 319.929688 C 62.960938 320.589844 61.753906 321.277344 60.5625 321.996094 C 59.371094 322.710938 58.199219 323.457031 57.042969 324.234375 C 55.886719 325.007812 54.75 325.808594 53.636719 326.640625 C 52.519531 327.46875 51.425781 328.324219 50.351562 329.207031 C 49.277344 330.09375 48.222656 331 47.191406 331.933594 C 46.164062 332.871094 45.15625 333.828125 44.171875 334.8125 C 43.191406 335.796875 42.230469 336.800781 41.296875 337.832031 C 40.363281 338.863281 39.453125 339.914062 38.570312 340.988281 C 37.6875 342.0625 36.832031 343.160156 36 344.273438 C 35.171875 345.390625 34.367188 346.527344 33.59375 347.679688 C 32.820312 348.835938 32.074219 350.011719 31.355469 351.203125 C 30.636719 352.394531 29.949219 353.601562 29.292969 354.828125 C 28.632812 356.050781 28.003906 357.292969 27.40625 358.546875 C 26.808594 359.800781 26.242188 361.070312 25.707031 362.355469 C 25.167969 363.636719 24.664062 364.933594 24.191406 366.242188 C 23.71875 367.550781 23.277344 368.867188 22.867188 370.195312 C 22.457031 371.527344 22.082031 372.863281 21.738281 374.210938 C 21.394531 375.558594 21.082031 376.914062 20.804688 378.277344 C 20.527344 379.640625 20.28125 381.007812 20.070312 382.382812 C 19.859375 383.757812 19.683594 385.136719 19.539062 386.519531 C 19.394531 387.902344 19.285156 389.289062 19.207031 390.679688 C 19.132812 392.066406 19.089844 393.457031 19.078125 394.847656 C 19.070312 396.238281 19.09375 397.628906 19.152344 399.019531 C 19.214844 400.40625 19.304688 401.796875 19.433594 403.179688 C 19.558594 404.566406 19.71875 405.945312 19.910156 407.324219 C 20.105469 408.699219 20.332031 410.074219 20.59375 411.4375 C 20.851562 412.804688 21.144531 414.164062 21.472656 415.515625 C 21.800781 416.867188 22.160156 418.210938 22.550781 419.546875 C 22.941406 420.878906 23.367188 422.203125 23.824219 423.515625 C 24.28125 424.832031 24.769531 426.132812 25.289062 427.421875 C 25.808594 428.714844 26.359375 429.988281 26.941406 431.253906 C 27.523438 432.515625 28.136719 433.765625 28.777344 434.996094 C 29.421875 436.230469 30.09375 437.449219 30.792969 438.648438 C 31.496094 439.847656 32.226562 441.03125 32.988281 442.195312 C 33.746094 443.363281 34.535156 444.507812 35.351562 445.632812 C 36.164062 446.761719 37.007812 447.867188 37.878906 448.953125 C 38.746094 450.039062 39.640625 451.101562 40.5625 452.144531 C 41.484375 453.1875 42.429688 454.203125 43.402344 455.199219 Z M 43.402344 455.199219 " fill-opacity="1" fill-rule="nonzero"/><path fill="#dfdccb" d="M 392.542969 502.382812 C 392.980469 502.824219 393.4375 503.242188 393.917969 503.636719 C 394.394531 504.035156 394.890625 504.40625 395.40625 504.75 C 395.921875 505.097656 396.453125 505.417969 397.003906 505.714844 C 397.550781 506.007812 398.109375 506.273438 398.683594 506.511719 C 399.257812 506.753906 399.839844 506.960938 400.433594 507.144531 C 401.03125 507.324219 401.632812 507.476562 402.242188 507.597656 C 402.851562 507.71875 403.464844 507.8125 404.082031 507.871094 C 404.699219 507.933594 405.320312 507.964844 405.941406 507.964844 C 406.5625 507.964844 407.183594 507.933594 407.800781 507.871094 C 408.417969 507.8125 409.03125 507.71875 409.640625 507.597656 C 410.25 507.476562 410.851562 507.324219 411.449219 507.144531 C 412.042969 506.960938 412.625 506.753906 413.199219 506.511719 C 413.773438 506.273438 414.332031 506.007812 414.878906 505.714844 C 415.425781 505.417969 415.957031 505.097656 416.472656 504.75 C 416.988281 504.40625 417.488281 504.035156 417.964844 503.636719 C 418.445312 503.242188 418.902344 502.824219 419.339844 502.382812 L 768.480469 153.242188 C 769.453125 152.246094 770.398438 151.226562 771.320312 150.183594 C 772.242188 149.140625 773.136719 148.078125 774.003906 146.992188 C 774.875 145.90625 775.714844 144.800781 776.53125 143.675781 C 777.347656 142.546875 778.136719 141.402344 778.894531 140.238281 C 779.65625 139.070312 780.386719 137.890625 781.085938 136.6875 C 781.789062 135.488281 782.460938 134.269531 783.105469 133.039062 C 783.746094 131.804688 784.359375 130.554688 784.941406 129.292969 C 785.523438 128.03125 786.074219 126.753906 786.59375 125.464844 C 787.113281 124.171875 787.601562 122.871094 788.058594 121.558594 C 788.515625 120.242188 788.9375 118.917969 789.332031 117.585938 C 789.722656 116.25 790.082031 114.90625 790.410156 113.554688 C 790.734375 112.203125 791.027344 110.84375 791.289062 109.480469 C 791.550781 108.113281 791.777344 106.742188 791.96875 105.363281 C 792.164062 103.988281 792.324219 102.605469 792.449219 101.21875 C 792.574219 99.835938 792.667969 98.449219 792.726562 97.058594 C 792.785156 95.667969 792.8125 94.277344 792.800781 92.886719 C 792.792969 91.496094 792.75 90.109375 792.675781 88.71875 C 792.597656 87.332031 792.488281 85.945312 792.34375 84.5625 C 792.199219 83.179688 792.019531 81.800781 791.808594 80.425781 C 791.597656 79.050781 791.355469 77.679688 791.074219 76.316406 C 790.796875 74.957031 790.488281 73.601562 790.144531 72.253906 C 789.800781 70.90625 789.421875 69.566406 789.015625 68.238281 C 788.605469 66.910156 788.164062 65.589844 787.691406 64.28125 C 787.21875 62.972656 786.710938 61.679688 786.175781 60.394531 C 785.640625 59.113281 785.074219 57.84375 784.472656 56.585938 C 783.875 55.332031 783.246094 54.089844 782.589844 52.867188 C 781.929688 51.640625 781.242188 50.433594 780.527344 49.242188 C 779.808594 48.050781 779.0625 46.878906 778.289062 45.722656 C 777.511719 44.566406 776.710938 43.433594 775.882812 42.316406 C 775.050781 41.199219 774.195312 40.105469 773.3125 39.03125 C 772.429688 37.957031 771.519531 36.902344 770.585938 35.875 C 769.652344 34.84375 768.691406 33.835938 767.707031 32.851562 C 766.726562 31.871094 765.71875 30.910156 764.6875 29.976562 C 763.65625 29.042969 762.605469 28.132812 761.53125 27.25 C 760.457031 26.367188 759.363281 25.511719 758.246094 24.679688 C 757.128906 23.851562 755.996094 23.046875 754.839844 22.273438 C 753.683594 21.5 752.511719 20.753906 751.320312 20.035156 C 750.128906 19.320312 748.917969 18.628906 747.695312 17.972656 C 746.46875 17.3125 745.230469 16.683594 743.972656 16.085938 C 742.71875 15.488281 741.449219 14.921875 740.164062 14.386719 C 738.882812 13.847656 737.585938 13.34375 736.277344 12.871094 C 734.972656 12.398438 733.652344 11.957031 732.324219 11.546875 C 730.996094 11.136719 729.65625 10.761719 728.308594 10.417969 C 726.960938 10.074219 725.605469 9.761719 724.242188 9.484375 C 722.878906 9.207031 721.511719 8.960938 720.136719 8.75 C 718.761719 8.539062 717.382812 8.363281 716 8.21875 C 714.617188 8.074219 713.230469 7.964844 711.84375 7.886719 C 710.453125 7.8125 709.0625 7.769531 707.671875 7.757812 C 706.28125 7.75 704.890625 7.773438 703.503906 7.832031 C 702.113281 7.894531 700.726562 7.984375 699.339844 8.113281 C 697.957031 8.238281 696.574219 8.398438 695.199219 8.589844 C 693.820312 8.785156 692.449219 9.011719 691.082031 9.273438 C 689.714844 9.53125 688.355469 9.824219 687.003906 10.152344 C 685.652344 10.480469 684.308594 10.839844 682.976562 11.230469 C 681.640625 11.621094 680.316406 12.046875 679.003906 12.503906 C 677.691406 12.960938 676.386719 13.449219 675.097656 13.96875 C 673.808594 14.488281 672.53125 15.039062 671.269531 15.621094 C 670.003906 16.203125 668.757812 16.8125 667.523438 17.457031 C 666.289062 18.101562 665.074219 18.773438 663.875 19.472656 C 662.671875 20.175781 661.488281 20.90625 660.324219 21.667969 C 659.160156 22.425781 658.015625 23.214844 656.886719 24.027344 C 655.761719 24.84375 654.65625 25.6875 653.570312 26.554688 C 652.484375 27.425781 651.417969 28.320312 650.378906 29.242188 C 649.335938 30.164062 648.316406 31.109375 647.320312 32.078125 L 405.941406 273.648438 L 164.5625 32.078125 C 163.566406 31.109375 162.546875 30.164062 161.503906 29.242188 C 160.460938 28.320312 159.398438 27.425781 158.3125 26.554688 C 157.226562 25.6875 156.121094 24.84375 154.996094 24.027344 C 153.867188 23.214844 152.722656 22.425781 151.558594 21.667969 C 150.390625 20.90625 149.210938 20.175781 148.007812 19.472656 C 146.808594 18.773438 145.589844 18.101562 144.359375 17.457031 C 143.125 16.8125 141.875 16.203125 140.613281 15.621094 C 139.351562 15.039062 138.074219 14.488281 136.785156 13.96875 C 135.492188 13.449219 134.191406 12.960938 132.878906 12.503906 C 131.566406 12.046875 130.242188 11.621094 128.90625 11.230469 C 127.570312 10.839844 126.230469 10.480469 124.875 10.152344 C 123.523438 9.824219 122.164062 9.53125 120.800781 9.273438 C 119.433594 9.011719 118.0625 8.785156 116.683594 8.589844 C 115.308594 8.398438 113.925781 8.238281 112.542969 8.113281 C 111.15625 7.984375 109.769531 7.894531 108.378906 7.832031 C 106.988281 7.773438 105.601562 7.75 104.210938 7.757812 C 102.820312 7.769531 101.429688 7.8125 100.039062 7.886719 C 98.652344 7.964844 97.265625 8.074219 95.882812 8.21875 C 94.5 8.363281 93.121094 8.539062 91.746094 8.75 C 90.371094 8.960938 89.003906 9.207031 87.640625 9.484375 C 86.277344 9.761719 84.921875 10.074219 83.574219 10.417969 C 82.226562 10.761719 80.886719 11.136719 79.558594 11.546875 C 78.230469 11.957031 76.910156 12.398438 75.601562 12.871094 C 74.296875 13.34375 73 13.847656 71.714844 14.386719 C 70.433594 14.921875 69.164062 15.488281 67.910156 16.085938 C 66.652344 16.683594 65.414062 17.3125 64.1875 17.972656 C 62.964844 18.628906 61.753906 19.320312 60.5625 20.035156 C 59.371094 20.753906 58.199219 21.5 57.042969 22.273438 C 55.886719 23.046875 54.753906 23.851562 53.636719 24.679688 C 52.519531 25.511719 51.425781 26.367188 50.351562 27.25 C 49.277344 28.132812 48.222656 29.042969 47.195312 29.976562 C 46.164062 30.910156 45.15625 31.871094 44.175781 32.851562 C 43.191406 33.835938 42.230469 34.84375 41.296875 35.875 C 40.363281 36.902344 39.453125 37.957031 38.570312 39.03125 C 37.6875 40.105469 36.832031 41.199219 36 42.316406 C 35.171875 43.433594 34.371094 44.566406 33.59375 45.722656 C 32.820312 46.878906 32.074219 48.050781 31.355469 49.242188 C 30.640625 50.433594 29.953125 51.640625 29.292969 52.867188 C 28.632812 54.09375 28.007812 55.332031 27.40625 56.585938 C 26.808594 57.84375 26.242188 59.113281 25.707031 60.394531 C 25.171875 61.679688 24.664062 62.972656 24.191406 64.28125 C 23.71875 65.589844 23.277344 66.910156 22.867188 68.238281 C 22.460938 69.566406 22.082031 70.90625 21.738281 72.253906 C 21.394531 73.601562 21.085938 74.957031 20.804688 76.316406 C 20.527344 77.679688 20.285156 79.050781 20.074219 80.425781 C 19.859375 81.800781 19.683594 83.179688 19.539062 84.5625 C 19.394531 85.945312 19.285156 87.332031 19.207031 88.71875 C 19.132812 90.109375 19.089844 91.496094 19.082031 92.886719 C 19.070312 94.277344 19.097656 95.667969 19.15625 97.058594 C 19.214844 98.449219 19.304688 99.835938 19.433594 101.21875 C 19.558594 102.605469 19.71875 103.988281 19.914062 105.363281 C 20.105469 106.742188 20.332031 108.113281 20.59375 109.480469 C 20.855469 110.84375 21.148438 112.203125 21.472656 113.554688 C 21.800781 114.90625 22.160156 116.25 22.550781 117.585938 C 22.941406 118.917969 23.367188 120.242188 23.824219 121.558594 C 24.28125 122.871094 24.769531 124.171875 25.289062 125.464844 C 25.808594 126.753906 26.359375 128.03125 26.941406 129.292969 C 27.523438 130.554688 28.136719 131.804688 28.777344 133.039062 C 29.421875 134.269531 30.09375 135.488281 30.796875 136.6875 C 31.496094 137.890625 32.226562 139.070312 32.988281 140.238281 C 33.746094 141.402344 34.535156 142.546875 35.351562 143.675781 C 36.164062 144.800781 37.007812 145.90625 37.878906 146.992188 C 38.746094 148.078125 39.640625 149.140625 40.5625 150.183594 C 41.484375 151.226562 42.429688 152.246094 43.402344 153.242188 Z M 392.542969 502.382812 " fill-opacity="1" fill-rule="nonzero"/></svg>