<svg xmlns="http://www.w3.org/2000/svg" xmlns:xlink="http://www.w3.org/1999/xlink" width="1080" zoomAndPan="magnify" viewBox="0 0 810 809.999993" height="1080" preserveAspectRatio="xMidYMid meet" version="1.0"><path fill="#dfdccb" d="M 780.5 468.34375 C 796.390625 468.34375 809.394531 455.34375 809.394531 439.453125 L 809.394531 369.585938 C 809.394531 353.695312 796.390625 340.691406 780.5 340.691406 L 750.496094 340.691406 C 734.605469 340.691406 717.789062 328.257812 713.109375 313.066406 L 687.507812 250.917969 C 679.996094 236.914062 683.039062 216.261719 694.269531 205.03125 L 715.507812 183.796875 C 726.738281 172.554688 726.746094 154.167969 715.507812 142.929688 L 666.105469 93.53125 C 654.867188 82.289062 636.480469 82.289062 625.242188 93.53125 L 604.003906 114.769531 C 592.765625 126.007812 572.105469 129.042969 558.109375 121.519531 L 495.960938 95.929688 C 480.769531 91.257812 468.347656 74.429688 468.347656 58.539062 L 468.347656 28.539062 C 468.347656 12.644531 455.34375 -0.355469 439.453125 -0.355469 L 369.585938 -0.355469 C 353.695312 -0.355469 340.691406 12.644531 340.691406 28.539062 L 340.691406 58.539062 C 340.691406 74.429688 328.257812 91.257812 313.078125 95.929688 L 250.925781 121.519531 C 236.921875 129.042969 216.273438 125.996094 205.042969 114.757812 L 183.804688 93.519531 C 172.566406 82.28125 154.179688 82.28125 142.941406 93.519531 L 93.539062 142.921875 C 82.300781 154.160156 82.300781 172.546875 93.539062 183.785156 L 114.789062 205.023438 C 126.027344 216.261719 129.0625 236.914062 121.546875 250.917969 L 95.949219 313.066406 C 91.277344 328.257812 74.449219 340.679688 58.558594 340.679688 L 28.566406 340.679688 C 12.675781 340.679688 -0.328125 353.683594 -0.328125 369.574219 L -0.328125 439.453125 C -0.328125 455.34375 12.675781 468.34375 28.566406 468.34375 L 58.558594 468.34375 C 74.449219 468.34375 91.277344 480.769531 95.949219 495.957031 L 121.558594 558.121094 C 129.082031 572.113281 126.035156 592.773438 114.796875 604.003906 L 93.550781 625.25 C 82.308594 636.480469 82.308594 654.867188 93.550781 666.105469 L 142.941406 715.507812 C 154.179688 726.746094 172.566406 726.738281 183.804688 715.507812 L 205.050781 694.257812 C 216.292969 683.03125 236.941406 679.984375 250.9375 687.507812 L 313.085938 713.109375 C 328.277344 717.78125 340.699219 734.597656 340.699219 750.496094 L 340.699219 780.5 C 340.699219 796.390625 353.703125 809.394531 369.59375 809.394531 L 439.460938 809.394531 C 455.351562 809.394531 468.355469 796.390625 468.355469 780.5 L 468.355469 750.488281 C 468.355469 734.597656 480.78125 717.78125 495.96875 713.097656 L 558.121094 687.507812 C 572.113281 679.984375 592.773438 683.019531 604.003906 694.257812 L 625.261719 715.507812 C 636.492188 726.746094 654.886719 726.738281 666.117188 715.507812 L 715.515625 666.105469 C 726.746094 654.875 726.757812 636.480469 715.515625 625.242188 L 694.277344 604.003906 C 683.039062 592.765625 680.003906 572.105469 687.519531 558.109375 L 713.109375 495.957031 C 717.78125 480.769531 734.605469 468.347656 750.507812 468.347656 L 780.5 468.347656 Z M 404.519531 571.082031 C 312.527344 571.082031 237.953125 496.507812 237.953125 404.519531 C 237.953125 312.519531 312.527344 237.945312 404.519531 237.945312 C 496.507812 237.945312 571.09375 312.519531 571.09375 404.519531 C 571.09375 496.507812 496.507812 571.082031 404.519531 571.082031 Z M 404.519531 571.082031 " fill-opacity="1" fill-rule="nonzero"/></svg>