<svg xmlns="http://www.w3.org/2000/svg" xmlns:xlink="http://www.w3.org/1999/xlink" width="1080" zoomAndPan="magnify" viewBox="0 0 810 809.999993" height="1080" preserveAspectRatio="xMidYMid meet" version="1.0"><defs><g/><clipPath id="cf85c46b4c"><path d="M 7 7.015625 L 807 7.015625 L 807 807 L 7 807 Z M 7 7.015625 " clip-rule="nonzero"/></clipPath><clipPath id="f9004a0a93"><path d="M 6.230469 81.265625 L 6.230469 732.515625 C 6.230469 773.933594 39.808594 807.515625 81.230469 807.515625 L 732.476562 807.515625 C 773.898438 807.515625 807.476562 773.933594 807.476562 732.515625 L 807.476562 81.265625 C 807.476562 39.84375 773.898438 6.265625 732.476562 6.265625 L 81.230469 6.265625 C 39.808594 6.265625 6.230469 39.84375 6.230469 81.265625 Z M 6.230469 81.265625 " clip-rule="nonzero"/></clipPath><clipPath id="4433fccab1"><path d="M 82.128906 7.164062 L 731.578125 7.164062 C 773 7.164062 806.578125 40.746094 806.578125 82.164062 L 806.578125 731.613281 C 806.578125 773.035156 773 806.613281 731.578125 806.613281 L 82.128906 806.613281 C 40.707031 806.613281 7.128906 773.035156 7.128906 731.613281 L 7.128906 82.164062 C 7.128906 40.746094 40.707031 7.164062 82.128906 7.164062 Z M 82.128906 7.164062 " clip-rule="nonzero"/></clipPath><clipPath id="5da0815f86"><path d="M 6.230469 6.265625 L 807.230469 6.265625 L 807.230469 807.265625 L 6.230469 807.265625 Z M 6.230469 6.265625 " clip-rule="nonzero"/></clipPath><clipPath id="0d7cf7593e"><path d="M 6.230469 81.265625 L 6.230469 732.515625 C 6.230469 773.933594 39.808594 807.515625 81.230469 807.515625 L 732.476562 807.515625 C 773.898438 807.515625 807.476562 773.933594 807.476562 732.515625 L 807.476562 81.265625 C 807.476562 39.84375 773.898438 6.265625 732.476562 6.265625 L 81.230469 6.265625 C 39.808594 6.265625 6.230469 39.84375 6.230469 81.265625 Z M 6.230469 81.265625 " clip-rule="nonzero"/></clipPath><clipPath id="a084034831"><path d="M 6.230469 81.265625 L 6.230469 732.511719 C 6.230469 773.933594 39.808594 807.511719 81.230469 807.511719 L 732.476562 807.511719 C 773.898438 807.511719 807.476562 773.933594 807.476562 732.511719 L 807.476562 81.265625 C 807.476562 39.84375 773.898438 6.265625 732.476562 6.265625 L 81.230469 6.265625 C 39.808594 6.265625 6.230469 39.84375 6.230469 81.265625 Z M 6.230469 81.265625 " clip-rule="nonzero"/></clipPath><clipPath id="7c45ed0e6e"><rect x="0" width="743" y="0" height="810"/></clipPath></defs><g clip-path="url(#cf85c46b4c)"><g clip-path="url(#f9004a0a93)"><g clip-path="url(#4433fccab1)"><path fill="#1d1616" d="M 6.230469 6.265625 L 807.367188 6.265625 L 807.367188 807.402344 L 6.230469 807.402344 Z M 6.230469 6.265625 " fill-opacity="1" fill-rule="nonzero"/></g></g></g><g clip-path="url(#5da0815f86)"><g clip-path="url(#0d7cf7593e)"><g clip-path="url(#a084034831)"><path stroke-linecap="butt" transform="matrix(0.75, 0, 0, 0.75, 6.229635, 6.265888)" fill="none" stroke-linejoin="miter" d="M 0.00111142 99.999655 L 0.00111142 968.327823 C 0.00111142 1023.556993 44.771947 1068.327828 100.001116 1068.327828 L 968.329285 1068.327828 C 1023.558455 1068.327828 1068.32929 1023.556993 1068.32929 968.327823 L 1068.32929 99.999655 C 1068.32929 44.770485 1023.558455 -0.00035046 968.329285 -0.00035046 L 100.001116 -0.00035046 C 44.771947 -0.00035046 0.00111142 44.770485 0.00111142 99.999655 Z M 0.00111142 99.999655 " stroke="#8e1616" stroke-width="118" stroke-opacity="1" stroke-miterlimit="4"/></g></g></g><g transform="matrix(1, 0, 0, 1, 38, 0.000000000000039746)"><g clip-path="url(#7c45ed0e6e)"><g fill="#8e1616" fill-opacity="1"><g transform="translate(167.305222, 677.510086)"><g><path d="M 128.125 -480.53125 C 132.3125 -466.21875 131.21875 -451.785156 124.84375 -437.234375 C 118.46875 -422.691406 109.5625 -408.734375 98.125 -395.359375 C 86.695312 -381.992188 74.25 -369.65625 60.78125 -358.34375 C 47.320312 -347.039062 35.609375 -337.476562 25.640625 -329.65625 C 27.953125 -321.738281 30.128906 -313.582031 32.171875 -305.1875 C 34.222656 -296.789062 36.085938 -288.335938 37.765625 -279.828125 C 48.046875 -289.378906 59.953125 -298.992188 73.484375 -308.671875 C 87.015625 -318.359375 100.5625 -325.1875 114.125 -329.15625 C 125.050781 -332.351562 134.660156 -332.710938 142.953125 -330.234375 C 151.253906 -327.765625 157.0625 -320.875 160.375 -309.5625 C 164.007812 -297.125 162.832031 -284.710938 156.84375 -272.328125 C 150.863281 -259.941406 142.757812 -248.160156 132.53125 -236.984375 C 122.300781 -225.804688 111.171875 -215.597656 99.140625 -206.359375 C 87.117188 -197.117188 76.84375 -189.613281 68.3125 -183.84375 C 71.945312 -171.40625 75.367188 -159.003906 78.578125 -146.640625 C 81.785156 -134.285156 84.773438 -121.972656 87.546875 -109.703125 C 88.941406 -103.554688 90.488281 -95.820312 92.1875 -86.5 C 93.894531 -77.175781 94.578125 -67.863281 94.234375 -58.5625 C 93.890625 -49.257812 91.988281 -40.726562 88.53125 -32.96875 C 85.070312 -25.21875 79.203125 -20.128906 70.921875 -17.703125 C 63.003906 -15.378906 55.085938 -17.25 47.171875 -23.3125 C 39.253906 -29.382812 31.550781 -37.867188 24.0625 -48.765625 C 16.582031 -59.671875 9.441406 -72.207031 2.640625 -86.375 C -4.160156 -100.539062 -10.316406 -114.585938 -15.828125 -128.515625 C -21.347656 -142.453125 -25.96875 -155.421875 -29.6875 -167.421875 C -33.40625 -179.429688 -36.195312 -188.632812 -38.0625 -195.03125 C -39.5 -199.925781 -41.53125 -207.207031 -44.15625 -216.875 C -46.78125 -226.550781 -49.703125 -237.253906 -52.921875 -248.984375 C -56.148438 -260.710938 -59.359375 -273.066406 -62.546875 -286.046875 C -65.734375 -299.023438 -68.628906 -311.375 -71.234375 -323.09375 C -73.847656 -334.8125 -75.789062 -345.285156 -77.0625 -354.515625 C -78.34375 -363.753906 -78.644531 -370.726562 -77.96875 -375.4375 C -76.25 -384.9375 -68.757812 -396.023438 -55.5 -408.703125 C -42.238281 -421.378906 -26.90625 -433.632812 -9.5 -445.46875 C 7.894531 -457.3125 25.148438 -467.882812 42.265625 -477.1875 C 59.390625 -486.5 72.851562 -492.585938 82.65625 -495.453125 C 87.175781 -496.773438 91.6875 -497.789062 96.1875 -498.5 C 100.6875 -499.207031 105.09375 -499.164062 109.40625 -498.375 C 113.71875 -497.59375 117.5 -495.835938 120.75 -493.109375 C 124.007812 -490.378906 126.46875 -486.1875 128.125 -480.53125 Z M 128.125 -480.53125 "/></g></g><g transform="translate(400.740957, 609.183971)"><g><path d="M 263.734375 -161.875 C 266.492188 -152.445312 265.222656 -142.457031 259.921875 -131.90625 C 254.617188 -121.363281 246.835938 -110.910156 236.578125 -100.546875 C 226.316406 -90.179688 214.394531 -80.25 200.8125 -70.75 C 187.238281 -61.25 173.625 -52.554688 159.96875 -44.671875 C 146.320312 -36.796875 133.273438 -30.007812 120.828125 -24.3125 C 108.378906 -18.625 98.382812 -14.675781 90.84375 -12.46875 C 83.6875 -10.375 75.863281 -8.800781 67.375 -7.75 C 58.882812 -6.695312 51.34375 -7.660156 44.75 -10.640625 C 41.070312 -12.015625 36.941406 -16.328125 32.359375 -23.578125 C 27.785156 -30.828125 22.863281 -39.613281 17.59375 -49.9375 C 12.320312 -60.257812 7.085938 -71.507812 1.890625 -83.6875 C -3.304688 -95.875 -8.140625 -107.859375 -12.609375 -119.640625 C -17.085938 -131.421875 -21.097656 -142.3125 -24.640625 -152.3125 C -28.179688 -162.320312 -30.78125 -170.160156 -32.4375 -175.828125 C -35.195312 -185.242188 -38.25 -196.722656 -41.59375 -210.265625 C -44.945312 -223.804688 -48.289062 -238.375 -51.625 -253.96875 C -54.957031 -269.5625 -58 -285.546875 -60.75 -301.921875 C -63.5 -318.296875 -65.71875 -333.90625 -67.40625 -348.75 C -69.09375 -363.601562 -69.796875 -377.207031 -69.515625 -389.5625 C -69.242188 -401.914062 -67.976562 -411.898438 -65.71875 -419.515625 C -61.539062 -431.785156 -53.988281 -439.519531 -43.0625 -442.71875 C -35.519531 -444.914062 -28.363281 -444.242188 -21.59375 -440.703125 C -14.832031 -437.160156 -8.664062 -431.804688 -3.09375 -424.640625 C 2.464844 -417.484375 7.5625 -409.160156 12.1875 -399.671875 C 16.8125 -390.179688 20.929688 -380.644531 24.546875 -371.0625 C 28.171875 -361.488281 31.195312 -352.554688 33.625 -344.265625 C 36.050781 -335.984375 37.976562 -329.394531 39.40625 -324.5 C 48.007812 -295.101562 55.867188 -265.800781 62.984375 -236.59375 C 70.109375 -207.382812 77.972656 -178.082031 86.578125 -148.6875 L 93.03125 -126.640625 C 108.445312 -136.878906 125.445312 -147.273438 144.03125 -157.828125 C 162.625 -168.378906 180.960938 -176.300781 199.046875 -181.59375 C 205.453125 -183.46875 212.0625 -184.992188 218.875 -186.171875 C 225.6875 -187.347656 231.992188 -187.457031 237.796875 -186.5 C 243.609375 -185.539062 248.804688 -183.175781 253.390625 -179.40625 C 257.972656 -175.632812 261.421875 -169.789062 263.734375 -161.875 Z M 263.734375 -161.875 "/></g></g></g></g></g></svg>