<svg xmlns="http://www.w3.org/2000/svg" xmlns:xlink="http://www.w3.org/1999/xlink" width="1080" zoomAndPan="magnify" viewBox="0 0 810 809.999993" height="1080" preserveAspectRatio="xMidYMid meet" version="1.0"><defs><clipPath id="927f16f2f8"><path d="M 442 133.472656 L 714 133.472656 L 714 405 L 442 405 Z M 442 133.472656 " clip-rule="nonzero"/></clipPath><clipPath id="547505c34b"><path d="M 96 133.472656 L 368 133.472656 L 368 405 L 96 405 Z M 96 133.472656 " clip-rule="nonzero"/></clipPath><clipPath id="beaafd0319"><path d="M 10.050781 405 L 455 405 L 455 676.472656 L 10.050781 676.472656 Z M 10.050781 405 " clip-rule="nonzero"/></clipPath><clipPath id="87a7c29d9c"><path d="M 424 405 L 799.800781 405 L 799.800781 676.472656 L 424 676.472656 Z M 424 405 " clip-rule="nonzero"/></clipPath></defs><g clip-path="url(#927f16f2f8)"><path fill="#dfdccb" d="M 577.78125 404.996094 C 652.636719 404.996094 713.542969 344.085938 713.542969 269.234375 C 713.542969 194.378906 652.636719 133.472656 577.78125 133.472656 C 502.929688 133.472656 442.019531 194.378906 442.019531 269.234375 C 442.019531 344.085938 502.929688 404.996094 577.78125 404.996094 Z M 577.78125 404.996094 " fill-opacity="1" fill-rule="nonzero"/></g><g clip-path="url(#547505c34b)"><path fill="#dfdccb" d="M 232.207031 404.996094 C 307.0625 404.996094 367.96875 344.085938 367.96875 269.234375 C 367.96875 194.378906 307.0625 133.472656 232.207031 133.472656 C 157.351562 133.472656 96.445312 194.378906 96.445312 269.234375 C 96.445312 344.085938 157.351562 404.996094 232.207031 404.996094 Z M 232.207031 404.996094 " fill-opacity="1" fill-rule="nonzero"/></g><g clip-path="url(#beaafd0319)"><path fill="#dfdccb" d="M 316.464844 405.511719 C 291.941406 420.730469 263.136719 429.679688 232.207031 429.679688 C 201.277344 429.679688 172.472656 420.730469 147.949219 405.511719 C 71.046875 410.796875 10.050781 474.875 10.050781 553.097656 L 10.050781 627.152344 C 10.050781 654.304688 32.265625 676.519531 59.417969 676.519531 L 404.996094 676.519531 C 432.148438 676.519531 454.363281 654.304688 454.363281 627.152344 L 454.363281 553.097656 C 454.363281 474.875 393.367188 410.796875 316.464844 405.511719 Z M 316.464844 405.511719 " fill-opacity="1" fill-rule="nonzero"/></g><g clip-path="url(#87a7c29d9c)"><path fill="#dfdccb" d="M 662.039062 405.511719 C 637.515625 420.730469 608.710938 429.679688 577.78125 429.679688 C 546.851562 429.679688 518.046875 420.730469 493.523438 405.511719 C 468.394531 407.242188 445.042969 415.324219 424.878906 428.050781 C 458.214844 459.65625 479.046875 504.164062 479.046875 553.097656 L 479.046875 627.152344 C 479.046875 646.121094 471.8125 663.410156 460.027344 676.519531 L 750.570312 676.519531 C 777.722656 676.519531 799.9375 654.304688 799.9375 627.152344 L 799.9375 553.097656 C 799.9375 474.875 738.945312 410.796875 662.039062 405.511719 Z M 662.039062 405.511719 " fill-opacity="1" fill-rule="nonzero"/></g></svg>