<?xml version="1.0" encoding="UTF-8"?>
<svg version="1.1" xmlns="http://www.w3.org/2000/svg" width="851" height="315">
<path d="M0 0 C280.83 0 561.66 0 851 0 C851 103.95 851 207.9 851 315 C570.17 315 289.34 315 0 315 C0 211.05 0 107.1 0 0 Z " fill="#1C150D" transform="translate(0,0)"/>
<path d="M0 0 C5.37956376 2.93150224 8.47799363 7.55246623 11 13 C11 14.32 11 15.64 11 17 C11.66 17 12.32 17 13 17 C13.36351562 15.89011719 13.36351562 15.89011719 13.734375 14.7578125 C16.34216184 9.07541277 21.9624871 5.30400825 27.125 2 C30.7468357 0.74023106 33.18912066 0.45558867 37 1 C42.77074938 4.62086236 45.68146869 9.51452901 47.59429932 16.02172852 C48.04888326 18.10274929 48.4093835 20.17493737 48.7265625 22.28125 C48.84818756 23.05448608 48.96981262 23.82772217 49.09512329 24.62438965 C50.26918258 32.74965129 50.45443678 40.83378077 50.39111328 49.03173828 C50.37500271 51.49958506 50.39109423 53.96579522 50.41015625 56.43359375 C50.42185525 64.67535964 49.97873576 72.69561421 48.66796875 80.83984375 C48.4944136 81.93848755 48.4944136 81.93848755 48.31735229 83.05932617 C47.22827266 89.14506245 45.00867609 94.27668527 41 99 C37.80976142 100.59511929 34.46386419 100.51211134 31 100 C27.72792327 97.05513094 26.15320741 92.71990089 25.76622009 88.37559509 C25.77367752 87.43945877 25.78113495 86.50332245 25.78881836 85.53881836 C25.79219711 84.47098618 25.79557587 83.40315399 25.79905701 82.30296326 C25.81251663 81.16013382 25.82597626 80.01730438 25.83984375 78.83984375 C25.84504532 77.65781876 25.85024689 76.47579376 25.85560608 75.25794983 C25.87340634 71.4843411 25.90457826 67.71100476 25.9375 63.9375 C25.9651223 60.16045136 25.98983158 56.38344136 26.00868225 52.6063385 C26.0209327 50.25688713 26.03852977 47.90745632 26.06199646 45.55809021 C26.06852737 44.49341019 26.07505829 43.42873016 26.08178711 42.33178711 C26.09416664 40.92877602 26.09416664 40.92877602 26.10679626 39.49742126 C26.00757452 37.17712941 25.65889006 35.21911441 25 33 C22.05181069 33.48026848 22.05181069 33.48026848 19 35 C13.43174745 45.85130192 12.93104126 58.78183469 12 70.75 C9.97697349 96.21057956 9.97697349 96.21057956 3 103 C-0.5 104.375 -0.5 104.375 -4 104 C-9.42681831 99.55987593 -10.86450284 93.74551009 -12 87 C-12.57065796 79.60326863 -12.51612931 72.16449223 -12.5625 64.75 C-12.58639351 61.75727702 -12.61462364 58.76483527 -12.65428162 55.77227783 C-12.67838776 53.92142558 -12.69344944 52.07042529 -12.69789124 50.21942139 C-12.75958678 45.10238131 -13.34812568 40.85076164 -15 36 C-17.41455486 36.14256581 -17.41455486 36.14256581 -20 37 C-27.68110939 46.32977834 -25.44231081 60.75273708 -25.125 71.9375 C-25.04933967 75.01523688 -24.98140482 78.09252366 -24.93161011 81.17079163 C-24.89978907 83.07431265 -24.85276218 84.97765846 -24.7883606 86.88035583 C-24.69582682 91.7534121 -24.72467035 95.09025965 -28 99 C-32.04533457 101.69688972 -35.25162164 101.76208542 -40 101 C-45.99444272 97.27012453 -47.31055542 90.47287199 -49 84 C-51.21428653 73.177585 -51.34138567 62.39805007 -51.31567383 51.39624023 C-51.31250886 48.57040956 -51.33607894 45.74562447 -51.36132812 42.91992188 C-51.46578724 13.36914869 -51.46578724 13.36914869 -43 4 C-39.4913604 1.66090693 -38.12910567 1.58708943 -34 2 C-31.25 2.9375 -31.25 2.9375 -29 5 C-27.9882391 7.95664844 -27.43404166 10.90988253 -27 14 C-26.61070312 13.49210938 -26.22140625 12.98421875 -25.8203125 12.4609375 C-19.33385385 4.47990313 -10.91804663 -2.73409907 0 0 Z " fill="#DCD9C8" transform="translate(781,161)"/>
<path d="M0 0 C4.25428713 2.17240194 5.79065374 4.93909214 7.38696289 9.37792969 C8.72558792 15.10347043 8.34141102 21.03040813 8.25 26.875 C8.24484375 28.18597656 8.2396875 29.49695313 8.234375 30.84765625 C8.19233983 36.08628872 8.10468393 41.23605655 7.48461914 46.43945312 C6.80280683 52.93963229 6.93609453 59.43619912 7.01653099 65.961689 C7.04353444 68.27502429 7.06117222 70.58825906 7.07600403 72.90170288 C7.11840621 79.47175842 7.16648977 86.04161362 7.24682617 92.61132812 C7.29552924 96.64937008 7.32438885 100.68714715 7.34057045 104.72544479 C7.3504134 106.25399618 7.36753973 107.78252 7.39235497 109.31090164 C7.63070372 124.31161184 7.63070372 124.31161184 3 131 C-0.53430656 133.35620437 -1.83571287 133.48991613 -6 133 C-10.88440253 130.50991243 -12.93522583 128.04722576 -15 123 C-16.0209375 124.0828125 -16.0209375 124.0828125 -17.0625 125.1875 C-22.77833859 130.88714642 -28.95812856 135.20905714 -37.25 135.5 C-43.56968129 135.34710448 -47.44280435 133.29777275 -52 129 C-65.58456999 114.0207103 -66.69313692 95.19372331 -66 76 C-64.88301853 62.52552733 -60.59766689 50.67623494 -50.4375 41.5 C-45.09006812 37.74345477 -39.25896852 38.08462585 -33 39 C-27.49143753 40.66845883 -23.77468182 43.75348295 -20 48 C-18.84708115 44.26657054 -18.78066286 40.63185965 -18.640625 36.7421875 C-18.57665348 35.29682442 -18.5115108 33.8515128 -18.4453125 32.40625 C-18.34474669 30.1488894 -18.25056187 27.89219322 -18.17675781 25.63378906 C-17.87487335 16.72231649 -17.50057031 8.47430436 -12 1 C-8.28740869 -0.85629566 -4.0522684 -0.44101975 0 0 Z " fill="#DDDAC9" transform="translate(181,124)"/>
<path d="M0 0 C12.13687203 8.92941156 15.77139217 22.96925981 18.0859375 37.2734375 C19.32369788 46.27276952 19.65656305 55.24599885 19.70703125 64.32421875 C19.71629639 65.35377686 19.72556152 66.38333496 19.73510742 67.4440918 C19.69486387 77.24536984 19.35164388 87.73513085 12.45703125 95.38671875 C7.95143484 96.88858422 4.11489788 97.1026157 -0.29296875 95.19921875 C-4.41323513 91.88011527 -5.62715574 88.45760929 -6.54296875 83.38671875 C-7.07664062 83.78503906 -7.6103125 84.18335938 -8.16015625 84.59375 C-16.89914233 90.80780411 -25.73848244 93.78399066 -36.54296875 92.38671875 C-44.86418133 90.1617956 -50.25822939 83.17081831 -54.54296875 76.07421875 C-56.31422307 69.54271843 -56.83471655 62.4840978 -54.10546875 56.13671875 C-46.47567004 43.23298901 -31.28369912 37.16885097 -17.54296875 33.38671875 C-14.8284447 32.86007785 -12.30573623 32.55586778 -9.54296875 32.38671875 C-9.68465012 30.94880359 -9.83147918 29.51139505 -9.98046875 28.07421875 C-10.06167969 27.27371094 -10.14289062 26.47320312 -10.2265625 25.6484375 C-10.49562568 23.22584696 -10.49562568 23.22584696 -11.54296875 20.38671875 C-16.92288045 18.59341485 -23.02942417 17.87288939 -28.37548828 20.17626953 C-30.88063869 21.51800888 -33.28264139 22.96235921 -35.64575195 24.54077148 C-39.46364107 27.04530228 -41.98177377 27.99190524 -46.54296875 27.38671875 C-50.01282502 25.39476423 -52.00423832 24.24354298 -53.12890625 20.3671875 C-53.5343092 14.85563793 -51.82136294 10.90792507 -48.57421875 6.52734375 C-35.75042706 -6.9869598 -15.79192803 -10.01853499 0 0 Z " fill="#DCD9C8" transform="translate(700.54296875,168.61328125)"/>
<path d="M0 0 C13.25206049 9.30867196 16.98941994 22.77719565 20 38 C20.80675151 43.52375256 21.182108 48.9102044 21.23828125 54.48828125 C21.246353 55.27212692 21.25442474 56.0559726 21.26274109 56.86357117 C21.27647736 58.51148332 21.28724551 60.15942268 21.29516602 61.80737305 C21.30668544 63.47217305 21.32713687 65.13693613 21.35668945 66.80151367 C21.737787 88.34097664 21.737787 88.34097664 14.75 96.6875 C11.0835255 98.43740828 7.93239889 98.87900681 4 98 C-1.17883087 94.77544493 -3.04201369 91.54762787 -5 86 C-5.72445312 86.40992188 -6.44890625 86.81984375 -7.1953125 87.2421875 C-8.16210938 87.78101563 -9.12890625 88.31984375 -10.125 88.875 C-11.07632813 89.40867187 -12.02765625 89.94234375 -13.0078125 90.4921875 C-20.26280548 94.1480978 -26.95185438 95.05921541 -35 94 C-43.79586845 90.72711872 -48.52543849 84.53669611 -52.875 76.5625 C-54.68467176 70.83187276 -54.65314504 66.1899569 -52.9375 60.4375 C-45.29431544 46.87701126 -31.72023531 39.39954778 -17.125 35.1875 C-13.64508675 34.24740403 -10.60530418 33.87723875 -7 34 C-7.22917968 32.39272673 -7.48420802 30.78912584 -7.75 29.1875 C-7.88921875 28.29417969 -8.0284375 27.40085938 -8.171875 26.48046875 C-9.20132509 23.39697439 -10.16461436 22.54161701 -13 21 C-19.61572023 19.4984056 -24.4641995 20.91216772 -30.125 24.4375 C-31.11886719 25.07171875 -32.11273438 25.7059375 -33.13671875 26.359375 C-37.02202788 28.58560943 -40.52428091 29.65900158 -45 29 C-47.92143417 27.23496686 -49.47923817 26.04152365 -51 23 C-51.65978232 17.50181399 -50.59576736 14.3302089 -47.53515625 9.9140625 C-36.36375183 -4.01466057 -15.78785693 -8.67747396 0 0 Z " fill="#DCD9C8" transform="translate(326,164)"/>
<path d="M0 0 C6.83673514 4.12300552 12.21838335 10.26155203 14.375 18 C15.57108847 29.39274264 13.19165976 38.29386709 5.98828125 47.1953125 C-0.88358836 54.88248867 -9.93072266 60.82316498 -20.375 61.875 C-21.79070519 61.94177855 -23.20773459 61.99372891 -24.625 62 C-22.51173474 66.70842624 -22.51173474 66.70842624 -18.625 70 C-11.16977905 71.26459369 -5.66394085 68.84013171 0.3359375 64.62109375 C4.72874455 61.57390941 7.96792188 60.22484707 13.38671875 60.58984375 C15.375 61 15.375 61 17.9375 62.5 C20.00197193 66.09038597 20.13834203 69.03334766 19.375 73 C15.9032262 83.51546871 8.63026171 89.53503304 -1 94.4375 C-9.23824416 98.34374755 -18.08403988 99.63784807 -27.07421875 97.38671875 C-29.13895385 96.43601922 -30.81166936 95.37162189 -32.625 94 C-33.37265625 93.44054687 -34.1203125 92.88109375 -34.890625 92.3046875 C-44.73371181 84.25421584 -50.72022716 72.56071903 -52.625 60 C-54.02525802 40.73001448 -50.44107813 23.18402426 -37.6875 8 C-28.11394516 -2.13232263 -13.06521817 -6.0176739 0 0 Z " fill="#DCD9C8" transform="translate(622.625,162)"/>
<path d="M0 0 C5.13592515 2.94478317 8.48224082 6.35962938 11.375 11.5 C11.74625 12.08265625 12.1175 12.6653125 12.5 13.265625 C15.14626984 20.02306406 14.27962858 30.21378048 11.8125 36.9375 C6.17193019 48.61034585 -2.46018447 55.27693913 -14.4375 59.9375 C-18.27271839 61.22872682 -21.54082278 61.94153267 -25.625 61.5 C-23.51173474 66.20842624 -23.51173474 66.20842624 -19.625 69.5 C-11.99644477 71.32845528 -6.51795154 68.2393617 -0.18432617 64.43408203 C2.75446486 62.67730725 2.75446486 62.67730725 5.375 60.5 C9.8569753 59.93512295 13.38166631 59.9931971 17.4375 62.0625 C19.375 64.5 19.375 64.5 20 67.625 C18.51612546 76.82502217 13.52926489 83.71200097 6.375 89.5 C-3.69765029 96.40959242 -12.47685208 98.94914455 -24.625 97.5 C-33.5559665 95.06642976 -40.63182891 88.34919858 -45.4140625 80.6015625 C-50.53267144 70.7929966 -53.17085305 61.69355928 -53 50.625 C-52.98839844 49.6561084 -52.97679687 48.6872168 -52.96484375 47.68896484 C-52.6218499 32.67037397 -47.73702303 17.46890748 -37.25 6.3125 C-26.47332951 -3.23830135 -13.34757223 -6.05953217 0 0 Z " fill="#DDDAC9" transform="translate(250.625,159.5)"/>
<path d="M0 0 C3.88066183 1.06513367 5.99005326 4.25387716 8.03515625 7.55859375 C10.64886131 15.39970893 9.52092762 24.79055822 7.03515625 32.55859375 C7.95296875 32.50058594 8.87078125 32.44257813 9.81640625 32.3828125 C17.65143687 32.0947599 23.01263919 32.26502688 29.03515625 37.55859375 C30.03515625 38.55859375 30.03515625 38.55859375 30.34765625 41.30859375 C29.95069115 45.43703084 29.03295021 46.71068948 26.03515625 49.55859375 C20.82681063 52.73909989 15.93568164 54.72360251 9.78515625 54.62109375 C7.92890625 54.59015625 7.92890625 54.59015625 6.03515625 54.55859375 C5.67443623 57.88949777 5.34919682 61.22297362 5.03515625 64.55859375 C4.93976563 65.55117187 4.844375 66.54375 4.74609375 67.56640625 C4.11447871 75.05555604 3.84713487 82.54528695 3.72265625 90.05859375 C3.69292725 91.00250977 3.66319824 91.94642578 3.63256836 92.91894531 C3.59642957 97.17799635 3.88535009 100.17812714 5.4609375 104.1796875 C9.25596302 107.68677482 12.54406673 107.2678905 17.53515625 107.12109375 C26.28989131 106.90321573 26.28989131 106.90321573 29.59375 109.80859375 C31.73987058 113.90308939 31.91927236 117.05039807 31.03515625 121.55859375 C28.15211503 126.65196657 24.58713516 128.91025973 19.109375 130.8671875 C8.01461469 133.36245125 -3.18669524 132.0116128 -13.27734375 126.87109375 C-18.75981331 122.15361995 -22.59153321 115.47354571 -23.14627075 108.16995239 C-23.21251548 105.2663294 -23.21573176 102.36915829 -23.1953125 99.46484375 C-23.19462517 97.86751404 -23.19462517 97.86751404 -23.19392395 96.23791504 C-23.19091024 93.99209475 -23.1830504 91.74627638 -23.1706543 89.50048828 C-23.15240742 86.07056233 -23.15014475 82.64090693 -23.15039062 79.2109375 C-23.14547442 77.02473726 -23.13964565 74.83853884 -23.1328125 72.65234375 C-23.13169968 71.6303186 -23.13058685 70.60829346 -23.12944031 69.55529785 C-23.0977474 64.78039935 -22.96100623 60.25272997 -21.96484375 55.55859375 C-22.68929688 55.605 -23.41375 55.65140625 -24.16015625 55.69921875 C-30.51541344 55.93648169 -34.10867214 55.77579541 -38.96484375 51.55859375 C-39.96484375 50.55859375 -39.96484375 50.55859375 -40.46484375 46.87109375 C-40.41072079 44.34986596 -40.22408527 42.95011947 -38.82421875 40.8359375 C-33.08790525 35.39200891 -24.77946813 32.55859375 -16.96484375 32.55859375 C-16.98804688 31.86894531 -17.01125 31.17929688 -17.03515625 30.46875 C-17.22847789 20.4022158 -16.02425127 11.89446376 -9.96484375 3.55859375 C-6.79902781 0.72737624 -4.34620489 -0.13810371 0 0 Z " fill="#DCD9C8" transform="translate(465.96484375,134.44140625)"/>
<path d="M0 0 C3.75944444 3.38349999 4.3291991 4.96899326 5 10 C4.86206243 15.31059658 1.8968945 18.42077347 -1.5 22.25 C-9.73898184 31.3456061 -9.73898184 31.3456061 -11.80859375 43.1171875 C-11.07013938 48.22093543 -8.96907658 51.09682561 -5 54.1875 C-1.74009957 56.49884745 1.6470695 58.5531914 5.0625 60.625 C12.58265557 65.34986889 18.98059235 71.69822799 21.05078125 80.625 C23.9561263 97.60232067 17.12723771 114.94473877 7.7421875 128.85546875 C3.41219365 134.22264718 -2.00711347 138.34399643 -8.86328125 139.7265625 C-13.0034966 139.99097961 -15.70339584 139.52600303 -19 136.9375 C-22.4283884 133.25198247 -23.02535766 130.04088646 -22.9765625 125.03125 C-21.75437816 117.89850207 -17.18179041 111.28524864 -13.69921875 105 C-9.1327454 96.55563062 -9.1327454 96.55563062 -9.5 87.25 C-12.66746484 80.2980317 -19.28724098 76.12205618 -25.234375 71.6953125 C-33.63102146 65.44425847 -39.12836483 60.3649055 -42.5 50.25 C-43.84635207 35.15532194 -38.48978872 20.8570774 -29.03515625 9.21484375 C-21.02944351 0.83906724 -11.59318596 -5.79659298 0 0 Z " fill="#553B1D" transform="translate(404.5,126.75)"/>
<path d="M0 0 C3.0458214 0.88078791 4.41947629 1.91207191 6.09375 4.60546875 C6.73299557 8.36103645 6.38383409 10.08331738 4.53125 13.41796875 C1.43366292 16.19785459 -0.84610449 16.16486953 -4.90625 16.60546875 C-3.96947307 27.52376538 -1.96653196 38.31683436 6.40625 46.10546875 C13.35311391 51.10267914 19.98896447 53.20665005 28.4921875 53.28515625 C29.36662506 53.30643585 30.24106262 53.32771545 31.14199829 53.34963989 C32.98560093 53.39028815 34.82942785 53.42171918 36.67333984 53.44433594 C39.42778292 53.47993922 42.17991885 53.54801792 44.93359375 53.62109375 C53.81640317 53.81416798 62.59856267 53.66979798 71.4453125 52.80078125 C72.20097504 52.73027557 72.95663757 52.6597699 73.73519897 52.58712769 C80.92036329 51.77418892 87.88405461 49.88714612 93.09375 44.60546875 C94.71232207 42.14129884 96.01156767 39.57590296 97.28125 36.91796875 C97.62929687 36.20769531 97.97734375 35.49742187 98.3359375 34.765625 C100.71210702 29.77657942 102.30849492 25.10225428 103.09375 19.60546875 C102.35125 19.52296875 101.60875 19.44046875 100.84375 19.35546875 C97.4186479 18.42135 96.15019875 17.49972995 94.09375 14.60546875 C93.47390501 10.34403443 93.60063036 8.36158553 95.96875 4.73046875 C98.69419891 2.00501984 99.52875609 1.65877006 103.40625 1.29296875 C107.7611499 1.66202806 109.23494546 2.32625178 112.09375 5.60546875 C115.82773532 16.57405062 108.67085054 31.48545746 104.09375 41.60546875 C100.00540372 49.2856438 95.0354991 55.15382188 86.5234375 57.98046875 C75.13130724 60.91092026 63.75971853 60.84354974 52.09375 60.60546875 C55.32645426 93.30690924 59.68057146 125.84321901 65.67578125 158.15625 C65.95386349 159.66178273 66.23193964 161.16731659 66.51000977 162.67285156 C67.05285437 165.61005768 67.60522449 168.54524455 68.16381836 171.47949219 C68.41673149 172.83524402 68.66942701 174.19103648 68.921875 175.546875 C69.1477832 176.73998291 69.37369141 177.93309082 69.60644531 179.16235352 C70.10573633 182.69015974 70.17894442 186.04746591 70.09375 189.60546875 C70.96257812 189.38890625 71.83140625 189.17234375 72.7265625 188.94921875 C74.45519531 188.5315625 74.45519531 188.5315625 76.21875 188.10546875 C77.35570313 187.82703125 78.49265625 187.54859375 79.6640625 187.26171875 C87.74187593 185.71607791 87.74187593 185.71607791 91.46875 188.16796875 C93.63830002 191.42229378 93.38826507 193.77677289 93.09375 197.60546875 C86.30639373 201.57855535 78.77982282 201.47462554 71.09375 200.60546875 C67.23820905 198.87419279 65.70474947 197.44711582 64.09375 193.60546875 C63.59472656 191.34838867 63.59472656 191.34838867 63.234375 188.8359375 C63.0912085 187.88033936 62.94804199 186.92474121 62.80053711 185.94018555 C62.57442749 184.38231323 62.57442749 184.38231323 62.34375 182.79296875 C60.81777461 172.73935277 59.00979717 162.7648465 57.03125 152.79296875 C55.27433322 143.89849232 53.57168506 135.0090299 52.21875 126.04296875 C52.03880493 124.8667395 52.03880493 124.8667395 51.85522461 123.66674805 C51.27026755 119.61450886 50.97735321 115.69875576 51.09375 111.60546875 C48.12375 111.60546875 45.15375 111.60546875 42.09375 111.60546875 C33.88318471 135.79991559 30.10771941 160.32766467 27.58007812 185.67724609 C27.49554382 186.50423508 27.41100952 187.33122406 27.32391357 188.18327332 C27.16336711 189.77307998 27.0104011 191.36367545 26.86602783 192.95503235 C26.31600191 198.38321684 26.31600191 198.38321684 24.09375 200.60546875 C20.7662222 200.97659189 17.43435352 200.75362141 14.09375 200.60546875 C13.28550781 200.57582031 12.47726563 200.54617188 11.64453125 200.515625 C5.95549497 200.11961399 2.21252271 198.72424146 -1.90625 194.60546875 C-2.21875 192.23046875 -2.21875 192.23046875 -1.90625 189.60546875 C0.35637057 186.98082889 1.83990155 186.63533327 5.28125 186.23046875 C9.86854037 186.68167764 13.80604636 187.97205784 18.09375 189.60546875 C18.16722656 188.62320313 18.16722656 188.62320313 18.2421875 187.62109375 C18.31695312 186.7084375 18.39171875 185.79578125 18.46875 184.85546875 C18.53835937 183.97375 18.60796875 183.09203125 18.6796875 182.18359375 C19.15752432 178.05436238 19.84560377 173.98207145 20.54492188 169.88525391 C21.08600667 166.6517427 21.58143998 163.41423481 22.06640625 160.171875 C24.27221461 145.81818127 27.11556582 131.8115764 30.65625 117.73046875 C35.03287037 100.30545326 39.07734008 82.81425275 39.91796875 64.80078125 C40.09375 62.60546875 40.09375 62.60546875 41.09375 60.60546875 C40.36671875 60.61707031 39.6396875 60.62867188 38.890625 60.640625 C22.75281827 60.78545147 9.4910058 59.89078915 -2.70703125 48.14453125 C-11.20396669 38.33457026 -12.1313366 29.01985216 -12.28125 16.54296875 C-12.31863281 15.35896484 -12.35601563 14.17496094 -12.39453125 12.95507812 C-12.40613281 11.81748047 -12.41773437 10.67988281 -12.4296875 9.5078125 C-12.4594165 7.95308228 -12.4594165 7.95308228 -12.48974609 6.36694336 C-11.90625 3.60546875 -11.90625 3.60546875 -9.51831055 1.25610352 C-5.94863637 -0.99967433 -4.0202743 -0.67674617 0 0 Z " fill="#D9D5C5" transform="translate(37.90625,97.39453125)"/>
<path d="M0 0 C4.72893135 2.68689281 6.23193626 5.96101833 8 11 C8.6875 13.9375 8.6875 13.9375 9 16 C9.51046875 15.22076172 9.51046875 15.22076172 10.03125 14.42578125 C13.57304952 9.3297346 16.94814814 4.97184963 23 3 C30.53233606 2.12252168 38.77130536 1.57956969 45.453125 5.71875 C48.63029007 8.35034127 51.14252832 11.28505664 53 15 C53.34444547 20.25279338 53.57741751 23.82634624 50 28 C45.60682104 30.89550431 42.21531417 31.55878366 37 31 C34.99187074 30.01642648 32.99145391 29.01691264 31 28 C27.06468167 27.42609941 25.39752622 27.78533584 21.875 29.6875 C15.98505555 34.42506402 12.99115321 39.7665314 11 47 C10.46258109 52.33213638 10.43319102 57.64701419 10.4375 63 C10.39835719 85.69238934 10.39835719 85.69238934 3 95 C-0.26019062 96.63009531 -3.48759906 96.65646029 -7 96 C-13.17598124 91.22765086 -14.38694351 83.32375252 -16 76 C-16.56813668 71.01643872 -16.69634281 66.07552495 -16.75 61.0625 C-16.77524068 59.68292319 -16.80154921 58.30336556 -16.82885742 56.92382812 C-16.88111224 54.06529811 -16.91988797 51.20700347 -16.94873047 48.34814453 C-16.98659649 44.71841629 -17.06039499 41.09044542 -17.1446228 37.46153259 C-17.20575387 34.64832718 -17.24727415 31.83508538 -17.28308105 29.02145386 C-17.31180086 27.04804009 -17.35735122 25.07489396 -17.40332031 23.10180664 C-17.45157309 15.22978582 -16.91403107 9.61479646 -11.65820312 3.41796875 C-7.95054165 -0.15674868 -4.99515114 -0.81738837 0 0 Z " fill="#DCD9C9" transform="translate(517,167)"/>
<path d="M0 0 C6.47284698 6.40471175 10.11907848 15.04104766 10.23046875 24.0859375 C10.02973272 35.12641936 4.96262318 43.13367182 -1.5703125 51.70703125 C-5.71382382 57.19504477 -7.96194093 62.80621421 -7.14453125 69.8359375 C-6.15453125 70.4959375 -5.16453125 71.1559375 -4.14453125 71.8359375 C-3.89355446 74.80881732 -3.81900737 77.55676522 -3.89453125 80.5234375 C-3.8996875 81.31427734 -3.90484375 82.10511719 -3.91015625 82.91992188 C-3.94067294 85.22965399 -4.03295516 87.52884827 -4.14453125 89.8359375 C-4.1909375 91.12113281 -4.23734375 92.40632813 -4.28515625 93.73046875 C-5.14453125 96.8359375 -5.14453125 96.8359375 -7.546875 98.75 C-12.34560914 100.19847784 -16.7221774 100.27320493 -21.70703125 100.2109375 C-22.63966797 100.22253906 -23.57230469 100.23414063 -24.53320312 100.24609375 C-33.57387796 100.20743085 -33.57387796 100.20743085 -37.14453125 96.8359375 C-40.07616953 89.79200114 -41.4911029 80.41370348 -40.14453125 72.8359375 C-38.6484375 71.23046875 -38.6484375 71.23046875 -37.14453125 69.8359375 C-36.33849339 63.96337596 -37.87690208 59.63377351 -41.14453125 54.8359375 C-42.93875197 52.73255875 -44.74738342 50.65314633 -46.58203125 48.5859375 C-51.67110929 42.84760094 -54.74458412 37.17558165 -57.14453125 29.8359375 C-57.63953125 28.3509375 -57.63953125 28.3509375 -58.14453125 26.8359375 C-59.1471965 16.95721927 -56.74353294 8.28725453 -50.69140625 0.3671875 C-36.8685654 -13.31602869 -14.32014903 -11.26175393 0 0 Z M-43.14453125 -2.1640625 C-43.77875 -1.7515625 -44.41296875 -1.3390625 -45.06640625 -0.9140625 C-50.17394495 2.92750507 -53.33092786 7.72104466 -55.14453125 13.8359375 C-56.62568732 26.02299361 -54.27671706 34.25980576 -46.859375 43.734375 C-45.6091022 45.26659998 -44.35007663 46.79169505 -43.0859375 48.3125 C-37.61966666 54.95226384 -34.20822911 60.11361506 -33.14453125 68.8359375 C-31.49453125 68.8359375 -29.84453125 68.8359375 -28.14453125 68.8359375 C-28.09032424 66.27315051 -28.05076118 63.71152267 -28.01953125 61.1484375 C-28.00277344 60.42720703 -27.98601562 59.70597656 -27.96875 58.96289062 C-27.93088249 54.81639854 -28.07716412 51.48103218 -30.14453125 47.8359375 C-33.16149534 45.99318774 -33.16149534 45.99318774 -36.14453125 44.8359375 C-36.14453125 43.5159375 -36.14453125 42.1959375 -36.14453125 40.8359375 C-33.76953125 41.0859375 -33.76953125 41.0859375 -31.14453125 41.8359375 C-29.83203125 43.8984375 -29.83203125 43.8984375 -29.14453125 45.8359375 C-27.49453125 45.8359375 -25.84453125 45.8359375 -24.14453125 45.8359375 C-24.45390625 43.9178125 -24.45390625 43.9178125 -24.76953125 41.9609375 C-25.12109375 39.78125 -25.12109375 39.78125 -25.14453125 37.8359375 C-23.14453125 35.8359375 -23.14453125 35.8359375 -20.58203125 35.6484375 C-18.14453125 35.8359375 -18.14453125 35.8359375 -17.14453125 36.8359375 C-16.88160069 40.86753941 -16.85048281 42.39486484 -19.14453125 45.8359375 C-17.82453125 45.8359375 -16.50453125 45.8359375 -15.14453125 45.8359375 C-15.14453125 45.1759375 -15.14453125 44.5159375 -15.14453125 43.8359375 C-12.83453125 43.5059375 -10.52453125 43.1759375 -8.14453125 42.8359375 C-8.26953125 44.7109375 -8.26953125 44.7109375 -9.14453125 46.8359375 C-10.11390625 47.1246875 -11.08328125 47.4134375 -12.08203125 47.7109375 C-13.09265625 48.0821875 -14.10328125 48.4534375 -15.14453125 48.8359375 C-17.18626143 53.33717762 -17.36187333 57.31680748 -17.26953125 62.2109375 C-17.25148437 63.45617187 -17.2334375 64.70140625 -17.21484375 65.984375 C-17.19164062 66.92539063 -17.1684375 67.86640625 -17.14453125 68.8359375 C-14.83453125 68.8359375 -12.52453125 68.8359375 -10.14453125 68.8359375 C-10.10328125 67.5571875 -10.06203125 66.2784375 -10.01953125 64.9609375 C-9.12223464 56.99743006 -4.05076178 51.07396812 0.54296875 44.7734375 C6.74467311 35.92366026 7.95473559 27.60375584 6.85546875 16.8359375 C4.86528007 8.8988755 -0.6314377 1.7614189 -7.58203125 -2.5390625 C-18.5717134 -7.55189997 -32.63184159 -9.00158423 -43.14453125 -2.1640625 Z " fill="#D7D4C4" transform="translate(106.14453125,49.1640625)"/>
<path d="M0 0 C2.92954238 0.06776522 4.21499902 0.29416616 6.875 1.6875 C13.51394778 9.02528439 16.25087589 15.28986447 16.16894531 25.17651367 C15.84609261 30.00251149 14.89218647 32.83329596 11.3125 36.3125 C6.97166156 39.35725872 2.60136773 41.18028936 -2.75 40.3125 C-4.6875 38.6875 -4.6875 38.6875 -5.75 36.3125 C-6.306875 35.19875 -6.306875 35.19875 -6.875 34.0625 C-8.83389645 27.90596831 -8.90909328 21.60209232 -9.0625 15.1875 C-9.09230957 14.50647217 -9.12211914 13.82544434 -9.15283203 13.1237793 C-9.21111845 8.02743837 -7.88780128 5.26024999 -4.75 1.3125 C-3.75 0.3125 -3.75 0.3125 0 0 Z " fill="#201911" transform="translate(146.75,191.6875)"/>
<path d="M0 0 C1.84790274 1.84790274 1.17410063 4.77379631 1.1875 7.25 C1.16413021 13.95629487 0.78481696 20.62872107 0.25 27.3125 C0.1883667 28.23772461 0.1267334 29.16294922 0.06323242 30.11621094 C-0.01435303 30.98149414 -0.09193848 31.84677734 -0.171875 32.73828125 C-0.2347168 33.51212158 -0.29755859 34.28596191 -0.36230469 35.08325195 C-1 37 -1 37 -3.05175781 38.26635742 C-4.0161377 38.6295105 -4.0161377 38.6295105 -5 39 C-5.8816638 37.73378071 -6.75477072 36.46160492 -7.625 35.1875 C-8.19089844 34.36378906 -8.75679688 33.54007813 -9.33984375 32.69140625 C-11 30 -11 30 -12.06640625 27.33984375 C-15.58388366 18.82191066 -21.64363703 15.72238547 -29.54760742 11.70361328 C-30.37494385 11.27677246 -31.20228027 10.84993164 -32.0546875 10.41015625 C-32.81249512 10.04027588 -33.57030273 9.67039551 -34.35107422 9.28930664 C-34.89521973 8.86383545 -35.43936523 8.43836426 -36 8 C-36 4 -36 4 -35 3 C-32.92970719 2.69961049 -30.85053342 2.46004728 -28.76953125 2.24609375 C-27.49142578 2.11396484 -26.21332031 1.98183594 -24.89648438 1.84570312 C-24.22576904 1.77875244 -23.55505371 1.71180176 -22.86401367 1.64282227 C-20.83775934 1.44002804 -18.81243977 1.229379 -16.78710938 1.01757812 C-4.93239832 -0.18990122 -4.93239832 -0.18990122 0 0 Z " fill="#DAD7C6" transform="translate(426,108)"/>
<path d="M0 0 C3 1 3 1 4.03295898 2.66723633 C4.50971069 3.73880981 4.50971069 3.73880981 4.99609375 4.83203125 C11.79262055 18.86527072 20.0662553 25.29009825 34 32 C33.39550781 33.93457031 33.39550781 33.93457031 32 36 C29.20605469 36.72949219 29.20605469 36.72949219 25.671875 37.046875 C24.39699219 37.16933594 23.12210937 37.29179687 21.80859375 37.41796875 C20.45574391 37.52882592 19.10287917 37.63950137 17.75 37.75 C16.41260469 37.87464226 15.07536129 38.00092625 13.73828125 38.12890625 C1.42021309 39.25775238 1.42021309 39.25775238 -3 39 C-5 37 -5 37 -5.05932617 34.85205078 C-4.97142822 33.97532715 -4.88353027 33.09860352 -4.79296875 32.1953125 C-4.70144531 31.22424561 -4.60992187 30.25317871 -4.515625 29.25268555 C-4.40734375 28.22054932 -4.2990625 27.18841309 -4.1875 26.125 C-3.98271295 24.02998307 -3.77828253 21.93493125 -3.57421875 19.83984375 C-3.47286621 18.83163574 -3.37151367 17.82342773 -3.26708984 16.78466797 C-2.85929528 12.53301825 -2.59272977 8.27549738 -2.34375 4.01171875 C-2 2 -2 2 0 0 Z " fill="#DAD7C6" transform="translate(367,247)"/>
<path d="M0 0 C0 1.32 0 2.64 0 4 C-1.26714844 3.98839844 -2.53429687 3.97679687 -3.83984375 3.96484375 C-5.53906101 3.95545581 -7.23827989 3.94635669 -8.9375 3.9375 C-9.76830078 3.92912109 -10.59910156 3.92074219 -11.45507812 3.91210938 C-17.05226441 3.89033044 -22.44733582 4.28840732 -28 5 C-28 5.66 -28 6.32 -28 7 C-27.23429687 6.83628906 -26.46859375 6.67257813 -25.6796875 6.50390625 C-20.80984281 5.83701669 -16.03309368 5.89427153 -11.125 5.9375 C-10.15046875 5.94201172 -9.1759375 5.94652344 -8.171875 5.95117188 C-5.78118566 5.96289094 -3.3906256 5.97929781 -1 6 C-1 7.32 -1 8.64 -1 10 C-6.94 10 -12.88 10 -19 10 C-19.33 10.66 -19.66 11.32 -20 12 C-14.06 12 -8.12 12 -2 12 C-2 13.98 -2 15.96 -2 18 C-5.35138634 21.35138634 -15.74808977 20.1558948 -20.32421875 20.23046875 C-23 20 -23 20 -29 18 C-29.66 12.72 -30.32 7.44 -31 2 C-20.75447985 -2.16766921 -10.79755557 -1.46407533 0 0 Z " fill="#231C14" transform="translate(100,127)"/>
<path d="M0 0 C2 2 2 2 2.25 5 C2 8 2 8 0 10 C0.99 10.33 1.98 10.66 3 11 C3 10.34 3 9.68 3 9 C6.465 8.505 6.465 8.505 10 8 C9.67 9.65 9.34 11.3 9 13 C7.02 13.33 5.04 13.66 3 14 C2.9498877 14.57032959 2.89977539 15.14065918 2.84814453 15.72827148 C2.61680288 18.29899657 2.37109952 20.86814757 2.125 23.4375 C2.00705078 24.78424805 2.00705078 24.78424805 1.88671875 26.15820312 C1.80292969 27.01220703 1.71914062 27.86621094 1.6328125 28.74609375 C1.55949707 29.53685303 1.48618164 30.3276123 1.41064453 31.14233398 C1.27513184 31.75536377 1.13961914 32.36839355 1 33 C-1.95664519 34.4783226 -4.74229737 34.06032783 -8 34 C-8.19592461 30.68794116 -8.38032746 27.37534146 -8.5625 24.0625 C-8.61857422 23.11697266 -8.67464844 22.17144531 -8.73242188 21.19726562 C-8.78076172 20.29814453 -8.82910156 19.39902344 -8.87890625 18.47265625 C-8.9260376 17.64000244 -8.97316895 16.80734863 -9.02172852 15.94946289 C-9 14 -9 14 -8 13 C-8.66 12.34 -9.32 11.68 -10 11 C-9.01 10.67 -8.02 10.34 -7 10 C-7.226875 8.906875 -7.45375 7.81375 -7.6875 6.6875 C-8 3 -8 3 -6.875 1.0625 C-4.403308 -0.33812547 -2.79844834 -0.35877543 0 0 Z " fill="#B9B6A6" transform="translate(88,84)"/>
<path d="M0 0 C0.68900391 -0.00064453 1.37800781 -0.00128906 2.08789062 -0.00195312 C5.79428494 0.03751477 9.19809112 0.4071872 12.8125 1.1875 C14.1325 1.1875 15.4525 1.1875 16.8125 1.1875 C16.83968316 4.04173192 16.85942705 6.89570015 16.875 9.75 C16.88337891 10.54986328 16.89175781 11.34972656 16.90039062 12.17382812 C16.91978005 16.92423778 16.85139156 21.52750085 15.8125 26.1875 C12.60107666 28.35172008 10.68803592 29.1875 6.8125 29.1875 C6.8125 28.5275 6.8125 27.8675 6.8125 27.1875 C5.4925 26.8575 4.1725 26.5275 2.8125 26.1875 C5.7825 25.8575 8.7525 25.5275 11.8125 25.1875 C12.1425 23.2075 12.4725 21.2275 12.8125 19.1875 C6.8725 19.1875 0.9325 19.1875 -5.1875 19.1875 C-4.8575 18.1975 -4.5275 17.2075 -4.1875 16.1875 C-1.56243198 16.16059156 1.06236173 16.14070596 3.6875 16.125 C4.43386719 16.11662109 5.18023437 16.10824219 5.94921875 16.09960938 C11.5859375 16.07421875 11.5859375 16.07421875 13.8125 17.1875 C13.8125 15.8675 13.8125 14.5475 13.8125 13.1875 C0.4475 13.6825 0.4475 13.6825 -13.1875 14.1875 C-13.1875 13.5275 -13.1875 12.8675 -13.1875 12.1875 C-4.58954504 9.77403896 6.1259185 8.45243026 14.8125 11.1875 C14.8125 9.8675 14.8125 8.5475 14.8125 7.1875 C13.1625 7.1875 11.5125 7.1875 9.8125 7.1875 C9.4825 6.5275 9.1525 5.8675 8.8125 5.1875 C5.77077281 5.1603955 2.72929003 5.14061036 -0.3125 5.125 C-1.1684375 5.11662109 -2.024375 5.10824219 -2.90625 5.09960938 C-7.45428411 5.08211694 -11.71133164 5.25557642 -16.1875 6.1875 C-16.1875 4.8675 -16.1875 3.5475 -16.1875 2.1875 C-10.76828841 0.38109614 -5.6926998 -0.00517989 0 0 Z " fill="#C1BDAD" transform="translate(85.1875,119.8125)"/>
<path d="M0 0 C0.10815225 1.76949095 0.18566083 3.54087487 0.25 5.3125 C0.29640625 6.29863281 0.3428125 7.28476563 0.390625 8.30078125 C0 11 0 11 -1.7734375 12.75 C-6.94066694 15.65090074 -11.97136112 17.7176951 -18 17 C-20 15 -20 15 -20.5625 12.25 C-19.83385371 8.04004365 -18.23409076 6.8522863 -14.9296875 4.32421875 C-9.78329379 0.7925842 -6.29106155 -0.37746369 0 0 Z " fill="#221B13" transform="translate(693,220)"/>
<path d="M0 0 C0 3.96 0 7.92 0 12 C-10.75354108 17.89235127 -10.75354108 17.89235127 -17 17 C-17.99 16.34 -18.98 15.68 -20 15 C-20.44921875 12.63671875 -20.44921875 12.63671875 -20 10 C-18.20703125 7.83203125 -18.20703125 7.83203125 -15.8125 5.8125 C-15.03519531 5.13832031 -14.25789063 4.46414062 -13.45703125 3.76953125 C-8.66372109 0.31743347 -6.08600374 0 0 0 Z " fill="#221B13" transform="translate(320,217)"/>
<path d="M0 0 C4.32997103 4.31177788 8.77143787 10.91797975 8.95703125 17.109375 C8.94542969 18.38554688 8.93382813 19.66171875 8.921875 20.9765625 C8.91285156 22.25789063 8.90382813 23.53921875 8.89453125 24.859375 C8.88292969 25.84679687 8.87132813 26.83421875 8.859375 27.8515625 C8.529375 27.8515625 8.199375 27.8515625 7.859375 27.8515625 C7.76140625 27.16191406 7.6634375 26.47226563 7.5625 25.76171875 C5.9188508 15.43223367 2.85688346 6.12027475 -5.80078125 -0.3984375 C-14.49970237 -5.78820184 -24.19537239 -6.01463692 -34.140625 -5.1484375 C-40.73731619 -3.41984278 -46.77544522 0.2249535 -50.546875 6.0078125 C-53.85010613 12.07653946 -55.27182032 18.03079739 -56.140625 24.8515625 C-56.470625 24.8515625 -56.800625 24.8515625 -57.140625 24.8515625 C-57.95568975 15.35756752 -57.05078661 8.52595146 -51.140625 0.8515625 C-37.37815793 -13.25713015 -14.65967516 -11.43454663 0 0 Z " fill="#CECBBA" transform="translate(106.140625,49.1484375)"/>
<path d="M0 0 C1.875 1.125 1.875 1.125 3 3 C3.55873829 6.67170876 3.39845246 8.39099091 1.3515625 11.51953125 C-1.31197913 14.32908098 -3.47392591 15.41175547 -7.0625 16.8125 C-8.10535156 17.23144531 -9.14820313 17.65039062 -10.22265625 18.08203125 C-13 19 -13 19 -16 19 C-15.59783859 11.492987 -13.31515202 6.42209241 -8.0625 1 C-5.19198684 -0.39176396 -3.14573597 -0.40158332 0 0 Z " fill="#251E15" transform="translate(240,180)"/>
<path d="M0 0 C2.5099972 3.76499581 2.61476744 5.54293606 2 10 C-1.88751325 14.27626458 -6.39563014 16.60457997 -12 18 C-13.32 18 -14.64 18 -16 18 C-15.65341895 11.53048701 -14.1194072 7.07187129 -10 2 C-6.32003497 -0.45331002 -4.34586828 -0.39507893 0 0 Z " fill="#201910" transform="translate(613,183)"/>
<path d="M0 0 C0.33 1.32 0.66 2.64 1 4 C1.95261719 3.51144531 2.90523438 3.02289063 3.88671875 2.51953125 C8.50892473 0.54191152 12.85069255 0.59215397 17.8125 0.6875 C19.09930664 0.68266602 19.09930664 0.68266602 20.41210938 0.67773438 C26.73243428 0.73243428 26.73243428 0.73243428 29 3 C25.13530946 3.92494449 21.65249963 4.04671556 17.6875 3.9375 C12.3835666 3.88325523 8.04667015 4.41673093 3 6 C3.33 11.28 3.66 16.56 4 22 C14.395 22.99 14.395 22.99 25 24 C25 24.66 25 25.32 25 26 C22.10359882 26.08120751 19.20949088 26.14059421 16.3125 26.1875 C15.49587891 26.21263672 14.67925781 26.23777344 13.83789062 26.26367188 C9.08857725 26.32135584 5.79310689 26.20784235 2 23 C-0.94104145 15.71742118 -0.18115251 7.72917375 0 0 Z " fill="#D2CFBE" transform="translate(67,123)"/>
<path d="M0 0 C4.64955799 0.04836991 7.96073898 0.4118603 11.8125 3.25 C12.6875 5.4375 12.6875 5.4375 12.8125 7.25 C7.16575804 9.75966309 0.89275644 10.09650277 -5.1875 9.25 C-7.1875 6.25 -7.1875 6.25 -6.875 3.625 C-5.67210421 -0.53045819 -4.08338667 0.06612772 0 0 Z " fill="#D4D1C0" transform="translate(18.1875,59.75)"/>
<path d="M0 0 C1.485 0.99 1.485 0.99 3 2 C3.37109375 4.28515625 3.37109375 4.28515625 3.4375 7.0625 C4.15322992 17.60575226 9.49929169 24.58548564 16.05859375 32.4765625 C25.64930284 44.12619446 25.64930284 44.12619446 25 53 C25.66 53.33 26.32 53.66 27 54 C26.01 54 25.02 54 24 54 C21.69406803 51.69406803 21.53934486 50.55464006 20.8125 47.4375 C18.86735228 40.63437029 14.73824233 36.14023961 10.1640625 30.89453125 C2.55153491 21.76947088 -1.07314565 11.89999288 0 0 Z " fill="#C5C2B2" transform="translate(48,65)"/>
<path d="M0 0 C3.125 0.375 3.125 0.375 5 2.1875 C6.66178334 6.89588614 6.35873382 11.43196256 6.125 16.375 C4.475 16.705 2.825 17.035 1.125 17.375 C0.27988176 15.65156245 -0.55063354 13.92095947 -1.375 12.1875 C-1.8390625 11.22457031 -2.303125 10.26164062 -2.78125 9.26953125 C-3.8765641 6.37086073 -4.17966556 4.43797696 -3.875 1.375 C-2.875 0.375 -2.875 0.375 0 0 Z " fill="#D3D0BF" transform="translate(63.875,7.625)"/>
<path d="M0 0 C5.66203888 0.16653056 11.10457052 4.10457052 15 8 C14.625 10.125 14.625 10.125 14 12 C7.93267948 10.96232949 2.5626148 9.66038099 -3 7 C-2.25 2.25 -2.25 2.25 0 0 Z " fill="#D4D1C0" transform="translate(28,29)"/>
<path d="M0 0 C-0.66 6.27 -1.32 12.54 -2 19 C-3.65 19 -5.3 19 -7 19 C-7.66 12.73 -8.32 6.46 -9 0 C-6 -1 -6 -1 0 0 Z " fill="#1F1810" transform="translate(88,98)"/>
<path d="M0 0 C0.33 0 0.66 0 1 0 C1.79376606 14.0672985 -2.01651952 22.83537767 -10.42578125 33.87109375 C-13.42553885 37.84422402 -14.9054883 41.12444787 -16 46 C-16.33 45.34 -16.66 44.68 -17 44 C-17.66 44 -18.32 44 -19 44 C-17.64422684 39.1454574 -15.58500357 35.68640024 -12.625 31.625 C-6.24891474 22.58808871 -3.56911029 16.25025457 -2.4921875 5.1953125 C-2 2 -2 2 0 0 Z " fill="#CECABA" transform="translate(115,67)"/>
<path d="M0 0 C0.680625 -0.00902344 1.36125 -0.01804687 2.0625 -0.02734375 C6.3521737 -0.00230674 9.95710153 0.4637241 13.875 2.25 C14.205 3.24 14.535 4.23 14.875 5.25 C13.78614502 5.24214478 13.78614502 5.24214478 12.67529297 5.23413086 C9.36687088 5.21326503 6.05846269 5.20030931 2.75 5.1875 C1.60789062 5.17912109 0.46578125 5.17074219 -0.7109375 5.16210938 C-1.81953125 5.15888672 -2.928125 5.15566406 -4.0703125 5.15234375 C-5.08625488 5.14710693 -6.10219727 5.14187012 -7.14892578 5.13647461 C-10.21614726 5.25347691 -13.11133134 5.68223583 -16.125 6.25 C-16.125 4.93 -16.125 3.61 -16.125 2.25 C-10.7411441 0.45538137 -5.65662382 0.03108035 0 0 Z " fill="#261F17" transform="translate(85.125,119.75)"/>
<path d="M0 0 C4.875 0.875 4.875 0.875 6 2 C5.88323348 7.72155956 4.03242045 10.93808335 0.66796875 15.49609375 C-1 17 -1 17 -5 17 C-4.53444296 10.59859065 -2.85288164 5.73230171 0 0 Z " fill="#D5D2C1" transform="translate(106,12)"/>
<path d="M0 0 C2 2 2 2 2.25 5 C2 8 2 8 0 10 C0.66 10.66 1.32 11.32 2 12 C1.34 12 0.68 12 0 12 C0 12.66 0 13.32 0 14 C-1.27875 14.061875 -2.5575 14.12375 -3.875 14.1875 C-4.59429687 14.22230469 -5.31359375 14.25710937 -6.0546875 14.29296875 C-6.69664063 14.19628906 -7.33859375 14.09960938 -8 14 C-8.66 13.01 -9.32 12.02 -10 11 C-9.01 10.67 -8.02 10.34 -7 10 C-7.226875 8.906875 -7.45375 7.81375 -7.6875 6.6875 C-8 3 -8 3 -6.875 1.0625 C-4.403308 -0.33812547 -2.79844834 -0.35877543 0 0 Z " fill="#C0BDAD" transform="translate(88,84)"/>
<path d="M0 0 C0.66 0.66 1.32 1.32 2 2 C1.625 4.625 1.625 4.625 1 7 C-2.42232972 8.14077657 -5.08673217 8.09815117 -8.6875 8.0625 C-10.45673828 8.04896484 -10.45673828 8.04896484 -12.26171875 8.03515625 C-13.16535156 8.02355469 -14.06898438 8.01195312 -15 8 C-14.63481546 5.48075592 -14.41691257 4.32238586 -12.36328125 2.734375 C-8.11560291 0.6954894 -4.82462309 -0.68923187 0 0 Z " fill="#D7D4C3" transform="translate(143,42)"/>
<path d="M0 0 C0.33 0 0.66 0 1 0 C1.33 3.96 1.66 7.92 2 12 C12.395 12.99 12.395 12.99 23 14 C23 14.66 23 15.32 23 16 C20.10359882 16.08120751 17.20949088 16.14059421 14.3125 16.1875 C13.49587891 16.21263672 12.67925781 16.23777344 11.83789062 16.26367188 C7.10574449 16.32114733 3.76061646 16.23189613 0 13 C-1.21517655 8.39968876 -1.01384537 4.6186289 0 0 Z " fill="#CAC7B7" transform="translate(69,133)"/>
<path d="M0 0 C2.3125 0.1875 2.3125 0.1875 5 1 C6.625 3.4375 6.625 3.4375 8 6 C8.99 6.66 9.98 7.32 11 8 C10.34 8.66 9.68 9.32 9 10 C8.01 10 7.02 10 6 10 C6 9.34 6 8.68 6 8 C5.21625 7.87625 4.4325 7.7525 3.625 7.625 C1 7 1 7 -1 5 C-0.625 2.375 -0.625 2.375 0 0 Z " fill="#D7D4C3" transform="translate(70,89)"/>
<path d="M0 0 C5.28 0 10.56 0 16 0 C15.67 0.99 15.34 1.98 15 3 C9.72 3 4.44 3 -1 3 C-0.67 2.01 -0.34 1.02 0 0 Z " fill="#ADA99A" transform="translate(81,136)"/>
<path d="M0 0 C0.99 0 1.98 0 3 0 C5.21854707 4.62197306 6.38281159 7.76824163 6 13 C6.66 13.33 7.32 13.66 8 14 C7.01 14 6.02 14 5 14 C2.42853943 11.42853943 2.19882003 9.3949583 1.375 5.875 C1.11460938 4.77929688 0.85421875 3.68359375 0.5859375 2.5546875 C0.39257812 1.71164063 0.19921875 0.86859375 0 0 Z " fill="#B6B2A3" transform="translate(67,105)"/>
<path d="M0 0 C1.5625 1.1875 1.5625 1.1875 3 3 C3 5.5625 3 5.5625 2 8 C-0.88909849 9.59660706 -2.69058796 10 -6 10 C-6 9.34 -6 8.68 -6 8 C-7.32 7.67 -8.64 7.34 -10 7 C-5.545 6.505 -5.545 6.505 -1 6 C-0.67 4.02 -0.34 2.04 0 0 Z " fill="#B2AE9F" transform="translate(98,139)"/>
<path d="M0 0 C0.66 0 1.32 0 2 0 C1.18980503 4.11390262 0.31864773 8.2132475 -0.5625 12.3125 C-0.83191406 13.56675781 -1.10132813 14.82101563 -1.37890625 16.11328125 C-1.68634766 17.54220703 -1.68634766 17.54220703 -2 19 C-2.33 19 -2.66 19 -3 19 C-3.55353075 5.18223235 -3.55353075 5.18223235 0 0 Z " fill="#D4D1C0" transform="translate(52,55)"/>
<path d="M0 0 C0.33 0 0.66 0 1 0 C1.02693575 2.12493141 1.04636628 4.24995912 1.0625 6.375 C1.07410156 7.55835937 1.08570312 8.74171875 1.09765625 9.9609375 C1 13 1 13 0 15 C-0.66 15 -1.32 15 -2 15 C-2.05386629 12.87527424 -2.09273071 10.75016348 -2.125 8.625 C-2.14820312 7.44164063 -2.17140625 6.25828125 -2.1953125 5.0390625 C-2 2 -2 2 0 0 Z " fill="#AFAC9D" transform="translate(115,67)"/>
<path d="M0 0 C2.5625 0.1875 2.5625 0.1875 4.5625 2.1875 C4.6875 5.3125 4.6875 5.3125 4.5625 8.1875 C3.5725 7.8575 2.5825 7.5275 1.5625 7.1875 C1.5625 5.8675 1.5625 4.5475 1.5625 3.1875 C-0.0875 3.5175 -1.7375 3.8475 -3.4375 4.1875 C-3.4375 0.26442308 -3.4375 0.26442308 0 0 Z " fill="#D6D3C2" transform="translate(85.4375,83.8125)"/>
<path d="M0 0 C2.0625 0.4375 2.0625 0.4375 4 1 C3.67 2.65 3.34 4.3 3 6 C1.68 6 0.36 6 -1 6 C-1.042721 4.33388095 -1.04063832 2.66617115 -1 1 C-0.67 0.67 -0.34 0.34 0 0 Z " fill="#302920" transform="translate(84,86)"/>
<path d="M0 0 C0.66 0 1.32 0 2 0 C1.11223998 3.69900008 0.05418136 7.34550461 -1 11 C-1.33 10.34 -1.66 9.68 -2 9 C-2.66 9 -3.32 9 -4 9 C-2.94124926 5.59687262 -1.99097846 2.98646769 0 0 Z " fill="#C0BCAD" transform="translate(100,102)"/>
<path d="M0 0 C0.66 0.33 1.32 0.66 2 1 C2 1.66 2 2.32 2 3 C1.34 3 0.68 3 0 3 C0.33 4.65 0.66 6.3 1 8 C0.34 8 -0.32 8 -1 8 C-1.33 9.98 -1.66 11.96 -2 14 C-2.33 14 -2.66 14 -3 14 C-3.08114106 12.22992286 -3.13925505 10.45877902 -3.1875 8.6875 C-3.22230469 7.70136719 -3.25710937 6.71523437 -3.29296875 5.69921875 C-3 3 -3 3 -1.48828125 1.14453125 C-0.99714844 0.76683594 -0.50601563 0.38914062 0 0 Z " fill="#AEAA9B" transform="translate(69,119)"/>
<path d="M0 0 C2.375 0.25 2.375 0.25 5 1 C6.3125 3.0625 6.3125 3.0625 7 5 C6.01 5.33 5.02 5.66 4 6 C1.3125 4.5625 1.3125 4.5625 -1 3 C-0.67 2.01 -0.34 1.02 0 0 Z " fill="#AEAA9B" transform="translate(70,89)"/>
<path d="M0 0 C0.33 0 0.66 0 1 0 C1.1953125 6.0546875 1.1953125 6.0546875 1 8 C0.34 8.66 -0.32 9.32 -1 10 C-1 8.35 -1 6.7 -1 5 C-3.97 4.505 -3.97 4.505 -7 4 C-7 3.67 -7 3.34 -7 3 C-5.5459375 2.814375 -5.5459375 2.814375 -4.0625 2.625 C-2.5465625 2.315625 -2.5465625 2.315625 -1 2 C-0.67 1.34 -0.34 0.68 0 0 Z " fill="#DDDAC9" transform="translate(100,134)"/>
<path d="M0 0 C0.66 0 1.32 0 2 0 C2.33 3.63 2.66 7.26 3 11 C1.68 10.34 0.36 9.68 -1 9 C-0.67 6.03 -0.34 3.06 0 0 Z " fill="#DAD7C6" transform="translate(96,111)"/>
<path d="M0 0 C2.97 0 5.94 0 9 0 C8.67 0.66 8.34 1.32 8 2 C5.93359375 2.4140625 5.93359375 2.4140625 3.4375 2.625 C2.61121094 2.69976562 1.78492187 2.77453125 0.93359375 2.8515625 C-0.02353516 2.92503906 -0.02353516 2.92503906 -1 3 C-0.67 2.01 -0.34 1.02 0 0 Z " fill="#C8C5B5" transform="translate(81,136)"/>
<path d="M0 0 C0.33 0.66 0.66 1.32 1 2 C1.66 2 2.32 2 3 2 C1.25 7.75 1.25 7.75 -1 10 C-2.31223496 6.06329512 -1.24296256 3.87511856 0 0 Z " fill="#BFBCAC" transform="translate(112,80)"/>
<path d="M0 0 C0 0.99 0 1.98 0 3 C-4.29 2.67 -8.58 2.34 -13 2 C-13 1.67 -13 1.34 -13 1 C-8.62426048 0.40667939 -4.42471556 -0.13827236 0 0 Z " fill="#BFBBAC" transform="translate(96,118)"/>
<path d="M0 0 C1.65 0.33 3.3 0.66 5 1 C5 1.99 5 2.98 5 4 C2.69 3.67 0.38 3.34 -2 3 C-1.34 2.67 -0.68 2.34 0 2 C0 1.34 0 0.68 0 0 Z " fill="#BBB7A8" transform="translate(89,41)"/>
</svg>
