<svg xmlns="http://www.w3.org/2000/svg" xmlns:xlink="http://www.w3.org/1999/xlink" width="1080" zoomAndPan="magnify" viewBox="0 0 810 809.999993" height="1080" preserveAspectRatio="xMidYMid meet" version="1.0"><defs><g/><clipPath id="cdefce4e95"><path d="M 6.753906 6.207031 L 787.492188 6.207031 L 787.492188 805 L 6.753906 805 Z M 6.753906 6.207031 " clip-rule="nonzero"/></clipPath><clipPath id="462fb74278"><path d="M 787.492188 81.191406 L 787.492188 729.265625 C 787.492188 770.679688 753.917969 804.25 712.503906 804.25 L 81.742188 804.25 C 40.328125 804.25 6.753906 770.679688 6.753906 729.265625 L 6.753906 81.191406 C 6.753906 39.777344 40.328125 6.207031 81.742188 6.207031 L 712.503906 6.207031 C 753.917969 6.207031 787.492188 39.777344 787.492188 81.191406 Z M 787.492188 81.191406 " clip-rule="nonzero"/></clipPath><clipPath id="176e9081ea"><path d="M 0.753906 0.207031 L 781.492188 0.207031 L 781.492188 798.480469 L 0.753906 798.480469 Z M 0.753906 0.207031 " clip-rule="nonzero"/></clipPath><clipPath id="029f9378e7"><path d="M 781.492188 75.191406 L 781.492188 723.265625 C 781.492188 764.679688 747.917969 798.25 706.503906 798.25 L 75.742188 798.25 C 34.328125 798.25 0.753906 764.679688 0.753906 723.265625 L 0.753906 75.191406 C 0.753906 33.777344 34.328125 0.207031 75.742188 0.207031 L 706.503906 0.207031 C 747.917969 0.207031 781.492188 33.777344 781.492188 75.191406 Z M 781.492188 75.191406 " clip-rule="nonzero"/></clipPath><clipPath id="e2c067300e"><rect x="0" width="782" y="0" height="799"/></clipPath><clipPath id="2f29f9a8ab"><path d="M 6.820312 6.207031 L 787.503906 6.207031 L 787.503906 804.207031 L 6.820312 804.207031 Z M 6.820312 6.207031 " clip-rule="nonzero"/></clipPath><clipPath id="3a7aaad1f4"><path d="M 787.546875 81.191406 L 787.546875 729.253906 C 787.546875 770.667969 753.972656 804.242188 712.558594 804.242188 L 81.808594 804.242188 C 40.394531 804.242188 6.820312 770.667969 6.820312 729.253906 L 6.820312 81.191406 C 6.820312 39.777344 40.394531 6.207031 81.808594 6.207031 L 712.558594 6.207031 C 753.972656 6.207031 787.546875 39.777344 787.546875 81.191406 Z M 787.546875 81.191406 " clip-rule="nonzero"/></clipPath><clipPath id="aa8cf1971f"><rect x="0" width="378" y="0" height="730"/></clipPath><clipPath id="1cd60a2a37"><path d="M 425 119 L 550 119 L 550 244 L 425 244 Z M 425 119 " clip-rule="nonzero"/></clipPath><clipPath id="537ea70573"><path d="M 422.035156 137.332031 L 492.570312 66.800781 L 601.816406 176.046875 L 531.285156 246.582031 Z M 422.035156 137.332031 " clip-rule="nonzero"/></clipPath><clipPath id="af725997fc"><path d="M 422.035156 137.332031 L 492.570312 66.800781 L 601.816406 176.046875 L 531.285156 246.582031 Z M 422.035156 137.332031 " clip-rule="nonzero"/></clipPath><clipPath id="7059c49c75"><path d="M 422.054688 137.355469 L 492.695312 66.714844 L 601.957031 175.972656 L 531.316406 246.613281 Z M 422.054688 137.355469 " clip-rule="nonzero"/></clipPath><clipPath id="55e941ba81"><path d="M 344 569 L 469 569 L 469 695 L 344 695 Z M 344 569 " clip-rule="nonzero"/></clipPath><clipPath id="f319c54946"><path d="M 472.144531 675.84375 L 401.609375 746.378906 L 292.363281 637.128906 L 362.894531 566.59375 Z M 472.144531 675.84375 " clip-rule="nonzero"/></clipPath><clipPath id="6d5967d5dd"><path d="M 472.144531 675.84375 L 401.609375 746.378906 L 292.363281 637.128906 L 362.894531 566.59375 Z M 472.144531 675.84375 " clip-rule="nonzero"/></clipPath><clipPath id="08f3ff11cd"><path d="M 472.121094 675.824219 L 401.480469 746.464844 L 292.222656 637.203125 L 362.863281 566.5625 Z M 472.121094 675.824219 " clip-rule="nonzero"/></clipPath><clipPath id="40fc0d6bb4"><rect x="0" width="132" y="0" height="702"/></clipPath></defs><g clip-path="url(#cdefce4e95)"><g clip-path="url(#462fb74278)"><g transform="matrix(1, 0, 0, 1, 6, 6)"><g clip-path="url(#e2c067300e)"><g clip-path="url(#176e9081ea)"><g clip-path="url(#029f9378e7)"><path fill="#ffdbb5" d="M 0.753906 0.207031 L 781.492188 0.207031 L 781.492188 799.238281 L 0.753906 799.238281 Z M 0.753906 0.207031 " fill-opacity="1" fill-rule="nonzero"/></g></g></g></g></g></g><g clip-path="url(#2f29f9a8ab)"><g clip-path="url(#3a7aaad1f4)"><path stroke-linecap="butt" transform="matrix(0.75, 0, 0, 0.75, 6.755245, 6.205764)" fill="none" stroke-linejoin="miter" d="M 1041.055558 99.980861 L 1041.055558 964.064238 C 1041.055558 1019.282991 996.289931 1064.048618 941.071178 1064.048618 L 100.071136 1064.048618 C 44.852383 1064.048618 0.086756 1019.282991 0.086756 964.064238 L 0.086756 99.980861 C 0.086756 44.762108 44.852383 0.00168934 100.071136 0.00168934 L 941.071178 0.00168934 C 996.289931 0.00168934 1041.055558 44.762108 1041.055558 99.980861 Z M 1041.055558 99.980861 " stroke="#914f1e" stroke-width="84" stroke-opacity="1" stroke-miterlimit="4"/></g></g><g transform="matrix(1, 0, 0, 1, 262, 51)"><g clip-path="url(#aa8cf1971f)"><g fill="#000000" fill-opacity="1"><g transform="translate(143.692672, 565.68463)"><g><path d="M 83.9375 -413.03125 C 86.125 -405.113281 85.53125 -397.539062 82.15625 -390.3125 C 78.789062 -383.09375 74.191406 -376.644531 68.359375 -370.96875 C 63.222656 -365.46875 57.976562 -359.664062 52.625 -353.5625 C 47.28125 -347.457031 42.59375 -340.976562 38.5625 -334.125 C 34.539062 -327.269531 31.710938 -320.097656 30.078125 -312.609375 C 28.453125 -305.128906 28.78125 -297.265625 31.0625 -289.015625 C 33.070312 -281.785156 36.601562 -275.722656 41.65625 -270.828125 C 46.707031 -265.941406 52.507812 -261.351562 59.0625 -257.0625 C 65.613281 -252.769531 72.726562 -248.445312 80.40625 -244.09375 C 88.09375 -239.738281 95.453125 -234.554688 102.484375 -228.546875 C 109.523438 -222.535156 116.050781 -215.363281 122.0625 -207.03125 C 128.070312 -198.695312 132.789062 -188.335938 136.21875 -175.953125 C 138.601562 -167.359375 139.484375 -157.144531 138.859375 -145.3125 C 138.242188 -133.476562 136.363281 -121.203125 133.21875 -108.484375 C 130.070312 -95.773438 125.710938 -83.097656 120.140625 -70.453125 C 114.578125 -57.804688 108.1875 -46.128906 100.96875 -35.421875 C 93.75 -24.722656 85.671875 -15.453125 76.734375 -7.609375 C 67.796875 0.222656 58.515625 5.472656 48.890625 8.140625 C 38.222656 11.085938 27.957031 10.773438 18.09375 7.203125 C 8.226562 3.640625 1.675781 -3.984375 -1.5625 -15.671875 C -3.75 -23.578125 -3.878906 -31.40625 -1.953125 -39.15625 C -0.0234375 -46.914062 2.832031 -54.648438 6.625 -62.359375 C 10.414062 -70.066406 14.851562 -77.769531 19.9375 -85.46875 C 25.019531 -93.164062 29.503906 -100.703125 33.390625 -108.078125 C 37.285156 -115.453125 40.238281 -122.84375 42.25 -130.25 C 44.269531 -137.65625 44.28125 -144.96875 42.28125 -152.1875 C 39.519531 -162.164062 33.164062 -171.421875 23.21875 -179.953125 C 13.269531 -188.484375 2.449219 -197.144531 -9.234375 -205.9375 C -20.929688 -214.738281 -31.921875 -224.007812 -42.203125 -233.75 C -52.484375 -243.488281 -59.289062 -254.378906 -62.625 -266.421875 C -66.71875 -281.203125 -67.066406 -297.851562 -63.671875 -316.375 C -60.285156 -334.894531 -54.28125 -352.660156 -45.65625 -369.671875 C -37.039062 -386.679688 -26.234375 -401.796875 -13.234375 -415.015625 C -0.242188 -428.242188 13.8125 -436.953125 28.9375 -441.140625 C 40.976562 -444.472656 52.296875 -443.710938 62.890625 -438.859375 C 73.492188 -434.015625 80.507812 -425.40625 83.9375 -413.03125 Z M 83.9375 -413.03125 "/></g></g></g></g></g><g clip-path="url(#1cd60a2a37)"><g clip-path="url(#537ea70573)"><g clip-path="url(#af725997fc)"><g clip-path="url(#7059c49c75)"><path fill="#914f1e" d="M 541.203125 119.144531 L 432.167969 129.78125 C 423.953125 130.578125 422.699219 142.035156 430.542969 144.597656 L 487.191406 176.59375 C 489.503906 177.347656 491.3125 179.15625 492.066406 181.46875 L 524.074219 238.128906 C 526.632812 245.972656 538.085938 244.714844 538.894531 236.507812 L 549.523438 127.464844 C 549.984375 122.691406 545.976562 118.679688 541.203125 119.144531 " fill-opacity="1" fill-rule="nonzero"/></g></g></g></g><g clip-path="url(#55e941ba81)"><g clip-path="url(#f319c54946)"><g clip-path="url(#6d5967d5dd)"><g clip-path="url(#08f3ff11cd)"><path fill="#914f1e" d="M 352.976562 694.03125 L 462.011719 683.398438 C 470.226562 682.597656 471.476562 671.144531 463.636719 668.582031 L 406.988281 636.582031 C 404.675781 635.832031 402.867188 634.019531 402.113281 631.707031 L 370.105469 575.050781 C 367.546875 567.207031 356.089844 568.460938 355.285156 576.671875 L 344.65625 685.710938 C 344.195312 690.488281 348.203125 694.496094 352.976562 694.03125 " fill-opacity="1" fill-rule="nonzero"/></g></g></g></g><g transform="matrix(1, 0, 0, 1, 183, 47)"><g clip-path="url(#40fc0d6bb4)"><g fill="#914f1e" fill-opacity="1"><g transform="translate(0.427511, 532.224534)"><g><path d="M 104.359375 -373.546875 C 104.359375 -368.554688 103.019531 -364.097656 100.34375 -360.171875 C 97.664062 -356.242188 94.1875 -352.765625 89.90625 -349.734375 C 85.625 -346.703125 80.984375 -344.382812 75.984375 -342.78125 C 70.992188 -341.175781 66.359375 -340.375 62.078125 -340.375 C 54.941406 -340.375 48.695312 -342.15625 43.34375 -345.71875 C 38 -349.289062 35.328125 -354.820312 35.328125 -362.3125 C 35.328125 -367.664062 36.660156 -372.390625 39.328125 -376.484375 C 42.003906 -380.585938 45.304688 -383.976562 49.234375 -386.65625 C 53.160156 -389.332031 57.617188 -391.382812 62.609375 -392.8125 C 67.609375 -394.238281 72.425781 -394.953125 77.0625 -394.953125 C 83.84375 -394.953125 90.085938 -393.347656 95.796875 -390.140625 C 101.503906 -386.929688 104.359375 -381.398438 104.359375 -373.546875 Z M 108.640625 -191.59375 C 108.640625 -186.59375 108.640625 -181.328125 108.640625 -175.796875 C 108.640625 -170.273438 108.460938 -165.015625 108.109375 -160.015625 C 107.742188 -153.953125 107.5625 -145.832031 107.5625 -135.65625 C 107.5625 -125.488281 107.203125 -114.519531 106.484375 -102.75 C 105.773438 -90.976562 104.617188 -79.023438 103.015625 -66.890625 C 101.410156 -54.765625 98.820312 -43.707031 95.25 -33.71875 C 91.6875 -23.726562 86.960938 -15.609375 81.078125 -9.359375 C 75.191406 -3.117188 67.789062 0.175781 58.875 0.53125 C 52.09375 0.894531 46.378906 -1.773438 41.734375 -7.484375 C 37.097656 -13.203125 33.265625 -20.609375 30.234375 -29.703125 C 27.203125 -38.796875 24.972656 -48.960938 23.546875 -60.203125 C 22.117188 -71.441406 21.046875 -82.320312 20.328125 -92.84375 C 19.617188 -103.375 19.265625 -113.097656 19.265625 -122.015625 C 19.265625 -130.929688 19.265625 -137.535156 19.265625 -141.828125 C 19.265625 -147.535156 19.265625 -155.648438 19.265625 -166.171875 C 19.265625 -176.691406 19.617188 -188.015625 20.328125 -200.140625 C 21.046875 -212.273438 22.382812 -224.585938 24.34375 -237.078125 C 26.3125 -249.566406 29.164062 -260.984375 32.90625 -271.328125 C 36.65625 -281.679688 41.5625 -290.066406 47.625 -296.484375 C 53.695312 -302.910156 61.367188 -306.125 70.640625 -306.125 C 80.273438 -306.125 87.585938 -301.304688 92.578125 -291.671875 C 97.578125 -282.035156 101.320312 -270.796875 103.8125 -257.953125 C 106.3125 -245.109375 107.738281 -232.351562 108.09375 -219.6875 C 108.457031 -207.019531 108.640625 -197.65625 108.640625 -191.59375 Z M 108.640625 -191.59375 "/></g></g></g></g></g></svg>