<svg xmlns="http://www.w3.org/2000/svg" xmlns:xlink="http://www.w3.org/1999/xlink" width="851" zoomAndPan="magnify" viewBox="0 0 638.25 236.249991" height="315" preserveAspectRatio="xMidYMid meet" version="1.0"><defs><g/><clipPath id="282612e190"><path d="M 81 82 L 141 82 L 141 184 L 81 184 Z M 81 82 " clip-rule="nonzero"/></clipPath><clipPath id="9ecae7f8d0"><path d="M 56.210938 136.835938 L 111.191406 81.855469 L 166.171875 136.835938 L 111.191406 191.816406 Z M 56.210938 136.835938 " clip-rule="nonzero"/></clipPath><clipPath id="4cfa54314f"><path d="M 56.210938 136.835938 L 111.191406 81.855469 L 166.171875 136.835938 L 111.191406 191.816406 Z M 56.210938 136.835938 " clip-rule="nonzero"/></clipPath><clipPath id="d996843b58"><path d="M 0.636719 21 L 636.867188 21 L 636.867188 214 L 0.636719 214 Z M 0.636719 21 " clip-rule="nonzero"/></clipPath><clipPath id="6b2342c22a"><rect x="0" width="637" y="0" height="193"/></clipPath><clipPath id="be1436acc2"><path d="M 500 82 L 559 82 L 559 184 L 500 184 Z M 500 82 " clip-rule="nonzero"/></clipPath><clipPath id="ff7752dffc"><path d="M 475.132812 136.835938 L 530.113281 81.855469 L 585.09375 136.835938 L 530.113281 191.816406 Z M 475.132812 136.835938 " clip-rule="nonzero"/></clipPath><clipPath id="b365a7f4bf"><path d="M 475.132812 136.835938 L 530.113281 81.855469 L 585.09375 136.835938 L 530.113281 191.816406 Z M 475.132812 136.835938 " clip-rule="nonzero"/></clipPath></defs><g clip-path="url(#282612e190)"><g clip-path="url(#9ecae7f8d0)"><g clip-path="url(#4cfa54314f)"><path fill="#fcef91" d="M 104.820312 88.226562 C 95.722656 97.324219 89.757812 115.777344 92.289062 134.707031 L 85.492188 141.5 C 80.582031 146.414062 81.433594 152.894531 83.371094 158.707031 L 85.964844 166.488281 L 98.222656 154.230469 L 123.683594 154.230469 L 135.941406 166.488281 L 138.535156 158.707031 C 140.472656 152.894531 141.324219 146.414062 136.414062 141.5 L 129.617188 134.707031 C 132.152344 115.777344 126.183594 97.324219 117.085938 88.226562 L 110.953125 82.09375 Z M 106.710938 111.796875 C 109.054688 109.453125 112.851562 109.453125 115.195312 111.796875 C 117.539062 114.140625 117.539062 117.941406 115.195312 120.285156 C 112.851562 122.628906 109.054688 122.628906 106.710938 120.285156 C 104.367188 117.941406 104.367188 114.140625 106.710938 111.796875 Z M 104.589844 164.839844 L 104.589844 169.085938 C 104.589844 175.214844 110.953125 183.9375 110.953125 183.9375 C 110.953125 183.9375 117.320312 175.890625 117.320312 169.085938 L 117.320312 164.839844 Z M 104.589844 164.839844 " fill-opacity="1" fill-rule="nonzero"/></g></g></g><g clip-path="url(#d996843b58)"><g transform="matrix(1, 0, 0, 1, 0, 21)"><g clip-path="url(#6b2342c22a)"><g fill="#fcef91" fill-opacity="1"><g transform="translate(0.636088, 146.579273)"><g><path d="M 73.640625 -20.046875 C 73.640625 -17.617188 72.644531 -15.335938 70.65625 -13.203125 C 68.675781 -11.078125 66.113281 -9.144531 62.96875 -7.40625 C 59.820312 -5.664062 56.3125 -4.140625 52.4375 -2.828125 C 48.5625 -1.523438 44.734375 -0.414062 40.953125 0.5 C 37.179688 1.425781 33.625 2.128906 30.28125 2.609375 C 26.9375 3.097656 24.300781 3.34375 22.375 3.34375 C 20.53125 3.34375 18.566406 3.171875 16.484375 2.828125 C 14.398438 2.492188 12.679688 1.742188 11.328125 0.578125 C 10.554688 -0.00390625 9.878906 -1.3125 9.296875 -3.34375 C 8.710938 -5.375 8.15625 -7.789062 7.625 -10.59375 C 7.09375 -13.40625 6.632812 -16.429688 6.25 -19.671875 C 5.863281 -22.921875 5.546875 -26.09375 5.296875 -29.1875 C 5.054688 -32.289062 4.863281 -35.148438 4.71875 -37.765625 C 4.570312 -40.378906 4.5 -42.410156 4.5 -43.859375 C 4.5 -46.285156 4.570312 -49.21875 4.71875 -52.65625 C 4.863281 -56.09375 5.082031 -59.769531 5.375 -63.6875 C 5.664062 -67.613281 6.050781 -71.609375 6.53125 -75.671875 C 7.019531 -79.742188 7.578125 -83.59375 8.203125 -87.21875 C 8.835938 -90.851562 9.613281 -94.125 10.53125 -97.03125 C 11.445312 -99.9375 12.441406 -102.210938 13.515625 -103.859375 C 15.347656 -106.472656 17.671875 -107.78125 20.484375 -107.78125 C 22.421875 -107.78125 24.066406 -107.125 25.421875 -105.8125 C 26.773438 -104.507812 27.863281 -102.816406 28.6875 -100.734375 C 29.507812 -98.648438 30.140625 -96.320312 30.578125 -93.75 C 31.015625 -91.1875 31.328125 -88.644531 31.515625 -86.125 C 31.710938 -83.613281 31.8125 -81.289062 31.8125 -79.15625 C 31.8125 -77.03125 31.8125 -75.335938 31.8125 -74.078125 C 31.8125 -66.523438 31.640625 -59.046875 31.296875 -51.640625 C 30.960938 -44.234375 30.796875 -36.75 30.796875 -29.1875 L 30.796875 -23.53125 C 35.148438 -24.882812 39.890625 -26.164062 45.015625 -27.375 C 50.148438 -28.582031 55.046875 -29.1875 59.703125 -29.1875 C 61.347656 -29.1875 63.015625 -29.085938 64.703125 -28.890625 C 66.398438 -28.703125 67.898438 -28.289062 69.203125 -27.65625 C 70.515625 -27.03125 71.582031 -26.113281 72.40625 -24.90625 C 73.226562 -23.695312 73.640625 -22.078125 73.640625 -20.046875 Z M 73.640625 -20.046875 "/></g></g></g><g fill="#fcef91" fill-opacity="1"><g transform="translate(73.553839, 146.579273)"><g/></g><g transform="translate(108.560169, 146.579273)"><g/></g></g><g fill="#fcef91" fill-opacity="1"><g transform="translate(143.5665, 146.579273)"><g><path d="M 67.96875 -41.546875 C 67.96875 -36.210938 67.4375 -30.929688 66.375 -25.703125 C 65.3125 -20.472656 63.519531 -15.800781 61 -11.6875 C 58.488281 -7.570312 55.125 -4.253906 50.90625 -1.734375 C 46.695312 0.773438 41.445312 2.03125 35.15625 2.03125 C 28.957031 2.03125 23.773438 0.792969 19.609375 -1.671875 C 15.441406 -4.140625 12.125 -7.40625 9.65625 -11.46875 C 7.1875 -15.539062 5.441406 -20.140625 4.421875 -25.265625 C 3.410156 -30.398438 2.90625 -35.628906 2.90625 -40.953125 C 2.90625 -46.765625 3.582031 -52.53125 4.9375 -58.25 C 5.226562 -59.789062 5.785156 -61.941406 6.609375 -64.703125 C 7.429688 -67.460938 8.492188 -70.175781 9.796875 -72.84375 C 11.109375 -75.507812 12.609375 -77.804688 14.296875 -79.734375 C 15.992188 -81.671875 17.863281 -82.640625 19.90625 -82.640625 C 21.832031 -82.640625 23.378906 -82.109375 24.546875 -81.046875 C 25.710938 -79.984375 26.632812 -78.648438 27.3125 -77.046875 C 27.988281 -75.453125 28.421875 -73.757812 28.609375 -71.96875 C 28.804688 -70.175781 28.90625 -68.554688 28.90625 -67.109375 C 28.90625 -64.878906 28.734375 -62.695312 28.390625 -60.5625 C 28.054688 -58.4375 27.695312 -56.304688 27.3125 -54.171875 C 26.914062 -51.265625 26.546875 -48.359375 26.203125 -45.453125 C 25.867188 -42.554688 25.703125 -39.65625 25.703125 -36.75 C 25.703125 -35.289062 25.773438 -33.664062 25.921875 -31.875 C 26.066406 -30.082031 26.429688 -28.363281 27.015625 -26.71875 C 27.597656 -25.070312 28.421875 -23.691406 29.484375 -22.578125 C 30.546875 -21.472656 32.046875 -20.921875 33.984375 -20.921875 C 36.503906 -20.921875 38.515625 -21.597656 40.015625 -22.953125 C 41.515625 -24.304688 42.628906 -26 43.359375 -28.03125 C 44.085938 -30.0625 44.546875 -32.238281 44.734375 -34.5625 C 44.929688 -36.894531 45.03125 -39.023438 45.03125 -40.953125 C 45.03125 -45.210938 44.738281 -49.398438 44.15625 -53.515625 C 43.570312 -57.640625 43.039062 -61.832031 42.5625 -66.09375 C 42.457031 -66.570312 42.40625 -67.25 42.40625 -68.125 C 42.40625 -69.570312 42.644531 -71.019531 43.125 -72.46875 C 43.613281 -73.925781 44.296875 -75.234375 45.171875 -76.390625 C 46.046875 -77.554688 47.109375 -78.503906 48.359375 -79.234375 C 49.617188 -79.960938 51.023438 -80.328125 52.578125 -80.328125 C 54.710938 -80.328125 56.601562 -79.570312 58.25 -78.0625 C 59.894531 -76.5625 61.269531 -74.625 62.375 -72.25 C 63.488281 -69.882812 64.410156 -67.222656 65.140625 -64.265625 C 65.867188 -61.316406 66.453125 -58.410156 66.890625 -55.546875 C 67.328125 -52.691406 67.613281 -50.003906 67.75 -47.484375 C 67.894531 -44.972656 67.96875 -42.992188 67.96875 -41.546875 Z M 67.96875 -41.546875 "/></g></g><g transform="translate(216.048487, 146.579273)"><g><path d="M 45.609375 4.0625 C 43.960938 4.0625 42.65625 3.3125 41.6875 1.8125 C 40.71875 0.3125 39.988281 -1.40625 39.5 -3.34375 C 39.019531 -5.28125 38.707031 -7.238281 38.5625 -9.21875 C 38.414062 -11.207031 38.34375 -12.734375 38.34375 -13.796875 C 38.34375 -16.703125 38.507812 -19.609375 38.84375 -22.515625 C 39.1875 -25.421875 39.578125 -28.320312 40.015625 -31.21875 C 40.453125 -34.125 40.835938 -37.03125 41.171875 -39.9375 C 41.515625 -42.84375 41.6875 -45.75 41.6875 -48.65625 C 41.6875 -49.820312 41.632812 -51.082031 41.53125 -52.4375 C 41.4375 -53.789062 41.21875 -55.070312 40.875 -56.28125 C 40.539062 -57.488281 39.988281 -58.476562 39.21875 -59.25 C 38.445312 -60.03125 37.429688 -60.421875 36.171875 -60.421875 C 35.296875 -60.421875 34.328125 -59.71875 33.265625 -58.3125 C 32.203125 -56.914062 31.207031 -55.320312 30.28125 -53.53125 C 29.363281 -51.738281 28.585938 -49.945312 27.953125 -48.15625 C 27.328125 -46.363281 27.015625 -45.03125 27.015625 -44.15625 C 27.015625 -42.019531 27.035156 -39.863281 27.078125 -37.6875 C 27.128906 -35.507812 27.15625 -33.304688 27.15625 -31.078125 L 27.15625 -22.65625 C 27.0625 -20.914062 26.914062 -19.125 26.71875 -17.28125 C 26.53125 -15.445312 26.242188 -13.65625 25.859375 -11.90625 C 25.566406 -10.164062 25.128906 -8.492188 24.546875 -6.890625 C 23.960938 -5.296875 23.210938 -3.894531 22.296875 -2.6875 C 21.378906 -1.476562 20.289062 -0.488281 19.03125 0.28125 C 17.769531 1.0625 16.269531 1.453125 14.53125 1.453125 C 12.59375 1.453125 10.992188 0.820312 9.734375 -0.4375 C 8.472656 -1.695312 7.453125 -3.316406 6.671875 -5.296875 C 5.898438 -7.285156 5.34375 -9.515625 5 -11.984375 C 4.664062 -14.453125 4.425781 -16.867188 4.28125 -19.234375 C 4.132812 -21.609375 4.085938 -23.789062 4.140625 -25.78125 C 4.191406 -27.769531 4.21875 -29.34375 4.21875 -30.5 L 4.21875 -37.328125 C 4.21875 -41.003906 4.144531 -44.632812 4 -48.21875 C 3.851562 -51.800781 3.78125 -55.382812 3.78125 -58.96875 C 3.78125 -60.90625 3.800781 -63.375 3.84375 -66.375 C 3.894531 -69.375 4.257812 -72.300781 4.9375 -75.15625 C 5.613281 -78.019531 6.726562 -80.46875 8.28125 -82.5 C 9.832031 -84.53125 12.109375 -85.546875 15.109375 -85.546875 C 16.460938 -85.546875 17.671875 -85.109375 18.734375 -84.234375 C 19.796875 -83.367188 20.738281 -82.304688 21.5625 -81.046875 C 22.382812 -79.785156 23.0625 -78.425781 23.59375 -76.96875 C 24.132812 -75.519531 24.550781 -74.265625 24.84375 -73.203125 C 25.8125 -74.554688 26.945312 -75.863281 28.25 -77.125 C 29.5625 -78.382812 31.039062 -79.5 32.6875 -80.46875 C 34.332031 -81.4375 36.171875 -82.207031 38.203125 -82.78125 C 40.234375 -83.363281 42.554688 -83.65625 45.171875 -83.65625 C 50.109375 -83.65625 53.957031 -82.46875 56.71875 -80.09375 C 59.476562 -77.726562 61.507812 -74.773438 62.8125 -71.234375 C 64.125 -67.703125 64.925781 -63.898438 65.21875 -59.828125 C 65.507812 -55.765625 65.65625 -52.085938 65.65625 -48.796875 C 65.65625 -47.148438 65.507812 -44.707031 65.21875 -41.46875 C 64.925781 -38.226562 64.460938 -34.644531 63.828125 -30.71875 C 63.203125 -26.800781 62.359375 -22.78125 61.296875 -18.65625 C 60.234375 -14.539062 58.972656 -10.789062 57.515625 -7.40625 C 56.066406 -4.019531 54.347656 -1.261719 52.359375 0.859375 C 50.378906 2.992188 48.128906 4.0625 45.609375 4.0625 Z M 45.609375 4.0625 "/></g></g><g transform="translate(285.480131, 146.579273)"><g><path d="M 58.25 -55.78125 C 58.25 -55.289062 58.195312 -54.78125 58.09375 -54.25 C 58 -53.71875 57.851562 -53.207031 57.65625 -52.71875 C 56.789062 -50.5 55.4375 -48.632812 53.59375 -47.125 C 51.757812 -45.625 49.582031 -44.875 47.0625 -44.875 C 43.28125 -44.875 40.710938 -46.765625 39.359375 -50.546875 C 39.171875 -51.023438 39.078125 -51.578125 39.078125 -52.203125 C 39.078125 -52.835938 39.023438 -53.492188 38.921875 -54.171875 L 38.921875 -58.390625 C 38.734375 -59.742188 38.394531 -60.804688 37.90625 -61.578125 C 37.425781 -62.359375 36.601562 -62.75 35.4375 -62.75 C 33.789062 -62.75 32.21875 -61.707031 30.71875 -59.625 C 29.21875 -57.539062 27.910156 -55.070312 26.796875 -52.21875 C 25.679688 -49.363281 24.785156 -46.429688 24.109375 -43.421875 C 23.429688 -40.421875 23.09375 -38.003906 23.09375 -36.171875 C 23.09375 -34.710938 23.1875 -32.941406 23.375 -30.859375 C 23.570312 -28.785156 23.960938 -26.78125 24.546875 -24.84375 C 25.128906 -22.90625 25.925781 -21.234375 26.9375 -19.828125 C 27.957031 -18.421875 29.289062 -17.71875 30.9375 -17.71875 C 32.582031 -17.71875 34.109375 -18.222656 35.515625 -19.234375 C 36.921875 -20.253906 38.300781 -21.441406 39.65625 -22.796875 C 40.914062 -23.960938 42.296875 -25.175781 43.796875 -26.4375 C 45.296875 -27.695312 47.015625 -28.328125 48.953125 -28.328125 C 51.367188 -28.328125 53.28125 -27.453125 54.6875 -25.703125 C 56.09375 -23.960938 56.796875 -21.976562 56.796875 -19.75 C 56.796875 -16.457031 55.921875 -13.382812 54.171875 -10.53125 C 52.429688 -7.675781 50.253906 -5.207031 47.640625 -3.125 C 45.023438 -1.039062 42.117188 0.601562 38.921875 1.8125 C 35.734375 3.019531 32.6875 3.625 29.78125 3.625 C 24.550781 3.625 20.117188 2.316406 16.484375 -0.296875 C 12.847656 -2.910156 9.914062 -6.222656 7.6875 -10.234375 C 5.46875 -14.253906 3.875 -18.632812 2.90625 -23.375 C 1.9375 -28.125 1.453125 -32.628906 1.453125 -36.890625 C 1.453125 -41.828125 2.128906 -47.175781 3.484375 -52.9375 C 4.835938 -58.695312 6.914062 -64.046875 9.71875 -68.984375 C 12.53125 -73.929688 16.140625 -78.050781 20.546875 -81.34375 C 24.953125 -84.632812 30.207031 -86.28125 36.3125 -86.28125 C 40.09375 -86.28125 43.359375 -85.457031 46.109375 -83.8125 C 48.867188 -82.164062 51.144531 -80.007812 52.9375 -77.34375 C 54.726562 -74.675781 56.082031 -71.695312 57 -68.40625 C 57.925781 -65.113281 58.390625 -61.875 58.390625 -58.6875 C 58.390625 -58.195312 58.390625 -57.707031 58.390625 -57.21875 C 58.390625 -56.738281 58.34375 -56.257812 58.25 -55.78125 Z M 58.25 -55.78125 "/></g></g><g transform="translate(347.503796, 146.579273)"><g><path d="M 70.296875 -37.625 C 70.296875 -35.976562 70.269531 -33.53125 70.21875 -30.28125 C 70.175781 -27.039062 70.03125 -23.648438 69.78125 -20.109375 C 69.539062 -16.578125 69.226562 -13.238281 68.84375 -10.09375 C 68.457031 -6.945312 67.972656 -4.648438 67.390625 -3.203125 C 66.617188 -1.359375 65.601562 0.238281 64.34375 1.59375 C 63.082031 2.945312 61.390625 3.625 59.265625 3.625 C 55.972656 3.625 53.597656 2.316406 52.140625 -0.296875 C 50.691406 -2.910156 49.722656 -6.148438 49.234375 -10.015625 C 48.753906 -13.890625 48.5625 -18.101562 48.65625 -22.65625 C 48.75 -27.207031 48.695312 -31.421875 48.5 -35.296875 C 48.3125 -39.171875 47.78125 -42.414062 46.90625 -45.03125 C 46.039062 -47.644531 44.445312 -48.953125 42.125 -48.953125 C 38.925781 -48.953125 36.476562 -48.441406 34.78125 -47.421875 C 33.09375 -46.410156 31.882812 -45.078125 31.15625 -43.421875 C 30.425781 -41.773438 29.988281 -39.882812 29.84375 -37.75 C 29.695312 -35.625 29.53125 -33.398438 29.34375 -31.078125 C 29.144531 -28.859375 29 -25.859375 28.90625 -22.078125 C 28.8125 -18.296875 28.375 -14.566406 27.59375 -10.890625 C 26.820312 -7.210938 25.539062 -4.039062 23.75 -1.375 C 21.957031 1.277344 19.316406 2.609375 15.828125 2.609375 C 13.703125 2.609375 11.984375 1.785156 10.671875 0.140625 C 9.367188 -1.503906 8.328125 -3.632812 7.546875 -6.25 C 6.773438 -8.863281 6.21875 -11.765625 5.875 -14.953125 C 5.539062 -18.148438 5.347656 -21.273438 5.296875 -24.328125 C 5.253906 -27.378906 5.253906 -30.160156 5.296875 -32.671875 C 5.347656 -35.191406 5.375 -37.082031 5.375 -38.34375 C 5.375 -40.28125 5.445312 -43.472656 5.59375 -47.921875 C 5.738281 -52.378906 6.050781 -57.34375 6.53125 -62.8125 C 7.019531 -68.289062 7.648438 -73.929688 8.421875 -79.734375 C 9.203125 -85.546875 10.21875 -90.847656 11.46875 -95.640625 C 12.726562 -100.429688 14.253906 -104.328125 16.046875 -107.328125 C 17.835938 -110.335938 19.945312 -111.796875 22.375 -111.703125 C 23.914062 -111.597656 25.242188 -110.914062 26.359375 -109.65625 C 27.472656 -108.40625 28.394531 -106.785156 29.125 -104.796875 C 29.851562 -102.804688 30.457031 -100.648438 30.9375 -98.328125 C 31.425781 -96.003906 31.789062 -93.703125 32.03125 -91.421875 C 32.269531 -89.148438 32.410156 -87.046875 32.453125 -85.109375 C 32.503906 -83.171875 32.53125 -81.671875 32.53125 -80.609375 C 32.53125 -78.097656 32.484375 -75.582031 32.390625 -73.0625 C 32.296875 -70.539062 32.148438 -68.019531 31.953125 -65.5 C 34.179688 -68.507812 37.160156 -70.976562 40.890625 -72.90625 C 44.617188 -74.84375 48.367188 -75.8125 52.140625 -75.8125 C 56.984375 -75.8125 60.640625 -74.476562 63.109375 -71.8125 C 65.578125 -69.15625 67.34375 -65.863281 68.40625 -61.9375 C 69.476562 -58.019531 70.0625 -53.859375 70.15625 -49.453125 C 70.25 -45.046875 70.296875 -41.101562 70.296875 -37.625 Z M 70.296875 -37.625 "/></g></g><g transform="translate(423.762399, 146.579273)"><g><path d="M 71.75 -77.859375 C 71.75 -72.628906 70.609375 -67.492188 68.328125 -62.453125 C 66.054688 -57.421875 63.03125 -52.894531 59.25 -48.875 C 55.476562 -44.851562 51.171875 -41.5625 46.328125 -39 C 41.492188 -36.4375 36.507812 -35.007812 31.375 -34.71875 C 31.28125 -32.96875 31.207031 -30.757812 31.15625 -28.09375 C 31.101562 -25.4375 30.929688 -22.65625 30.640625 -19.75 C 30.359375 -16.84375 29.945312 -13.9375 29.40625 -11.03125 C 28.875 -8.132812 28.097656 -5.519531 27.078125 -3.1875 C 26.066406 -0.863281 24.757812 1.019531 23.15625 2.46875 C 21.5625 3.914062 19.601562 4.640625 17.28125 4.640625 C 14.570312 4.640625 12.414062 3.742188 10.8125 1.953125 C 9.21875 0.171875 8.007812 -1.976562 7.1875 -4.5 C 6.363281 -7.019531 5.804688 -9.660156 5.515625 -12.421875 C 5.222656 -15.179688 5.03125 -17.53125 4.9375 -19.46875 C 4.738281 -22.269531 4.613281 -25.023438 4.5625 -27.734375 C 4.519531 -30.453125 4.5 -33.210938 4.5 -36.015625 C 4.5 -37.273438 4.5 -39.625 4.5 -43.0625 C 4.5 -46.5 4.519531 -50.421875 4.5625 -54.828125 C 4.613281 -59.234375 4.6875 -63.832031 4.78125 -68.625 C 4.882812 -73.414062 5.03125 -77.867188 5.21875 -81.984375 C 5.414062 -86.109375 5.632812 -89.617188 5.875 -92.515625 C 6.125 -95.421875 6.441406 -97.117188 6.828125 -97.609375 C 6.921875 -97.703125 7.207031 -97.914062 7.6875 -98.25 C 8.175781 -98.59375 8.710938 -98.929688 9.296875 -99.265625 C 9.878906 -99.609375 10.410156 -99.925781 10.890625 -100.21875 C 11.378906 -100.507812 11.71875 -100.703125 11.90625 -100.796875 C 16.363281 -103.316406 21.253906 -105.492188 26.578125 -107.328125 C 31.898438 -109.171875 37.175781 -110.09375 42.40625 -110.09375 C 46.863281 -110.09375 50.90625 -109.195312 54.53125 -107.40625 C 58.164062 -105.613281 61.265625 -103.238281 63.828125 -100.28125 C 66.398438 -97.332031 68.363281 -93.894531 69.71875 -89.96875 C 71.070312 -86.050781 71.75 -82.015625 71.75 -77.859375 Z M 46.625 -74.515625 C 46.625 -76.453125 46.160156 -78.144531 45.234375 -79.59375 C 44.316406 -81.050781 42.796875 -81.78125 40.671875 -81.78125 C 38.828125 -81.78125 36.984375 -81.414062 35.140625 -80.6875 C 33.304688 -79.957031 31.613281 -79.207031 30.0625 -78.4375 C 30.351562 -75.039062 30.617188 -71.742188 30.859375 -68.546875 C 31.109375 -65.359375 31.132812 -62.070312 30.9375 -58.6875 C 32.488281 -59.457031 34.179688 -60.347656 36.015625 -61.359375 C 37.859375 -62.378906 39.550781 -63.519531 41.09375 -64.78125 C 42.644531 -66.039062 43.953125 -67.46875 45.015625 -69.0625 C 46.085938 -70.664062 46.625 -72.484375 46.625 -74.515625 Z M 46.625 -74.515625 "/></g></g></g><g fill="#fcef91" fill-opacity="1"><g transform="translate(494.6524, 146.579273)"><g/></g><g transform="translate(529.65873, 146.579273)"><g/></g></g><g fill="#fcef91" fill-opacity="1"><g transform="translate(564.665057, 146.579273)"><g><path d="M 66.953125 -95.578125 C 66.953125 -88.503906 66.6875 -81.476562 66.15625 -74.5 C 65.625 -67.53125 65.359375 -60.515625 65.359375 -53.453125 C 65.359375 -47.734375 65.523438 -42.066406 65.859375 -36.453125 C 66.203125 -30.835938 66.375 -25.175781 66.375 -19.46875 C 66.375 -17.914062 66.328125 -16.050781 66.234375 -13.875 C 66.140625 -11.695312 65.820312 -9.585938 65.28125 -7.546875 C 64.75 -5.515625 63.878906 -3.769531 62.671875 -2.3125 C 61.460938 -0.863281 59.742188 -0.140625 57.515625 -0.140625 C 54.609375 -0.140625 52.210938 -1.226562 50.328125 -3.40625 C 48.441406 -5.59375 47.253906 -8.039062 46.765625 -10.75 C 44.929688 -7.257812 42.269531 -4.300781 38.78125 -1.875 C 35.289062 0.539062 31.515625 1.75 27.453125 1.75 C 23.097656 1.75 19.34375 0.246094 16.1875 -2.75 C 13.039062 -5.757812 10.425781 -9.394531 8.34375 -13.65625 C 6.269531 -17.914062 4.722656 -22.367188 3.703125 -27.015625 C 2.679688 -31.660156 2.171875 -35.679688 2.171875 -39.078125 C 2.171875 -41.492188 2.316406 -44.25 2.609375 -47.34375 C 2.898438 -50.445312 3.410156 -53.59375 4.140625 -56.78125 C 4.867188 -59.976562 5.8125 -63.101562 6.96875 -66.15625 C 8.132812 -69.207031 9.613281 -71.941406 11.40625 -74.359375 C 13.195312 -76.785156 15.328125 -78.722656 17.796875 -80.171875 C 20.265625 -81.628906 23.097656 -82.359375 26.296875 -82.359375 C 29.773438 -82.359375 33.113281 -81.335938 36.3125 -79.296875 C 39.507812 -77.265625 41.929688 -74.75 43.578125 -71.75 L 44.875 -94.84375 C 44.976562 -96.6875 45.125 -98.84375 45.3125 -101.3125 C 45.507812 -103.78125 45.921875 -106.128906 46.546875 -108.359375 C 47.179688 -110.585938 48.175781 -112.472656 49.53125 -114.015625 C 50.882812 -115.566406 52.867188 -116.34375 55.484375 -116.34375 C 58.296875 -116.34375 60.472656 -115.664062 62.015625 -114.3125 C 63.566406 -112.957031 64.707031 -111.238281 65.4375 -109.15625 C 66.164062 -107.070312 66.597656 -104.816406 66.734375 -102.390625 C 66.878906 -99.972656 66.953125 -97.703125 66.953125 -95.578125 Z M 43.28125 -31.078125 C 43.28125 -33.304688 43.234375 -35.484375 43.140625 -37.609375 C 43.046875 -39.742188 43.046875 -41.925781 43.140625 -44.15625 C 42.554688 -45.414062 41.875 -46.796875 41.09375 -48.296875 C 40.320312 -49.796875 39.378906 -51.195312 38.265625 -52.5 C 37.160156 -53.8125 35.925781 -54.898438 34.5625 -55.765625 C 33.207031 -56.640625 31.757812 -57.078125 30.21875 -57.078125 C 28.46875 -57.078125 27.0625 -56.546875 26 -55.484375 C 24.9375 -54.421875 24.160156 -53.140625 23.671875 -51.640625 C 23.191406 -50.140625 22.878906 -48.515625 22.734375 -46.765625 C 22.585938 -45.023438 22.515625 -43.523438 22.515625 -42.265625 C 22.515625 -41.109375 22.609375 -39.390625 22.796875 -37.109375 C 22.992188 -34.835938 23.359375 -32.535156 23.890625 -30.203125 C 24.421875 -27.878906 25.171875 -25.847656 26.140625 -24.109375 C 27.109375 -22.367188 28.414062 -21.5 30.0625 -21.5 C 31.320312 -21.5 32.582031 -21.765625 33.84375 -22.296875 C 35.101562 -22.828125 36.289062 -23.503906 37.40625 -24.328125 C 38.519531 -25.148438 39.582031 -26.066406 40.59375 -27.078125 C 41.613281 -28.097656 42.507812 -29.046875 43.28125 -29.921875 Z M 43.28125 -31.078125 "/></g></g></g></g></g></g><g clip-path="url(#be1436acc2)"><g clip-path="url(#ff7752dffc)"><g clip-path="url(#b365a7f4bf)"><path fill="#fcef91" d="M 523.742188 88.226562 C 514.644531 97.324219 508.675781 115.777344 511.210938 134.707031 L 504.414062 141.5 C 499.503906 146.414062 500.355469 152.894531 502.292969 158.707031 L 504.886719 166.488281 L 517.144531 154.230469 L 542.605469 154.230469 L 554.863281 166.488281 L 557.457031 158.707031 C 559.394531 152.894531 560.246094 146.414062 555.335938 141.5 L 548.539062 134.707031 C 551.074219 115.777344 545.105469 97.324219 536.007812 88.226562 L 529.875 82.09375 Z M 525.632812 111.796875 C 527.976562 109.453125 531.773438 109.453125 534.117188 111.796875 C 536.460938 114.140625 536.460938 117.941406 534.117188 120.285156 C 531.773438 122.628906 527.976562 122.628906 525.632812 120.285156 C 523.289062 117.941406 523.289062 114.140625 525.632812 111.796875 Z M 523.511719 164.839844 L 523.511719 169.085938 C 523.511719 175.214844 529.875 183.9375 529.875 183.9375 C 529.875 183.9375 536.238281 175.890625 536.238281 169.085938 L 536.238281 164.839844 Z M 523.511719 164.839844 " fill-opacity="1" fill-rule="nonzero"/></g></g></g></svg>