<svg xmlns="http://www.w3.org/2000/svg" xmlns:xlink="http://www.w3.org/1999/xlink" width="1080" zoomAndPan="magnify" viewBox="0 0 810 809.999993" height="1080" preserveAspectRatio="xMidYMid meet" version="1.0"><defs><clipPath id="608fea13e9"><path d="M 41.511719 0 L 389 0 L 389 810 L 41.511719 810 Z M 41.511719 0 " clip-rule="nonzero"/></clipPath><clipPath id="b4099e91be"><path d="M 297 161 L 768.261719 161 L 768.261719 649 L 297 649 Z M 297 161 " clip-rule="nonzero"/></clipPath></defs><g clip-path="url(#608fea13e9)"><path fill="#dfdccb" d="M 388.46875 752.019531 C 388.46875 784.007812 362.621094 809.851562 330.628906 809.851562 L 214.953125 809.851562 C 119.167969 809.851562 41.449219 732.132812 41.449219 636.34375 L 41.449219 173.65625 C 41.449219 77.867188 119.167969 0.148438 214.953125 0.148438 L 330.628906 0.148438 C 362.621094 0.148438 388.46875 25.996094 388.46875 57.988281 C 388.46875 89.976562 362.621094 115.820312 330.628906 115.820312 L 214.953125 115.820312 C 182.96875 115.820312 157.121094 141.667969 157.121094 173.65625 L 157.121094 636.34375 C 157.121094 668.332031 182.96875 694.179688 214.953125 694.179688 L 330.628906 694.179688 C 362.621094 694.179688 388.46875 720.023438 388.46875 752.019531 Z M 388.46875 752.019531 " fill-opacity="1" fill-rule="nonzero"/></g><g clip-path="url(#b4099e91be)"><path fill="#dfdccb" d="M 563.953125 176.183594 L 751.15625 363.382812 C 762.128906 374.355469 768.378906 389.449219 768.378906 405 C 768.378906 420.550781 762.128906 435.644531 751.15625 446.617188 L 563.953125 633.8125 C 554.199219 643.566406 541.085938 648.90625 527.367188 648.90625 C 498.863281 648.90625 475.695312 625.738281 475.695312 597.226562 L 475.695312 502.558594 L 346.117188 502.558594 C 319.136719 502.558594 297.335938 480.761719 297.335938 453.78125 L 297.335938 356.21875 C 297.335938 329.234375 319.136719 307.433594 346.117188 307.433594 L 475.695312 307.433594 L 475.695312 212.769531 C 475.695312 184.261719 498.863281 161.09375 527.367188 161.09375 C 541.085938 161.09375 554.199219 166.582031 563.953125 176.183594 Z M 563.953125 176.183594 " fill-opacity="1" fill-rule="nonzero"/></g></svg>