<svg xmlns="http://www.w3.org/2000/svg" xmlns:xlink="http://www.w3.org/1999/xlink" width="1080" zoomAndPan="magnify" viewBox="0 0 810 809.999993" height="1080" preserveAspectRatio="xMidYMid meet" version="1.0"><defs><g/><clipPath id="f67125b24a"><path d="M 0.75 0.75 L 809.25 0.75 L 809.25 809.25 L 0.75 809.25 Z M 0.75 0.75 " clip-rule="nonzero"/></clipPath><clipPath id="4ac29a5db0"><path d="M 0 75 L 0 735 C 0 776.421875 33.578125 810 75 810 L 735 810 C 776.421875 810 810 776.421875 810 735 L 810 75 C 810 33.578125 776.421875 0 735 0 L 75 0 C 33.578125 0 0 33.578125 0 75 Z M 0 75 " clip-rule="nonzero"/></clipPath><clipPath id="e3f07db571"><path d="M 75.898438 0.898438 L 734.101562 0.898438 C 775.519531 0.898438 809.101562 34.480469 809.101562 75.898438 L 809.101562 734.101562 C 809.101562 775.519531 775.519531 809.101562 734.101562 809.101562 L 75.898438 809.101562 C 34.480469 809.101562 0.898438 775.519531 0.898438 734.101562 L 0.898438 75.898438 C 0.898438 34.480469 34.480469 0.898438 75.898438 0.898438 Z M 75.898438 0.898438 " clip-rule="nonzero"/></clipPath><clipPath id="01155a51a3"><path d="M 0 75 L 0 735 C 0 776.421875 33.578125 810 75 810 L 735 810 C 776.421875 810 810 776.421875 810 735 L 810 75 C 810 33.578125 776.421875 0 735 0 L 75 0 C 33.578125 0 0 33.578125 0 75 Z M 0 75 " clip-rule="nonzero"/></clipPath><clipPath id="74a9be6fa5"><path d="M 0 75 L 0 735 C 0 776.421875 33.578125 810 75 810 L 735 810 C 776.421875 810 810 776.421875 810 735 L 810 75 C 810 33.578125 776.421875 0 735 0 L 75 0 C 33.578125 0 0 33.578125 0 75 Z M 0 75 " clip-rule="nonzero"/></clipPath><clipPath id="ca9e0dff48"><path d="M 545.382812 229 L 703.632812 229 L 703.632812 265 L 545.382812 265 Z M 545.382812 229 " clip-rule="nonzero"/></clipPath><clipPath id="df86acd853"><rect x="0" width="686" y="0" height="776"/></clipPath></defs><g clip-path="url(#f67125b24a)"><g clip-path="url(#4ac29a5db0)"><g clip-path="url(#e3f07db571)"><path fill="#b31312" d="M 0 0 L 809.890625 0 L 809.890625 809.890625 L 0 809.890625 Z M 0 0 " fill-opacity="1" fill-rule="nonzero"/></g></g></g><g clip-path="url(#01155a51a3)"><g clip-path="url(#74a9be6fa5)"><path stroke-linecap="butt" transform="matrix(0.75, 0, 0, 0.75, 0.0000035, 0.00002)" fill="none" stroke-linejoin="miter" d="M -0.00000466667 99.999978 L -0.00000466667 980.000023 C -0.00000466667 1035.229192 44.770831 1080.000028 100 1080.000028 L 980.000045 1080.000028 C 1035.229214 1080.000028 1080.00005 1035.229192 1080.00005 980.000023 L 1080.00005 99.999978 C 1080.00005 44.770809 1035.229214 -0.0000266667 980.000045 -0.0000266667 L 100 -0.0000266667 C 44.770831 -0.0000266667 -0.00000466667 44.770809 -0.00000466667 99.999978 Z M -0.00000466667 99.999978 " stroke="#ea906c" stroke-width="80" stroke-opacity="1" stroke-miterlimit="4"/></g></g><path fill="#ea906c" d="M 612.667969 188.75 C 612.726562 189.691406 612.167969 181.164062 612.355469 184.109375 C 612.390625 184.660156 612.425781 185.210938 612.460938 185.761719 C 612.535156 186.863281 612.601562 187.972656 612.671875 189.074219 C 612.832031 191.648438 612.984375 194.21875 613.128906 196.792969 C 613.390625 201.386719 613.625 205.988281 613.839844 210.589844 C 614.273438 219.96875 614.613281 229.351562 614.859375 238.742188 C 615.34375 257.515625 615.449219 276.292969 615.164062 295.066406 C 615.003906 305.742188 614.714844 316.421875 614.308594 327.09375 C 614.074219 333.25 615.5 341.214844 618.378906 346.761719 C 620.019531 349.921875 623.804688 355.300781 628.214844 354.90625 C 639.957031 353.855469 641.796875 335.609375 642.121094 327.09375 C 643.566406 289.011719 643.457031 250.867188 641.753906 212.796875 C 641.175781 199.84375 640.355469 186.898438 639.488281 173.960938 C 639.144531 168.859375 636.648438 161.261719 633.097656 157.339844 C 630.496094 154.457031 626.191406 152.238281 622.382812 154.535156 C 617.957031 157.203125 615.375 162.535156 614.074219 167.316406 C 612.128906 174.453125 612.171875 181.417969 612.667969 188.75 Z M 612.667969 188.75 " fill-opacity="1" fill-rule="nonzero"/><g clip-path="url(#ca9e0dff48)"><path fill="#ea906c" d="M 553.832031 263.351562 C 600.929688 263.839844 648.023438 264.324219 695.121094 264.8125 C 697.859375 264.839844 699.933594 262.019531 701.023438 259.925781 C 702.78125 256.546875 703.546875 251.875 703.464844 248.125 C 703.375 244.199219 702.980469 239.808594 701.023438 236.328125 C 699.765625 234.089844 698.03125 231.472656 695.121094 231.4375 C 648.023438 230.949219 600.929688 230.464844 553.832031 229.976562 C 551.09375 229.945312 549.019531 232.765625 547.929688 234.863281 C 546.171875 238.242188 545.402344 242.914062 545.488281 246.664062 C 545.578125 250.589844 545.972656 254.980469 547.929688 258.460938 C 549.1875 260.703125 550.921875 263.324219 553.832031 263.351562 Z M 553.832031 263.351562 " fill-opacity="1" fill-rule="nonzero"/></g><g transform="matrix(1, 0, 0, 1, 30, 34)"><g clip-path="url(#df86acd853)"><g fill="#ea906c" fill-opacity="1"><g transform="translate(215.212168, 650.834734)"><g><path d="M 205.234375 -172.84375 C 208.816406 -165.113281 209.015625 -156.382812 205.828125 -146.65625 C 202.648438 -136.9375 197.332031 -126.96875 189.875 -116.75 C 182.414062 -106.539062 173.476562 -96.484375 163.0625 -86.578125 C 152.644531 -76.679688 142.09375 -67.472656 131.40625 -58.953125 C 120.71875 -50.429688 110.398438 -42.925781 100.453125 -36.4375 C 90.515625 -29.957031 82.457031 -25.285156 76.28125 -22.421875 C 70.414062 -19.703125 63.910156 -17.34375 56.765625 -15.34375 C 49.628906 -13.351562 43.035156 -13.203125 36.984375 -14.890625 C 33.671875 -15.597656 29.582031 -18.769531 24.71875 -24.40625 C 19.851562 -30.039062 14.492188 -36.941406 8.640625 -45.109375 C 2.785156 -53.273438 -3.148438 -62.242188 -9.171875 -72.015625 C -15.203125 -81.785156 -20.894531 -91.429688 -26.25 -100.953125 C -31.613281 -110.472656 -36.460938 -119.296875 -40.796875 -127.421875 C -45.128906 -135.554688 -48.367188 -141.9375 -50.515625 -146.5625 C -54.097656 -154.28125 -58.195312 -163.726562 -62.8125 -174.90625 C -67.4375 -186.09375 -72.179688 -198.15625 -77.046875 -211.09375 C -81.921875 -224.03125 -86.59375 -237.34375 -91.0625 -251.03125 C -95.539062 -264.71875 -99.457031 -277.816406 -102.8125 -290.328125 C -106.175781 -302.847656 -108.539062 -314.414062 -109.90625 -325.03125 C -111.269531 -335.65625 -111.472656 -344.382812 -110.515625 -351.21875 C -108.515625 -362.289062 -103.035156 -369.898438 -94.078125 -374.046875 C -87.890625 -376.910156 -81.664062 -377.257812 -75.40625 -375.09375 C -69.15625 -372.925781 -63.175781 -369.128906 -57.46875 -363.703125 C -51.769531 -358.285156 -46.328125 -351.804688 -41.140625 -344.265625 C -35.953125 -336.734375 -31.1875 -329.09375 -26.84375 -321.34375 C -22.507812 -313.601562 -18.765625 -306.332031 -15.609375 -299.53125 C -12.460938 -292.738281 -9.957031 -287.332031 -8.09375 -283.3125 C 3.070312 -259.226562 13.59375 -235.117188 23.46875 -210.984375 C 33.34375 -186.859375 43.867188 -162.75 55.046875 -138.65625 L 63.421875 -120.609375 C 75.304688 -131.359375 88.539062 -142.457031 103.125 -153.90625 C 117.707031 -165.363281 132.414062 -174.53125 147.25 -181.40625 C 152.488281 -183.832031 157.953125 -185.988281 163.640625 -187.875 C 169.335938 -189.769531 174.734375 -190.679688 179.828125 -190.609375 C 184.921875 -190.535156 189.675781 -189.175781 194.09375 -186.53125 C 198.507812 -183.894531 202.222656 -179.332031 205.234375 -172.84375 Z M 205.234375 -172.84375 "/></g></g><g transform="translate(447.779937, 542.999084)"><g><path d="M 14.59375 -401.90625 C 17.882812 -394.800781 18.507812 -387.582031 16.46875 -380.25 C 14.425781 -372.925781 11.101562 -366.132812 6.5 -359.875 C 2.519531 -353.90625 -1.503906 -347.628906 -5.578125 -341.046875 C -9.660156 -334.472656 -13.0625 -327.644531 -15.78125 -320.5625 C -18.507812 -313.488281 -20.054688 -306.300781 -20.421875 -299 C -20.796875 -291.695312 -19.265625 -284.34375 -15.828125 -276.9375 C -12.816406 -270.4375 -8.550781 -265.273438 -3.03125 -261.453125 C 2.488281 -257.640625 8.671875 -254.222656 15.515625 -251.203125 C 22.359375 -248.179688 29.734375 -245.222656 37.640625 -242.328125 C 45.554688 -239.441406 53.296875 -235.710938 60.859375 -231.140625 C 68.421875 -226.566406 75.675781 -220.828125 82.625 -213.921875 C 89.570312 -207.023438 95.625 -198.015625 100.78125 -186.890625 C 104.351562 -179.171875 106.773438 -169.691406 108.046875 -158.453125 C 109.328125 -147.222656 109.476562 -135.375 108.5 -122.90625 C 107.519531 -110.445312 105.394531 -97.832031 102.125 -85.0625 C 98.851562 -72.289062 94.648438 -60.300781 89.515625 -49.09375 C 84.390625 -37.894531 78.226562 -27.910156 71.03125 -19.140625 C 63.84375 -10.367188 55.925781 -3.976562 47.28125 0.03125 C 37.707031 4.46875 28 5.773438 18.15625 3.953125 C 8.3125 2.140625 0.949219 -4.015625 -3.921875 -14.515625 C -7.210938 -21.609375 -8.554688 -28.953125 -7.953125 -36.546875 C -7.347656 -44.148438 -5.863281 -51.878906 -3.5 -59.734375 C -1.132812 -67.585938 1.84375 -75.535156 5.4375 -83.578125 C 9.03125 -91.617188 12.078125 -99.410156 14.578125 -106.953125 C 17.085938 -114.492188 18.71875 -121.90625 19.46875 -129.1875 C 20.21875 -136.476562 19.085938 -143.375 16.078125 -149.875 C 11.921875 -158.820312 4.492188 -166.535156 -6.203125 -173.015625 C -16.910156 -179.503906 -28.445312 -185.976562 -40.8125 -192.4375 C -53.1875 -198.90625 -64.972656 -205.914062 -76.171875 -213.46875 C -87.378906 -221.03125 -95.488281 -230.21875 -100.5 -241.03125 C -106.65625 -254.3125 -109.582031 -269.929688 -109.28125 -287.890625 C -108.976562 -305.859375 -106.097656 -323.519531 -100.640625 -340.875 C -95.179688 -358.226562 -87.359375 -374.144531 -77.171875 -388.625 C -66.992188 -403.101562 -55.113281 -413.492188 -41.53125 -419.796875 C -30.71875 -424.804688 -19.945312 -425.859375 -9.21875 -422.953125 C 1.496094 -420.046875 9.4375 -413.03125 14.59375 -401.90625 Z M 14.59375 -401.90625 "/></g></g></g></g></g></svg>