<svg xmlns="http://www.w3.org/2000/svg" xmlns:xlink="http://www.w3.org/1999/xlink" width="1080" zoomAndPan="magnify" viewBox="0 0 810 809.999993" height="1080" preserveAspectRatio="xMidYMid meet" version="1.0"><defs><g/><clipPath id="538b0cb3dd"><path d="M 0.75 13.058594 L 797 13.058594 L 797 809.558594 L 0.75 809.558594 Z M 0.75 13.058594 " clip-rule="nonzero"/></clipPath><clipPath id="0810897a3f"><path d="M 0 87.308594 L 0 735 C 0 776.421875 33.578125 810 75 810 L 722.691406 810 C 764.113281 810 797.691406 776.421875 797.691406 735 L 797.691406 87.308594 C 797.691406 45.886719 764.113281 12.308594 722.691406 12.308594 L 75 12.308594 C 33.578125 12.308594 0 45.886719 0 87.308594 Z M 0 87.308594 " clip-rule="nonzero"/></clipPath><clipPath id="b91c7da7ea"><path d="M 75.898438 13.207031 L 721.792969 13.207031 C 763.210938 13.207031 796.792969 46.789062 796.792969 88.207031 L 796.792969 734.101562 C 796.792969 775.519531 763.210938 809.101562 721.792969 809.101562 L 75.898438 809.101562 C 34.480469 809.101562 0.898438 775.519531 0.898438 734.101562 L 0.898438 88.207031 C 0.898438 46.789062 34.480469 13.207031 75.898438 13.207031 Z M 75.898438 13.207031 " clip-rule="nonzero"/></clipPath><clipPath id="22bbccac34"><path d="M 0 12.308594 L 797.992188 12.308594 L 797.992188 810 L 0 810 Z M 0 12.308594 " clip-rule="nonzero"/></clipPath><clipPath id="689d5130f6"><path d="M 0 87.308594 L 0 735 C 0 776.421875 33.578125 810 75 810 L 722.691406 810 C 764.113281 810 797.691406 776.421875 797.691406 735 L 797.691406 87.308594 C 797.691406 45.886719 764.113281 12.308594 722.691406 12.308594 L 75 12.308594 C 33.578125 12.308594 0 45.886719 0 87.308594 Z M 0 87.308594 " clip-rule="nonzero"/></clipPath><clipPath id="57c7f7bcfa"><path d="M 0 87.308594 L 0 734.992188 C 0 776.414062 33.578125 809.992188 75 809.992188 L 722.683594 809.992188 C 764.105469 809.992188 797.683594 776.414062 797.683594 734.992188 L 797.683594 87.308594 C 797.683594 45.886719 764.105469 12.308594 722.683594 12.308594 L 75 12.308594 C 33.578125 12.308594 0 45.886719 0 87.308594 Z M 0 87.308594 " clip-rule="nonzero"/></clipPath><clipPath id="f240545bd2"><rect x="0" width="725" y="0" height="810"/></clipPath><clipPath id="15fb500cc9"><path d="M 287.804688 411.15625 L 463.304688 411.15625 L 463.304688 598 L 287.804688 598 Z M 287.804688 411.15625 " clip-rule="nonzero"/></clipPath></defs><g clip-path="url(#538b0cb3dd)"><g clip-path="url(#0810897a3f)"><g clip-path="url(#b91c7da7ea)"><path fill="#9b7ebd" d="M 0 12.308594 L 797.574219 12.308594 L 797.574219 809.882812 L 0 809.882812 Z M 0 12.308594 " fill-opacity="1" fill-rule="nonzero"/></g></g></g><g clip-path="url(#22bbccac34)"><g clip-path="url(#689d5130f6)"><g clip-path="url(#57c7f7bcfa)"><path stroke-linecap="butt" transform="matrix(0.75, 0, 0, 0.75, 0.0000035, 12.308808)" fill="none" stroke-linejoin="miter" d="M -0.00000466667 99.999719 L -0.00000466667 963.577887 C -0.00000466667 1018.807057 44.770831 1063.577892 100 1063.577892 L 963.578169 1063.577892 C 1018.807338 1063.577892 1063.578174 1018.807057 1063.578174 963.577887 L 1063.578174 99.999719 C 1063.578174 44.770549 1018.807338 -0.000286228 963.578169 -0.000286228 L 100 -0.000286228 C 44.770831 -0.000286228 -0.00000466667 44.770549 -0.00000466667 99.999719 Z M -0.00000466667 99.999719 " stroke="#000000" stroke-width="86" stroke-opacity="1" stroke-miterlimit="4"/></g></g></g><g transform="matrix(1, 0, 0, 1, 39, 0.000000000000039746)"><g clip-path="url(#f240545bd2)"><g fill="#000000" fill-opacity="1"><g transform="translate(158.541824, 649.023126)"><g><path d="M 170.46875 -353.875 C 176.125 -335.3125 177.632812 -315.863281 175 -295.53125 C 172.375 -275.207031 166.53125 -255.875 157.46875 -237.53125 C 148.414062 -219.1875 136.679688 -202.84375 122.265625 -188.5 C 107.859375 -174.15625 91.707031 -163.695312 73.8125 -157.125 C 75.351562 -150.832031 77.476562 -142.929688 80.1875 -133.421875 C 82.894531 -123.921875 85.304688 -113.859375 87.421875 -103.234375 C 89.535156 -92.617188 91.210938 -81.863281 92.453125 -70.96875 C 93.703125 -60.082031 93.773438 -49.96875 92.671875 -40.625 C 91.578125 -31.28125 88.984375 -23.164062 84.890625 -16.28125 C 80.796875 -9.394531 74.625 -4.695312 66.375 -2.1875 C 56.75 0.746094 48.128906 -0.0976562 40.515625 -4.734375 C 32.910156 -9.367188 26.285156 -15.707031 20.640625 -23.75 C 15.003906 -31.800781 10.175781 -40.566406 6.15625 -50.046875 C 2.144531 -59.523438 -1.078125 -67.644531 -3.515625 -74.40625 C -7.234375 -84.175781 -10.644531 -93.84375 -13.75 -103.40625 C -16.851562 -112.976562 -19.921875 -122.75 -22.953125 -132.71875 C -24.316406 -137.175781 -26.859375 -145.503906 -30.578125 -157.703125 C -34.296875 -169.910156 -38.445312 -183.859375 -43.03125 -199.546875 C -47.625 -215.242188 -52.335938 -231.644531 -57.171875 -248.75 C -62.015625 -265.863281 -66.316406 -281.828125 -70.078125 -296.640625 C -73.835938 -311.453125 -76.859375 -324.144531 -79.140625 -334.71875 C -81.429688 -345.289062 -82.148438 -351.644531 -81.296875 -353.78125 C -81.066406 -354.226562 -80.273438 -355.316406 -78.921875 -357.046875 C -77.566406 -358.773438 -76.039062 -360.550781 -74.34375 -362.375 C -72.644531 -364.195312 -71.09375 -365.882812 -69.6875 -367.4375 C -68.289062 -369 -67.300781 -370.0625 -66.71875 -370.625 C -53.625 -384.382812 -38.617188 -397.40625 -21.703125 -409.6875 C -4.796875 -421.96875 12.9375 -430.9375 31.5 -436.59375 C 47.300781 -441.40625 62.613281 -442.597656 77.4375 -440.171875 C 92.269531 -437.742188 105.832031 -432.675781 118.125 -424.96875 C 130.425781 -417.257812 141.097656 -407.175781 150.140625 -394.71875 C 159.191406 -382.269531 165.96875 -368.65625 170.46875 -353.875 Z M 84.90625 -314.84375 C 82.8125 -321.71875 79.347656 -327.234375 74.515625 -331.390625 C 69.679688 -335.554688 63.488281 -336.488281 55.9375 -334.1875 C 49.394531 -332.195312 43.25 -328.921875 37.5 -324.359375 C 31.757812 -319.796875 26.5625 -315.300781 21.90625 -310.875 C 26.601562 -299.164062 31.109375 -287.769531 35.421875 -276.6875 C 39.734375 -265.601562 43.378906 -253.941406 46.359375 -241.703125 C 51.015625 -246.128906 56.054688 -251.140625 61.484375 -256.734375 C 66.910156 -262.328125 71.691406 -268.195312 75.828125 -274.34375 C 79.972656 -280.488281 83.070312 -286.96875 85.125 -293.78125 C 87.175781 -300.601562 87.101562 -307.625 84.90625 -314.84375 Z M 84.90625 -314.84375 "/></g></g><g transform="translate(410.101867, 572.388332)"><g><path d="M 239.6875 -150.75 C 242.300781 -142.164062 241.234375 -133.019531 236.484375 -123.3125 C 231.742188 -113.613281 224.734375 -103.96875 215.453125 -94.375 C 206.171875 -84.78125 195.363281 -75.566406 183.03125 -66.734375 C 170.695312 -57.910156 158.328125 -49.820312 145.921875 -42.46875 C 133.515625 -35.125 121.640625 -28.785156 110.296875 -23.453125 C 98.960938 -18.128906 89.859375 -14.421875 82.984375 -12.328125 C 76.460938 -10.335938 69.320312 -8.816406 61.5625 -7.765625 C 53.8125 -6.722656 46.898438 -7.53125 40.828125 -10.1875 C 37.453125 -11.40625 33.632812 -15.304688 29.375 -21.890625 C 25.113281 -28.484375 20.519531 -36.472656 15.59375 -45.859375 C 10.675781 -55.253906 5.773438 -65.5 0.890625 -76.59375 C -3.992188 -87.695312 -8.539062 -98.613281 -12.75 -109.34375 C -16.957031 -120.082031 -20.726562 -130.007812 -24.0625 -139.125 C -27.40625 -148.25 -29.863281 -155.390625 -31.4375 -160.546875 C -34.0625 -169.140625 -36.972656 -179.613281 -40.171875 -191.96875 C -43.367188 -204.320312 -46.570312 -217.613281 -49.78125 -231.84375 C -52.988281 -246.082031 -55.929688 -260.675781 -58.609375 -275.625 C -61.296875 -290.582031 -63.484375 -304.847656 -65.171875 -318.421875 C -66.859375 -331.992188 -67.640625 -344.429688 -67.515625 -355.734375 C -67.398438 -367.035156 -66.34375 -376.1875 -64.34375 -383.1875 C -60.632812 -394.445312 -53.796875 -401.59375 -43.828125 -404.625 C -36.953125 -406.71875 -30.40625 -406.175781 -24.1875 -403 C -17.96875 -399.832031 -12.269531 -395 -7.09375 -388.5 C -1.914062 -382 2.828125 -374.429688 7.140625 -365.796875 C 11.460938 -357.160156 15.328125 -348.476562 18.734375 -339.75 C 22.140625 -331.03125 24.992188 -322.890625 27.296875 -315.328125 C 29.609375 -307.765625 31.441406 -301.75 32.796875 -297.28125 C 40.960938 -270.476562 48.453125 -243.75 55.265625 -217.09375 C 62.078125 -190.4375 69.566406 -163.707031 77.734375 -136.90625 L 83.859375 -116.796875 C 97.835938 -126.316406 113.28125 -136 130.1875 -145.84375 C 147.101562 -155.6875 163.8125 -163.125 180.3125 -168.15625 C 186.144531 -169.9375 192.171875 -171.394531 198.390625 -172.53125 C 204.617188 -173.675781 210.390625 -173.84375 215.703125 -173.03125 C 221.023438 -172.21875 225.800781 -170.109375 230.03125 -166.703125 C 234.269531 -163.296875 237.488281 -157.976562 239.6875 -150.75 Z M 239.6875 -150.75 "/></g></g></g></g></g><g clip-path="url(#15fb500cc9)"><path fill="#000000" d="M 305.625 556.960938 C 304.644531 557.148438 303.648438 557.257812 302.675781 557.285156 C 295.183594 557.484375 287.804688 553.109375 287.804688 541.753906 C 287.804688 530.976562 288.109375 524.917969 291.726562 523.0625 C 291.941406 522.949219 292.167969 522.859375 292.378906 522.785156 C 292.191406 519.742188 292.96875 512.777344 301.078125 509.167969 C 306.117188 506.921875 312.773438 505.785156 317.753906 505.195312 C 317.261719 503.53125 316.859375 501.152344 316.609375 497.71875 C 316.507812 496.292969 316.375 493.910156 316.359375 490.464844 C 316.355469 489.816406 316.382812 487.320312 316.449219 485.964844 C 316.515625 484.53125 316.519531 484.53125 316.628906 483.101562 C 316.648438 482.882812 316.816406 481.242188 316.867188 480.808594 C 316.90625 480.488281 316.941406 480.207031 316.976562 479.945312 C 307.511719 481.792969 296.949219 471.894531 300.398438 463.710938 C 300.886719 462.550781 301.605469 461.570312 302.425781 460.746094 C 308.257812 450.578125 313.160156 443.027344 322.464844 438.96875 C 322.484375 438.871094 322.5 438.773438 322.519531 438.667969 C 323.390625 433.917969 327.671875 418.214844 337.285156 414.265625 C 337.296875 414.261719 337.910156 413.976562 339.898438 413.433594 C 347.402344 411.398438 355.363281 411.238281 358.875 411.222656 C 363.398438 411.207031 366.867188 411.453125 368.789062 411.605469 C 369.050781 411.625 371.417969 411.796875 375.101562 412.261719 C 375.523438 412.3125 377.914062 412.640625 379.832031 412.96875 C 382.226562 413.382812 384.613281 413.839844 387.730469 414.574219 C 389.699219 415.035156 393.890625 416.058594 397.828125 417.488281 C 401.988281 419 402.960938 419.925781 403.421875 420.328125 C 405.859375 422.441406 410.199219 427.472656 412.464844 440.445312 C 412.976562 443.371094 413.457031 447.492188 413.578125 451.273438 C 413.804688 451.398438 414.035156 451.527344 414.269531 451.65625 C 415.761719 452.496094 418.546875 454.738281 422.851562 463.421875 C 424.300781 466.351562 426.160156 470.585938 427.800781 474.929688 C 429.105469 476.03125 431.269531 478.1875 430.492188 480.621094 C 430.164062 481.644531 429.039062 483.753906 423.152344 485.117188 C 421 485.613281 419.832031 485.648438 418.988281 485.863281 C 418.570312 485.96875 418.566406 486.070312 417.734375 486.222656 C 418.753906 489.710938 419.828125 493.40625 420.144531 494.449219 C 423.640625 505.910156 428.703125 516.679688 432.523438 524.71875 C 435.167969 530.28125 436.644531 533.226562 438.8125 537.992188 C 439.027344 538.464844 440.261719 541.175781 441.351562 543.929688 C 442.019531 545.617188 442.589844 547.324219 442.6875 547.621094 C 445.304688 555.457031 449.082031 559.699219 452.363281 562.378906 C 457.191406 566.328125 461.804688 567.535156 462.832031 571 C 463.304688 572.585938 462.785156 573.9375 462.523438 574.707031 C 459.0625 584.863281 453.570312 587.203125 447.441406 587.542969 C 441.292969 587.882812 435.039062 586.382812 429.726562 590.738281 C 429.433594 590.980469 427.929688 592.394531 423.273438 592.4375 C 422.082031 592.445312 420.714844 592.355469 419.519531 592.160156 C 418.742188 594.296875 416.902344 594.804688 415.503906 594.28125 C 415.078125 594.121094 414.980469 593.992188 414.582031 593.804688 C 414.558594 593.792969 414.179688 593.582031 413.496094 593.425781 C 412.367188 593.164062 411.160156 593.386719 410.855469 593.441406 C 410.566406 593.492188 408.847656 593.769531 406.070312 595.304688 C 405.003906 595.894531 404.941406 595.992188 404.390625 596.078125 C 402.265625 596.40625 396.46875 596.363281 393.144531 595.425781 C 392.945312 595.660156 392.726562 595.882812 392.488281 596.085938 C 390.375 597.914062 385.785156 599.359375 374.554688 594.085938 C 369.890625 591.890625 365.894531 589.386719 364.675781 588.613281 C 362.671875 587.34375 359.925781 587.867188 356.160156 588.335938 C 354.34375 588.5625 351.429688 589.113281 347.523438 590.839844 C 344.738281 592.070312 343.222656 592.949219 340.625 594.199219 C 335.820312 596.511719 330.5625 598.382812 324.820312 593.339844 C 324.445312 593.011719 323.777344 592.382812 323.464844 592.011719 C 322.070312 590.339844 320.554688 586.390625 319.808594 574 C 319.582031 570.1875 319.457031 566.085938 319.40625 562.007812 C 318.078125 562.289062 316.789062 562.449219 315.457031 562.480469 C 315.257812 562.484375 314.355469 562.464844 313.847656 562.398438 C 313.433594 562.339844 313.289062 562.316406 312.796875 562.195312 C 312.742188 562.179688 312.226562 562.023438 311.933594 561.90625 C 311.476562 561.71875 311.148438 561.574219 310.539062 561.230469 C 310.089844 560.976562 309.441406 560.617188 308.035156 559.445312 C 306.777344 558.390625 306.039062 557.585938 305.625 556.960938 Z M 324.765625 438.066406 C 329.136719 436.546875 334.417969 435.695312 341.054688 435.597656 C 345.03125 435.535156 350.195312 435.746094 357.253906 436.539062 C 358.171875 436.644531 361.574219 437.0625 364.539062 437.519531 C 368.199219 438.082031 370.503906 438.503906 371.023438 438.597656 C 375.457031 439.40625 375.445312 439.46875 381.003906 440.488281 C 388.078125 441.792969 392.292969 442.308594 396.792969 443.613281 C 401.089844 444.863281 405.355469 446.773438 411.761719 450.269531 C 411.753906 450.195312 411.742188 450.113281 411.734375 450.03125 C 411.476562 447.496094 410.445312 438.664062 407.3125 431.332031 C 405.503906 427.105469 403.386719 424.261719 401.140625 422.570312 C 400.003906 421.714844 396.191406 420.324219 389.5625 418.855469 C 388.992188 418.730469 386.246094 418.109375 381.414062 417.3125 C 380.449219 417.152344 377.675781 416.714844 375.15625 416.390625 C 374.296875 416.28125 368.621094 415.484375 362.035156 415.136719 C 350.882812 414.550781 344.324219 415.765625 342.347656 416.152344 C 341.257812 416.367188 339.394531 416.785156 338.476562 417.117188 C 331.289062 419.722656 326.597656 431.265625 324.867188 437.679688 C 324.832031 437.8125 324.800781 437.941406 324.765625 438.066406 Z M 294.394531 522.335938 C 296.140625 522.214844 299.296875 522.480469 304.214844 524.808594 C 305.027344 525.191406 306.273438 525.839844 306.546875 526.015625 C 307.449219 526.609375 310.417969 529.058594 309.601562 531.863281 C 309.429688 532.457031 309.117188 532.976562 308.6875 533.433594 C 308.855469 533.464844 309.019531 533.5 309.175781 533.535156 C 309.925781 533.710938 312.214844 534.289062 312.792969 536.316406 C 312.871094 536.589844 313.136719 537.726562 312.761719 539.015625 C 312.585938 539.613281 312.253906 540.371094 311.550781 541.175781 C 312.671875 541.484375 313.925781 542.109375 314.71875 543.421875 C 315.417969 544.585938 315.539062 545.964844 315.386719 547.3125 C 316.136719 547.507812 316.972656 547.503906 317.722656 546.996094 C 317.726562 546.992188 318.339844 546.59375 318.703125 545.964844 C 320.292969 543.203125 319.382812 535.429688 319.273438 534.414062 C 319.183594 533.613281 319.054688 532.574219 319.058594 532.453125 C 319.0625 532.363281 319.058594 532.273438 319.070312 532.1875 C 319.082031 532.082031 319.152344 531.480469 319.710938 531.039062 C 320.039062 530.78125 320.378906 530.714844 320.445312 530.703125 C 320.609375 530.667969 320.613281 530.679688 321.78125 530.605469 L 335.78125 529.683594 C 336.4375 529.640625 336.4375 529.644531 338.511719 529.539062 C 338.550781 529.535156 341 529.441406 341.003906 529.441406 C 341.972656 529.410156 341.972656 529.417969 342.941406 529.386719 C 343.292969 529.375 343.648438 529.359375 344.003906 529.351562 C 344.109375 529.347656 344.21875 529.347656 344.324219 529.359375 C 344.449219 529.375 345.175781 529.457031 345.664062 530.160156 C 345.726562 530.246094 345.78125 530.339844 345.824219 530.4375 C 345.917969 530.628906 345.910156 530.632812 345.960938 530.839844 C 346.628906 533.527344 347.015625 536.65625 347.632812 539.675781 C 348.519531 544.039062 349.746094 547.398438 352.296875 547.984375 C 352.992188 548.140625 354.070312 548.210938 355.800781 547.585938 C 355.515625 547.113281 355.285156 546.519531 355.144531 545.777344 C 354.957031 544.816406 354.785156 542.71875 355.078125 541.160156 C 355.183594 540.597656 355.347656 540.113281 355.546875 539.695312 C 355.179688 539.378906 354.851562 538.949219 354.644531 538.375 C 354.332031 537.507812 354.207031 536.148438 355.378906 533.472656 C 357.296875 529.101562 362.34375 527.886719 367.601562 527.152344 C 378.378906 525.640625 393.492188 525.789062 402.511719 512.585938 C 402.644531 512.394531 402.636719 512.382812 402.832031 512.253906 C 402.882812 512.21875 403.167969 512.03125 403.5625 512.101562 C 403.621094 512.113281 403.964844 512.175781 404.195312 512.515625 C 404.417969 512.84375 404.355469 513.183594 404.347656 513.242188 C 404.304688 513.472656 404.292969 513.472656 404.164062 513.667969 C 392.972656 531.269531 371.265625 528.042969 362.136719 531.84375 C 359.300781 533.023438 358.816406 534.441406 358.464844 535.433594 C 358.425781 535.546875 358.125 536.398438 358.09375 536.917969 C 359.394531 537.203125 362.601562 536.691406 366.136719 536.824219 C 366.339844 536.832031 366.34375 536.828125 366.542969 536.867188 C 367.382812 537.050781 367.753906 537.679688 367.816406 537.789062 C 368.25 538.53125 368.039062 539.230469 368 539.351562 C 367.75 540.171875 367.089844 540.488281 366.976562 540.542969 C 366.878906 540.589844 366.777344 540.628906 366.675781 540.65625 C 366.628906 540.671875 366.515625 540.703125 366.117188 540.75 C 362.945312 541.140625 360.429688 540.925781 359.425781 541.296875 C 359.257812 541.359375 359.238281 541.394531 359.183594 541.53125 C 358.890625 542.28125 359.011719 544.292969 359.183594 545.070312 C 359.207031 545.183594 359.230469 545.265625 359.25 545.324219 C 359.960938 545.363281 361.5625 545.070312 363.59375 545.074219 C 363.878906 545.074219 364.007812 545.09375 364.042969 545.101562 C 364.171875 545.121094 364.925781 545.246094 365.40625 546.003906 C 365.476562 546.113281 365.886719 546.761719 365.644531 547.621094 C 365.609375 547.746094 365.398438 548.484375 364.59375 548.875 C 364.375 548.984375 364.371094 548.972656 364.136719 549.039062 C 364.050781 549.0625 360.574219 550.019531 359.8125 551.148438 C 359.921875 551.453125 360.785156 552.558594 364.015625 553.839844 C 368.484375 555.613281 376.285156 557.125 383.671875 556.132812 C 387.433594 555.628906 394.953125 554.019531 401.25 547.003906 C 403.902344 544.050781 405.382812 541.183594 406.042969 539.769531 C 406.167969 539.507812 406.378906 538.988281 406.382812 538.984375 C 406.449219 538.890625 406.492188 538.785156 406.574219 538.703125 C 406.613281 538.667969 406.824219 538.457031 407.171875 538.457031 C 407.226562 538.457031 407.535156 538.457031 407.789062 538.714844 C 408.035156 538.960938 408.035156 539.261719 408.035156 539.3125 C 408.035156 539.425781 408 539.535156 407.96875 539.644531 C 407.96875 539.648438 407.535156 540.675781 407.3125 541.171875 C 404.152344 548.183594 399.375 551.949219 398.257812 552.824219 C 390.28125 559.085938 380.59375 560.113281 372.273438 559.25 C 366.082031 558.605469 358.464844 556.589844 356.484375 552.972656 C 355.945312 551.992188 355.734375 550.699219 356.386719 549.398438 C 353.585938 550.648438 349.773438 551.160156 346.964844 546.429688 C 344.898438 542.953125 343.96875 537.734375 342.734375 533.257812 C 341.71875 533.351562 341.257812 533.390625 340.359375 533.460938 C 338.835938 533.582031 338.839844 533.582031 337.316406 533.683594 C 336.066406 533.765625 336.066406 533.757812 334.816406 533.820312 C 332.148438 533.953125 330.3125 533.988281 328.503906 534.019531 C 325.84375 534.066406 323.867188 534.085938 322.578125 534.09375 C 322.703125 536.664062 322.839844 541.332031 321.933594 544.726562 C 321.949219 549.261719 322.039062 554.730469 322.257812 560.289062 C 322.371094 560.570312 322.300781 560.8125 322.28125 560.871094 C 322.691406 570.835938 323.511719 581 325.0625 586.539062 C 325.640625 588.601562 326.140625 589.328125 326.347656 589.566406 C 326.351562 589.566406 327.152344 590.390625 328.175781 591.105469 C 331.71875 593.585938 334.664062 592.632812 339.496094 590.210938 C 341.515625 589.199219 344.070312 587.835938 346.855469 586.742188 C 350.152344 585.449219 355.675781 583.199219 362.929688 584.246094 C 364.273438 584.441406 365.410156 584.699219 366.179688 585.4375 C 366.355469 585.609375 368.730469 587.246094 372.207031 589.292969 C 381.070312 594.503906 388.644531 596.875 391.363281 593.855469 C 394.132812 590.78125 391.980469 582.839844 391.054688 579.71875 C 390.984375 579.476562 390.800781 578.933594 390.800781 578.929688 C 390.785156 578.820312 390.75 578.707031 390.757812 578.59375 C 390.761719 578.542969 390.785156 578.246094 391.046875 578.015625 C 391.089844 577.980469 391.320312 577.78125 391.679688 577.804688 C 392.03125 577.832031 392.226562 578.054688 392.261719 578.09375 C 392.332031 578.179688 392.378906 578.285156 392.429688 578.386719 C 392.464844 578.464844 392.449219 578.46875 392.761719 579.390625 C 394.601562 584.792969 395.597656 589.980469 394.265625 593.496094 C 395.863281 593.652344 397.78125 593.574219 398.550781 593.53125 C 399.828125 593.460938 402.175781 593.265625 403.578125 592.933594 C 403.761719 592.800781 404.300781 592.410156 404.820312 592.0625 C 405.695312 591.484375 407.804688 590.128906 410.382812 589.519531 C 411.257812 589.316406 412.078125 589.277344 412.226562 589.269531 C 414.035156 589.179688 415.320312 589.699219 415.421875 589.738281 C 415.714844 589.84375 415.972656 589.960938 416.191406 590.070312 C 416.246094 589.824219 416.296875 589.515625 416.335938 589.125 C 416.660156 585.828125 415.652344 580.554688 415.289062 578.652344 C 415.082031 577.566406 414.886719 576.621094 414.769531 576.078125 C 414.722656 575.871094 414.722656 575.871094 414.667969 575.691406 C 414.652344 575.640625 414.570312 575.351562 414.742188 575.039062 C 414.792969 574.941406 414.863281 574.855469 414.949219 574.785156 C 414.992188 574.75 415.230469 574.558594 415.589844 574.597656 C 415.9375 574.632812 416.125 574.867188 416.15625 574.90625 C 416.230469 574.992188 416.273438 575.101562 416.316406 575.207031 C 416.332031 575.234375 416.3125 575.238281 416.445312 575.589844 C 417.167969 577.546875 417.90625 579.652344 418.601562 582.144531 C 419.757812 586.296875 419.960938 588.699219 419.890625 590.144531 C 422.105469 590.421875 425.523438 590.378906 427.433594 589.472656 C 427.976562 589.214844 428.101562 589.046875 428.558594 588.667969 C 436.621094 582.042969 446.601562 587.011719 453.203125 582.976562 C 455.234375 581.734375 457.671875 579.238281 459.476562 573.078125 C 459.726562 572.214844 459.507812 571.808594 459.121094 571.386719 C 457.496094 569.605469 452.410156 567.875 447.496094 563.128906 C 444.761719 560.488281 442.089844 556.953125 439.914062 551.8125 C 439.195312 550.105469 438.785156 548.761719 438.316406 547.480469 C 437.1875 544.375 435.59375 540.734375 435.113281 539.632812 C 434.363281 537.910156 433.5 535.972656 430.886719 530.136719 C 428.625 525.089844 424.722656 516.40625 421.476562 507.394531 C 418.5625 499.300781 417.347656 494.214844 416.632812 491.429688 L 410.984375 469.40625 L 410.847656 468.90625 C 410.175781 468.660156 409.449219 468.386719 408.65625 468.078125 C 404.773438 466.570312 400.242188 464.746094 395.617188 463.332031 C 392.570312 462.398438 390.683594 461.953125 383.019531 459.769531 C 382.175781 459.53125 377.273438 458.125 371.792969 457.078125 C 371.636719 457.046875 368.289062 456.371094 364.089844 455.859375 C 357.734375 455.082031 352.675781 455.136719 350.410156 455.183594 C 342.292969 455.347656 334.984375 456.5 326.328125 457.539062 C 325.417969 457.648438 324.589844 457.746094 323.835938 457.828125 C 323.632812 458.460938 323.28125 459.824219 322.824219 462.71875 C 321.972656 468.152344 321.433594 474.738281 321.429688 474.804688 C 321.203125 477.246094 321.15625 478.109375 321.015625 479.796875 C 320.933594 480.785156 320.941406 480.785156 320.855469 481.769531 C 320.757812 482.882812 320.769531 482.882812 320.683594 483.742188 C 320.601562 484.585938 320.609375 484.585938 320.519531 485.425781 C 320.429688 486.261719 320.4375 486.261719 320.339844 487.09375 C 320.324219 487.25 320.25 487.8125 319.917969 491.167969 C 319.152344 499 319.421875 502.972656 319.800781 504.976562 C 321.46875 504.808594 322.832031 504.710938 323.714844 504.652344 C 327.195312 504.410156 329.554688 504.359375 331.066406 504.328125 C 333.714844 504.273438 336.171875 504.316406 336.539062 504.324219 C 338.472656 504.367188 339.65625 504.40625 342.40625 504.558594 C 342.519531 504.5625 344.359375 504.679688 346.316406 504.832031 C 350.964844 505.191406 353.234375 505.46875 356.417969 505.816406 C 357.152344 505.894531 357.253906 505.871094 358.445312 505.980469 C 365.074219 506.597656 368.363281 508.433594 369.347656 513.226562 C 369.925781 516.046875 369.707031 519.628906 369.65625 524.769531 C 369.65625 525.011719 369.667969 525.367188 369.667969 525.375 C 369.648438 525.488281 369.648438 525.605469 369.609375 525.710938 C 369.589844 525.757812 369.480469 526.035156 369.164062 526.179688 C 369.003906 526.246094 369.003906 526.25 368.832031 526.253906 C 368.777344 526.253906 368.476562 526.261719 368.21875 526.015625 C 368.136719 525.941406 368.070312 525.851562 368.027344 525.75 C 367.980469 525.648438 367.964844 525.53125 367.949219 525.417969 C 367.945312 525.402344 367.945312 525.070312 367.933594 524.808594 C 367.53125 517.375 367.671875 513.023438 365.480469 511 C 364.054688 509.6875 361.402344 509.109375 356.828125 509.074219 C 356.042969 509.070312 354.144531 508.902344 347.777344 508.664062 C 346.984375 508.636719 345.917969 508.585938 341.039062 508.484375 L 338.027344 508.429688 L 334.882812 508.386719 C 334.050781 508.371094 331.070312 508.339844 328.898438 508.355469 C 327.09375 508.371094 322.675781 508.382812 317.464844 508.792969 C 315.078125 508.980469 307.601562 509.613281 302.109375 511.761719 C 300.398438 512.433594 296.1875 514.355469 294.800781 519.566406 C 294.515625 520.628906 294.414062 521.601562 294.394531 522.335938 Z M 339.496094 465.234375 C 339.496094 465.234375 342.15625 465.101562 343.914062 469.792969 C 345.339844 473.609375 345.609375 478.234375 345.621094 478.421875 C 345.929688 482.636719 345.542969 485.738281 345.421875 486.675781 C 345.289062 487.683594 344.8125 490.671875 343.726562 492.835938 C 343.359375 493.566406 342.082031 496.011719 339.632812 496.113281 C 337.578125 496.199219 336.324219 494.539062 336.15625 494.328125 C 335.492188 493.496094 334.90625 492.382812 334.382812 490.734375 C 334.054688 489.699219 333.824219 488.449219 333.785156 488.246094 C 333.613281 487.3125 333.265625 485.277344 333.257812 482.121094 C 333.226562 474.125 335.429688 465.925781 338.992188 465.285156 C 339.28125 465.234375 339.316406 465.238281 339.496094 465.234375 Z M 349.019531 518.453125 C 351.265625 517.65625 354.585938 518.257812 356.4375 521.238281 C 357.589844 523.089844 356.140625 525.683594 353.625 526.980469 C 353.117188 527.242188 352.550781 527.40625 352.457031 527.433594 C 351.75 527.632812 351.132812 527.703125 350.410156 527.667969 C 350.382812 527.664062 350.03125 527.636719 349.667969 527.5625 C 349.554688 527.542969 349.304688 527.496094 348.824219 527.316406 C 348.503906 527.195312 347.859375 526.925781 347.097656 526.285156 C 347.082031 526.277344 346.835938 526.0625 346.652344 525.863281 C 345.535156 524.648438 345.25 522.851562 346.058594 521.140625 C 346.601562 519.988281 347.628906 518.941406 349.019531 518.453125 Z M 368.152344 465.242188 C 368.152344 465.242188 370.8125 465.109375 372.570312 469.800781 C 373.996094 473.617188 374.265625 478.242188 374.28125 478.433594 C 374.585938 482.644531 374.203125 485.75 374.078125 486.6875 C 373.945312 487.691406 373.472656 490.679688 372.382812 492.847656 C 372.015625 493.578125 370.742188 496.019531 368.289062 496.121094 C 366.234375 496.207031 364.980469 494.550781 364.8125 494.335938 C 364.148438 493.503906 363.5625 492.394531 363.039062 490.742188 C 362.710938 489.710938 362.480469 488.457031 362.441406 488.257812 C 362.269531 487.324219 361.921875 485.285156 361.914062 482.128906 C 361.886719 474.132812 364.085938 465.9375 367.648438 465.296875 C 367.9375 465.242188 367.972656 465.25 368.152344 465.242188 Z M 307.832031 518.546875 C 308.792969 517.316406 310.089844 515.902344 311.378906 515.753906 C 312.8125 515.59375 314.929688 516.582031 316.160156 517.984375 C 317.835938 519.886719 317.703125 522.414062 316.953125 524.273438 C 316.898438 524.410156 316.585938 525.183594 316.09375 525.878906 C 315.949219 526.085938 315.574219 526.554688 315.222656 526.863281 C 314.953125 527.097656 314.253906 527.691406 312.796875 527.5625 C 312.257812 527.515625 311.515625 527.382812 310.515625 526.949219 C 309.976562 526.710938 309.457031 526.375 309.367188 526.316406 C 308.777344 525.933594 307.558594 525.054688 306.941406 523.570312 C 305.871094 521 307.542969 518.917969 307.832031 518.546875 Z M 306.769531 457.832031 C 307.597656 457.453125 308.316406 457.195312 308.792969 457.03125 C 312.679688 455.691406 316.648438 455.371094 318.152344 455.207031 C 327.886719 454.136719 336.066406 452.375 345.425781 451.578125 C 350.359375 451.15625 354.761719 451.074219 359.585938 451.359375 C 362.082031 451.507812 364.570312 451.804688 365.003906 451.859375 C 369.789062 452.4375 373.800781 453.34375 375.902344 453.847656 C 380.445312 454.929688 383.378906 455.910156 387.371094 457.140625 C 397.160156 460.15625 398.304688 460.382812 409.359375 465.121094 C 417.710938 468.699219 419.195312 468.359375 424.90625 472.648438 C 422.945312 468.300781 417.769531 457.425781 413.570312 454.441406 C 413.238281 454.203125 413.109375 454.140625 411.921875 453.535156 C 399.71875 447.328125 395.953125 446.621094 387.625 445.417969 C 382.730469 444.714844 380.09375 444.378906 374.332031 443.34375 C 373.21875 443.140625 371.824219 442.878906 369.398438 442.460938 C 369.382812 442.457031 363.4375 441.386719 358.027344 440.632812 C 353.574219 440.011719 344.179688 438.753906 335.785156 439.269531 C 320.332031 440.222656 313.992188 446.675781 306.769531 457.832031 Z M 314.953125 549.433594 C 314.765625 550.09375 314.550781 550.707031 314.347656 551.242188 C 313.511719 553.46875 311.203125 555.164062 308.429688 556.183594 C 308.605469 556.28125 308.804688 556.382812 309.03125 556.496094 C 310.078125 557.015625 310.78125 557.320312 311.6875 557.632812 C 311.984375 557.734375 312.019531 557.75 312.933594 558 C 313.175781 558.066406 313.175781 558.0625 313.417969 558.128906 C 313.703125 558.207031 313.707031 558.195312 313.988281 558.285156 C 314.21875 558.355469 314.222656 558.351562 314.449219 558.425781 C 314.703125 558.511719 314.703125 558.507812 314.953125 558.59375 C 315.054688 558.628906 315.0625 558.644531 316.082031 558.945312 C 317.289062 559.304688 318.402344 559.480469 319.386719 559.589844 C 319.367188 555.808594 319.402344 552.097656 319.472656 548.707031 C 318.027344 549.761719 316.4375 549.878906 314.953125 549.433594 Z M 294.808594 524.359375 C 293.742188 524.347656 291.894531 524.996094 291.464844 525.714844 C 290.042969 528.09375 290.066406 533.332031 290.441406 541.691406 C 290.753906 548.632812 293.980469 552.507812 298.972656 553.484375 C 303.640625 554.398438 308.792969 552.515625 310.316406 550.371094 C 310.511719 550.097656 310.566406 549.933594 310.734375 549.417969 C 311.410156 547.351562 311.5625 545.792969 311.082031 545.386719 C 310.941406 545.265625 310.492188 544.988281 309.183594 544.914062 C 307.765625 544.835938 305.921875 544.976562 302.242188 545.496094 C 302.171875 545.507812 302.105469 545.519531 302.035156 545.527344 C 301.921875 545.539062 301.808594 545.550781 301.695312 545.550781 C 301.566406 545.546875 300.789062 545.53125 300.21875 544.832031 C 300.132812 544.730469 299.644531 544.132812 299.808594 543.242188 C 299.832031 543.113281 299.972656 542.351562 300.761719 541.902344 C 300.859375 541.847656 300.960938 541.800781 301.066406 541.761719 C 301.277344 541.6875 301.308594 541.6875 301.480469 541.660156 C 301.617188 541.636719 301.757812 541.613281 301.898438 541.589844 C 304.5625 541.113281 307.984375 540.03125 309.101562 538.425781 C 309.449219 537.929688 309.425781 537.496094 309.398438 537.285156 C 309.074219 537.007812 307.515625 536.300781 302.851562 536.394531 C 301.132812 536.429688 299.757812 536.5625 299.75 536.5625 C 299.660156 536.5625 299.570312 536.570312 299.480469 536.566406 C 299.378906 536.558594 298.765625 536.515625 298.34375 535.9375 C 298.28125 535.855469 297.917969 535.359375 298.09375 534.664062 C 298.117188 534.5625 298.265625 533.96875 298.910156 533.652344 C 298.988281 533.613281 299.074219 533.582031 299.160156 533.554688 C 299.320312 533.511719 299.359375 533.507812 299.46875 533.5 C 299.871094 533.449219 300.433594 533.386719 301.097656 533.328125 C 302.832031 533.097656 305.550781 532.589844 306.65625 531.558594 C 307.023438 531.214844 307.207031 530.839844 306.859375 530.097656 C 306.519531 529.363281 305.757812 528.558594 305.125 528.085938 C 304.191406 527.53125 299.03125 524.410156 294.808594 524.359375 Z M 294.808594 524.359375 " fill-opacity="1" fill-rule="evenodd"/></g></svg>