<svg xmlns="http://www.w3.org/2000/svg" xmlns:xlink="http://www.w3.org/1999/xlink" width="851" zoomAndPan="magnify" viewBox="0 0 638.25 236.249991" height="315" preserveAspectRatio="xMidYMid meet" version="1.0"><defs><g/><clipPath id="2a6137ec38"><path d="M 2 16 L 636.867188 16 L 636.867188 225 L 2 225 Z M 2 16 " clip-rule="nonzero"/></clipPath><clipPath id="7294662fef"><rect x="0" width="635" y="0" height="209"/></clipPath></defs><g clip-path="url(#2a6137ec38)"><g transform="matrix(1, 0, 0, 1, 2, 16)"><g clip-path="url(#7294662fef)"><g fill="#9b7ebd" fill-opacity="1"><g transform="translate(0.231037, 159.2987)"><g><path d="M 78.296875 -84.953125 C 78.296875 -79.242188 77.050781 -73.640625 74.5625 -68.140625 C 72.082031 -62.648438 68.78125 -57.710938 64.65625 -53.328125 C 60.539062 -48.941406 55.84375 -45.347656 50.5625 -42.546875 C 45.28125 -39.753906 39.835938 -38.195312 34.234375 -37.875 C 34.128906 -35.976562 34.050781 -33.578125 34 -30.671875 C 33.945312 -27.765625 33.757812 -24.722656 33.4375 -21.546875 C 33.125 -18.378906 32.675781 -15.210938 32.09375 -12.046875 C 31.507812 -8.878906 30.660156 -6.023438 29.546875 -3.484375 C 28.441406 -0.953125 27.019531 1.101562 25.28125 2.6875 C 23.539062 4.28125 21.398438 5.078125 18.859375 5.078125 C 15.898438 5.078125 13.546875 4.097656 11.796875 2.140625 C 10.054688 0.179688 8.738281 -2.164062 7.84375 -4.90625 C 6.945312 -7.65625 6.335938 -10.535156 6.015625 -13.546875 C 5.703125 -16.554688 5.492188 -19.117188 5.390625 -21.234375 C 5.179688 -24.296875 5.046875 -27.304688 4.984375 -30.265625 C 4.929688 -33.222656 4.90625 -36.238281 4.90625 -39.3125 C 4.90625 -40.675781 4.90625 -43.234375 4.90625 -46.984375 C 4.90625 -50.742188 4.929688 -55.023438 4.984375 -59.828125 C 5.046875 -64.640625 5.128906 -69.660156 5.234375 -74.890625 C 5.335938 -80.117188 5.492188 -84.976562 5.703125 -89.46875 C 5.910156 -93.957031 6.144531 -97.785156 6.40625 -100.953125 C 6.675781 -104.128906 7.023438 -105.976562 7.453125 -106.5 C 7.554688 -106.613281 7.867188 -106.851562 8.390625 -107.21875 C 8.921875 -107.59375 9.503906 -107.960938 10.140625 -108.328125 C 10.773438 -108.703125 11.351562 -109.046875 11.875 -109.359375 C 12.40625 -109.671875 12.78125 -109.882812 13 -110 C 17.851562 -112.738281 23.1875 -115.113281 29 -117.125 C 34.8125 -119.132812 40.570312 -120.140625 46.28125 -120.140625 C 51.144531 -120.140625 55.554688 -119.160156 59.515625 -117.203125 C 63.472656 -115.253906 66.851562 -112.664062 69.65625 -109.4375 C 72.457031 -106.21875 74.597656 -102.46875 76.078125 -98.1875 C 77.554688 -93.90625 78.296875 -89.492188 78.296875 -84.953125 Z M 50.875 -81.3125 C 50.875 -83.425781 50.367188 -85.273438 49.359375 -86.859375 C 48.359375 -88.441406 46.695312 -89.234375 44.375 -89.234375 C 42.363281 -89.234375 40.351562 -88.835938 38.34375 -88.046875 C 36.34375 -87.253906 34.5 -86.4375 32.8125 -85.59375 C 33.125 -81.882812 33.410156 -78.285156 33.671875 -74.796875 C 33.941406 -71.316406 33.972656 -67.726562 33.765625 -64.03125 C 35.453125 -64.875 37.296875 -65.847656 39.296875 -66.953125 C 41.304688 -68.066406 43.15625 -69.3125 44.84375 -70.6875 C 46.539062 -72.0625 47.96875 -73.617188 49.125 -75.359375 C 50.289062 -77.109375 50.875 -79.09375 50.875 -81.3125 Z M 50.875 -81.3125 "/></g></g><g transform="translate(77.576093, 159.2987)"><g><path d="M 34.390625 -96.046875 C 34.390625 -90.335938 34.148438 -84.601562 33.671875 -78.84375 C 33.203125 -73.09375 32.96875 -67.3125 32.96875 -61.5 C 32.96875 -54 33.203125 -46.492188 33.671875 -38.984375 C 34.148438 -31.484375 34.390625 -23.929688 34.390625 -16.328125 C 34.390625 -14.421875 34.285156 -12.28125 34.078125 -9.90625 C 33.867188 -7.53125 33.363281 -5.335938 32.5625 -3.328125 C 31.769531 -1.316406 30.582031 0.367188 29 1.734375 C 27.414062 3.109375 25.304688 3.796875 22.671875 3.796875 C 20.128906 3.796875 17.929688 2.554688 16.078125 0.078125 C 14.234375 -2.398438 12.703125 -5.566406 11.484375 -9.421875 C 10.273438 -13.285156 9.273438 -17.59375 8.484375 -22.34375 C 7.691406 -27.101562 7.109375 -31.726562 6.734375 -36.21875 C 6.367188 -40.707031 6.101562 -44.828125 5.9375 -48.578125 C 5.78125 -52.328125 5.703125 -55.101562 5.703125 -56.90625 C 5.703125 -58.90625 5.78125 -61.804688 5.9375 -65.609375 C 6.101562 -69.421875 6.445312 -73.546875 6.96875 -77.984375 C 7.5 -82.421875 8.210938 -86.9375 9.109375 -91.53125 C 10.003906 -96.125 11.191406 -100.296875 12.671875 -104.046875 C 14.148438 -107.796875 15.921875 -110.859375 17.984375 -113.234375 C 20.046875 -115.617188 22.503906 -116.8125 25.359375 -116.8125 C 27.679688 -116.8125 29.445312 -116.046875 30.65625 -114.515625 C 31.875 -112.984375 32.75 -111.132812 33.28125 -108.96875 C 33.8125 -106.800781 34.128906 -104.523438 34.234375 -102.140625 C 34.335938 -99.765625 34.390625 -97.734375 34.390625 -96.046875 Z M 34.390625 -96.046875 "/></g></g></g><g fill="#9b7ebd" fill-opacity="1"><g transform="translate(119.266346, 159.2987)"><g/></g><g transform="translate(157.463392, 159.2987)"><g/></g><g transform="translate(195.660438, 159.2987)"><g/></g></g><g fill="#9b7ebd" fill-opacity="1"><g transform="translate(233.863825, 159.2987)"><g><path d="M 39.140625 46.125 C 36.609375 46.125 33.726562 45.726562 30.5 44.9375 C 27.28125 44.144531 24.242188 43.007812 21.390625 41.53125 C 18.546875 40.050781 16.144531 38.253906 14.1875 36.140625 C 12.226562 34.023438 11.25 31.59375 11.25 28.84375 C 11.25 27.789062 11.515625 26.734375 12.046875 25.671875 C 12.578125 24.617188 13.289062 23.695312 14.1875 22.90625 C 15.082031 22.113281 16.054688 21.476562 17.109375 21 C 18.171875 20.519531 19.285156 20.28125 20.453125 20.28125 C 21.710938 20.28125 22.953125 20.460938 24.171875 20.828125 C 25.390625 21.203125 26.628906 21.65625 27.890625 22.1875 C 29.265625 22.71875 30.613281 23.191406 31.9375 23.609375 C 33.257812 24.035156 34.660156 24.25 36.140625 24.25 C 38.773438 24.25 41.070312 23.347656 43.03125 21.546875 C 44.988281 19.753906 46.648438 17.40625 48.015625 14.5 C 49.390625 11.59375 50.5 8.367188 51.34375 4.828125 C 52.195312 1.296875 52.859375 -2.210938 53.328125 -5.703125 C 53.804688 -9.191406 54.148438 -12.46875 54.359375 -15.53125 C 54.578125 -18.59375 54.738281 -21.078125 54.84375 -22.984375 C 51.144531 -17.378906 47.472656 -13.070312 43.828125 -10.0625 C 40.179688 -7.050781 35.71875 -5.546875 30.4375 -5.546875 C 26.414062 -5.546875 22.898438 -6.390625 19.890625 -8.078125 C 16.878906 -9.773438 14.316406 -11.992188 12.203125 -14.734375 C 10.085938 -17.484375 8.34375 -20.628906 6.96875 -24.171875 C 5.59375 -27.710938 4.5625 -31.382812 3.875 -35.1875 C 3.195312 -38.988281 2.75 -42.710938 2.53125 -46.359375 C 2.320312 -50.003906 2.320312 -53.359375 2.53125 -56.421875 C 2.632812 -58.742188 2.925781 -61.78125 3.40625 -65.53125 C 3.882812 -69.28125 4.648438 -72.953125 5.703125 -76.546875 C 6.765625 -80.140625 8.242188 -83.175781 10.140625 -85.65625 C 12.046875 -88.144531 14.53125 -89.285156 17.59375 -89.078125 C 19.601562 -88.972656 21.238281 -88.097656 22.5 -86.453125 C 23.769531 -84.816406 24.800781 -82.78125 25.59375 -80.34375 C 26.382812 -77.914062 26.960938 -75.25 27.328125 -72.34375 C 27.703125 -69.445312 27.941406 -66.570312 28.046875 -63.71875 C 28.160156 -60.863281 28.1875 -58.242188 28.125 -55.859375 C 28.070312 -53.484375 28.046875 -51.664062 28.046875 -50.40625 C 28.046875 -48.601562 28.097656 -46.800781 28.203125 -45 C 28.316406 -43.207031 28.6875 -41.597656 29.3125 -40.171875 C 29.945312 -38.742188 30.925781 -37.609375 32.25 -36.765625 C 33.570312 -35.921875 35.445312 -35.5 37.875 -35.5 C 40.625 -35.5 42.816406 -36.1875 44.453125 -37.5625 C 46.085938 -38.9375 47.300781 -40.648438 48.09375 -42.703125 C 48.894531 -44.765625 49.398438 -46.984375 49.609375 -49.359375 C 49.816406 -51.742188 49.921875 -53.992188 49.921875 -56.109375 C 49.921875 -57.585938 49.921875 -59.382812 49.921875 -61.5 C 49.921875 -63.613281 49.945312 -65.832031 50 -68.15625 C 50.050781 -70.476562 50.257812 -72.773438 50.625 -75.046875 C 51 -77.316406 51.582031 -79.375 52.375 -81.21875 C 53.175781 -83.070312 54.234375 -84.578125 55.546875 -85.734375 C 56.867188 -86.898438 58.585938 -87.484375 60.703125 -87.484375 C 63.347656 -87.484375 65.617188 -86.453125 67.515625 -84.390625 C 69.421875 -82.335938 71.03125 -79.644531 72.34375 -76.3125 C 73.664062 -72.988281 74.722656 -69.316406 75.515625 -65.296875 C 76.304688 -61.285156 76.914062 -57.296875 77.34375 -53.328125 C 77.769531 -49.367188 78.0625 -45.722656 78.21875 -42.390625 C 78.375 -39.066406 78.453125 -36.453125 78.453125 -34.546875 C 78.453125 -30.109375 78.289062 -25.0625 77.96875 -19.40625 C 77.65625 -13.757812 77.050781 -7.953125 76.15625 -1.984375 C 75.257812 3.980469 73.910156 9.847656 72.109375 15.609375 C 70.316406 21.367188 67.96875 26.519531 65.0625 31.0625 C 62.15625 35.601562 58.585938 39.25 54.359375 42 C 50.128906 44.75 45.054688 46.125 39.140625 46.125 Z M 39.140625 46.125 "/></g></g><g transform="translate(317.865629, 159.2987)"><g/></g><g transform="translate(356.062674, 159.2987)"><g><path d="M 80.359375 -21.875 C 80.359375 -19.226562 79.273438 -16.742188 77.109375 -14.421875 C 74.941406 -12.097656 72.140625 -9.984375 68.703125 -8.078125 C 65.273438 -6.179688 61.445312 -4.519531 57.21875 -3.09375 C 52.988281 -1.664062 48.8125 -0.449219 44.6875 0.546875 C 40.570312 1.554688 36.691406 2.320312 33.046875 2.84375 C 29.398438 3.375 26.519531 3.640625 24.40625 3.640625 C 22.394531 3.640625 20.253906 3.453125 17.984375 3.078125 C 15.710938 2.710938 13.835938 1.898438 12.359375 0.640625 C 11.515625 0.00390625 10.773438 -1.421875 10.140625 -3.640625 C 9.503906 -5.859375 8.894531 -8.5 8.3125 -11.5625 C 7.738281 -14.632812 7.238281 -17.9375 6.8125 -21.46875 C 6.394531 -25.007812 6.050781 -28.46875 5.78125 -31.84375 C 5.519531 -35.226562 5.304688 -38.347656 5.140625 -41.203125 C 4.984375 -44.054688 4.90625 -46.273438 4.90625 -47.859375 C 4.90625 -50.503906 4.984375 -53.703125 5.140625 -57.453125 C 5.304688 -61.203125 5.546875 -65.21875 5.859375 -69.5 C 6.179688 -73.78125 6.601562 -78.140625 7.125 -82.578125 C 7.65625 -87.015625 8.265625 -91.210938 8.953125 -95.171875 C 9.640625 -99.140625 10.484375 -102.707031 11.484375 -105.875 C 12.492188 -109.039062 13.578125 -111.523438 14.734375 -113.328125 C 16.742188 -116.179688 19.28125 -117.609375 22.34375 -117.609375 C 24.457031 -117.609375 26.253906 -116.894531 27.734375 -115.46875 C 29.210938 -114.039062 30.398438 -112.1875 31.296875 -109.90625 C 32.203125 -107.632812 32.890625 -105.097656 33.359375 -102.296875 C 33.835938 -99.503906 34.179688 -96.734375 34.390625 -93.984375 C 34.597656 -91.234375 34.703125 -88.695312 34.703125 -86.375 C 34.703125 -84.050781 34.703125 -82.203125 34.703125 -80.828125 C 34.703125 -72.585938 34.515625 -64.425781 34.140625 -56.34375 C 33.773438 -48.257812 33.59375 -40.097656 33.59375 -31.859375 L 33.59375 -25.671875 C 38.351562 -27.148438 43.53125 -28.550781 49.125 -29.875 C 54.726562 -31.195312 60.066406 -31.859375 65.140625 -31.859375 C 66.929688 -31.859375 68.75 -31.75 70.59375 -31.53125 C 72.445312 -31.320312 74.085938 -30.875 75.515625 -30.1875 C 76.941406 -29.5 78.101562 -28.492188 79 -27.171875 C 79.90625 -25.859375 80.359375 -24.09375 80.359375 -21.875 Z M 80.359375 -21.875 "/></g></g></g><g fill="#9b7ebd" fill-opacity="1"><g transform="translate(435.63299, 159.2987)"><g/></g><g transform="translate(473.830036, 159.2987)"><g/></g><g transform="translate(512.027081, 159.2987)"><g/></g></g><g fill="#9b7ebd" fill-opacity="1"><g transform="translate(550.230468, 159.2987)"><g><path d="M 79.71875 -52.296875 C 79.71875 -49.234375 79.476562 -45.773438 79 -41.921875 C 78.53125 -38.066406 77.789062 -34.128906 76.78125 -30.109375 C 75.78125 -26.097656 74.460938 -22.1875 72.828125 -18.375 C 71.191406 -14.570312 69.179688 -11.164062 66.796875 -8.15625 C 64.421875 -5.144531 61.675781 -2.738281 58.5625 -0.9375 C 55.445312 0.851562 51.828125 1.75 47.703125 1.75 C 43.367188 1.75 39.429688 0.742188 35.890625 -1.265625 C 32.359375 -3.273438 29.320312 -6.023438 26.78125 -9.515625 C 26.46875 -6.660156 25.304688 -4.148438 23.296875 -1.984375 C 21.285156 0.179688 18.75 1.265625 15.6875 1.265625 C 13.894531 1.265625 12.390625 0.367188 11.171875 -1.421875 C 9.953125 -3.222656 8.972656 -5.519531 8.234375 -8.3125 C 7.492188 -11.113281 6.9375 -14.207031 6.5625 -17.59375 C 6.195312 -20.976562 5.960938 -24.253906 5.859375 -27.421875 C 5.753906 -30.585938 5.703125 -33.4375 5.703125 -35.96875 C 5.703125 -38.507812 5.703125 -40.304688 5.703125 -41.359375 C 5.703125 -44.953125 5.726562 -48.546875 5.78125 -52.140625 C 5.832031 -55.734375 5.910156 -59.378906 6.015625 -63.078125 C 6.015625 -64.878906 5.988281 -67.570312 5.9375 -71.15625 C 5.882812 -74.75 5.910156 -78.738281 6.015625 -83.125 C 6.128906 -87.507812 6.367188 -92 6.734375 -96.59375 C 7.109375 -101.195312 7.769531 -105.398438 8.71875 -109.203125 C 9.664062 -113.003906 10.984375 -116.117188 12.671875 -118.546875 C 14.367188 -120.984375 16.535156 -122.253906 19.171875 -122.359375 C 21.285156 -122.359375 23.082031 -121.617188 24.5625 -120.140625 C 26.039062 -118.660156 27.28125 -116.703125 28.28125 -114.265625 C 29.289062 -111.835938 30.085938 -109.117188 30.671875 -106.109375 C 31.253906 -103.097656 31.675781 -100.085938 31.9375 -97.078125 C 32.195312 -94.066406 32.351562 -91.210938 32.40625 -88.515625 C 32.457031 -85.828125 32.484375 -83.632812 32.484375 -81.9375 C 32.484375 -81.625 32.457031 -80.910156 32.40625 -79.796875 C 32.351562 -78.691406 32.328125 -77.503906 32.328125 -76.234375 C 32.328125 -74.960938 32.328125 -73.828125 32.328125 -72.828125 C 32.328125 -71.828125 32.328125 -71.269531 32.328125 -71.15625 C 33.285156 -73.164062 34.660156 -75.117188 36.453125 -77.015625 C 38.242188 -78.921875 40.25 -80.613281 42.46875 -82.09375 C 44.6875 -83.570312 47.007812 -84.785156 49.4375 -85.734375 C 51.875 -86.691406 54.203125 -87.171875 56.421875 -87.171875 C 60.859375 -87.171875 64.582031 -86.035156 67.59375 -83.765625 C 70.601562 -81.492188 73.003906 -78.613281 74.796875 -75.125 C 76.597656 -71.632812 77.867188 -67.851562 78.609375 -63.78125 C 79.347656 -59.71875 79.71875 -55.890625 79.71875 -52.296875 Z M 56.421875 -47.546875 C 56.421875 -48.816406 56.34375 -50.191406 56.1875 -51.671875 C 56.03125 -53.148438 55.660156 -54.519531 55.078125 -55.78125 C 54.492188 -57.050781 53.695312 -58.109375 52.6875 -58.953125 C 51.6875 -59.804688 50.394531 -60.234375 48.8125 -60.234375 C 47.125 -60.234375 45.457031 -59.863281 43.8125 -59.125 C 42.175781 -58.382812 40.617188 -57.429688 39.140625 -56.265625 C 37.660156 -55.097656 36.285156 -53.851562 35.015625 -52.53125 C 33.753906 -51.21875 32.648438 -49.925781 31.703125 -48.65625 L 30.109375 -34.546875 C 31.804688 -32.117188 33.867188 -30.191406 36.296875 -28.765625 C 38.722656 -27.335938 41.46875 -26.625 44.53125 -26.625 C 46.851562 -26.625 48.78125 -27.363281 50.3125 -28.84375 C 51.851562 -30.320312 53.070312 -32.144531 53.96875 -34.3125 C 54.863281 -36.476562 55.492188 -38.773438 55.859375 -41.203125 C 56.234375 -43.640625 56.421875 -45.753906 56.421875 -47.546875 Z M 56.421875 -47.546875 "/></g></g></g></g></g></g><path fill="#9b7ebd" d="M 547.199219 156.996094 C 546.195312 148.292969 544.785156 139.636719 543.515625 130.964844 C 543.378906 129.980469 543.195312 129 542.96875 128.03125 C 542.742188 127.0625 542.472656 126.105469 542.160156 125.15625 C 541.847656 124.210938 541.496094 123.28125 541.097656 122.367188 C 540.703125 121.453125 540.265625 120.558594 539.789062 119.683594 C 539.3125 118.808594 538.800781 117.957031 538.246094 117.128906 C 537.695312 116.300781 537.105469 115.5 536.480469 114.722656 C 535.855469 113.949219 535.199219 113.203125 534.507812 112.484375 C 533.8125 111.769531 533.09375 111.085938 532.339844 110.433594 C 531.585938 109.78125 530.804688 109.164062 529.996094 108.582031 C 529.1875 108 528.355469 107.457031 527.496094 106.949219 C 526.640625 106.441406 525.761719 105.976562 524.863281 105.546875 C 523.960938 105.117188 523.046875 104.730469 522.113281 104.386719 C 521.179688 104.039062 520.230469 103.738281 519.269531 103.476562 C 518.308594 103.214844 517.335938 103 516.355469 102.824219 C 515.375 102.652344 514.386719 102.523438 513.394531 102.4375 C 512.402344 102.351562 511.410156 102.3125 510.414062 102.316406 C 506.066406 102.316406 501.722656 102.316406 497.375 102.316406 C 497.386719 102.085938 497.410156 101.855469 497.457031 101.628906 C 497.761719 100.25 498.4375 99.085938 499.480469 98.132812 C 499.988281 97.6875 500.546875 97.332031 501.164062 97.0625 C 501.394531 96.949219 501.402344 96.949219 501.1875 97.0625 C 501.425781 96.972656 501.671875 96.894531 501.917969 96.828125 C 502.289062 96.722656 502.660156 96.640625 503.046875 96.566406 C 503.175781 96.558594 503.296875 96.535156 503.417969 96.503906 C 503.550781 96.488281 503.683594 96.46875 503.816406 96.460938 C 504.277344 96.414062 504.746094 96.382812 505.199219 96.351562 C 506.058594 96.300781 506.914062 96.269531 507.773438 96.214844 C 511.699219 95.964844 515.710938 95.136719 518.316406 91.914062 C 518.949219 91.03125 519.476562 90.085938 519.898438 89.085938 C 520.320312 88.082031 520.625 87.046875 520.816406 85.976562 C 521.003906 84.90625 521.074219 83.828125 521.023438 82.742188 C 520.972656 81.65625 520.804688 80.589844 520.515625 79.542969 C 520.382812 79.070312 520.164062 78.636719 519.859375 78.25 C 519.554688 77.863281 519.1875 77.550781 518.761719 77.304688 C 518.335938 77.0625 517.875 76.910156 517.390625 76.847656 C 516.902344 76.78125 516.417969 76.8125 515.945312 76.941406 C 515.472656 77.078125 515.046875 77.300781 514.660156 77.605469 C 514.277344 77.910156 513.964844 78.273438 513.722656 78.699219 C 513.480469 79.128906 513.324219 79.582031 513.257812 80.070312 C 513.195312 80.554688 513.222656 81.035156 513.34375 81.511719 C 513.597656 82.972656 513.578125 84.425781 513.277344 85.878906 C 513.148438 86.382812 512.914062 86.832031 512.574219 87.222656 C 512.230469 87.617188 511.820312 87.910156 511.335938 88.105469 C 511.300781 88.09375 510.484375 88.390625 510.371094 88.417969 C 510.0625 88.496094 509.753906 88.554688 509.441406 88.605469 C 509.457031 88.59375 508.660156 88.703125 508.542969 88.714844 C 508.089844 88.75 507.632812 88.777344 507.175781 88.804688 C 505.191406 88.871094 503.222656 89.050781 501.265625 89.351562 C 500.253906 89.535156 499.273438 89.824219 498.328125 90.222656 C 497.382812 90.621094 496.488281 91.117188 495.652344 91.714844 C 494.816406 92.3125 494.058594 92.992188 493.375 93.757812 C 492.691406 94.523438 492.097656 95.355469 491.601562 96.253906 C 490.589844 98.140625 490.054688 100.15625 490 102.296875 C 486.980469 102.296875 483.964844 102.285156 480.945312 102.335938 C 478.800781 102.359375 476.671875 102.550781 474.558594 102.917969 C 472.902344 103.230469 471.285156 103.664062 469.695312 104.222656 C 468.109375 104.777344 466.574219 105.453125 465.089844 106.242188 C 463.601562 107.035156 462.1875 107.933594 460.839844 108.941406 C 459.492188 109.949219 458.226562 111.050781 457.046875 112.25 C 455.867188 113.449219 454.785156 114.730469 453.800781 116.09375 C 452.816406 117.457031 451.9375 118.890625 451.171875 120.386719 C 450.40625 121.882812 449.757812 123.429688 449.222656 125.027344 C 448.691406 126.621094 448.285156 128.25 448 129.910156 C 446.609375 138.722656 445.40625 147.566406 444.207031 156.410156 C 444.015625 157.65625 443.964844 158.910156 444.058594 160.171875 C 444.152344 161.429688 444.382812 162.664062 444.757812 163.871094 C 445.132812 165.074219 445.636719 166.226562 446.273438 167.316406 C 446.910156 168.40625 447.660156 169.414062 448.527344 170.332031 C 449.007812 170.867188 449.515625 171.367188 450.058594 171.835938 C 450.597656 172.308594 451.167969 172.742188 451.761719 173.140625 C 452.355469 173.542969 452.972656 173.902344 453.613281 174.226562 C 454.253906 174.550781 454.910156 174.832031 455.585938 175.074219 C 456.257812 175.316406 456.945312 175.515625 457.644531 175.671875 C 458.34375 175.828125 459.050781 175.941406 459.765625 176.011719 C 460.476562 176.082031 461.191406 176.105469 461.910156 176.085938 C 462.625 176.066406 463.335938 176.003906 464.046875 175.894531 C 464.753906 175.789062 465.453125 175.636719 466.144531 175.445312 C 466.832031 175.25 467.507812 175.015625 468.167969 174.734375 C 468.828125 174.457031 469.472656 174.140625 470.09375 173.785156 C 470.714844 173.425781 471.3125 173.03125 471.882812 172.601562 C 472.457031 172.171875 473 171.707031 473.515625 171.207031 C 474.03125 170.710938 474.511719 170.179688 474.960938 169.625 C 475.410156 169.066406 475.824219 168.480469 476.203125 167.871094 C 476.578125 167.261719 476.917969 166.632812 477.21875 165.980469 C 479.0625 162.1875 480.980469 158.425781 482.851562 154.644531 C 482.9375 154.417969 483.082031 154.242188 483.289062 154.113281 C 483.492188 153.984375 483.714844 153.929688 483.957031 153.953125 C 491.761719 153.972656 499.570312 153.972656 507.375 153.953125 C 507.617188 153.925781 507.839844 153.972656 508.046875 154.097656 C 508.253906 154.226562 508.402344 154.402344 508.488281 154.628906 C 510.347656 158.382812 512.257812 162.109375 514.085938 165.878906 C 514.523438 166.847656 515.046875 167.769531 515.652344 168.640625 C 516.257812 169.515625 516.9375 170.324219 517.695312 171.070312 C 518.449219 171.820312 519.265625 172.492188 520.144531 173.089844 C 521.023438 173.6875 521.949219 174.199219 522.925781 174.625 C 523.898438 175.050781 524.902344 175.386719 525.9375 175.628906 C 526.96875 175.871094 528.019531 176.019531 529.082031 176.070312 C 530.140625 176.117188 531.199219 176.070312 532.253906 175.929688 C 533.304688 175.785156 534.335938 175.542969 535.34375 175.210938 C 536.28125 174.914062 537.1875 174.539062 538.0625 174.085938 C 538.933594 173.632812 539.761719 173.109375 540.542969 172.515625 C 541.328125 171.921875 542.054688 171.261719 542.722656 170.542969 C 543.394531 169.820312 543.996094 169.050781 544.53125 168.226562 C 545.070312 167.402344 545.53125 166.535156 545.917969 165.632812 C 546.304688 164.730469 546.613281 163.796875 546.839844 162.84375 C 547.066406 161.886719 547.210938 160.914062 547.273438 159.933594 C 547.332031 158.953125 547.308594 157.972656 547.199219 156.996094 Z M 484.578125 131.808594 L 477.226562 131.808594 L 477.226562 139.136719 L 469.929688 139.136719 L 469.929688 131.851562 L 462.496094 131.851562 C 462.496094 129.433594 462.480469 127.175781 462.53125 124.914062 C 462.53125 124.753906 463.007812 124.476562 463.273438 124.472656 C 465.097656 124.433594 466.921875 124.453125 468.746094 124.457031 L 469.859375 124.457031 L 469.859375 117.175781 L 477.191406 117.175781 L 477.191406 124.457031 C 479.433594 124.457031 481.511719 124.488281 483.582031 124.4375 C 484.386719 124.417969 484.628906 124.652344 484.605469 125.464844 C 484.535156 127.535156 484.578125 129.613281 484.578125 131.808594 Z M 517.84375 113.421875 C 518.167969 113.425781 518.484375 113.460938 518.800781 113.523438 C 519.117188 113.589844 519.421875 113.683594 519.71875 113.808594 C 520.015625 113.9375 520.296875 114.089844 520.5625 114.269531 C 520.828125 114.449219 521.074219 114.65625 521.300781 114.886719 C 521.523438 115.113281 521.726562 115.363281 521.902344 115.632812 C 522.078125 115.902344 522.226562 116.1875 522.347656 116.484375 C 522.46875 116.78125 522.558594 117.089844 522.617188 117.40625 C 522.675781 117.722656 522.707031 118.042969 522.703125 118.363281 C 522.699219 118.683594 522.664062 119.003906 522.597656 119.316406 C 522.53125 119.632812 522.4375 119.9375 522.308594 120.234375 C 522.183594 120.53125 522.03125 120.8125 521.847656 121.078125 C 521.667969 121.34375 521.460938 121.585938 521.230469 121.8125 C 521 122.039062 520.75 122.238281 520.480469 122.414062 C 520.210938 122.589844 519.925781 122.738281 519.628906 122.855469 C 519.332031 122.976562 519.023438 123.066406 518.707031 123.125 C 518.390625 123.183594 518.070312 123.210938 517.75 123.207031 C 517.425781 123.203125 517.109375 123.167969 516.792969 123.101562 C 516.480469 123.03125 516.175781 122.9375 515.878906 122.808594 C 515.582031 122.679688 515.304688 122.527344 515.039062 122.34375 C 514.773438 122.160156 514.527344 121.957031 514.304688 121.726562 C 514.078125 121.492188 513.878906 121.242188 513.707031 120.972656 C 513.53125 120.703125 513.382812 120.417969 513.265625 120.121094 C 513.144531 119.820312 513.058594 119.511719 513 119.195312 C 512.941406 118.878906 512.914062 118.5625 512.921875 118.238281 C 512.925781 117.917969 512.960938 117.605469 513.023438 117.292969 C 513.089844 116.980469 513.1875 116.675781 513.3125 116.382812 C 513.4375 116.089844 513.589844 115.8125 513.769531 115.546875 C 513.953125 115.285156 514.15625 115.042969 514.382812 114.820312 C 514.613281 114.59375 514.859375 114.398438 515.128906 114.222656 C 515.394531 114.046875 515.675781 113.902344 515.972656 113.78125 C 516.269531 113.664062 516.574219 113.574219 516.886719 113.515625 C 517.199219 113.457031 517.515625 113.429688 517.835938 113.429688 Z M 507.996094 133.039062 C 507.671875 133.042969 507.355469 133.011719 507.039062 132.949219 C 506.722656 132.886719 506.417969 132.796875 506.121094 132.675781 C 505.820312 132.554688 505.539062 132.402344 505.269531 132.226562 C 505.003906 132.046875 504.753906 131.847656 504.527344 131.621094 C 504.296875 131.394531 504.09375 131.144531 503.914062 130.878906 C 503.734375 130.613281 503.582031 130.332031 503.457031 130.035156 C 503.332031 129.738281 503.238281 129.433594 503.175781 129.117188 C 503.113281 128.800781 503.078125 128.484375 503.078125 128.160156 C 503.078125 127.839844 503.105469 127.519531 503.167969 127.207031 C 503.230469 126.890625 503.320312 126.582031 503.445312 126.285156 C 503.566406 125.988281 503.714844 125.707031 503.894531 125.4375 C 504.070312 125.167969 504.273438 124.921875 504.5 124.691406 C 504.726562 124.464844 504.972656 124.261719 505.238281 124.082031 C 505.507812 123.902344 505.789062 123.75 506.085938 123.625 C 506.382812 123.5 506.6875 123.40625 507.003906 123.34375 C 507.316406 123.28125 507.636719 123.246094 507.957031 123.246094 C 508.28125 123.246094 508.597656 123.273438 508.914062 123.335938 C 509.230469 123.398438 509.535156 123.488281 509.832031 123.613281 C 510.132812 123.734375 510.414062 123.882812 510.683594 124.0625 C 510.949219 124.238281 511.199219 124.441406 511.425781 124.667969 C 511.65625 124.894531 511.859375 125.140625 512.039062 125.410156 C 512.21875 125.675781 512.371094 125.957031 512.492188 126.253906 C 512.617188 126.550781 512.710938 126.855469 512.773438 127.171875 C 512.839844 127.488281 512.871094 127.804688 512.871094 128.128906 C 512.871094 128.449219 512.835938 128.765625 512.773438 129.078125 C 512.710938 129.394531 512.617188 129.699219 512.496094 129.996094 C 512.371094 130.292969 512.222656 130.574219 512.042969 130.839844 C 511.867188 131.105469 511.664062 131.351562 511.4375 131.582031 C 511.210938 131.808594 510.964844 132.011719 510.699219 132.191406 C 510.433594 132.371094 510.15625 132.523438 509.859375 132.648438 C 509.566406 132.773438 509.261719 132.871094 508.945312 132.933594 C 508.632812 133 508.316406 133.035156 507.996094 133.039062 Z M 517.84375 142.863281 C 517.523438 142.867188 517.207031 142.835938 516.890625 142.777344 C 516.574219 142.714844 516.265625 142.625 515.96875 142.503906 C 515.671875 142.382812 515.386719 142.234375 515.121094 142.054688 C 514.851562 141.878906 514.601562 141.679688 514.371094 141.453125 C 514.144531 141.226562 513.941406 140.980469 513.757812 140.714844 C 513.578125 140.449219 513.425781 140.167969 513.300781 139.871094 C 513.175781 139.574219 513.082031 139.269531 513.015625 138.953125 C 512.953125 138.640625 512.917969 138.320312 512.914062 138 C 512.914062 137.679688 512.941406 137.359375 513.003906 137.042969 C 513.0625 136.726562 513.15625 136.421875 513.277344 136.121094 C 513.398438 135.824219 513.546875 135.542969 513.722656 135.273438 C 513.898438 135.003906 514.101562 134.757812 514.328125 134.527344 C 514.554688 134.296875 514.800781 134.09375 515.066406 133.914062 C 515.332031 133.734375 515.613281 133.578125 515.910156 133.453125 C 516.203125 133.328125 516.511719 133.234375 516.824219 133.171875 C 517.140625 133.105469 517.457031 133.070312 517.78125 133.070312 C 518.101562 133.066406 518.421875 133.097656 518.734375 133.15625 C 519.050781 133.21875 519.359375 133.308594 519.65625 133.429688 C 519.953125 133.550781 520.238281 133.699219 520.507812 133.875 C 520.773438 134.054688 521.023438 134.253906 521.253906 134.480469 C 521.480469 134.707031 521.6875 134.953125 521.867188 135.21875 C 522.046875 135.484375 522.199219 135.765625 522.324219 136.0625 C 522.449219 136.359375 522.542969 136.664062 522.609375 136.980469 C 522.675781 137.292969 522.707031 137.613281 522.710938 137.933594 C 522.710938 138.253906 522.683594 138.574219 522.621094 138.890625 C 522.5625 139.207031 522.46875 139.511719 522.347656 139.8125 C 522.226562 140.109375 522.078125 140.390625 521.902344 140.660156 C 521.726562 140.929688 521.523438 141.175781 521.296875 141.40625 C 521.074219 141.636719 520.828125 141.839844 520.558594 142.019531 C 520.292969 142.199219 520.011719 142.355469 519.71875 142.480469 C 519.421875 142.605469 519.113281 142.699219 518.800781 142.761719 C 518.484375 142.828125 518.167969 142.863281 517.84375 142.863281 Z M 527.589844 133.039062 C 527.269531 133.039062 526.953125 133.003906 526.640625 132.9375 C 526.324219 132.875 526.019531 132.777344 525.726562 132.652344 C 525.429688 132.527344 525.148438 132.375 524.886719 132.195312 C 524.621094 132.015625 524.375 131.8125 524.148438 131.585938 C 523.921875 131.355469 523.722656 131.109375 523.546875 130.84375 C 523.371094 130.574219 523.21875 130.292969 523.097656 129.996094 C 522.976562 129.699219 522.886719 129.394531 522.824219 129.078125 C 522.765625 128.765625 522.734375 128.445312 522.734375 128.125 C 522.734375 127.804688 522.769531 127.488281 522.832031 127.171875 C 522.894531 126.859375 522.988281 126.554688 523.113281 126.257812 C 523.234375 125.960938 523.386719 125.679688 523.566406 125.414062 C 523.742188 125.148438 523.945312 124.902344 524.171875 124.675781 C 524.398438 124.449219 524.648438 124.246094 524.914062 124.070312 C 525.179688 123.890625 525.460938 123.742188 525.757812 123.617188 C 526.054688 123.496094 526.359375 123.402344 526.671875 123.339844 C 526.988281 123.277344 527.304688 123.246094 527.625 123.246094 C 527.945312 123.246094 528.265625 123.277344 528.578125 123.339844 C 528.894531 123.398438 529.199219 123.492188 529.496094 123.613281 C 529.792969 123.734375 530.074219 123.886719 530.339844 124.0625 C 530.605469 124.238281 530.855469 124.441406 531.082031 124.667969 C 531.308594 124.894531 531.511719 125.140625 531.691406 125.40625 C 531.871094 125.671875 532.023438 125.953125 532.148438 126.246094 C 532.269531 126.542969 532.367188 126.847656 532.429688 127.160156 C 532.496094 127.476562 532.527344 127.792969 532.527344 128.113281 C 532.53125 128.4375 532.5 128.757812 532.441406 129.078125 C 532.378906 129.394531 532.285156 129.707031 532.164062 130.003906 C 532.039062 130.304688 531.886719 130.589844 531.707031 130.859375 C 531.527344 131.132812 531.324219 131.378906 531.09375 131.609375 C 530.863281 131.839844 530.613281 132.042969 530.34375 132.222656 C 530.074219 132.402344 529.789062 132.554688 529.488281 132.675781 C 529.1875 132.800781 528.878906 132.890625 528.558594 132.953125 C 528.242188 133.011719 527.917969 133.042969 527.59375 133.039062 Z M 527.589844 133.039062 " fill-opacity="1" fill-rule="nonzero"/><path fill="#9b7ebd" d="M 228.347656 156.996094 C 227.339844 148.292969 225.929688 139.636719 224.664062 130.964844 C 224.523438 129.980469 224.34375 129 224.117188 128.03125 C 223.890625 127.0625 223.621094 126.105469 223.308594 125.15625 C 222.996094 124.210938 222.640625 123.28125 222.246094 122.367188 C 221.847656 121.453125 221.414062 120.558594 220.9375 119.683594 C 220.460938 118.808594 219.945312 117.957031 219.394531 117.128906 C 218.839844 116.300781 218.253906 115.5 217.628906 114.722656 C 217.003906 113.949219 216.34375 113.203125 215.652344 112.484375 C 214.960938 111.769531 214.238281 111.085938 213.484375 110.433594 C 212.734375 109.78125 211.953125 109.164062 211.144531 108.582031 C 210.335938 108 209.5 107.457031 208.644531 106.949219 C 207.785156 106.441406 206.910156 105.976562 206.007812 105.546875 C 205.109375 105.117188 204.191406 104.730469 203.257812 104.386719 C 202.324219 104.039062 201.378906 103.738281 200.414062 103.476562 C 199.453125 103.214844 198.484375 103 197.503906 102.824219 C 196.523438 102.652344 195.535156 102.523438 194.542969 102.4375 C 193.550781 102.351562 192.554688 102.3125 191.558594 102.316406 C 187.214844 102.316406 182.867188 102.316406 178.523438 102.316406 C 178.53125 102.085938 178.558594 101.855469 178.601562 101.628906 C 178.910156 100.25 179.585938 99.085938 180.628906 98.132812 C 181.132812 97.6875 181.695312 97.332031 182.3125 97.0625 C 182.542969 96.949219 182.550781 96.949219 182.332031 97.0625 C 182.574219 96.972656 182.816406 96.894531 183.066406 96.828125 C 183.4375 96.722656 183.808594 96.640625 184.195312 96.566406 C 184.320312 96.558594 184.445312 96.535156 184.566406 96.503906 C 184.699219 96.488281 184.832031 96.46875 184.960938 96.460938 C 185.421875 96.414062 185.890625 96.382812 186.34375 96.351562 C 187.203125 96.300781 188.0625 96.269531 188.917969 96.214844 C 192.847656 95.964844 196.855469 95.136719 199.464844 91.914062 C 200.097656 91.03125 200.621094 90.085938 201.042969 89.085938 C 201.464844 88.082031 201.773438 87.046875 201.960938 85.976562 C 202.152344 84.90625 202.222656 83.828125 202.171875 82.742188 C 202.121094 81.65625 201.953125 80.589844 201.664062 79.542969 C 201.527344 79.070312 201.308594 78.636719 201.003906 78.25 C 200.703125 77.863281 200.335938 77.550781 199.910156 77.304688 C 199.480469 77.0625 199.023438 76.910156 198.535156 76.847656 C 198.046875 76.78125 197.566406 76.8125 197.089844 76.941406 C 196.621094 77.078125 196.191406 77.300781 195.808594 77.605469 C 195.425781 77.910156 195.109375 78.273438 194.867188 78.699219 C 194.625 79.128906 194.472656 79.582031 194.40625 80.070312 C 194.339844 80.554688 194.367188 81.035156 194.488281 81.511719 C 194.746094 82.972656 194.722656 84.425781 194.425781 85.878906 C 194.296875 86.382812 194.0625 86.832031 193.71875 87.222656 C 193.378906 87.617188 192.964844 87.910156 192.484375 88.105469 C 192.449219 88.09375 191.632812 88.390625 191.515625 88.417969 C 191.207031 88.496094 190.902344 88.554688 190.589844 88.605469 C 190.601562 88.59375 189.808594 88.703125 189.691406 88.714844 C 189.234375 88.75 188.777344 88.777344 188.320312 88.804688 C 186.339844 88.871094 184.371094 89.050781 182.410156 89.351562 C 181.398438 89.535156 180.421875 89.824219 179.472656 90.222656 C 178.527344 90.621094 177.636719 91.117188 176.800781 91.714844 C 175.964844 92.3125 175.207031 92.992188 174.519531 93.757812 C 173.835938 94.523438 173.246094 95.355469 172.746094 96.253906 C 171.734375 98.140625 171.203125 100.15625 171.148438 102.296875 C 168.128906 102.296875 165.109375 102.285156 162.09375 102.335938 C 159.945312 102.359375 157.816406 102.550781 155.703125 102.917969 C 154.050781 103.230469 152.429688 103.664062 150.84375 104.222656 C 149.253906 104.777344 147.71875 105.453125 146.234375 106.242188 C 144.75 107.035156 143.332031 107.933594 141.984375 108.941406 C 140.636719 109.949219 139.375 111.050781 138.195312 112.25 C 137.015625 113.449219 135.933594 114.730469 134.945312 116.09375 C 133.960938 117.457031 133.085938 118.890625 132.320312 120.386719 C 131.550781 121.882812 130.902344 123.429688 130.371094 125.027344 C 129.839844 126.621094 129.433594 128.25 129.148438 129.910156 C 127.757812 138.722656 126.554688 147.566406 125.355469 156.410156 C 125.160156 157.65625 125.109375 158.910156 125.203125 160.171875 C 125.296875 161.429688 125.53125 162.664062 125.90625 163.871094 C 126.28125 165.074219 126.785156 166.226562 127.421875 167.316406 C 128.058594 168.40625 128.808594 169.414062 129.675781 170.332031 C 130.152344 170.867188 130.664062 171.367188 131.203125 171.835938 C 131.746094 172.308594 132.3125 172.742188 132.90625 173.140625 C 133.503906 173.542969 134.121094 173.902344 134.761719 174.226562 C 135.398438 174.550781 136.054688 174.832031 136.730469 175.074219 C 137.40625 175.316406 138.09375 175.515625 138.792969 175.671875 C 139.492188 175.828125 140.199219 175.941406 140.910156 176.011719 C 141.625 176.082031 142.339844 176.105469 143.054688 176.085938 C 143.773438 176.066406 144.484375 176.003906 145.191406 175.894531 C 145.902344 175.789062 146.601562 175.636719 147.289062 175.445312 C 147.980469 175.25 148.65625 175.015625 149.316406 174.734375 C 149.976562 174.457031 150.617188 174.140625 151.238281 173.785156 C 151.859375 173.425781 152.457031 173.03125 153.03125 172.601562 C 153.601562 172.171875 154.148438 171.707031 154.660156 171.207031 C 155.175781 170.710938 155.660156 170.179688 156.109375 169.625 C 156.558594 169.066406 156.972656 168.480469 157.347656 167.871094 C 157.726562 167.261719 158.066406 166.632812 158.363281 165.980469 C 160.210938 162.1875 162.128906 158.425781 164 154.644531 C 164.085938 154.417969 164.230469 154.242188 164.433594 154.113281 C 164.640625 153.984375 164.863281 153.929688 165.105469 153.953125 C 172.910156 153.972656 180.714844 153.972656 188.523438 153.953125 C 188.761719 153.925781 188.988281 153.972656 189.195312 154.097656 C 189.402344 154.226562 189.550781 154.402344 189.636719 154.628906 C 191.496094 158.382812 193.40625 162.109375 195.234375 165.878906 C 195.671875 166.847656 196.191406 167.769531 196.796875 168.640625 C 197.40625 169.515625 198.085938 170.324219 198.839844 171.070312 C 199.597656 171.820312 200.414062 172.492188 201.292969 173.089844 C 202.171875 173.6875 203.097656 174.199219 204.070312 174.625 C 205.042969 175.050781 206.046875 175.386719 207.082031 175.628906 C 208.117188 175.871094 209.164062 176.019531 210.226562 176.070312 C 211.289062 176.117188 212.347656 176.070312 213.398438 175.929688 C 214.453125 175.785156 215.484375 175.542969 216.492188 175.210938 C 217.429688 174.914062 218.335938 174.539062 219.207031 174.085938 C 220.082031 173.632812 220.910156 173.109375 221.691406 172.515625 C 222.476562 171.921875 223.199219 171.261719 223.871094 170.542969 C 224.539062 169.820312 225.144531 169.050781 225.679688 168.226562 C 226.214844 167.402344 226.679688 166.535156 227.066406 165.632812 C 227.453125 164.730469 227.761719 163.796875 227.988281 162.84375 C 228.214844 161.886719 228.359375 160.914062 228.417969 159.933594 C 228.480469 158.953125 228.457031 157.972656 228.347656 156.996094 Z M 165.726562 131.808594 L 158.375 131.808594 L 158.375 139.136719 L 151.078125 139.136719 L 151.078125 131.851562 L 143.644531 131.851562 C 143.644531 129.433594 143.628906 127.175781 143.675781 124.914062 C 143.675781 124.753906 144.15625 124.476562 144.417969 124.472656 C 146.242188 124.433594 148.066406 124.453125 149.890625 124.457031 L 151.007812 124.457031 L 151.007812 117.175781 L 158.339844 117.175781 L 158.339844 124.457031 C 160.582031 124.457031 162.65625 124.488281 164.730469 124.4375 C 165.53125 124.417969 165.777344 124.652344 165.75 125.464844 C 165.683594 127.535156 165.726562 129.613281 165.726562 131.808594 Z M 198.992188 113.421875 C 199.3125 113.425781 199.632812 113.460938 199.949219 113.523438 C 200.261719 113.589844 200.570312 113.683594 200.863281 113.808594 C 201.160156 113.9375 201.441406 114.089844 201.707031 114.269531 C 201.972656 114.449219 202.21875 114.65625 202.445312 114.886719 C 202.671875 115.113281 202.871094 115.363281 203.050781 115.632812 C 203.226562 115.902344 203.375 116.1875 203.496094 116.484375 C 203.613281 116.78125 203.703125 117.089844 203.765625 117.40625 C 203.824219 117.722656 203.851562 118.042969 203.847656 118.363281 C 203.847656 118.683594 203.8125 119.003906 203.746094 119.316406 C 203.679688 119.632812 203.582031 119.9375 203.457031 120.234375 C 203.332031 120.53125 203.175781 120.8125 202.996094 121.078125 C 202.8125 121.34375 202.609375 121.585938 202.378906 121.8125 C 202.148438 122.039062 201.898438 122.238281 201.628906 122.414062 C 201.359375 122.589844 201.074219 122.738281 200.777344 122.855469 C 200.476562 122.976562 200.167969 123.066406 199.851562 123.125 C 199.535156 123.183594 199.21875 123.210938 198.894531 123.207031 C 198.574219 123.203125 198.257812 123.167969 197.941406 123.101562 C 197.625 123.03125 197.320312 122.9375 197.027344 122.808594 C 196.730469 122.679688 196.449219 122.527344 196.183594 122.34375 C 195.917969 122.160156 195.675781 121.957031 195.449219 121.726562 C 195.226562 121.492188 195.027344 121.242188 194.851562 120.972656 C 194.675781 120.703125 194.53125 120.417969 194.410156 120.121094 C 194.292969 119.820312 194.203125 119.511719 194.148438 119.195312 C 194.089844 118.878906 194.0625 118.5625 194.066406 118.238281 C 194.070312 117.917969 194.105469 117.605469 194.171875 117.292969 C 194.238281 116.980469 194.332031 116.675781 194.460938 116.382812 C 194.585938 116.089844 194.738281 115.8125 194.917969 115.546875 C 195.097656 115.285156 195.304688 115.042969 195.53125 114.820312 C 195.757812 114.59375 196.007812 114.398438 196.273438 114.222656 C 196.542969 114.046875 196.824219 113.902344 197.121094 113.78125 C 197.414062 113.664062 197.71875 113.574219 198.035156 113.515625 C 198.347656 113.457031 198.664062 113.429688 198.984375 113.429688 Z M 189.140625 133.039062 C 188.820312 133.042969 188.503906 133.011719 188.1875 132.949219 C 187.871094 132.886719 187.5625 132.796875 187.265625 132.675781 C 186.96875 132.554688 186.6875 132.402344 186.417969 132.226562 C 186.148438 132.046875 185.902344 131.847656 185.671875 131.621094 C 185.445312 131.394531 185.242188 131.144531 185.0625 130.878906 C 184.882812 130.613281 184.730469 130.332031 184.605469 130.035156 C 184.480469 129.738281 184.386719 129.433594 184.324219 129.117188 C 184.257812 128.800781 184.226562 128.484375 184.226562 128.160156 C 184.222656 127.839844 184.253906 127.519531 184.316406 127.207031 C 184.375 126.890625 184.46875 126.582031 184.589844 126.285156 C 184.710938 125.988281 184.863281 125.707031 185.039062 125.4375 C 185.21875 125.167969 185.421875 124.921875 185.648438 124.691406 C 185.875 124.464844 186.121094 124.261719 186.386719 124.082031 C 186.652344 123.902344 186.933594 123.75 187.230469 123.625 C 187.527344 123.5 187.835938 123.40625 188.148438 123.34375 C 188.464844 123.28125 188.785156 123.246094 189.105469 123.246094 C 189.425781 123.246094 189.746094 123.273438 190.0625 123.335938 C 190.375 123.398438 190.683594 123.488281 190.980469 123.613281 C 191.277344 123.734375 191.5625 123.882812 191.828125 124.0625 C 192.097656 124.238281 192.34375 124.441406 192.574219 124.667969 C 192.800781 124.894531 193.003906 125.140625 193.183594 125.410156 C 193.363281 125.675781 193.515625 125.957031 193.640625 126.253906 C 193.765625 126.550781 193.859375 126.855469 193.921875 127.171875 C 193.984375 127.488281 194.019531 127.804688 194.019531 128.128906 C 194.015625 128.449219 193.984375 128.765625 193.921875 129.078125 C 193.855469 129.394531 193.765625 129.699219 193.640625 129.996094 C 193.519531 130.292969 193.367188 130.574219 193.191406 130.839844 C 193.011719 131.105469 192.8125 131.351562 192.585938 131.582031 C 192.359375 131.808594 192.113281 132.011719 191.847656 132.191406 C 191.582031 132.371094 191.300781 132.523438 191.007812 132.648438 C 190.710938 132.773438 190.40625 132.871094 190.09375 132.933594 C 189.78125 133 189.460938 133.035156 189.140625 133.039062 Z M 198.992188 142.863281 C 198.671875 142.867188 198.351562 142.835938 198.035156 142.777344 C 197.71875 142.714844 197.414062 142.625 197.117188 142.503906 C 196.816406 142.382812 196.535156 142.234375 196.265625 142.054688 C 195.996094 141.878906 195.75 141.679688 195.519531 141.453125 C 195.292969 141.226562 195.085938 140.980469 194.90625 140.714844 C 194.726562 140.449219 194.574219 140.167969 194.449219 139.871094 C 194.324219 139.574219 194.226562 139.269531 194.164062 138.953125 C 194.097656 138.640625 194.066406 138.320312 194.0625 138 C 194.058594 137.679688 194.089844 137.359375 194.152344 137.042969 C 194.210938 136.726562 194.300781 136.421875 194.421875 136.121094 C 194.542969 135.824219 194.691406 135.542969 194.871094 135.273438 C 195.046875 135.003906 195.25 134.757812 195.472656 134.527344 C 195.699219 134.296875 195.945312 134.09375 196.210938 133.914062 C 196.476562 133.734375 196.757812 133.578125 197.054688 133.453125 C 197.351562 133.328125 197.65625 133.234375 197.972656 133.171875 C 198.289062 133.105469 198.605469 133.070312 198.925781 133.070312 C 199.25 133.066406 199.566406 133.097656 199.882812 133.15625 C 200.199219 133.21875 200.507812 133.308594 200.804688 133.429688 C 201.101562 133.550781 201.386719 133.699219 201.652344 133.875 C 201.921875 134.054688 202.171875 134.253906 202.398438 134.480469 C 202.628906 134.707031 202.832031 134.953125 203.011719 135.21875 C 203.195312 135.484375 203.347656 135.765625 203.472656 136.0625 C 203.597656 136.359375 203.691406 136.664062 203.757812 136.980469 C 203.820312 137.292969 203.855469 137.613281 203.855469 137.933594 C 203.859375 138.253906 203.828125 138.574219 203.769531 138.890625 C 203.707031 139.207031 203.617188 139.511719 203.496094 139.8125 C 203.375 140.109375 203.226562 140.390625 203.050781 140.660156 C 202.871094 140.929688 202.671875 141.175781 202.445312 141.40625 C 202.21875 141.636719 201.972656 141.839844 201.707031 142.019531 C 201.441406 142.199219 201.160156 142.355469 200.863281 142.480469 C 200.566406 142.605469 200.261719 142.699219 199.945312 142.761719 C 199.632812 142.828125 199.3125 142.863281 198.992188 142.863281 Z M 208.738281 133.039062 C 208.417969 133.039062 208.101562 133.003906 207.785156 132.9375 C 207.472656 132.875 207.167969 132.777344 206.871094 132.652344 C 206.578125 132.527344 206.296875 132.375 206.03125 132.195312 C 205.765625 132.015625 205.519531 131.8125 205.296875 131.585938 C 205.070312 131.355469 204.871094 131.109375 204.691406 130.84375 C 204.515625 130.574219 204.367188 130.292969 204.246094 129.996094 C 204.125 129.699219 204.035156 129.394531 203.972656 129.078125 C 203.910156 128.765625 203.882812 128.445312 203.882812 128.125 C 203.882812 127.804688 203.914062 127.488281 203.980469 127.171875 C 204.042969 126.859375 204.136719 126.554688 204.257812 126.257812 C 204.382812 125.960938 204.535156 125.679688 204.710938 125.414062 C 204.890625 125.148438 205.09375 124.902344 205.320312 124.675781 C 205.546875 124.449219 205.792969 124.246094 206.0625 124.070312 C 206.328125 123.890625 206.609375 123.742188 206.90625 123.617188 C 207.199219 123.496094 207.507812 123.402344 207.820312 123.339844 C 208.136719 123.277344 208.453125 123.246094 208.773438 123.246094 C 209.09375 123.246094 209.410156 123.277344 209.726562 123.339844 C 210.039062 123.398438 210.34375 123.492188 210.640625 123.613281 C 210.9375 123.734375 211.21875 123.886719 211.488281 124.0625 C 211.753906 124.238281 212 124.441406 212.230469 124.667969 C 212.457031 124.894531 212.660156 125.140625 212.839844 125.40625 C 213.019531 125.671875 213.171875 125.953125 213.292969 126.246094 C 213.417969 126.542969 213.511719 126.847656 213.578125 127.160156 C 213.640625 127.476562 213.675781 127.792969 213.675781 128.113281 C 213.679688 128.4375 213.648438 128.757812 213.585938 129.078125 C 213.527344 129.394531 213.433594 129.707031 213.308594 130.003906 C 213.1875 130.304688 213.035156 130.589844 212.855469 130.859375 C 212.675781 131.132812 212.46875 131.378906 212.242188 131.609375 C 212.011719 131.839844 211.761719 132.042969 211.492188 132.222656 C 211.222656 132.402344 210.933594 132.554688 210.636719 132.675781 C 210.335938 132.800781 210.023438 132.890625 209.707031 132.953125 C 209.386719 133.011719 209.066406 133.042969 208.742188 133.039062 Z M 208.738281 133.039062 " fill-opacity="1" fill-rule="nonzero"/></svg>