<svg xmlns="http://www.w3.org/2000/svg" xmlns:xlink="http://www.w3.org/1999/xlink" width="1024" zoomAndPan="magnify" viewBox="0 0 768 236.249991" height="315" preserveAspectRatio="xMidYMid meet" version="1.0"><defs><g/><clipPath id="f66a7ae13a"><path d="M 1.214844 28 L 766.785156 28 L 766.785156 222 L 1.214844 222 Z M 1.214844 28 " clip-rule="nonzero"/></clipPath><clipPath id="52f84466f6"><path d="M 631.917969 79.410156 L 694.523438 79.410156 L 694.523438 153.328125 L 631.917969 153.328125 Z M 631.917969 79.410156 " clip-rule="nonzero"/></clipPath><clipPath id="f0e08b5e3a"><path d="M 38.609375 21.449219 L 96.851562 21.449219 L 96.851562 68.78125 L 38.609375 68.78125 Z M 38.609375 21.449219 " clip-rule="nonzero"/></clipPath><clipPath id="938697814a"><path d="M 51.320312 21.449219 L 84.027344 21.449219 C 87.398438 21.449219 90.628906 22.789062 93.011719 25.171875 C 95.398438 27.554688 96.734375 30.789062 96.734375 34.160156 L 96.734375 56.074219 C 96.734375 59.445312 95.398438 62.675781 93.011719 65.058594 C 90.628906 67.445312 87.398438 68.78125 84.027344 68.78125 L 51.320312 68.78125 C 47.949219 68.78125 44.714844 67.445312 42.332031 65.058594 C 39.949219 62.675781 38.609375 59.445312 38.609375 56.074219 L 38.609375 34.160156 C 38.609375 30.789062 39.949219 27.554688 42.332031 25.171875 C 44.714844 22.789062 47.949219 21.449219 51.320312 21.449219 Z M 51.320312 21.449219 " clip-rule="nonzero"/></clipPath><clipPath id="e6441bcd45"><path d="M 0.609375 0.449219 L 58.851562 0.449219 L 58.851562 47.78125 L 0.609375 47.78125 Z M 0.609375 0.449219 " clip-rule="nonzero"/></clipPath><clipPath id="6d5ed253b9"><path d="M 13.320312 0.449219 L 46.027344 0.449219 C 49.398438 0.449219 52.628906 1.789062 55.011719 4.171875 C 57.398438 6.554688 58.734375 9.789062 58.734375 13.160156 L 58.734375 35.074219 C 58.734375 38.445312 57.398438 41.675781 55.011719 44.058594 C 52.628906 46.445312 49.398438 47.78125 46.027344 47.78125 L 13.320312 47.78125 C 9.949219 47.78125 6.714844 46.445312 4.332031 44.058594 C 1.949219 41.675781 0.609375 38.445312 0.609375 35.074219 L 0.609375 13.160156 C 0.609375 9.789062 1.949219 6.554688 4.332031 4.171875 C 6.714844 1.789062 9.949219 0.449219 13.320312 0.449219 Z M 13.320312 0.449219 " clip-rule="nonzero"/></clipPath><clipPath id="dc47660000"><rect x="0" width="59" y="0" height="48"/></clipPath><clipPath id="b39aa07964"><path d="M 0.214844 0.46875 L 135.230469 0.46875 L 135.230469 73.511719 L 0.214844 73.511719 Z M 0.214844 0.46875 " clip-rule="nonzero"/></clipPath><clipPath id="2a97cab8ed"><rect x="0" width="766" y="0" height="194"/></clipPath></defs><g clip-path="url(#f66a7ae13a)"><g transform="matrix(1, 0, 0, 1, 1, 28)"><g clip-path="url(#2a97cab8ed)"><g clip-path="url(#52f84466f6)"><path fill="#5b2e35" d="M 689.75 103.859375 C 689.539062 103.421875 689.058594 103.183594 688.578125 103.289062 L 683.730469 104.367188 C 683.835938 103.574219 683.765625 102.765625 683.527344 102 L 690.644531 101.25 L 692.304688 109.253906 Z M 660.929688 79.402344 L 659.898438 79.402344 C 658.082031 79.523438 656.300781 80.277344 654.914062 81.660156 C 653.167969 83.410156 652.429688 85.792969 652.699219 88.078125 L 640.234375 98.367188 C 638.058594 98.464844 636.03125 99.355469 634.480469 100.902344 C 632.839844 102.546875 631.933594 104.730469 631.933594 107.050781 C 631.933594 109.375 632.839844 111.558594 634.480469 113.199219 C 635.714844 114.4375 637.257812 115.253906 638.945312 115.582031 L 649.527344 138.765625 C 649.527344 138.839844 649.519531 138.914062 649.519531 138.988281 L 649.519531 146.0625 L 646.601562 146.0625 C 645.238281 146.0625 644.128906 147.171875 644.128906 148.53125 L 644.128906 150.589844 C 644.128906 151.949219 645.238281 153.058594 646.601562 153.058594 L 669.820312 153.058594 C 671.183594 153.058594 672.292969 151.949219 672.292969 150.589844 L 672.292969 148.53125 C 672.292969 147.171875 671.183594 146.0625 669.820312 146.0625 L 666.902344 146.0625 L 666.902344 138.988281 C 666.902344 136.765625 666.058594 134.738281 664.691406 133.199219 L 648.578125 110.582031 C 649.0625 109.484375 649.324219 108.289062 649.324219 107.050781 C 649.324219 106.984375 649.324219 106.921875 649.324219 106.859375 L 659.238281 94.84375 C 659.625 94.902344 660.023438 94.933594 660.417969 94.933594 C 661.097656 94.933594 661.777344 94.84375 662.4375 94.667969 L 672.949219 103.34375 C 672.945312 103.441406 672.9375 103.542969 672.9375 103.640625 C 672.9375 105.089844 673.503906 106.449219 674.53125 107.476562 C 674.59375 107.542969 674.664062 107.609375 674.734375 107.671875 L 673.800781 116.648438 C 673.746094 117.179688 674.101562 117.667969 674.621094 117.777344 L 685.359375 120.007812 C 685.429688 120.019531 685.5 120.027344 685.578125 120.027344 C 685.851562 120.027344 686.117188 119.921875 686.3125 119.722656 L 687.527344 118.503906 C 687.773438 118.265625 687.878906 117.921875 687.820312 117.585938 C 687.765625 117.253906 687.546875 116.96875 687.238281 116.820312 L 680.230469 113.5 L 681.421875 108.113281 C 681.695312 107.925781 681.953125 107.714844 682.195312 107.472656 C 682.433594 107.234375 682.648438 106.976562 682.832031 106.703125 L 688.222656 105.507812 L 691.542969 112.519531 C 691.6875 112.824219 691.976562 113.042969 692.304688 113.101562 C 692.367188 113.109375 692.425781 113.117188 692.488281 113.117188 C 692.761719 113.117188 693.027344 113.007812 693.226562 112.808594 L 694.4375 111.589844 C 694.691406 111.34375 694.796875 110.984375 694.726562 110.640625 L 692.496094 99.902344 C 692.390625 99.378906 691.898438 99.019531 691.367188 99.078125 L 682.390625 100.015625 C 682.328125 99.945312 682.261719 99.875 682.191406 99.808594 C 681.0625 98.675781 679.546875 98.152344 678.066406 98.230469 L 668.128906 86.191406 C 667.917969 84.535156 667.183594 82.929688 665.914062 81.660156 C 664.527344 80.277344 662.746094 79.523438 660.929688 79.402344 Z M 680.71875 106 C 680.089844 106.628906 679.253906 106.972656 678.363281 106.972656 C 677.46875 106.972656 676.636719 106.628906 676.003906 106 C 675.371094 105.367188 675.027344 104.53125 675.027344 103.640625 C 675.027344 102.75 675.371094 101.914062 676.003906 101.285156 C 676.65625 100.632812 677.503906 100.308594 678.363281 100.308594 C 679.21875 100.308594 680.066406 100.632812 680.71875 101.285156 C 682.019531 102.582031 682.019531 104.699219 680.71875 106 Z M 678.578125 115.03125 C 678.136719 114.824219 677.90625 114.335938 678.011719 113.863281 L 679.085938 109.011719 C 678.847656 109.042969 678.609375 109.0625 678.363281 109.0625 C 677.792969 109.0625 677.238281 108.976562 676.71875 108.808594 L 675.96875 115.925781 L 683.976562 117.585938 Z M 664.578125 93.726562 C 665.054688 93.425781 665.503906 93.074219 665.914062 92.660156 C 666.910156 91.671875 667.570312 90.476562 667.914062 89.214844 L 675.855469 98.832031 C 675.378906 99.082031 674.929688 99.40625 674.53125 99.808594 C 674.128906 100.203125 673.808594 100.652344 673.554688 101.132812 Z M 656.390625 91.183594 C 654.171875 88.964844 654.171875 85.355469 656.390625 83.136719 C 657.5 82.027344 658.957031 81.472656 660.417969 81.472656 C 661.871094 81.472656 663.328125 82.027344 664.4375 83.136719 C 666.65625 85.355469 666.65625 88.964844 664.4375 91.183594 C 662.222656 93.402344 658.613281 93.402344 656.390625 91.183594 Z M 648.832031 104.164062 C 648.410156 102.953125 647.714844 101.839844 646.773438 100.902344 C 645.738281 99.859375 644.472656 99.117188 643.089844 98.710938 L 653.292969 90.289062 C 653.671875 91.148438 654.214844 91.957031 654.914062 92.660156 C 655.5625 93.304688 656.292969 93.8125 657.078125 94.183594 Z M 660.226562 130.535156 C 659.574219 130.378906 658.902344 130.296875 658.214844 130.296875 C 654.691406 130.296875 651.660156 132.398438 650.289062 135.414062 L 641.300781 115.71875 C 643.371094 115.5625 645.292969 114.683594 646.773438 113.199219 C 646.992188 112.980469 647.203125 112.753906 647.394531 112.515625 Z M 664.8125 146.0625 L 651.609375 146.0625 L 651.609375 138.988281 C 651.609375 135.347656 654.570312 132.382812 658.214844 132.382812 C 661.847656 132.382812 664.8125 135.347656 664.8125 138.988281 Z M 670.199219 148.53125 L 670.199219 150.589844 C 670.199219 150.796875 670.03125 150.96875 669.820312 150.96875 L 646.601562 150.96875 C 646.390625 150.96875 646.214844 150.796875 646.214844 150.589844 L 646.214844 148.53125 C 646.214844 148.324219 646.390625 148.152344 646.601562 148.152344 L 669.820312 148.152344 C 670.03125 148.152344 670.199219 148.324219 670.199219 148.53125 Z M 635.953125 102.378906 C 637.203125 101.132812 638.867188 100.445312 640.628906 100.445312 C 642.394531 100.445312 644.050781 101.132812 645.300781 102.378906 C 647.878906 104.957031 647.878906 109.148438 645.300781 111.722656 C 644.050781 112.972656 642.394531 113.65625 640.628906 113.65625 C 638.867188 113.65625 637.203125 112.972656 635.953125 111.722656 C 633.378906 109.148438 633.378906 104.957031 635.953125 102.378906 Z M 638.109375 107.050781 C 638.109375 106.378906 638.375 105.746094 638.84375 105.269531 C 639.324219 104.792969 639.953125 104.53125 640.628906 104.53125 C 641.300781 104.53125 641.933594 104.792969 642.410156 105.269531 C 642.886719 105.746094 643.148438 106.378906 643.148438 107.050781 C 643.148438 107.722656 642.886719 108.355469 642.410156 108.832031 C 641.933594 109.308594 641.300781 109.570312 640.628906 109.570312 C 639.953125 109.570312 639.324219 109.308594 638.84375 108.832031 C 638.375 108.355469 638.109375 107.722656 638.109375 107.050781 Z M 643.882812 110.308594 C 642.984375 111.207031 641.808594 111.65625 640.628906 111.65625 C 639.449219 111.65625 638.269531 111.207031 637.371094 110.308594 C 635.574219 108.511719 635.574219 105.589844 637.371094 103.792969 C 639.167969 101.996094 642.085938 101.996094 643.882812 103.792969 C 645.679688 105.589844 645.679688 108.511719 643.882812 110.308594 Z M 661.890625 88.640625 C 661.5 89.035156 660.972656 89.253906 660.417969 89.253906 C 659.855469 89.253906 659.328125 89.035156 658.9375 88.640625 C 658.542969 88.246094 658.324219 87.71875 658.324219 87.160156 C 658.324219 86.601562 658.542969 86.078125 658.9375 85.679688 C 659.328125 85.285156 659.855469 85.070312 660.417969 85.070312 C 660.972656 85.070312 661.5 85.285156 661.890625 85.679688 C 662.292969 86.078125 662.507812 86.601562 662.507812 87.160156 C 662.507812 87.71875 662.292969 88.246094 661.890625 88.640625 Z M 663.371094 84.207031 C 664.15625 84.996094 664.59375 86.042969 664.59375 87.160156 C 664.59375 88.277344 664.15625 89.328125 663.371094 90.117188 C 662.578125 90.90625 661.535156 91.339844 660.417969 91.339844 C 659.300781 91.339844 658.25 90.90625 657.464844 90.117188 C 656.671875 89.328125 656.234375 88.277344 656.234375 87.160156 C 656.234375 86.042969 656.671875 84.996094 657.464844 84.207031 C 658.25 83.417969 659.300781 82.980469 660.417969 82.980469 C 661.535156 82.980469 662.578125 83.417969 663.371094 84.207031 Z M 658.214844 141.65625 C 656.742188 141.65625 655.546875 140.457031 655.546875 138.988281 C 655.546875 137.515625 656.742188 136.320312 658.214844 136.320312 C 659.679688 136.320312 660.878906 137.515625 660.878906 138.988281 C 660.878906 140.457031 659.679688 141.65625 658.214844 141.65625 Z M 658.214844 134.234375 C 660.832031 134.234375 662.964844 136.367188 662.964844 138.988281 C 662.964844 141.609375 660.832031 143.742188 658.214844 143.742188 C 655.589844 143.742188 653.457031 141.609375 653.457031 138.988281 C 653.457031 136.367188 655.589844 134.234375 658.214844 134.234375 Z M 658.214844 134.234375 " fill-opacity="1" fill-rule="evenodd"/></g><g fill="#5b2e35" fill-opacity="1"><g transform="translate(52.119962, 150.916487)"><g/></g></g><g fill="#5b2e35" fill-opacity="1"><g transform="translate(84.706645, 150.916487)"><g><path d="M 61.515625 -19.0625 C 61.515625 -17.4375 61.445312 -15.316406 61.3125 -12.703125 C 61.175781 -10.085938 60.789062 -7.539062 60.15625 -5.0625 C 59.53125 -2.59375 58.539062 -0.457031 57.1875 1.34375 C 55.832031 3.15625 53.941406 4.0625 51.515625 4.0625 C 48.171875 4.0625 45.597656 2.976562 43.796875 0.8125 C 41.992188 -1.351562 41.140625 -4.054688 41.234375 -7.296875 C 38.347656 -4.773438 35.078125 -2.789062 31.421875 -1.34375 C 27.773438 0.0898438 24.0625 0.8125 20.28125 0.8125 C 17.664062 0.8125 15.1875 0.179688 12.84375 -1.078125 C 10.5 -2.335938 8.425781 -3.957031 6.625 -5.9375 C 4.820312 -7.925781 3.378906 -10.160156 2.296875 -12.640625 C 1.210938 -15.117188 0.671875 -17.578125 0.671875 -20.015625 C 0.671875 -24.335938 2 -28.117188 4.65625 -31.359375 C 7.320312 -34.609375 10.59375 -37.378906 14.46875 -39.671875 C 18.34375 -41.972656 22.460938 -43.800781 26.828125 -45.15625 C 31.203125 -46.507812 35.101562 -47.410156 38.53125 -47.859375 C 38.53125 -48.304688 38.550781 -48.707031 38.59375 -49.0625 C 38.644531 -49.425781 38.671875 -49.835938 38.671875 -50.296875 C 38.671875 -53.085938 37.898438 -55.335938 36.359375 -57.046875 C 34.828125 -58.765625 32.664062 -59.625 29.875 -59.625 C 27.625 -59.625 25.6875 -59.238281 24.0625 -58.46875 C 22.4375 -57.707031 20.90625 -56.851562 19.46875 -55.90625 C 18.03125 -54.957031 16.585938 -54.097656 15.140625 -53.328125 C 13.703125 -52.566406 12.082031 -52.1875 10.28125 -52.1875 C 8.289062 -52.1875 6.597656 -52.816406 5.203125 -54.078125 C 3.804688 -55.335938 3.109375 -56.957031 3.109375 -58.9375 C 3.109375 -61.914062 3.984375 -64.617188 5.734375 -67.046875 C 7.492188 -69.484375 9.703125 -71.535156 12.359375 -73.203125 C 15.023438 -74.867188 17.910156 -76.175781 21.015625 -77.125 C 24.128906 -78.070312 26.992188 -78.546875 29.609375 -78.546875 C 32.035156 -78.546875 34.46875 -78.253906 36.90625 -77.671875 C 39.34375 -77.085938 41.640625 -76.1875 43.796875 -74.96875 C 45.960938 -73.75 47.921875 -72.257812 49.671875 -70.5 C 51.429688 -68.738281 52.851562 -66.691406 53.9375 -64.359375 C 55.5625 -61.015625 56.867188 -57.472656 57.859375 -53.734375 C 58.847656 -49.992188 59.613281 -46.160156 60.15625 -42.234375 C 60.695312 -38.316406 61.054688 -34.398438 61.234375 -30.484375 C 61.421875 -26.566406 61.515625 -22.757812 61.515625 -19.0625 Z M 39.875 -23.390625 L 39.46875 -32.578125 C 39.289062 -32.578125 39.113281 -32.597656 38.9375 -32.640625 C 38.757812 -32.691406 38.578125 -32.71875 38.390625 -32.71875 C 37.222656 -32.71875 35.757812 -32.421875 34 -31.828125 C 32.238281 -31.242188 30.546875 -30.429688 28.921875 -29.390625 C 27.304688 -28.359375 25.9375 -27.210938 24.8125 -25.953125 C 23.6875 -24.691406 23.125 -23.382812 23.125 -22.03125 C 23.125 -20.769531 23.570312 -19.914062 24.46875 -19.46875 C 25.375 -19.019531 26.410156 -18.796875 27.578125 -18.796875 C 29.554688 -18.796875 31.671875 -19.3125 33.921875 -20.34375 C 36.179688 -21.382812 38.164062 -22.398438 39.875 -23.390625 Z M 39.875 -23.390625 "/></g></g></g><g fill="#5b2e35" fill-opacity="1"><g transform="translate(150.266779, 150.916487)"><g><path d="M 42.453125 3.78125 C 40.921875 3.78125 39.703125 3.082031 38.796875 1.6875 C 37.898438 0.289062 37.222656 -1.304688 36.765625 -3.109375 C 36.316406 -4.910156 36.023438 -6.734375 35.890625 -8.578125 C 35.753906 -10.429688 35.6875 -11.851562 35.6875 -12.84375 C 35.6875 -15.550781 35.84375 -18.253906 36.15625 -20.953125 C 36.476562 -23.660156 36.84375 -26.363281 37.25 -29.0625 C 37.65625 -31.769531 38.015625 -34.472656 38.328125 -37.171875 C 38.640625 -39.878906 38.796875 -42.585938 38.796875 -45.296875 C 38.796875 -46.367188 38.75 -47.535156 38.65625 -48.796875 C 38.570312 -50.066406 38.367188 -51.265625 38.046875 -52.390625 C 37.734375 -53.515625 37.21875 -54.4375 36.5 -55.15625 C 35.78125 -55.875 34.832031 -56.234375 33.65625 -56.234375 C 32.851562 -56.234375 31.953125 -55.578125 30.953125 -54.265625 C 29.960938 -52.960938 29.039062 -51.476562 28.1875 -49.8125 C 27.332031 -48.144531 26.609375 -46.476562 26.015625 -44.8125 C 25.429688 -43.144531 25.140625 -41.90625 25.140625 -41.09375 C 25.140625 -39.113281 25.160156 -37.109375 25.203125 -35.078125 C 25.253906 -33.054688 25.28125 -31.007812 25.28125 -28.9375 L 25.28125 -21.09375 C 25.1875 -19.46875 25.050781 -17.796875 24.875 -16.078125 C 24.695312 -14.367188 24.425781 -12.703125 24.0625 -11.078125 C 23.789062 -9.460938 23.382812 -7.910156 22.84375 -6.421875 C 22.300781 -4.929688 21.601562 -3.625 20.75 -2.5 C 19.894531 -1.375 18.878906 -0.449219 17.703125 0.265625 C 16.535156 0.992188 15.140625 1.359375 13.515625 1.359375 C 11.710938 1.359375 10.222656 0.773438 9.046875 -0.390625 C 7.878906 -1.566406 6.9375 -3.078125 6.21875 -4.921875 C 5.5 -6.773438 4.976562 -8.847656 4.65625 -11.140625 C 4.34375 -13.441406 4.117188 -15.695312 3.984375 -17.90625 C 3.847656 -20.113281 3.800781 -22.140625 3.84375 -23.984375 C 3.894531 -25.835938 3.921875 -27.304688 3.921875 -28.390625 L 3.921875 -34.75 C 3.921875 -38.164062 3.851562 -41.539062 3.71875 -44.875 C 3.582031 -48.21875 3.515625 -51.554688 3.515625 -54.890625 C 3.515625 -56.691406 3.535156 -58.988281 3.578125 -61.78125 C 3.628906 -64.570312 3.96875 -67.296875 4.59375 -69.953125 C 5.226562 -72.617188 6.265625 -74.894531 7.703125 -76.78125 C 9.148438 -78.675781 11.269531 -79.625 14.0625 -79.625 C 15.320312 -79.625 16.445312 -79.21875 17.4375 -78.40625 C 18.425781 -77.59375 19.300781 -76.601562 20.0625 -75.4375 C 20.832031 -74.269531 21.46875 -73.007812 21.96875 -71.65625 C 22.46875 -70.300781 22.851562 -69.128906 23.125 -68.140625 C 24.019531 -69.398438 25.078125 -70.613281 26.296875 -71.78125 C 27.515625 -72.957031 28.890625 -73.992188 30.421875 -74.890625 C 31.953125 -75.796875 33.660156 -76.519531 35.546875 -77.0625 C 37.441406 -77.601562 39.609375 -77.875 42.046875 -77.875 C 46.640625 -77.875 50.21875 -76.769531 52.78125 -74.5625 C 55.351562 -72.351562 57.25 -69.601562 58.46875 -66.3125 C 59.6875 -63.019531 60.429688 -59.476562 60.703125 -55.6875 C 60.972656 -51.90625 61.109375 -48.484375 61.109375 -45.421875 C 61.109375 -43.890625 60.972656 -41.613281 60.703125 -38.59375 C 60.429688 -35.570312 60 -32.238281 59.40625 -28.59375 C 58.820312 -24.945312 58.035156 -21.207031 57.046875 -17.375 C 56.054688 -13.539062 54.882812 -10.046875 53.53125 -6.890625 C 52.1875 -3.734375 50.585938 -1.164062 48.734375 0.8125 C 46.890625 2.789062 44.796875 3.78125 42.453125 3.78125 Z M 42.453125 3.78125 "/></g></g></g><g fill="#5b2e35" fill-opacity="1"><g transform="translate(214.880683, 150.916487)"><g><path d="M 65.296875 -46.09375 C 65.296875 -41.5 65.226562 -36.90625 65.09375 -32.3125 C 64.957031 -27.71875 64.710938 -23.117188 64.359375 -18.515625 C 64.085938 -14.554688 63.722656 -10.320312 63.265625 -5.8125 C 62.816406 -1.300781 62.097656 3.179688 61.109375 7.640625 C 60.117188 12.097656 58.8125 16.378906 57.1875 20.484375 C 55.5625 24.585938 53.421875 28.210938 50.765625 31.359375 C 48.109375 34.515625 44.882812 37.039062 41.09375 38.9375 C 37.3125 40.832031 32.804688 41.78125 27.578125 41.78125 C 25.140625 41.78125 22.410156 41.394531 19.390625 40.625 C 16.378906 39.851562 13.539062 38.75 10.875 37.3125 C 8.21875 35.875 5.96875 34.09375 4.125 31.96875 C 2.28125 29.851562 1.359375 27.398438 1.359375 24.609375 C 1.359375 22.535156 2.097656 20.617188 3.578125 18.859375 C 5.066406 17.097656 6.984375 16.21875 9.328125 16.21875 C 10.765625 16.21875 12.132812 16.460938 13.4375 16.953125 C 14.75 17.453125 16.054688 18.019531 17.359375 18.65625 C 18.671875 19.289062 19.9375 19.851562 21.15625 20.34375 C 22.375 20.84375 23.613281 21.09375 24.875 21.09375 C 28.207031 21.09375 31 20.257812 33.25 18.59375 C 35.507812 16.925781 37.3125 14.804688 38.65625 12.234375 C 40.007812 9.660156 41.023438 6.863281 41.703125 3.84375 C 42.378906 0.832031 42.851562 -2.023438 43.125 -4.734375 C 41.320312 -2.660156 39.222656 -1.238281 36.828125 -0.46875 C 34.441406 0.289062 31.945312 0.671875 29.34375 0.671875 C 24.5625 0.671875 20.503906 -0.160156 17.171875 -1.828125 C 13.835938 -3.492188 11.132812 -5.789062 9.0625 -8.71875 C 6.988281 -11.644531 5.453125 -15.046875 4.453125 -18.921875 C 3.460938 -22.796875 2.96875 -26.988281 2.96875 -31.5 C 2.96875 -34.289062 3.257812 -37.441406 3.84375 -40.953125 C 4.4375 -44.472656 5.316406 -48.035156 6.484375 -51.640625 C 7.660156 -55.242188 9.125 -58.757812 10.875 -62.1875 C 12.632812 -65.613281 14.6875 -68.632812 17.03125 -71.25 C 19.375 -73.863281 22.007812 -75.976562 24.9375 -77.59375 C 27.875 -79.21875 31.097656 -80.03125 34.609375 -80.03125 C 38.035156 -80.03125 41.078125 -79.035156 43.734375 -77.046875 C 46.390625 -75.066406 47.945312 -72.273438 48.40625 -68.671875 C 49.394531 -70.566406 50.695312 -72.4375 52.3125 -74.28125 C 53.9375 -76.132812 55.921875 -77.0625 58.265625 -77.0625 C 59.523438 -77.0625 60.582031 -76.429688 61.4375 -75.171875 C 62.300781 -73.910156 62.976562 -72.265625 63.46875 -70.234375 C 63.96875 -68.203125 64.351562 -65.992188 64.625 -63.609375 C 64.894531 -61.222656 65.070312 -58.878906 65.15625 -56.578125 C 65.25 -54.273438 65.296875 -52.175781 65.296875 -50.28125 C 65.296875 -48.394531 65.296875 -47 65.296875 -46.09375 Z M 44.75 -37.3125 C 44.75 -38.664062 44.546875 -40.421875 44.140625 -42.578125 C 43.734375 -44.742188 43.144531 -46.816406 42.375 -48.796875 C 41.613281 -50.785156 40.644531 -52.5 39.46875 -53.9375 C 38.300781 -55.382812 36.90625 -56.109375 35.28125 -56.109375 C 33.207031 -56.109375 31.378906 -55.382812 29.796875 -53.9375 C 28.222656 -52.5 26.894531 -50.765625 25.8125 -48.734375 C 24.738281 -46.703125 23.90625 -44.535156 23.3125 -42.234375 C 22.726562 -39.941406 22.4375 -37.984375 22.4375 -36.359375 C 22.4375 -35.191406 22.523438 -33.613281 22.703125 -31.625 C 22.890625 -29.644531 23.273438 -27.707031 23.859375 -25.8125 C 24.441406 -23.925781 25.226562 -22.304688 26.21875 -20.953125 C 27.21875 -19.597656 28.523438 -18.921875 30.140625 -18.921875 C 32.578125 -18.921875 34.695312 -19.503906 36.5 -20.671875 C 38.300781 -21.847656 39.8125 -23.335938 41.03125 -25.140625 C 42.25 -26.941406 43.171875 -28.925781 43.796875 -31.09375 C 44.429688 -33.257812 44.75 -35.332031 44.75 -37.3125 Z M 44.75 -37.3125 "/></g></g></g><g fill="#5b2e35" fill-opacity="1"><g transform="translate(285.712673, 150.916487)"><g><path d="M 26.359375 -94.359375 C 26.359375 -93.097656 26.019531 -91.972656 25.34375 -90.984375 C 24.664062 -89.992188 23.785156 -89.113281 22.703125 -88.34375 C 21.628906 -87.582031 20.460938 -87 19.203125 -86.59375 C 17.941406 -86.1875 16.769531 -85.984375 15.6875 -85.984375 C 13.882812 -85.984375 12.304688 -86.429688 10.953125 -87.328125 C 9.597656 -88.234375 8.921875 -89.632812 8.921875 -91.53125 C 8.921875 -92.875 9.257812 -94.0625 9.9375 -95.09375 C 10.613281 -96.132812 11.445312 -96.992188 12.4375 -97.671875 C 13.425781 -98.347656 14.550781 -98.863281 15.8125 -99.21875 C 17.070312 -99.582031 18.289062 -99.765625 19.46875 -99.765625 C 21.175781 -99.765625 22.75 -99.359375 24.1875 -98.546875 C 25.632812 -97.742188 26.359375 -96.347656 26.359375 -94.359375 Z M 27.4375 -48.40625 C 27.4375 -47.132812 27.4375 -45.800781 27.4375 -44.40625 C 27.4375 -43.007812 27.394531 -41.679688 27.3125 -40.421875 C 27.21875 -38.890625 27.171875 -36.835938 27.171875 -34.265625 C 27.171875 -31.703125 27.082031 -28.929688 26.90625 -25.953125 C 26.726562 -22.984375 26.4375 -19.960938 26.03125 -16.890625 C 25.625 -13.828125 24.96875 -11.035156 24.0625 -8.515625 C 23.164062 -5.992188 21.972656 -3.941406 20.484375 -2.359375 C 18.992188 -0.785156 17.125 0.046875 14.875 0.140625 C 13.15625 0.222656 11.707031 -0.453125 10.53125 -1.890625 C 9.363281 -3.335938 8.394531 -5.207031 7.625 -7.5 C 6.863281 -9.800781 6.300781 -12.367188 5.9375 -15.203125 C 5.582031 -18.046875 5.3125 -20.796875 5.125 -23.453125 C 4.945312 -26.109375 4.859375 -28.5625 4.859375 -30.8125 C 4.859375 -33.070312 4.859375 -34.742188 4.859375 -35.828125 C 4.859375 -37.265625 4.859375 -39.3125 4.859375 -41.96875 C 4.859375 -44.632812 4.945312 -47.5 5.125 -50.5625 C 5.3125 -53.625 5.648438 -56.734375 6.140625 -59.890625 C 6.640625 -63.046875 7.363281 -65.929688 8.3125 -68.546875 C 9.257812 -71.160156 10.5 -73.273438 12.03125 -74.890625 C 13.5625 -76.515625 15.5 -77.328125 17.84375 -77.328125 C 20.28125 -77.328125 22.128906 -76.109375 23.390625 -73.671875 C 24.648438 -71.242188 25.59375 -68.40625 26.21875 -65.15625 C 26.851562 -61.914062 27.210938 -58.695312 27.296875 -55.5 C 27.390625 -52.300781 27.4375 -49.9375 27.4375 -48.40625 Z M 27.4375 -48.40625 "/></g></g></g><g fill="#5b2e35" fill-opacity="1"><g transform="translate(318.695503, 150.916487)"><g><path d="M 68 -44.609375 C 68 -41.992188 67.796875 -39.039062 67.390625 -35.75 C 66.984375 -32.46875 66.351562 -29.113281 65.5 -25.6875 C 64.644531 -22.257812 63.519531 -18.921875 62.125 -15.671875 C 60.726562 -12.429688 59.015625 -9.523438 56.984375 -6.953125 C 54.953125 -4.390625 52.609375 -2.34375 49.953125 -0.8125 C 47.296875 0.714844 44.207031 1.484375 40.6875 1.484375 C 37 1.484375 33.644531 0.628906 30.625 -1.078125 C 27.601562 -2.796875 25.007812 -5.140625 22.84375 -8.109375 C 22.570312 -5.679688 21.582031 -3.539062 19.875 -1.6875 C 18.164062 0.152344 16.003906 1.078125 13.390625 1.078125 C 11.847656 1.078125 10.554688 0.308594 9.515625 -1.21875 C 8.484375 -2.75 7.648438 -4.707031 7.015625 -7.09375 C 6.390625 -9.488281 5.921875 -12.125 5.609375 -15 C 5.296875 -17.882812 5.09375 -20.675781 5 -23.375 C 4.90625 -26.082031 4.859375 -28.519531 4.859375 -30.6875 C 4.859375 -32.851562 4.859375 -34.382812 4.859375 -35.28125 C 4.859375 -38.34375 4.878906 -41.40625 4.921875 -44.46875 C 4.972656 -47.539062 5.046875 -50.65625 5.140625 -53.8125 C 5.140625 -55.34375 5.113281 -57.640625 5.0625 -60.703125 C 5.019531 -63.765625 5.039062 -67.164062 5.125 -70.90625 C 5.21875 -74.644531 5.421875 -78.472656 5.734375 -82.390625 C 6.054688 -86.316406 6.625 -89.898438 7.4375 -93.140625 C 8.25 -96.390625 9.375 -99.050781 10.8125 -101.125 C 12.257812 -103.195312 14.109375 -104.28125 16.359375 -104.375 C 18.160156 -104.375 19.691406 -103.738281 20.953125 -102.46875 C 22.210938 -101.207031 23.269531 -99.539062 24.125 -97.46875 C 24.988281 -95.394531 25.664062 -93.070312 26.15625 -90.5 C 26.65625 -87.9375 27.015625 -85.367188 27.234375 -82.796875 C 27.460938 -80.234375 27.597656 -77.800781 27.640625 -75.5 C 27.691406 -73.207031 27.71875 -71.335938 27.71875 -69.890625 C 27.71875 -69.617188 27.691406 -69.007812 27.640625 -68.0625 C 27.597656 -67.125 27.578125 -66.113281 27.578125 -65.03125 C 27.578125 -63.945312 27.578125 -62.976562 27.578125 -62.125 C 27.578125 -61.269531 27.578125 -60.796875 27.578125 -60.703125 C 28.390625 -62.410156 29.5625 -64.078125 31.09375 -65.703125 C 32.625 -67.328125 34.335938 -68.769531 36.234375 -70.03125 C 38.128906 -71.289062 40.113281 -72.328125 42.1875 -73.140625 C 44.257812 -73.953125 46.238281 -74.359375 48.125 -74.359375 C 51.914062 -74.359375 55.09375 -73.390625 57.65625 -71.453125 C 60.226562 -69.515625 62.28125 -67.054688 63.8125 -64.078125 C 65.34375 -61.109375 66.421875 -57.882812 67.046875 -54.40625 C 67.679688 -50.9375 68 -47.671875 68 -44.609375 Z M 48.125 -40.5625 C 48.125 -41.644531 48.054688 -42.816406 47.921875 -44.078125 C 47.785156 -45.335938 47.46875 -46.503906 46.96875 -47.578125 C 46.476562 -48.660156 45.804688 -49.5625 44.953125 -50.28125 C 44.097656 -51.007812 42.992188 -51.375 41.640625 -51.375 C 40.191406 -51.375 38.769531 -51.054688 37.375 -50.421875 C 35.976562 -49.796875 34.648438 -48.984375 33.390625 -47.984375 C 32.128906 -46.992188 30.957031 -45.9375 29.875 -44.8125 C 28.789062 -43.6875 27.84375 -42.582031 27.03125 -41.5 L 25.6875 -29.46875 C 27.125 -27.394531 28.878906 -25.75 30.953125 -24.53125 C 33.023438 -23.320312 35.367188 -22.71875 37.984375 -22.71875 C 39.972656 -22.71875 41.617188 -23.347656 42.921875 -24.609375 C 44.234375 -25.867188 45.269531 -27.421875 46.03125 -29.265625 C 46.800781 -31.117188 47.34375 -33.082031 47.65625 -35.15625 C 47.96875 -37.226562 48.125 -39.03125 48.125 -40.5625 Z M 48.125 -40.5625 "/></g></g></g><g fill="#5b2e35" fill-opacity="1"><g transform="translate(390.879214, 150.916487)"><g><path d="M 29.34375 -81.921875 C 29.34375 -77.054688 29.140625 -72.164062 28.734375 -67.25 C 28.328125 -62.34375 28.125 -57.410156 28.125 -52.453125 C 28.125 -46.054688 28.328125 -39.65625 28.734375 -33.25 C 29.140625 -26.851562 29.34375 -20.410156 29.34375 -13.921875 C 29.34375 -12.296875 29.25 -10.46875 29.0625 -8.4375 C 28.882812 -6.414062 28.457031 -4.546875 27.78125 -2.828125 C 27.101562 -1.117188 26.085938 0.316406 24.734375 1.484375 C 23.390625 2.660156 21.585938 3.25 19.328125 3.25 C 17.171875 3.25 15.300781 2.1875 13.71875 0.0625 C 12.144531 -2.050781 10.835938 -4.753906 9.796875 -8.046875 C 8.765625 -11.335938 7.910156 -15.007812 7.234375 -19.0625 C 6.554688 -23.113281 6.054688 -27.054688 5.734375 -30.890625 C 5.421875 -34.722656 5.195312 -38.238281 5.0625 -41.4375 C 4.925781 -44.632812 4.859375 -47 4.859375 -48.53125 C 4.859375 -50.25 4.925781 -52.726562 5.0625 -55.96875 C 5.195312 -59.21875 5.488281 -62.734375 5.9375 -66.515625 C 6.394531 -70.296875 7.003906 -74.144531 7.765625 -78.0625 C 8.535156 -81.988281 9.550781 -85.550781 10.8125 -88.75 C 12.070312 -91.945312 13.582031 -94.5625 15.34375 -96.59375 C 17.101562 -98.625 19.195312 -99.640625 21.625 -99.640625 C 23.613281 -99.640625 25.125 -98.984375 26.15625 -97.671875 C 27.195312 -96.367188 27.941406 -94.789062 28.390625 -92.9375 C 28.835938 -91.09375 29.109375 -89.15625 29.203125 -87.125 C 29.296875 -85.101562 29.34375 -83.367188 29.34375 -81.921875 Z M 29.34375 -81.921875 "/></g></g></g><g fill="#5b2e35" fill-opacity="1"><g transform="translate(426.430391, 150.916487)"><g><path d="M 60.703125 -24.0625 C 60.703125 -21 59.734375 -18.003906 57.796875 -15.078125 C 55.859375 -12.148438 53.421875 -9.535156 50.484375 -7.234375 C 47.554688 -4.929688 44.425781 -3.082031 41.09375 -1.6875 C 37.757812 -0.289062 34.695312 0.40625 31.90625 0.40625 C 27.125 0.40625 22.863281 -0.785156 19.125 -3.171875 C 15.382812 -5.566406 12.253906 -8.609375 9.734375 -12.296875 C 7.210938 -15.992188 5.296875 -20.070312 3.984375 -24.53125 C 2.679688 -29 2.03125 -33.347656 2.03125 -37.578125 C 2.03125 -42.085938 2.660156 -46.910156 3.921875 -52.046875 C 5.179688 -57.179688 7.09375 -61.910156 9.65625 -66.234375 C 12.226562 -70.566406 15.472656 -74.175781 19.390625 -77.0625 C 23.316406 -79.945312 27.984375 -81.390625 33.390625 -81.390625 C 36.453125 -81.390625 39.378906 -80.867188 42.171875 -79.828125 C 44.972656 -78.796875 47.410156 -77.332031 49.484375 -75.4375 C 51.554688 -73.539062 53.222656 -71.285156 54.484375 -68.671875 C 55.742188 -66.054688 56.375 -63.128906 56.375 -59.890625 C 56.375 -55.648438 55.472656 -51.679688 53.671875 -47.984375 C 51.867188 -44.296875 49.476562 -41.097656 46.5 -38.390625 C 43.53125 -35.691406 40.109375 -33.507812 36.234375 -31.84375 C 32.359375 -30.175781 28.390625 -29.25 24.328125 -29.0625 C 24.691406 -26.445312 25.75 -24.550781 27.5 -23.375 C 29.257812 -22.207031 31.359375 -21.625 33.796875 -21.625 C 35.597656 -21.625 37.351562 -22.070312 39.0625 -22.96875 C 40.78125 -23.875 42.445312 -24.890625 44.0625 -26.015625 C 45.6875 -27.148438 47.285156 -28.164062 48.859375 -29.0625 C 50.441406 -29.96875 52.046875 -30.421875 53.671875 -30.421875 C 55.472656 -30.421875 57.09375 -29.832031 58.53125 -28.65625 C 59.976562 -27.488281 60.703125 -25.957031 60.703125 -24.0625 Z M 38.796875 -57.1875 C 38.796875 -58.351562 38.476562 -59.566406 37.84375 -60.828125 C 37.21875 -62.097656 36.226562 -62.734375 34.875 -62.734375 C 32.894531 -62.734375 31.226562 -62.210938 29.875 -61.171875 C 28.519531 -60.140625 27.390625 -58.832031 26.484375 -57.25 C 25.585938 -55.675781 24.890625 -53.988281 24.390625 -52.1875 C 23.898438 -50.382812 23.613281 -48.71875 23.53125 -47.1875 C 24.789062 -47.457031 26.296875 -47.816406 28.046875 -48.265625 C 29.804688 -48.710938 31.472656 -49.316406 33.046875 -50.078125 C 34.628906 -50.847656 35.984375 -51.816406 37.109375 -52.984375 C 38.234375 -54.160156 38.796875 -55.5625 38.796875 -57.1875 Z M 38.796875 -57.1875 "/></g></g></g><g fill="#5b2e35" fill-opacity="1"><g transform="translate(488.475971, 150.916487)"><g/></g></g><g fill="#5b2e35" fill-opacity="1"><g transform="translate(521.053263, 150.916487)"><g><path d="M 62.59375 -92.34375 C 62.59375 -90.082031 61.710938 -88.023438 59.953125 -86.171875 C 58.203125 -84.328125 56.085938 -82.707031 53.609375 -81.3125 C 51.128906 -79.914062 48.582031 -78.765625 45.96875 -77.859375 C 43.351562 -76.960938 41.1875 -76.335938 39.46875 -75.984375 C 38.75 -69.035156 38.1875 -62.113281 37.78125 -55.21875 C 37.375 -48.332031 37.171875 -41.414062 37.171875 -34.46875 C 37.171875 -30.78125 37.257812 -27.128906 37.4375 -23.515625 C 37.625 -19.910156 37.71875 -16.304688 37.71875 -12.703125 C 37.71875 -11.085938 37.554688 -9.3125 37.234375 -7.375 C 36.921875 -5.4375 36.378906 -3.609375 35.609375 -1.890625 C 34.847656 -0.179688 33.789062 1.253906 32.4375 2.421875 C 31.09375 3.597656 29.425781 4.1875 27.4375 4.1875 C 25.09375 4.1875 23.222656 3.53125 21.828125 2.21875 C 20.429688 0.914062 19.347656 -0.675781 18.578125 -2.5625 C 17.816406 -4.457031 17.300781 -6.460938 17.03125 -8.578125 C 16.757812 -10.703125 16.625 -12.617188 16.625 -14.328125 C 16.445312 -19.734375 16.3125 -25.160156 16.21875 -30.609375 C 16.132812 -36.066406 16.09375 -41.546875 16.09375 -47.046875 C 16.09375 -51.640625 16.113281 -56.144531 16.15625 -60.5625 C 16.195312 -64.976562 16.21875 -69.484375 16.21875 -74.078125 C 14.957031 -73.898438 13.671875 -73.765625 12.359375 -73.671875 C 11.054688 -73.585938 9.726562 -73.546875 8.375 -73.546875 C 7.300781 -73.546875 5.882812 -73.65625 4.125 -73.875 C 2.363281 -74.101562 0.675781 -74.507812 -0.9375 -75.09375 C -2.5625 -75.6875 -3.957031 -76.5 -5.125 -77.53125 C -6.300781 -78.570312 -6.890625 -79.898438 -6.890625 -81.515625 C -6.890625 -84.222656 -5.832031 -86.585938 -3.71875 -88.609375 C -1.601562 -90.640625 1.097656 -92.398438 4.390625 -93.890625 C 7.679688 -95.378906 11.332031 -96.640625 15.34375 -97.671875 C 19.351562 -98.710938 23.316406 -99.523438 27.234375 -100.109375 C 31.160156 -100.691406 34.765625 -101.117188 38.046875 -101.390625 C 41.335938 -101.660156 43.882812 -101.796875 45.6875 -101.796875 C 47.40625 -101.796875 49.234375 -101.726562 51.171875 -101.59375 C 53.109375 -101.457031 54.929688 -101.070312 56.640625 -100.4375 C 58.359375 -99.8125 59.78125 -98.867188 60.90625 -97.609375 C 62.03125 -96.347656 62.59375 -94.59375 62.59375 -92.34375 Z M 62.59375 -92.34375 "/></g></g></g><g fill="#5b2e35" fill-opacity="1"><g transform="translate(569.851435, 150.916487)"><g><path d="M 60.703125 -24.0625 C 60.703125 -21 59.734375 -18.003906 57.796875 -15.078125 C 55.859375 -12.148438 53.421875 -9.535156 50.484375 -7.234375 C 47.554688 -4.929688 44.425781 -3.082031 41.09375 -1.6875 C 37.757812 -0.289062 34.695312 0.40625 31.90625 0.40625 C 27.125 0.40625 22.863281 -0.785156 19.125 -3.171875 C 15.382812 -5.566406 12.253906 -8.609375 9.734375 -12.296875 C 7.210938 -15.992188 5.296875 -20.070312 3.984375 -24.53125 C 2.679688 -29 2.03125 -33.347656 2.03125 -37.578125 C 2.03125 -42.085938 2.660156 -46.910156 3.921875 -52.046875 C 5.179688 -57.179688 7.09375 -61.910156 9.65625 -66.234375 C 12.226562 -70.566406 15.472656 -74.175781 19.390625 -77.0625 C 23.316406 -79.945312 27.984375 -81.390625 33.390625 -81.390625 C 36.453125 -81.390625 39.378906 -80.867188 42.171875 -79.828125 C 44.972656 -78.796875 47.410156 -77.332031 49.484375 -75.4375 C 51.554688 -73.539062 53.222656 -71.285156 54.484375 -68.671875 C 55.742188 -66.054688 56.375 -63.128906 56.375 -59.890625 C 56.375 -55.648438 55.472656 -51.679688 53.671875 -47.984375 C 51.867188 -44.296875 49.476562 -41.097656 46.5 -38.390625 C 43.53125 -35.691406 40.109375 -33.507812 36.234375 -31.84375 C 32.359375 -30.175781 28.390625 -29.25 24.328125 -29.0625 C 24.691406 -26.445312 25.75 -24.550781 27.5 -23.375 C 29.257812 -22.207031 31.359375 -21.625 33.796875 -21.625 C 35.597656 -21.625 37.351562 -22.070312 39.0625 -22.96875 C 40.78125 -23.875 42.445312 -24.890625 44.0625 -26.015625 C 45.6875 -27.148438 47.285156 -28.164062 48.859375 -29.0625 C 50.441406 -29.96875 52.046875 -30.421875 53.671875 -30.421875 C 55.472656 -30.421875 57.09375 -29.832031 58.53125 -28.65625 C 59.976562 -27.488281 60.703125 -25.957031 60.703125 -24.0625 Z M 38.796875 -57.1875 C 38.796875 -58.351562 38.476562 -59.566406 37.84375 -60.828125 C 37.21875 -62.097656 36.226562 -62.734375 34.875 -62.734375 C 32.894531 -62.734375 31.226562 -62.210938 29.875 -61.171875 C 28.519531 -60.140625 27.390625 -58.832031 26.484375 -57.25 C 25.585938 -55.675781 24.890625 -53.988281 24.390625 -52.1875 C 23.898438 -50.382812 23.613281 -48.71875 23.53125 -47.1875 C 24.789062 -47.457031 26.296875 -47.816406 28.046875 -48.265625 C 29.804688 -48.710938 31.472656 -49.316406 33.046875 -50.078125 C 34.628906 -50.847656 35.984375 -51.816406 37.109375 -52.984375 C 38.234375 -54.160156 38.796875 -55.5625 38.796875 -57.1875 Z M 38.796875 -57.1875 "/></g></g></g><g fill="#5b2e35" fill-opacity="1"><g transform="translate(694.812997, 150.916487)"><g><path d="M 65.4375 -35.015625 C 65.4375 -33.484375 65.410156 -31.207031 65.359375 -28.1875 C 65.316406 -25.164062 65.179688 -22.007812 64.953125 -18.71875 C 64.734375 -15.4375 64.441406 -12.328125 64.078125 -9.390625 C 63.722656 -6.460938 63.273438 -4.320312 62.734375 -2.96875 C 62.003906 -1.257812 61.054688 0.222656 59.890625 1.484375 C 58.722656 2.742188 57.144531 3.375 55.15625 3.375 C 52.09375 3.375 49.882812 2.160156 48.53125 -0.265625 C 47.175781 -2.703125 46.273438 -5.722656 45.828125 -9.328125 C 45.378906 -12.929688 45.195312 -16.847656 45.28125 -21.078125 C 45.375 -25.316406 45.332031 -29.238281 45.15625 -32.84375 C 44.976562 -36.457031 44.484375 -39.476562 43.671875 -41.90625 C 42.859375 -44.34375 41.367188 -45.5625 39.203125 -45.5625 C 36.234375 -45.5625 33.957031 -45.085938 32.375 -44.140625 C 30.800781 -43.191406 29.675781 -41.953125 29 -40.421875 C 28.320312 -38.890625 27.914062 -37.128906 27.78125 -35.140625 C 27.644531 -33.160156 27.488281 -31.09375 27.3125 -28.9375 C 27.125 -26.863281 26.984375 -24.066406 26.890625 -20.546875 C 26.804688 -17.035156 26.40625 -13.566406 25.6875 -10.140625 C 24.96875 -6.710938 23.773438 -3.757812 22.109375 -1.28125 C 20.441406 1.195312 17.984375 2.4375 14.734375 2.4375 C 12.753906 2.4375 11.15625 1.671875 9.9375 0.140625 C 8.71875 -1.390625 7.75 -3.375 7.03125 -5.8125 C 6.3125 -8.25 5.789062 -10.953125 5.46875 -13.921875 C 5.15625 -16.898438 4.972656 -19.804688 4.921875 -22.640625 C 4.878906 -25.484375 4.878906 -28.078125 4.921875 -30.421875 C 4.972656 -32.765625 5 -34.519531 5 -35.6875 C 5 -37.488281 5.066406 -40.460938 5.203125 -44.609375 C 5.335938 -48.753906 5.628906 -53.375 6.078125 -58.46875 C 6.535156 -63.5625 7.125 -68.8125 7.84375 -74.21875 C 8.5625 -79.625 9.503906 -84.554688 10.671875 -89.015625 C 11.847656 -93.484375 13.269531 -97.113281 14.9375 -99.90625 C 16.601562 -102.695312 18.5625 -104.050781 20.8125 -103.96875 C 22.257812 -103.875 23.5 -103.238281 24.53125 -102.0625 C 25.570312 -100.894531 26.429688 -99.382812 27.109375 -97.53125 C 27.785156 -95.6875 28.347656 -93.679688 28.796875 -91.515625 C 29.242188 -89.359375 29.578125 -87.21875 29.796875 -85.09375 C 30.023438 -82.976562 30.160156 -81.019531 30.203125 -79.21875 C 30.253906 -77.414062 30.28125 -76.019531 30.28125 -75.03125 C 30.28125 -72.6875 30.234375 -70.34375 30.140625 -68 C 30.054688 -65.65625 29.925781 -63.3125 29.75 -60.96875 C 31.820312 -63.757812 34.59375 -66.054688 38.0625 -67.859375 C 41.53125 -69.671875 45.019531 -70.578125 48.53125 -70.578125 C 53.039062 -70.578125 56.441406 -69.335938 58.734375 -66.859375 C 61.035156 -64.378906 62.679688 -61.3125 63.671875 -57.65625 C 64.660156 -54.007812 65.203125 -50.132812 65.296875 -46.03125 C 65.390625 -41.925781 65.4375 -38.253906 65.4375 -35.015625 Z M 65.4375 -35.015625 "/></g></g></g><g fill="#5b2e35" fill-opacity="1"><g transform="translate(51.176983, 150.916487)"><g><path d="M 26.359375 -94.359375 C 26.359375 -93.097656 26.019531 -91.972656 25.34375 -90.984375 C 24.664062 -89.992188 23.785156 -89.113281 22.703125 -88.34375 C 21.628906 -87.582031 20.460938 -87 19.203125 -86.59375 C 17.941406 -86.1875 16.769531 -85.984375 15.6875 -85.984375 C 13.882812 -85.984375 12.304688 -86.429688 10.953125 -87.328125 C 9.597656 -88.234375 8.921875 -89.632812 8.921875 -91.53125 C 8.921875 -92.875 9.257812 -94.0625 9.9375 -95.09375 C 10.613281 -96.132812 11.445312 -96.992188 12.4375 -97.671875 C 13.425781 -98.347656 14.550781 -98.863281 15.8125 -99.21875 C 17.070312 -99.582031 18.289062 -99.765625 19.46875 -99.765625 C 21.175781 -99.765625 22.75 -99.359375 24.1875 -98.546875 C 25.632812 -97.742188 26.359375 -96.347656 26.359375 -94.359375 Z M 27.4375 -48.40625 C 27.4375 -47.132812 27.4375 -45.800781 27.4375 -44.40625 C 27.4375 -43.007812 27.394531 -41.679688 27.3125 -40.421875 C 27.21875 -38.890625 27.171875 -36.835938 27.171875 -34.265625 C 27.171875 -31.703125 27.082031 -28.929688 26.90625 -25.953125 C 26.726562 -22.984375 26.4375 -19.960938 26.03125 -16.890625 C 25.625 -13.828125 24.96875 -11.035156 24.0625 -8.515625 C 23.164062 -5.992188 21.972656 -3.941406 20.484375 -2.359375 C 18.992188 -0.785156 17.125 0.046875 14.875 0.140625 C 13.15625 0.222656 11.707031 -0.453125 10.53125 -1.890625 C 9.363281 -3.335938 8.394531 -5.207031 7.625 -7.5 C 6.863281 -9.800781 6.300781 -12.367188 5.9375 -15.203125 C 5.582031 -18.046875 5.3125 -20.796875 5.125 -23.453125 C 4.945312 -26.109375 4.859375 -28.5625 4.859375 -30.8125 C 4.859375 -33.070312 4.859375 -34.742188 4.859375 -35.828125 C 4.859375 -37.265625 4.859375 -39.3125 4.859375 -41.96875 C 4.859375 -44.632812 4.945312 -47.5 5.125 -50.5625 C 5.3125 -53.625 5.648438 -56.734375 6.140625 -59.890625 C 6.640625 -63.046875 7.363281 -65.929688 8.3125 -68.546875 C 9.257812 -71.160156 10.5 -73.273438 12.03125 -74.890625 C 13.5625 -76.515625 15.5 -77.328125 17.84375 -77.328125 C 20.28125 -77.328125 22.128906 -76.109375 23.390625 -73.671875 C 24.648438 -71.242188 25.59375 -68.40625 26.21875 -65.15625 C 26.851562 -61.914062 27.210938 -58.695312 27.296875 -55.5 C 27.390625 -52.300781 27.4375 -49.9375 27.4375 -48.40625 Z M 27.4375 -48.40625 "/></g></g></g><g clip-path="url(#f0e08b5e3a)"><g clip-path="url(#938697814a)"><g transform="matrix(1, 0, 0, 1, 38, 21)"><g clip-path="url(#dc47660000)"><g clip-path="url(#e6441bcd45)"><g clip-path="url(#6d5ed253b9)"><path fill="#34a7b2" d="M 0.609375 0.449219 L 58.667969 0.449219 L 58.667969 47.78125 L 0.609375 47.78125 Z M 0.609375 0.449219 " fill-opacity="1" fill-rule="nonzero"/></g></g></g></g></g></g><path fill="#5b2e35" d="M 67.667969 48.933594 C 63.699219 48.933594 60.472656 52.160156 60.472656 56.128906 C 60.472656 60.097656 63.703125 63.324219 67.667969 63.324219 C 71.636719 63.324219 74.863281 60.097656 74.863281 56.128906 C 74.863281 52.160156 71.636719 48.933594 67.667969 48.933594 Z M 67.667969 61.183594 C 64.882812 61.183594 62.617188 58.914062 62.617188 56.128906 C 62.617188 53.339844 64.882812 51.074219 67.667969 51.074219 C 70.453125 51.074219 72.722656 53.339844 72.722656 56.128906 C 72.722656 58.914062 70.457031 61.183594 67.667969 61.183594 Z M 67.667969 61.183594 " fill-opacity="1" fill-rule="nonzero"/><path fill="#5b2e35" d="M 67.667969 52.753906 C 65.808594 52.753906 64.296875 54.269531 64.296875 56.128906 C 64.296875 57.988281 65.808594 59.5 67.667969 59.5 C 69.527344 59.5 71.042969 57.988281 71.042969 56.128906 C 71.042969 54.269531 69.527344 52.753906 67.667969 52.753906 Z M 67.667969 52.753906 " fill-opacity="1" fill-rule="nonzero"/><g clip-path="url(#b39aa07964)"><path fill="#5b2e35" d="M 134.050781 5.730469 L 124.984375 5.730469 L 124.984375 1.652344 C 124.984375 1.058594 124.503906 0.582031 123.914062 0.582031 L 120.199219 0.582031 C 119.605469 0.582031 119.125 1.058594 119.125 1.652344 L 119.125 5.730469 L 110.058594 5.730469 C 109.46875 5.730469 108.988281 6.210938 108.988281 6.800781 L 108.988281 12.316406 C 108.988281 12.90625 109.46875 13.386719 110.058594 13.386719 L 119.125 13.386719 L 119.125 19.554688 L 118.046875 19.554688 C 117.453125 19.554688 116.972656 20.03125 116.972656 20.625 L 116.972656 23.835938 L 98.675781 23.835938 C 94.265625 23.835938 91.234375 19.691406 89.46875 16.210938 C 88.410156 14.121094 86.75 12.4375 84.675781 11.339844 C 83.003906 10.445312 81.109375 9.972656 79.199219 9.972656 L 56.136719 9.972656 C 54.230469 9.972656 52.335938 10.445312 50.667969 11.335938 C 48.589844 12.4375 46.929688 14.121094 45.867188 16.210938 C 44.105469 19.691406 41.074219 23.835938 36.660156 23.835938 L 18.363281 23.835938 L 18.363281 20.625 C 18.363281 20.03125 17.882812 19.554688 17.292969 19.554688 L 16.210938 19.554688 L 16.210938 13.386719 L 25.28125 13.386719 C 25.871094 13.386719 26.351562 12.90625 26.351562 12.316406 L 26.351562 6.800781 C 26.351562 6.210938 25.871094 5.730469 25.28125 5.730469 L 16.210938 5.730469 L 16.210938 1.652344 C 16.210938 1.058594 15.730469 0.582031 15.140625 0.582031 L 11.425781 0.582031 C 10.835938 0.582031 10.355469 1.058594 10.355469 1.652344 L 10.355469 5.730469 L 1.285156 5.730469 C 0.695312 5.730469 0.214844 6.210938 0.214844 6.800781 L 0.214844 12.316406 C 0.214844 12.90625 0.695312 13.386719 1.285156 13.386719 L 10.355469 13.386719 L 10.355469 19.554688 L 9.273438 19.554688 C 8.683594 19.554688 8.203125 20.03125 8.203125 20.625 L 8.203125 37.765625 C 8.203125 38.359375 8.683594 38.835938 9.273438 38.835938 L 17.292969 38.835938 C 17.882812 38.835938 18.363281 38.359375 18.363281 37.765625 L 18.363281 34.488281 L 28.105469 34.488281 L 28.105469 66.761719 C 28.105469 67.351562 28.585938 67.832031 29.175781 67.832031 L 29.199219 67.832031 L 29.199219 69.929688 C 29.199219 71.625 30.578125 73.003906 32.273438 73.003906 C 33.964844 73.003906 35.34375 71.625 35.34375 69.929688 L 35.34375 67.832031 L 35.367188 67.832031 C 35.957031 67.832031 36.4375 67.351562 36.4375 66.761719 L 36.4375 54.914062 L 55.183594 61.855469 L 55.90625 66.238281 C 55.992188 66.753906 56.4375 67.136719 56.960938 67.136719 L 78.375 67.136719 C 78.898438 67.136719 79.347656 66.757812 79.433594 66.238281 L 80.15625 61.855469 L 98.902344 54.914062 L 98.902344 66.761719 C 98.902344 67.351562 99.382812 67.832031 99.972656 67.832031 L 99.992188 67.832031 L 99.992188 69.929688 C 99.992188 71.625 101.371094 73.003906 103.066406 73.003906 C 104.761719 73.003906 106.140625 71.625 106.140625 69.929688 L 106.140625 67.832031 L 106.160156 67.832031 C 106.75 67.832031 107.230469 67.351562 107.230469 66.761719 L 107.230469 34.488281 L 116.972656 34.488281 L 116.972656 37.765625 C 116.972656 38.359375 117.453125 38.835938 118.046875 38.835938 L 126.066406 38.835938 C 126.65625 38.835938 127.136719 38.359375 127.136719 37.765625 L 127.136719 20.625 C 127.136719 20.03125 126.65625 19.554688 126.066406 19.554688 L 124.984375 19.554688 L 124.984375 13.386719 L 134.050781 13.386719 C 134.644531 13.386719 135.121094 12.90625 135.121094 12.316406 L 135.121094 6.800781 C 135.121094 6.210938 134.644531 5.730469 134.050781 5.730469 Z M 101.0625 65.691406 L 101.042969 34.488281 L 105.089844 34.488281 L 105.089844 65.691406 Z M 122.84375 13.386719 L 122.84375 19.554688 L 121.269531 19.554688 L 121.269531 13.386719 Z M 12.496094 19.554688 L 12.496094 13.386719 L 14.070312 13.386719 L 14.070312 19.554688 Z M 36.4375 44.675781 L 36.4375 34.488281 L 37.882812 34.488281 L 44.304688 43.023438 C 46.335938 45.726562 49.46875 47.414062 52.824219 47.679688 L 53.363281 50.9375 Z M 53.738281 45.59375 C 50.714844 45.59375 47.828125 44.152344 46.019531 41.734375 L 40.640625 34.589844 C 48.257812 35.210938 54.097656 39.042969 57.347656 45.589844 L 53.738281 45.589844 Z M 94.699219 34.589844 L 89.320312 41.738281 C 87.507812 44.152344 84.621094 45.59375 81.597656 45.59375 L 77.992188 45.59375 C 81.238281 39.042969 87.082031 35.210938 94.699219 34.589844 Z M 82.515625 47.679688 C 85.867188 47.414062 89.003906 45.726562 91.03125 43.023438 L 97.453125 34.488281 L 98.902344 34.488281 L 98.902344 44.675781 L 81.976562 50.941406 Z M 121.269531 2.722656 L 122.84375 2.722656 L 122.84375 5.730469 L 121.269531 5.730469 Z M 79.199219 12.113281 C 80.316406 12.113281 81.425781 12.316406 82.464844 12.699219 L 73.578125 23.835938 L 61.761719 23.835938 L 52.871094 12.699219 C 53.914062 12.316406 55.019531 12.113281 56.136719 12.113281 Z M 12.496094 2.722656 L 14.070312 2.722656 L 14.070312 5.730469 L 12.496094 5.730469 Z M 34.296875 34.488281 L 34.296875 65.691406 L 30.269531 65.691406 L 30.25 34.488281 Z M 57.871094 64.992188 L 57.195312 60.890625 C 57.1875 60.839844 57.175781 60.792969 57.160156 60.746094 L 55.003906 47.734375 L 80.335938 47.734375 L 78.160156 60.839844 C 78.15625 60.859375 78.144531 60.871094 78.144531 60.890625 L 77.46875 64.992188 Z M 57.871094 64.992188 " fill-opacity="1" fill-rule="nonzero"/></g><path fill="#5b2e35" d="M 61.246094 16.75 L 74.125 16.75 C 74.714844 16.75 75.195312 16.269531 75.195312 15.675781 C 75.195312 15.085938 74.714844 14.605469 74.125 14.605469 L 61.246094 14.605469 C 60.652344 14.605469 60.175781 15.085938 60.175781 15.675781 C 60.175781 16.269531 60.652344 16.75 61.246094 16.75 Z M 61.246094 16.75 " fill-opacity="1" fill-rule="nonzero"/><path fill="#5b2e35" d="M 71.289062 19.394531 L 64.09375 19.394531 C 63.5 19.394531 63.023438 19.871094 63.023438 20.464844 C 63.023438 21.054688 63.5 21.535156 64.09375 21.535156 L 71.289062 21.535156 C 71.878906 21.535156 72.359375 21.054688 72.359375 20.464844 C 72.359375 19.871094 71.878906 19.394531 71.289062 19.394531 Z M 71.289062 19.394531 " fill-opacity="1" fill-rule="nonzero"/></g></g></g></svg>