<svg xmlns="http://www.w3.org/2000/svg" xmlns:xlink="http://www.w3.org/1999/xlink" width="1080" zoomAndPan="magnify" viewBox="0 0 810 809.999993" height="1080" preserveAspectRatio="xMidYMid meet" version="1.0"><defs><g/><clipPath id="0f667cd66d"><path d="M 0 10.242188 L 810 10.242188 L 810 789.539062 L 0 789.539062 Z M 0 10.242188 " clip-rule="nonzero"/></clipPath><clipPath id="9ffe1784ca"><path d="M 809.96875 85.238281 L 809.96875 714.542969 C 809.96875 755.960938 776.390625 789.539062 734.96875 789.539062 L 74.996094 789.539062 C 33.578125 789.539062 0 755.960938 0 714.542969 L 0 85.238281 C 0 43.816406 33.578125 10.242188 74.996094 10.242188 L 734.96875 10.242188 C 776.390625 10.242188 809.96875 43.816406 809.96875 85.238281 Z M 809.96875 85.238281 " clip-rule="nonzero"/></clipPath><clipPath id="3cbe2b05f8"><path d="M 0 0.242188 L 810 0.242188 L 810 779.539062 L 0 779.539062 Z M 0 0.242188 " clip-rule="nonzero"/></clipPath><clipPath id="02a6aa05dd"><path d="M 809.96875 75.238281 L 809.96875 704.542969 C 809.96875 745.960938 776.390625 779.539062 734.96875 779.539062 L 74.996094 779.539062 C 33.578125 779.539062 0 745.960938 0 704.542969 L 0 75.238281 C 0 33.816406 33.578125 0.242188 74.996094 0.242188 L 734.96875 0.242188 C 776.390625 0.242188 809.96875 33.816406 809.96875 75.238281 Z M 809.96875 75.238281 " clip-rule="nonzero"/></clipPath><clipPath id="7ec0deadc8"><rect x="0" width="810" y="0" height="780"/></clipPath><clipPath id="a0b9836dcf"><path d="M 0.0195312 10.242188 L 810 10.242188 L 810 789.492188 L 0.0195312 789.492188 Z M 0.0195312 10.242188 " clip-rule="nonzero"/></clipPath><clipPath id="a929aa62cd"><path d="M 809.980469 85.238281 L 809.980469 714.539062 C 809.980469 755.960938 776.40625 789.539062 734.984375 789.539062 L 75.015625 789.539062 C 33.59375 789.539062 0.0195312 755.960938 0.0195312 714.539062 L 0.0195312 85.238281 C 0.0195312 43.816406 33.59375 10.242188 75.015625 10.242188 L 734.984375 10.242188 C 776.40625 10.242188 809.980469 43.816406 809.980469 85.238281 Z M 809.980469 85.238281 " clip-rule="nonzero"/></clipPath><clipPath id="e258293fe1"><rect x="0" width="774" y="0" height="810"/></clipPath><clipPath id="0ba30958a9"><path d="M 108.484375 431.527344 L 307.984375 431.527344 L 307.984375 651.277344 L 108.484375 651.277344 Z M 108.484375 431.527344 " clip-rule="nonzero"/></clipPath></defs><g clip-path="url(#0f667cd66d)"><g clip-path="url(#9ffe1784ca)"><g transform="matrix(1, 0, 0, 1, 0, 10)"><g clip-path="url(#7ec0deadc8)"><g clip-path="url(#3cbe2b05f8)"><g clip-path="url(#02a6aa05dd)"><path fill="#34a7b2" d="M 0 0.242188 L 809.742188 0.242188 L 809.742188 779.539062 L 0 779.539062 Z M 0 0.242188 " fill-opacity="1" fill-rule="nonzero"/></g></g></g></g></g></g><g clip-path="url(#a0b9836dcf)"><g clip-path="url(#a929aa62cd)"><path stroke-linecap="butt" transform="matrix(0.75, 0, 0, 0.75, 0.0000035, 10.240759)" fill="none" stroke-linejoin="miter" d="M 1079.974008 99.996702 L 1079.974008 939.064453 C 1079.974008 994.293622 1035.208381 1039.064458 979.979211 1039.064458 L 100.020834 1039.064458 C 44.791664 1039.064458 0.026037 994.293622 0.026037 939.064453 L 0.026037 99.996702 C 0.026037 44.767533 44.791664 0.0019053 100.020834 0.0019053 L 979.979211 0.0019053 C 1035.208381 0.0019053 1079.974008 44.767533 1079.974008 99.996702 Z M 1079.974008 99.996702 " stroke="#f5e4c3" stroke-width="82" stroke-opacity="1" stroke-miterlimit="4"/></g></g><g transform="matrix(1, 0, 0, 1, 36, 0.000000000000039746)"><g clip-path="url(#e258293fe1)"><g fill="#f5e4c3" fill-opacity="1"><g transform="translate(284.656972, 677.677439)"><g><path d="M 74.46875 -476.171875 C 78.613281 -467.367188 78.953125 -457.738281 75.484375 -447.28125 C 72.023438 -436.820312 66.738281 -426.578125 59.625 -416.546875 C 52.507812 -406.523438 44.675781 -397.34375 36.125 -389 C 27.570312 -380.664062 20.285156 -374.210938 14.265625 -369.640625 C 24.234375 -341.203125 34.773438 -313.132812 45.890625 -285.4375 C 57.015625 -257.75 68.96875 -230.34375 81.75 -203.21875 C 88.5625 -188.78125 95.644531 -174.679688 103 -160.921875 C 110.351562 -147.171875 117.347656 -133.25 123.984375 -119.15625 C 126.972656 -112.820312 129.632812 -105.578125 131.96875 -97.421875 C 134.3125 -89.265625 135.5625 -81.132812 135.71875 -73.03125 C 135.882812 -64.9375 134.40625 -57.351562 131.28125 -50.28125 C 128.15625 -43.207031 122.71875 -37.847656 114.96875 -34.203125 C 105.8125 -29.878906 97.300781 -28.984375 89.4375 -31.515625 C 81.570312 -34.046875 74.394531 -38.300781 67.90625 -44.28125 C 61.414062 -50.269531 55.691406 -57.148438 50.734375 -64.921875 C 45.785156 -72.703125 41.734375 -79.941406 38.578125 -86.640625 C 27.898438 -107.441406 17.363281 -128.410156 6.96875 -149.546875 C -3.425781 -170.691406 -13.6875 -192.003906 -23.8125 -213.484375 C -32.28125 -231.453125 -40.5 -249.101562 -48.46875 -266.4375 C -56.4375 -283.78125 -64.65625 -301.4375 -73.125 -319.40625 C -77.71875 -316.375 -82.484375 -313.476562 -87.421875 -310.71875 C -92.367188 -307.957031 -97.476562 -305.335938 -102.75 -302.859375 C -106.988281 -300.859375 -112.75 -298.675781 -120.03125 -296.3125 C -127.3125 -293.957031 -134.660156 -292.425781 -142.078125 -291.71875 C -149.503906 -291.019531 -156.460938 -291.617188 -162.953125 -293.515625 C -169.441406 -295.410156 -174.179688 -299.53125 -177.171875 -305.875 C -182.148438 -316.4375 -182.367188 -327.628906 -177.828125 -339.453125 C -173.296875 -351.285156 -165.96875 -363.132812 -155.84375 -375 C -145.71875 -386.875 -133.773438 -398.53125 -120.015625 -409.96875 C -106.253906 -421.414062 -92.253906 -431.894531 -78.015625 -441.40625 C -63.773438 -450.925781 -50.472656 -459.242188 -38.109375 -466.359375 C -25.753906 -473.472656 -16.054688 -478.691406 -9.015625 -482.015625 C -2.316406 -485.171875 4.941406 -488.269531 12.765625 -491.3125 C 20.585938 -494.351562 28.425781 -496.21875 36.28125 -496.90625 C 44.132812 -497.601562 51.421875 -496.523438 58.140625 -493.671875 C 64.867188 -490.816406 70.3125 -484.984375 74.46875 -476.171875 Z M 74.46875 -476.171875 "/></g></g><g transform="translate(485.946988, 582.763569)"><g><path d="M 147.921875 -46.5 C 122.910156 -34.707031 101.910156 -28.785156 84.921875 -28.734375 C 67.941406 -28.679688 53.191406 -33.023438 40.671875 -41.765625 C 28.160156 -50.515625 17.210938 -63.007812 7.828125 -79.25 C -1.554688 -95.488281 -11.144531 -114 -20.9375 -134.78125 C -28.75 -151.332031 -36.066406 -168.222656 -42.890625 -185.453125 C -49.710938 -202.679688 -56.554688 -221.304688 -63.421875 -241.328125 C -68.347656 -239.003906 -72.175781 -237.085938 -74.90625 -235.578125 C -77.644531 -234.066406 -79.898438 -232.894531 -81.671875 -232.0625 C -92.929688 -226.75 -103.863281 -224.609375 -114.46875 -225.640625 C -125.070312 -226.671875 -132.78125 -232.289062 -137.59375 -242.5 C -140.582031 -248.84375 -140.859375 -255.601562 -138.421875 -262.78125 C -135.992188 -269.957031 -131.910156 -277.046875 -126.171875 -284.046875 C -120.441406 -291.054688 -113.757812 -297.648438 -106.125 -303.828125 C -98.5 -310.015625 -90.972656 -315.289062 -83.546875 -319.65625 C -88.203125 -329.519531 -92.648438 -340.769531 -96.890625 -353.40625 C -101.128906 -366.050781 -103.847656 -378.4375 -105.046875 -390.5625 C -106.242188 -402.6875 -105.332031 -413.765625 -102.3125 -423.796875 C -99.289062 -433.835938 -92.851562 -441.179688 -83 -445.828125 C -77.363281 -448.484375 -71.554688 -449.175781 -65.578125 -447.90625 C -59.597656 -446.632812 -53.992188 -444.109375 -48.765625 -440.328125 C -43.546875 -436.554688 -38.738281 -431.832031 -34.34375 -426.15625 C -29.945312 -420.476562 -26.335938 -414.648438 -23.515625 -408.671875 C -20.191406 -401.617188 -17.3125 -394.144531 -14.875 -386.25 C -12.445312 -378.351562 -10.066406 -368.285156 -7.734375 -356.046875 C -2.078125 -359.578125 1.765625 -361.925781 3.796875 -363.09375 C 5.828125 -364.257812 7.722656 -365.257812 9.484375 -366.09375 C 15.460938 -368.914062 21.960938 -371.335938 28.984375 -373.359375 C 36.003906 -375.378906 42.820312 -376.441406 49.4375 -376.546875 C 56.0625 -376.660156 62.085938 -375.519531 67.515625 -373.125 C 72.941406 -370.738281 76.984375 -366.726562 79.640625 -361.09375 C 82.628906 -354.75 82.734375 -347.90625 79.953125 -340.5625 C 77.179688 -333.226562 72.75 -325.972656 66.65625 -318.796875 C 60.570312 -311.628906 53.582031 -305 45.6875 -298.90625 C 37.789062 -292.8125 30.140625 -287.585938 22.734375 -283.234375 C 27.421875 -267.796875 32.1875 -253.789062 37.03125 -241.21875 C 41.882812 -228.65625 46.691406 -215.960938 51.453125 -203.140625 C 53.578125 -196.828125 55.828125 -190.460938 58.203125 -184.046875 C 60.578125 -177.628906 63.257812 -171.25 66.25 -164.90625 C 68.40625 -160.320312 71.113281 -155.03125 74.375 -149.03125 C 77.632812 -143.039062 81.648438 -137.726562 86.421875 -133.09375 C 91.191406 -128.457031 96.820312 -125.191406 103.3125 -123.296875 C 109.800781 -121.410156 117.09375 -122.378906 125.1875 -126.203125 C 130.125 -128.523438 135.023438 -131.367188 139.890625 -134.734375 C 144.753906 -138.109375 149.828125 -141.039062 155.109375 -143.53125 C 164.265625 -147.851562 172.363281 -147.796875 179.40625 -143.359375 C 186.445312 -138.929688 192.296875 -131.785156 196.953125 -121.921875 C 200.429688 -114.523438 201.253906 -107.054688 199.421875 -99.515625 C 197.597656 -91.984375 194.128906 -84.96875 189.015625 -78.46875 C 183.910156 -71.96875 177.632812 -65.882812 170.1875 -60.21875 C 162.738281 -54.5625 155.316406 -49.988281 147.921875 -46.5 Z M 147.921875 -46.5 "/></g></g></g></g></g><g clip-path="url(#0ba30958a9)"><path fill="#f5e4c3" d="M 151.152344 479.75 C 149.367188 479.789062 147.644531 479.9375 145.898438 480.335938 L 145.878906 505 C 145.902344 505.574219 146.070312 505.722656 146.46875 506.089844 C 147.984375 506.628906 149.570312 506.640625 151.152344 506.769531 Z M 208.070312 431.585938 C 212.269531 431.546875 212.433594 435.484375 212.4375 438.554688 L 212.449219 445.085938 C 212.460938 445.535156 212.566406 445.472656 212.941406 445.5625 C 218.738281 446.960938 223.554688 452.351562 225.738281 457.679688 C 227.042969 460.863281 225.386719 459.980469 230.34375 459.96875 L 250.046875 459.960938 C 252.152344 459.964844 254.085938 459.898438 256.121094 460.527344 C 259.785156 461.664062 263.671875 465.433594 264.273438 469.324219 C 264.558594 471.15625 263.871094 471.410156 265.617188 471.410156 C 267.765625 471.414062 270.359375 471.183594 272.4375 471.773438 C 275.46875 472.632812 278.683594 476.011719 278.78125 479.214844 L 278.792969 504.300781 C 278.789062 508.609375 278.074219 512.0625 273.660156 514.28125 C 271.082031 515.582031 267.753906 515.292969 264.9375 515.378906 L 264.871094 533.507812 C 264.421875 539.082031 259.214844 544.222656 253.777344 544.984375 C 252.015625 545.226562 250.109375 545.117188 248.332031 545.117188 L 240.648438 545.117188 C 240.304688 545.117188 239.171875 545.011719 238.9375 545.207031 L 238.929688 558.078125 L 269.390625 558.070312 C 274.601562 558.035156 276.402344 558.144531 276.421875 564.683594 L 276.4375 570.410156 L 284.191406 570.421875 C 285.859375 570.425781 287.609375 570.339844 289.257812 570.589844 C 298.359375 571.964844 305.503906 579.351562 307.355469 588.214844 C 307.652344 589.625 307.53125 591.246094 307.53125 592.683594 L 307.507812 651.457031 L 305.953125 651.457031 C 273.335938 651.457031 240.695312 651.5625 208.070312 651.558594 C 175.445312 651.5625 142.800781 651.457031 110.183594 651.457031 L 108.632812 651.457031 L 108.609375 592.683594 C 108.609375 591.246094 108.488281 589.625 108.78125 588.214844 C 110.632812 579.351562 117.78125 571.964844 126.878906 570.589844 C 128.527344 570.339844 130.28125 570.425781 131.945312 570.421875 L 139.703125 570.410156 L 139.714844 564.683594 C 139.738281 558.144531 141.535156 558.035156 146.75 558.070312 L 177.207031 558.078125 L 177.199219 545.207031 C 176.96875 545.011719 175.832031 545.117188 175.488281 545.117188 L 167.804688 545.117188 C 166.03125 545.117188 164.121094 545.226562 162.359375 544.984375 C 156.921875 544.222656 151.714844 539.082031 151.265625 533.507812 L 151.203125 515.378906 C 148.386719 515.292969 145.058594 515.582031 142.476562 514.28125 C 138.0625 512.0625 137.347656 508.609375 137.34375 504.300781 L 137.355469 479.214844 C 137.457031 476.011719 140.667969 472.632812 143.699219 471.773438 C 145.777344 471.183594 148.375 471.414062 150.523438 471.410156 C 152.265625 471.410156 151.578125 471.15625 151.863281 469.324219 C 152.46875 465.433594 156.355469 461.664062 160.015625 460.527344 C 162.050781 459.898438 163.988281 459.964844 166.089844 459.960938 L 185.796875 459.96875 C 190.75 459.980469 189.09375 460.863281 190.398438 457.679688 C 192.582031 452.351562 197.398438 446.960938 203.199219 445.5625 C 203.574219 445.472656 203.675781 445.535156 203.6875 445.085938 L 203.699219 438.554688 C 203.707031 435.484375 203.867188 431.546875 208.070312 431.585938 Z M 208.070312 642.980469 L 248.703125 642.984375 L 267.890625 642.976562 L 267.902344 566.792969 C 266.566406 566.636719 265.1875 566.691406 263.84375 566.6875 L 208.070312 566.683594 L 152.292969 566.6875 C 150.949219 566.691406 149.570312 566.636719 148.234375 566.792969 L 148.246094 642.976562 L 167.433594 642.984375 Z M 208.070312 558.074219 L 230.496094 558.085938 L 230.488281 545.121094 L 208.070312 545.109375 L 185.648438 545.121094 L 185.640625 558.085938 Z M 208.070312 536.402344 L 250.09375 536.414062 C 257.523438 536.421875 256.375 532.734375 256.378906 527.15625 L 256.289062 471.4375 C 256.230469 470.367188 254.902344 469.535156 254.042969 469.101562 L 253.917969 469.035156 C 252.914062 468.527344 251.226562 468.679688 250.117188 468.675781 L 245.101562 468.6875 L 171.035156 468.6875 L 166.023438 468.675781 C 164.914062 468.679688 163.226562 468.527344 162.21875 469.035156 L 162.09375 469.101562 C 161.238281 469.535156 159.910156 470.367188 159.847656 471.4375 L 159.757812 527.15625 C 159.761719 532.734375 158.613281 536.421875 166.042969 536.414062 Z M 208.070312 459.949219 L 209.78125 459.953125 L 217.472656 459.820312 C 217.148438 459.570312 216.992188 459.1875 216.84375 458.820312 C 215.671875 455.902344 211.429688 453.667969 208.070312 453.519531 C 204.707031 453.667969 200.46875 455.902344 199.296875 458.820312 C 199.148438 459.1875 198.992188 459.570312 198.664062 459.820312 L 206.355469 459.953125 Z M 185.035156 486.917969 C 173.085938 487.351562 172.558594 504.886719 184.699219 505.167969 C 196.828125 505.082031 197.632812 487.96875 185.035156 486.917969 Z M 208.070312 633.027344 L 242.59375 633.035156 C 243.8125 633.035156 245.191406 633.164062 246.390625 632.996094 C 251.261719 632.320312 250.261719 624.8125 246.347656 624.363281 C 245.128906 624.222656 243.78125 624.335938 242.550781 624.335938 L 208.757812 624.347656 L 207.378906 624.347656 L 173.585938 624.335938 C 172.355469 624.335938 171.007812 624.222656 169.789062 624.363281 C 165.875 624.8125 164.875 632.320312 169.746094 632.996094 C 170.945312 633.164062 172.324219 633.035156 173.546875 633.035156 Z M 169.898438 614.417969 L 208.070312 614.40625 L 246.242188 614.417969 C 250.773438 613.710938 249.925781 608.90625 249.925781 605.527344 L 249.953125 592.351562 C 249.984375 589.714844 249.566406 586.328125 246.042969 586.117188 C 241.933594 585.871094 237.695312 586.074219 233.574219 586.070312 L 208.070312 586.078125 L 182.5625 586.070312 C 178.441406 586.074219 174.203125 585.871094 170.09375 586.117188 C 166.570312 586.328125 166.152344 589.714844 166.1875 592.351562 L 166.214844 605.527344 C 166.214844 608.90625 165.363281 613.710938 169.898438 614.417969 Z M 208.070312 594.6875 L 174.816406 594.679688 C 174.617188 596.019531 174.800781 597.632812 174.800781 598.996094 L 174.621094 606.003906 C 176.960938 605.679688 179.550781 605.875 181.921875 605.875 L 208.070312 605.890625 L 234.214844 605.875 C 236.585938 605.875 239.175781 605.679688 241.515625 606.003906 L 241.335938 598.996094 C 241.339844 597.632812 241.519531 596.019531 241.320312 594.679688 Z M 191.316406 531.128906 C 193.355469 531.285156 195.441406 531.199219 197.484375 531.199219 L 218.652344 531.199219 C 220.695312 531.199219 222.785156 531.285156 224.824219 531.128906 C 230.242188 530.46875 229.671875 523.136719 224.792969 522.601562 C 223.574219 522.46875 222.28125 522.554688 221.050781 522.5625 L 208.070312 522.535156 L 195.085938 522.5625 C 193.859375 522.554688 192.5625 522.46875 191.34375 522.601562 C 186.464844 523.136719 185.898438 530.46875 191.316406 531.128906 Z M 183.800781 513.785156 C 185.230469 513.820312 186.675781 513.832031 188.089844 513.601562 C 194.929688 512.480469 202.007812 505.8125 202.566406 498.769531 C 203.429688 487.957031 196.714844 479.316406 185.707031 478.492188 L 185.613281 478.484375 C 181.097656 478.1875 176.292969 480.105469 172.941406 483.078125 C 161.359375 493.347656 167.996094 512.917969 183.800781 513.785156 Z M 132.5 642.972656 L 139.71875 642.964844 L 139.234375 578.898438 L 132.363281 578.910156 C 130.75 578.914062 129.035156 578.839844 127.445312 579.15625 C 122.523438 580.121094 118.324219 584.171875 117.429688 589.132812 C 117.019531 591.390625 117.167969 593.765625 117.167969 596.054688 L 117.710938 642.972656 Z M 283.636719 642.972656 L 298.425781 642.972656 L 298.96875 596.054688 C 298.96875 593.765625 299.117188 591.390625 298.707031 589.132812 C 297.8125 584.171875 293.613281 580.121094 288.695312 579.15625 C 287.105469 578.839844 285.390625 578.914062 283.773438 578.910156 L 276.90625 578.898438 L 276.417969 642.964844 Z M 232.335938 513.785156 C 248.140625 512.917969 254.777344 493.347656 243.199219 483.078125 C 239.84375 480.105469 235.042969 478.1875 230.527344 478.484375 L 230.429688 478.492188 C 219.421875 479.316406 212.707031 487.957031 213.570312 498.769531 C 214.132812 505.8125 221.210938 512.480469 228.050781 513.601562 C 229.460938 513.832031 230.910156 513.820312 232.335938 513.785156 Z M 231.101562 486.917969 C 218.503906 487.96875 219.308594 505.082031 231.4375 505.167969 C 243.578125 504.886719 243.054688 487.351562 231.101562 486.917969 Z M 264.984375 479.75 L 264.984375 506.769531 C 266.566406 506.640625 268.152344 506.628906 269.667969 506.089844 C 270.066406 505.722656 270.234375 505.574219 270.261719 505 L 270.238281 480.335938 C 268.492188 479.9375 266.773438 479.789062 264.984375 479.75 Z M 264.984375 479.75 " fill-opacity="1" fill-rule="evenodd"/></g></svg>