<svg xmlns="http://www.w3.org/2000/svg" xmlns:xlink="http://www.w3.org/1999/xlink" width="1080" zoomAndPan="magnify" viewBox="0 0 810 809.999993" height="1080" preserveAspectRatio="xMidYMid meet" version="1.0"><path fill="#dfdccb" d="M 766.59375 354.800781 L 417.453125 5.65625 C 417.015625 5.214844 416.558594 4.796875 416.078125 4.402344 C 415.601562 4.007812 415.101562 3.636719 414.585938 3.289062 C 414.070312 2.941406 413.539062 2.621094 412.992188 2.328125 C 412.445312 2.03125 411.886719 1.765625 411.3125 1.527344 C 410.738281 1.289062 410.15625 1.078125 409.558594 0.898438 C 408.964844 0.714844 408.363281 0.5625 407.753906 0.441406 C 407.144531 0.320312 406.53125 0.226562 405.914062 0.167969 C 405.296875 0.105469 404.675781 0.0742188 404.054688 0.0742188 C 403.433594 0.0742188 402.8125 0.105469 402.195312 0.167969 C 401.578125 0.226562 400.960938 0.320312 400.351562 0.441406 C 399.742188 0.5625 399.140625 0.714844 398.546875 0.898438 C 397.953125 1.078125 397.371094 1.289062 396.796875 1.527344 C 396.222656 1.765625 395.664062 2.03125 395.113281 2.328125 C 394.566406 2.621094 394.035156 2.941406 393.519531 3.289062 C 393.003906 3.636719 392.507812 4.007812 392.027344 4.402344 C 391.550781 4.796875 391.09375 5.214844 390.65625 5.65625 L 41.511719 354.800781 C 40.542969 355.796875 39.597656 356.8125 38.675781 357.855469 C 37.753906 358.898438 36.859375 359.960938 35.988281 361.046875 C 35.121094 362.132812 34.277344 363.238281 33.460938 364.367188 C 32.648438 365.492188 31.859375 366.636719 31.101562 367.804688 C 30.339844 368.96875 29.609375 370.152344 28.90625 371.351562 C 28.207031 372.550781 27.535156 373.769531 26.890625 375.003906 C 26.246094 376.234375 25.636719 377.484375 25.054688 378.746094 C 24.472656 380.011719 23.921875 381.285156 23.402344 382.578125 C 22.878906 383.867188 22.394531 385.167969 21.9375 386.484375 C 21.480469 387.796875 21.054688 389.121094 20.664062 390.453125 C 20.273438 391.789062 19.914062 393.132812 19.585938 394.484375 C 19.257812 395.835938 18.964844 397.195312 18.707031 398.5625 C 18.445312 399.925781 18.21875 401.300781 18.023438 402.675781 C 17.832031 404.054688 17.671875 405.433594 17.542969 406.820312 C 17.417969 408.203125 17.324219 409.59375 17.265625 410.980469 C 17.207031 412.371094 17.183594 413.761719 17.191406 415.152344 C 17.199219 416.542969 17.242188 417.933594 17.320312 419.320312 C 17.398438 420.710938 17.507812 422.097656 17.652344 423.480469 C 17.796875 424.863281 17.972656 426.242188 18.183594 427.617188 C 18.394531 428.992188 18.640625 430.359375 18.917969 431.722656 C 19.195312 433.085938 19.507812 434.441406 19.851562 435.789062 C 20.195312 437.136719 20.570312 438.472656 20.980469 439.804688 C 21.390625 441.132812 21.832031 442.449219 22.304688 443.757812 C 22.777344 445.066406 23.28125 446.363281 23.816406 447.644531 C 24.355469 448.929688 24.921875 450.199219 25.519531 451.453125 C 26.117188 452.707031 26.746094 453.949219 27.40625 455.175781 C 28.0625 456.398438 28.75 457.605469 29.46875 458.796875 C 30.1875 459.988281 30.933594 461.164062 31.707031 462.320312 C 32.480469 463.472656 33.285156 464.609375 34.113281 465.726562 C 34.941406 466.839844 35.800781 467.9375 36.683594 469.011719 C 37.566406 470.085938 38.476562 471.136719 39.410156 472.167969 C 40.34375 473.199219 41.300781 474.203125 42.285156 475.1875 C 43.269531 476.171875 44.277344 477.128906 45.304688 478.066406 C 46.335938 479 47.386719 479.90625 48.464844 480.792969 C 49.539062 481.675781 50.632812 482.53125 51.75 483.359375 C 52.863281 484.191406 54 484.992188 55.15625 485.765625 C 56.3125 486.542969 57.484375 487.289062 58.675781 488.003906 C 59.867188 488.722656 61.074219 489.410156 62.300781 490.070312 C 63.523438 490.726562 64.765625 491.355469 66.019531 491.953125 C 67.277344 492.550781 68.546875 493.121094 69.828125 493.65625 C 71.113281 494.191406 72.40625 494.695312 73.714844 495.171875 C 75.023438 495.644531 76.339844 496.085938 77.671875 496.492188 C 79 496.902344 80.339844 497.277344 81.6875 497.625 C 83.035156 497.96875 84.390625 498.277344 85.75 498.554688 C 87.113281 498.832031 88.484375 499.078125 89.859375 499.289062 C 91.234375 499.5 92.613281 499.679688 93.996094 499.824219 C 95.378906 499.964844 96.765625 500.078125 98.152344 500.152344 C 99.542969 500.230469 100.929688 500.273438 102.320312 500.28125 C 103.710938 500.289062 105.101562 500.265625 106.492188 500.207031 C 107.882812 500.148438 109.269531 500.054688 110.652344 499.929688 C 112.039062 499.804688 113.421875 499.644531 114.796875 499.449219 C 116.175781 499.257812 117.546875 499.027344 118.914062 498.769531 C 120.277344 498.507812 121.636719 498.214844 122.988281 497.886719 C 124.339844 497.5625 125.683594 497.203125 127.019531 496.808594 C 128.351562 496.417969 129.675781 495.996094 130.992188 495.539062 C 132.304688 495.082031 133.605469 494.59375 134.898438 494.074219 C 136.1875 493.554688 137.464844 493.003906 138.726562 492.421875 C 139.988281 491.839844 141.238281 491.226562 142.472656 490.582031 C 143.703125 489.941406 144.921875 489.269531 146.121094 488.566406 C 147.324219 487.863281 148.503906 487.132812 149.671875 486.375 C 150.835938 485.613281 151.980469 484.828125 153.109375 484.011719 C 154.234375 483.195312 155.339844 482.351562 156.425781 481.484375 C 157.511719 480.613281 158.574219 479.71875 159.617188 478.796875 C 160.660156 477.878906 161.679688 476.929688 162.675781 475.960938 L 404.054688 234.394531 L 645.433594 475.960938 C 646.429688 476.929688 647.449219 477.878906 648.492188 478.796875 C 649.53125 479.71875 650.597656 480.613281 651.683594 481.484375 C 652.765625 482.351562 653.875 483.195312 655 484.011719 C 656.125 484.828125 657.273438 485.613281 658.4375 486.375 C 659.601562 487.132812 660.785156 487.863281 661.984375 488.566406 C 663.1875 489.269531 664.402344 489.941406 665.636719 490.582031 C 666.871094 491.226562 668.117188 491.839844 669.382812 492.421875 C 670.644531 493.003906 671.921875 493.554688 673.210938 494.074219 C 674.5 494.59375 675.804688 495.082031 677.117188 495.539062 C 678.429688 495.992188 679.753906 496.417969 681.089844 496.808594 C 682.421875 497.203125 683.765625 497.5625 685.117188 497.886719 C 686.46875 498.214844 687.828125 498.507812 689.195312 498.769531 C 690.5625 499.027344 691.933594 499.253906 693.3125 499.449219 C 694.6875 499.644531 696.070312 499.804688 697.453125 499.929688 C 698.839844 500.054688 700.226562 500.148438 701.617188 500.207031 C 703.003906 500.265625 704.394531 500.289062 705.785156 500.28125 C 707.175781 500.273438 708.566406 500.230469 709.957031 500.152344 C 711.34375 500.078125 712.730469 499.964844 714.113281 499.824219 C 715.496094 499.679688 716.875 499.5 718.25 499.289062 C 719.625 499.078125 720.992188 498.832031 722.355469 498.554688 C 723.71875 498.277344 725.074219 497.96875 726.421875 497.625 C 727.769531 497.277344 729.109375 496.902344 730.4375 496.492188 C 731.765625 496.085938 733.085938 495.644531 734.394531 495.171875 C 735.699219 494.695312 736.996094 494.191406 738.277344 493.65625 C 739.5625 493.121094 740.832031 492.550781 742.085938 491.953125 C 743.34375 491.355469 744.582031 490.726562 745.808594 490.070312 C 747.03125 489.410156 748.242188 488.722656 749.433594 488.003906 C 750.625 487.289062 751.796875 486.542969 752.953125 485.765625 C 754.109375 484.992188 755.242188 484.191406 756.359375 483.359375 C 757.476562 482.53125 758.570312 481.675781 759.644531 480.792969 C 760.71875 479.90625 761.773438 479 762.800781 478.066406 C 763.832031 477.128906 764.839844 476.171875 765.820312 475.1875 C 766.804688 474.203125 767.765625 473.199219 768.699219 472.167969 C 769.632812 471.136719 770.542969 470.085938 771.425781 469.011719 C 772.308594 467.9375 773.164062 466.839844 773.996094 465.726562 C 774.824219 464.609375 775.625 463.472656 776.402344 462.320312 C 777.175781 461.164062 777.921875 459.988281 778.640625 458.796875 C 779.355469 457.605469 780.042969 456.398438 780.703125 455.171875 C 781.363281 453.949219 781.988281 452.707031 782.589844 451.453125 C 783.1875 450.199219 783.753906 448.929688 784.289062 447.644531 C 784.828125 446.363281 785.332031 445.066406 785.804688 443.757812 C 786.277344 442.449219 786.71875 441.132812 787.128906 439.804688 C 787.535156 438.472656 787.914062 437.136719 788.257812 435.789062 C 788.601562 434.441406 788.910156 433.085938 789.191406 431.722656 C 789.46875 430.359375 789.710938 428.992188 789.921875 427.617188 C 790.136719 426.242188 790.3125 424.863281 790.457031 423.480469 C 790.601562 422.097656 790.710938 420.710938 790.789062 419.320312 C 790.863281 417.933594 790.90625 416.542969 790.914062 415.152344 C 790.925781 413.761719 790.898438 412.371094 790.839844 410.980469 C 790.78125 409.59375 790.691406 408.203125 790.5625 406.820312 C 790.4375 405.433594 790.277344 404.054688 790.082031 402.675781 C 789.890625 401.300781 789.664062 399.925781 789.402344 398.5625 C 789.140625 397.195312 788.847656 395.835938 788.523438 394.484375 C 788.195312 393.132812 787.835938 391.789062 787.445312 390.453125 C 787.050781 389.121094 786.628906 387.796875 786.171875 386.484375 C 785.714844 385.167969 785.226562 383.867188 784.707031 382.578125 C 784.1875 381.285156 783.636719 380.011719 783.054688 378.746094 C 782.472656 377.484375 781.859375 376.234375 781.21875 375.003906 C 780.574219 373.769531 779.902344 372.550781 779.199219 371.351562 C 778.5 370.152344 777.765625 368.96875 777.007812 367.804688 C 776.25 366.636719 775.460938 365.492188 774.644531 364.367188 C 773.828125 363.238281 772.988281 362.132812 772.117188 361.046875 C 771.25 359.960938 770.355469 358.898438 769.433594 357.855469 C 768.511719 356.8125 767.566406 355.796875 766.59375 354.800781 Z M 766.59375 354.800781 " fill-opacity="1" fill-rule="nonzero"/><path fill="#dfdccb" d="M 417.453125 307.617188 C 417.015625 307.175781 416.558594 306.757812 416.078125 306.363281 C 415.601562 305.964844 415.101562 305.59375 414.585938 305.25 C 414.070312 304.902344 413.539062 304.582031 412.992188 304.285156 C 412.445312 303.992188 411.886719 303.726562 411.3125 303.488281 C 410.738281 303.246094 410.15625 303.039062 409.558594 302.855469 C 408.964844 302.675781 408.363281 302.523438 407.753906 302.402344 C 407.144531 302.28125 406.53125 302.1875 405.914062 302.128906 C 405.296875 302.066406 404.675781 302.035156 404.054688 302.035156 C 403.433594 302.035156 402.8125 302.066406 402.195312 302.128906 C 401.578125 302.1875 400.960938 302.28125 400.351562 302.402344 C 399.742188 302.523438 399.140625 302.675781 398.546875 302.855469 C 397.953125 303.039062 397.371094 303.246094 396.796875 303.488281 C 396.222656 303.726562 395.664062 303.992188 395.113281 304.285156 C 394.566406 304.582031 394.035156 304.902344 393.519531 305.25 C 393.003906 305.59375 392.507812 305.964844 392.027344 306.363281 C 391.550781 306.757812 391.09375 307.175781 390.65625 307.617188 L 41.511719 656.757812 C 40.542969 657.753906 39.597656 658.773438 38.675781 659.816406 C 37.753906 660.859375 36.859375 661.921875 35.988281 663.007812 C 35.121094 664.09375 34.277344 665.199219 33.464844 666.324219 C 32.648438 667.453125 31.859375 668.597656 31.101562 669.761719 C 30.339844 670.929688 29.609375 672.109375 28.90625 673.3125 C 28.207031 674.511719 27.535156 675.730469 26.890625 676.960938 C 26.25 678.195312 25.636719 679.445312 25.054688 680.707031 C 24.472656 681.96875 23.921875 683.246094 23.402344 684.535156 C 22.882812 685.828125 22.394531 687.128906 21.9375 688.441406 C 21.480469 689.757812 21.054688 691.082031 20.664062 692.414062 C 20.273438 693.75 19.914062 695.09375 19.585938 696.445312 C 19.261719 697.796875 18.964844 699.15625 18.707031 700.519531 C 18.445312 701.886719 18.21875 703.257812 18.023438 704.636719 C 17.832031 706.015625 17.671875 707.394531 17.546875 708.78125 C 17.417969 710.164062 17.328125 711.550781 17.269531 712.941406 C 17.210938 714.332031 17.183594 715.722656 17.191406 717.113281 C 17.203125 718.503906 17.246094 719.890625 17.320312 721.28125 C 17.398438 722.667969 17.507812 724.054688 17.652344 725.4375 C 17.796875 726.820312 17.972656 728.199219 18.183594 729.574219 C 18.398438 730.949219 18.640625 732.320312 18.917969 733.683594 C 19.195312 735.042969 19.507812 736.398438 19.851562 737.746094 C 20.195312 739.09375 20.570312 740.433594 20.980469 741.761719 C 21.390625 743.089844 21.832031 744.410156 22.304688 745.71875 C 22.777344 747.027344 23.28125 748.320312 23.820312 749.605469 C 24.355469 750.886719 24.921875 752.15625 25.519531 753.414062 C 26.117188 754.667969 26.746094 755.910156 27.40625 757.132812 C 28.066406 758.359375 28.753906 759.566406 29.46875 760.757812 C 30.1875 761.949219 30.933594 763.121094 31.707031 764.277344 C 32.480469 765.433594 33.285156 766.566406 34.113281 767.683594 C 34.945312 768.800781 35.800781 769.894531 36.683594 770.96875 C 37.566406 772.042969 38.476562 773.097656 39.410156 774.125 C 40.34375 775.15625 41.304688 776.164062 42.285156 777.148438 C 43.269531 778.128906 44.277344 779.089844 45.308594 780.023438 C 46.335938 780.957031 47.390625 781.867188 48.464844 782.75 C 49.539062 783.632812 50.632812 784.488281 51.75 785.320312 C 52.867188 786.148438 54 786.953125 55.15625 787.726562 C 56.3125 788.5 57.484375 789.246094 58.675781 789.964844 C 59.867188 790.679688 61.074219 791.371094 62.300781 792.027344 C 63.527344 792.6875 64.765625 793.316406 66.019531 793.914062 C 67.277344 794.511719 68.546875 795.078125 69.828125 795.613281 C 71.113281 796.152344 72.410156 796.65625 73.714844 797.128906 C 75.023438 797.601562 76.34375 798.042969 77.671875 798.453125 C 79 798.863281 80.339844 799.238281 81.6875 799.582031 C 83.035156 799.925781 84.390625 800.238281 85.753906 800.515625 C 87.113281 800.792969 88.484375 801.039062 89.859375 801.25 C 91.234375 801.460938 92.613281 801.636719 93.996094 801.78125 C 95.378906 801.925781 96.765625 802.035156 98.152344 802.113281 C 99.542969 802.1875 100.929688 802.230469 102.320312 802.242188 C 103.710938 802.25 105.101562 802.226562 106.492188 802.167969 C 107.882812 802.105469 109.269531 802.015625 110.652344 801.886719 C 112.039062 801.761719 113.421875 801.601562 114.796875 801.410156 C 116.175781 801.214844 117.546875 800.988281 118.914062 800.726562 C 120.277344 800.46875 121.636719 800.175781 122.988281 799.847656 C 124.339844 799.519531 125.683594 799.160156 127.019531 798.769531 C 128.355469 798.378906 129.675781 797.953125 130.992188 797.496094 C 132.304688 797.039062 133.605469 796.550781 134.898438 796.03125 C 136.1875 795.511719 137.464844 794.960938 138.726562 794.378906 C 139.988281 793.796875 141.238281 793.1875 142.472656 792.542969 C 143.703125 791.898438 144.921875 791.226562 146.121094 790.527344 C 147.324219 789.824219 148.503906 789.09375 149.671875 788.332031 C 150.835938 787.574219 151.980469 786.785156 153.109375 785.972656 C 154.234375 785.15625 155.339844 784.3125 156.425781 783.445312 C 157.511719 782.574219 158.574219 781.679688 159.617188 780.757812 C 160.660156 779.835938 161.679688 778.890625 162.675781 777.921875 L 404.054688 536.351562 L 645.433594 777.921875 C 646.429688 778.890625 647.449219 779.835938 648.492188 780.757812 C 649.53125 781.679688 650.597656 782.574219 651.683594 783.445312 C 652.765625 784.3125 653.875 785.15625 655 785.972656 C 656.128906 786.785156 657.273438 787.574219 658.4375 788.332031 C 659.601562 789.09375 660.785156 789.824219 661.984375 790.527344 C 663.1875 791.226562 664.402344 791.898438 665.636719 792.542969 C 666.871094 793.1875 668.117188 793.796875 669.382812 794.378906 C 670.644531 794.960938 671.921875 795.511719 673.210938 796.03125 C 674.5 796.550781 675.804688 797.039062 677.117188 797.496094 C 678.429688 797.953125 679.753906 798.378906 681.089844 798.769531 C 682.421875 799.160156 683.765625 799.519531 685.117188 799.847656 C 686.46875 800.175781 687.828125 800.46875 689.195312 800.726562 C 690.5625 800.988281 691.933594 801.214844 693.3125 801.410156 C 694.6875 801.601562 696.070312 801.761719 697.453125 801.886719 C 698.839844 802.015625 700.226562 802.105469 701.617188 802.167969 C 703.003906 802.226562 704.394531 802.25 705.785156 802.242188 C 707.175781 802.230469 708.566406 802.1875 709.957031 802.113281 C 711.34375 802.035156 712.730469 801.925781 714.113281 801.78125 C 715.496094 801.636719 716.875 801.460938 718.25 801.25 C 719.625 801.039062 720.992188 800.792969 722.355469 800.515625 C 723.71875 800.238281 725.074219 799.925781 726.421875 799.582031 C 727.769531 799.238281 729.105469 798.863281 730.4375 798.453125 C 731.765625 798.042969 733.085938 797.601562 734.390625 797.128906 C 735.699219 796.65625 736.996094 796.152344 738.277344 795.613281 C 739.5625 795.078125 740.832031 794.511719 742.085938 793.914062 C 743.34375 793.316406 744.582031 792.6875 745.808594 792.027344 C 747.03125 791.371094 748.242188 790.679688 749.433594 789.964844 C 750.625 789.246094 751.796875 788.5 752.953125 787.726562 C 754.105469 786.953125 755.242188 786.148438 756.359375 785.320312 C 757.476562 784.488281 758.570312 783.632812 759.644531 782.75 C 760.71875 781.867188 761.769531 780.957031 762.800781 780.023438 C 763.832031 779.089844 764.835938 778.128906 765.820312 777.148438 C 766.804688 776.164062 767.761719 775.15625 768.699219 774.125 C 769.632812 773.097656 770.542969 772.042969 771.425781 770.96875 C 772.308594 769.894531 773.164062 768.800781 773.992188 767.683594 C 774.824219 766.566406 775.625 765.433594 776.398438 764.277344 C 777.175781 763.121094 777.921875 761.949219 778.636719 760.757812 C 779.355469 759.566406 780.042969 758.359375 780.703125 757.132812 C 781.359375 755.90625 781.988281 754.667969 782.585938 753.414062 C 783.183594 752.15625 783.753906 750.886719 784.289062 749.605469 C 784.824219 748.320312 785.328125 747.027344 785.804688 745.71875 C 786.277344 744.410156 786.71875 743.089844 787.125 741.761719 C 787.535156 740.433594 787.914062 739.09375 788.257812 737.746094 C 788.601562 736.398438 788.910156 735.042969 789.1875 733.683594 C 789.46875 732.320312 789.710938 730.949219 789.921875 729.574219 C 790.132812 728.199219 790.3125 726.820312 790.457031 725.4375 C 790.601562 724.054688 790.710938 722.667969 790.785156 721.28125 C 790.863281 719.890625 790.90625 718.503906 790.914062 717.113281 C 790.925781 715.722656 790.898438 714.332031 790.839844 712.941406 C 790.78125 711.550781 790.6875 710.164062 790.5625 708.78125 C 790.4375 707.394531 790.277344 706.015625 790.082031 704.636719 C 789.890625 703.257812 789.664062 701.886719 789.402344 700.519531 C 789.140625 699.15625 788.847656 697.796875 788.523438 696.445312 C 788.195312 695.09375 787.835938 693.75 787.445312 692.414062 C 787.050781 691.082031 786.628906 689.757812 786.171875 688.441406 C 785.714844 687.128906 785.226562 685.828125 784.707031 684.535156 C 784.1875 683.246094 783.636719 681.96875 783.054688 680.707031 C 782.472656 679.445312 781.859375 678.195312 781.21875 676.960938 C 780.574219 675.730469 779.902344 674.511719 779.199219 673.3125 C 778.496094 672.109375 777.765625 670.929688 777.007812 669.761719 C 776.246094 668.597656 775.460938 667.453125 774.644531 666.324219 C 773.828125 665.199219 772.988281 664.09375 772.117188 663.007812 C 771.25 661.921875 770.355469 660.859375 769.433594 659.816406 C 768.511719 658.773438 767.566406 657.753906 766.59375 656.757812 Z M 417.453125 307.617188 " fill-opacity="1" fill-rule="nonzero"/></svg>